<?xml version="1.0" encoding="utf-8"?>
<!-- Generator: Adobe Illustrator 25.0.1, SVG Export Plug-In . SVG Version: 6.00 Build 0)  -->
<svg version="1.1" id="Layer_1" xmlns="http://www.w3.org/2000/svg" xmlns:xlink="http://www.w3.org/1999/xlink" x="0px" y="0px"
	 viewBox="0 0 1671.9 715.3" style="enable-background:new 0 0 1671.9 715.3;" xml:space="preserve">
<style type="text/css">
	.st0{fill:#008000;}
	.st1{fill:none;stroke:#C7DA2C;stroke-width:3;stroke-miterlimit:10;}
</style>
<path class="st0" d="M82.9,0l1589,0v288L600.8,654.3c-111.6,44.9-238.7-7.5-286.4-117.9L82.9,0z"/>
<path class="st1" d="M1682,289L590.8,675.3c-111.6,44.9-238.7-7.5-286.4-117.9L53-9"/>
<path class="st1" d="M1699.1,288.3c-16,5.7-31.9,11.5-47.9,17.2c-42,15.1-84,30.2-126,45.2c-59.3,21.3-118.6,42.6-177.9,63.9
	c-67.8,24.3-135.6,48.7-203.5,73c-67.6,24.3-135.1,48.5-202.7,72.8c-112.6,40.4-225.2,80.8-337.8,121.3
	c-41.2,14.8-81.9,23.9-125.9,17.9c-76.1-10.4-148.4-56.8-182.5-126.7L-2.2-21.5"/>
</svg>
