<svg width="203" height="203" viewBox="0 0 203 203" fill="none" xmlns="http://www.w3.org/2000/svg">
<path d="M201.811 185.951C202.604 186.744 203 187.934 203 189.123C203 190.709 202.604 191.898 201.811 192.691L192.691 201.414C191.502 202.604 190.313 203 189.123 203C187.537 203 186.744 202.604 185.951 201.414L137.58 153.439C136.787 152.646 136.391 151.457 136.391 150.268V144.717C128.857 151.061 120.531 156.215 111.412 159.783C101.896 163.352 92.3809 164.937 82.4687 164.937C67.4023 164.937 53.5254 161.369 40.8379 153.836C28.1504 146.699 18.2383 136.787 11.1016 124.1C3.56836 111.412 0 97.5352 0 82.4687C0 67.4023 3.56836 53.9219 11.1016 41.2344C18.2383 28.5469 28.1504 18.6348 40.8379 11.1016C53.5254 3.96484 67.4023 0 82.4687 0C97.5352 0 111.016 3.96484 123.703 11.1016C136.391 18.6348 146.303 28.5469 153.836 41.2344C160.973 53.9219 164.937 67.4023 164.937 82.4687C164.937 92.7773 162.955 102.293 159.387 111.412C155.818 120.928 151.061 129.254 144.717 136.391H150.268C151.457 136.391 152.646 136.787 153.439 137.58L201.811 185.951ZM82.4687 145.906C93.5703 145.906 104.275 143.131 114.187 137.58C123.703 132.029 131.633 124.1 137.184 114.187C142.734 104.672 145.906 93.9668 145.906 82.4687C145.906 71.3672 142.734 60.6621 137.184 50.75C131.633 41.2344 123.703 33.3047 114.187 27.7539C104.275 22.2031 93.5703 19.0312 82.4687 19.0312C70.9707 19.0312 60.2656 22.2031 50.75 27.7539C40.8379 33.3047 32.9082 41.2344 27.3574 50.75C21.8066 60.6621 19.0312 71.3672 19.0312 82.4687C19.0312 93.9668 21.8066 104.672 27.3574 114.187C32.9082 124.1 40.8379 132.029 50.75 137.58C60.2656 143.131 70.9707 145.906 82.4687 145.906Z" fill="#6EBB49"/>
</svg>
