<svg xmlns="http://www.w3.org/2000/svg" xmlns:xlink="http://www.w3.org/1999/xlink" width="1920" height="452" viewBox="0 0 1920 452">
  <defs>
    <clipPath id="clip-path">
      <rect id="Rectangle_4055" data-name="Rectangle 4055" width="1920" height="452" transform="translate(0 3767)" fill="#fff"/>
    </clipPath>
    <clipPath id="clip-path-2">
      <path id="Path_17065" data-name="Path 17065" d="M5240.108,3383.788c421.286,501.008,937.958,29.384,1311.066-44.7,422.385-83.864,619.665,150.472,946.315-313s350.793-1336.914-43.614-1581.836c-424.434-263.573-755.238,121.212-1380.419-139.014-731.562-304.5-1312.7-351.33-1380.422,165.492C4599.812,2182.079,4972.934,3066.052,5240.108,3383.788Z" transform="matrix(0.998, -0.07, 0.07, 0.998, -5024.258, -1160.807)" fill="#fff"/>
    </clipPath>
  </defs>
  <g id="bg-shape-bottom" transform="translate(0 -3767)" clip-path="url(#clip-path)">
    <g id="Group_4876" data-name="Group 4876">
      <g id="Group_4362" data-name="Group 4362" transform="matrix(0.995, 0.105, -0.105, 0.995, 134.992, 4193.948)" clip-path="url(#clip-path-2)" style="isolation: isolate">
        <g id="Group_4358" data-name="Group 4358" transform="translate(-1581.064 -758.428)">
          <g id="Group_4357" data-name="Group 4357">
            <rect id="Rectangle_2737" data-name="Rectangle 2737" width="5964.943" height="3833.717" fill="#fff"/>
            <g id="Group_3970" data-name="Group 3970" transform="translate(1568.444 2887.819)" opacity="0.1">
              <g id="Group_3958" data-name="Group 3958" transform="translate(0 61.873)">
                <rect id="Rectangle_2738" data-name="Rectangle 2738" width="750.139" height="3.07" fill="#fff"/>
              </g>
              <g id="Group_3959" data-name="Group 3959" transform="translate(420.074 106.364)">
                <rect id="Rectangle_2739" data-name="Rectangle 2739" width="1062.511" height="3.07" fill="#fff"/>
              </g>
              <g id="Group_3960" data-name="Group 3960">
                <rect id="Rectangle_2740" data-name="Rectangle 2740" width="349.58" height="3.07" fill="#fff"/>
              </g>
              <g id="Group_3961" data-name="Group 3961" transform="translate(1004.781 20.782)">
                <rect id="Rectangle_2741" data-name="Rectangle 2741" width="534.339" height="3.07" fill="#fff"/>
              </g>
              <g id="Group_3962" data-name="Group 3962" transform="translate(1938.57 20.782)">
                <rect id="Rectangle_2742" data-name="Rectangle 2742" width="373.47" height="3.07" fill="#fff"/>
              </g>
              <g id="Group_3963" data-name="Group 3963" transform="translate(1653.552 136.116)">
                <rect id="Rectangle_2743" data-name="Rectangle 2743" width="549.603" height="3.07" fill="#fff"/>
              </g>
              <g id="Group_3964" data-name="Group 3964" transform="translate(232.642 225.878)">
                <rect id="Rectangle_2744" data-name="Rectangle 2744" width="858.824" height="3.07" fill="#fff"/>
              </g>
              <g id="Group_3965" data-name="Group 3965" transform="translate(0 268.103)">
                <rect id="Rectangle_2745" data-name="Rectangle 2745" width="365.199" height="3.07" fill="#fff"/>
              </g>
              <g id="Group_3966" data-name="Group 3966" transform="translate(90.53 416.591)">
                <rect id="Rectangle_2746" data-name="Rectangle 2746" width="602.507" height="3.07" fill="#fff"/>
              </g>
              <g id="Group_3967" data-name="Group 3967" transform="translate(541.198 305.225)">
                <rect id="Rectangle_2747" data-name="Rectangle 2747" width="1291.773" height="3.07" fill="#fff"/>
              </g>
              <g id="Group_3968" data-name="Group 3968" transform="translate(1389.309 243.356)">
                <rect id="Rectangle_2748" data-name="Rectangle 2748" width="922.732" height="3.07" fill="#fff"/>
              </g>
              <g id="Group_3969" data-name="Group 3969" transform="translate(1710.812 391.567)">
                <rect id="Rectangle_2749" data-name="Rectangle 2749" width="601.229" height="3.07" fill="#fff"/>
              </g>
            </g>
            <path id="Path_16894" data-name="Path 16894" d="M5739.756,1646.409a26.572,26.572,0,0,0-6.63-.865,26.3,26.3,0,0,0-10.887,2.336c-.5-8.8-8.065-15.785-17.36-15.785a17.173,17.173,0,0,0-17.229,14.424,13.824,13.824,0,0,0-7.819-2.4,13.46,13.46,0,0,0-12.863,9.009,20.049,20.049,0,0,0-28.4-1.439,6.229,6.229,0,0,0-12.041.012,15.487,15.487,0,0,0-5.191-.9,15.293,15.293,0,0,0-10.426,4.05,30.32,30.32,0,0,0-28.358-18.757,31.707,31.707,0,0,0-5.775.533,12.052,12.052,0,0,0-12.271-11.44,12.178,12.178,0,0,0-12,9.251,29.283,29.283,0,0,0-10.262-1.846,28.344,28.344,0,0,0-26.079,16.594,10.4,10.4,0,0,0-7.957-3.638,10.168,10.168,0,0,0-9.91,7.376,15.047,15.047,0,0,0-6.885-1.618l-.195.015a11.623,11.623,0,0,0,.3-2.564,12.047,12.047,0,0,0-12.288-11.786,12.51,12.51,0,0,0-8.552,3.333,28.838,28.838,0,0,0-19.749-7.71,28.375,28.375,0,0,0-25.768,15.932,23.162,23.162,0,0,0-40.909,3.7,17.589,17.589,0,0,0-19.2-1.089,34.129,34.129,0,0,0-30.671-18.543,34.8,34.8,0,0,0-20.493,6.592,23.207,23.207,0,0,0-41.842,1.744,47.367,47.367,0,0,0-79.681,3.267,28.629,28.629,0,0,0-23.2-11.6c-13.148,0-24.2,8.6-27.376,20.257a26,26,0,0,0-18.181-7.3,26.3,26.3,0,0,0-10.887,2.336c-.5-8.8-8.066-15.785-17.362-15.785a17.176,17.176,0,0,0-17.229,14.424,13.81,13.81,0,0,0-7.814-2.4,13.46,13.46,0,0,0-12.867,9.009,20.049,20.049,0,0,0-28.4-1.439,6.229,6.229,0,0,0-12.041.012,15.486,15.486,0,0,0-5.187-.9,15.27,15.27,0,0,0-10.424,4.05,30.337,30.337,0,0,0-28.364-18.757,30.658,30.658,0,0,0-25.3,13.044,13.686,13.686,0,0,0-10.662-5.018,13.4,13.4,0,0,0-13.138,9.98,25.916,25.916,0,0,0-19.375-8.553,26.689,26.689,0,0,0-4.195.336,17.213,17.213,0,0,0-17.127-13.784,17.746,17.746,0,0,0-11.859,4.5,44.7,44.7,0,0,0-63.668.5c0-.041.007-.081.007-.125a12.043,12.043,0,0,0-12.288-11.782,12.185,12.185,0,0,0-12,9.251,29.248,29.248,0,0,0-10.258-1.846,28.349,28.349,0,0,0-26.082,16.594,10.388,10.388,0,0,0-7.956-3.638,10.174,10.174,0,0,0-9.912,7.376,14.9,14.9,0,0,0-6.781-1.618l-.3.015a11.228,11.228,0,0,0,.3-2.564,12.043,12.043,0,0,0-12.287-11.786,12.509,12.509,0,0,0-8.551,3.333,28.832,28.832,0,0,0-19.745-7.71,28.373,28.373,0,0,0-25.769,15.932,23.162,23.162,0,0,0-40.908,3.7,17.589,17.589,0,0,0-19.2-1.089,34.131,34.131,0,0,0-30.676-18.543,34.792,34.792,0,0,0-20.487,6.592,23.21,23.21,0,0,0-41.845,1.744,46.815,46.815,0,0,0-38.826-20.187c-23.106,0-42.257,16.218-45.767,37.429h-.581v20.758h1321.94Zm-940.279,3.285c-.2-.478-.409-.945-.634-1.409a12.511,12.511,0,0,0,1.494-.511C4800.034,1648.406,4799.749,1649.047,4799.477,1649.694Z" transform="translate(-3799.81 1111.976)" fill="#fff"/>
            <path id="Path_16895" data-name="Path 16895" d="M5160.726,1643.1a19.609,19.609,0,0,0-3.741,6.507c-2.074-4.484-5.841-7.5-10.167-7.5-5.117,0-9.464,4.212-11.126,10.1a7.668,7.668,0,0,0-5.43-2.413,7.384,7.384,0,0,0-4.563,1.648c-2.848-7.725-8.928-13.059-15.967-13.059a15.2,15.2,0,0,0-10.666,4.642c-1.929-5.139-5.983-8.689-10.683-8.689-5.071,0-9.388,4.12-11.1,9.917-4.3-8.556-11.747-14.214-20.209-14.214-9.2,0-17.2,6.685-21.269,16.513-2.66-4.937-7.072-8.17-12.072-8.17-6.844,0-12.594,6.058-14.249,14.266a11.979,11.979,0,0,0-9.464-5.143,10.794,10.794,0,0,0-5.666,1.644c-.257-6.191-4.2-11.113-9.038-11.113-4.583,0-8.363,4.421-8.966,10.153a5.989,5.989,0,0,0-4.068-1.688c-3.136,0-5.794,2.663-6.7,6.341a9.41,9.41,0,0,0-7.755-4.682,9.071,9.071,0,0,0-7.026,3.671c-.318-1.861-1.6-3.255-3.133-3.255s-2.816,1.394-3.134,3.262a6.213,6.213,0,0,0-2.7-.636,6.985,6.985,0,0,0-5.425,2.855c-2.265-7.721-8.02-13.206-14.763-13.206-5.5,0-10.341,3.649-13.172,9.181a6.608,6.608,0,0,0-5.546-3.531c-3.33,0-6.108,3-6.839,7.026-2.437-3.686-6.051-6.022-10.085-6.022a10.522,10.522,0,0,0-2.185.236c-.745-5.51-4.45-9.7-8.914-9.7a8.043,8.043,0,0,0-6.171,3.167c-4.123-5.665-9.962-9.208-16.443-9.208-6.611,0-12.566,3.687-16.7,9.557l0-.088c0-4.583-2.864-8.3-6.4-8.3-3.061,0-5.614,2.792-6.242,6.519a11.775,11.775,0,0,0-5.345-1.3c-6.1,0-11.34,4.819-13.572,11.687a4.982,4.982,0,0,0-4.143-2.565c-2.483,0-4.567,2.207-5.159,5.195a6.227,6.227,0,0,0-3.58-1.141l-.1.011a10.63,10.63,0,0,0,.155-1.806c0-4.584-2.864-8.3-6.4-8.3a5.722,5.722,0,0,0-4.45,2.347,13.192,13.192,0,0,0-10.28-5.43c-5.965,0-11.1,4.6-13.414,11.219-2.069-4.484-5.843-7.5-10.167-7.5-5.114,0-9.459,4.212-11.127,10.1a7.651,7.651,0,0,0-5.427-2.413,7.4,7.4,0,0,0-4.566,1.648c-2.849-7.725-8.925-13.059-15.963-13.059a15.186,15.186,0,0,0-10.666,4.642c-1.932-5.139-5.982-8.689-10.686-8.689-5.067,0-9.382,4.123-11.1,9.917-4.3-8.556-11.744-14.214-20.206-14.214-12.028,0-22,11.419-23.824,26.354h-.3v14.615h528.089ZM4831.3,1650.43c-.1-.335-.215-.666-.328-.989a5.706,5.706,0,0,0,.775-.361Q4831.511,1649.747,4831.3,1650.43Z" transform="translate(-3220.78 1136.903)" fill="#fff"/>
            <path id="Path_16906" data-name="Path 16906" d="M5709.415,1645.994a21.389,21.389,0,0,0-10.243,10.392c-1.39-4.786-4.887-8.192-9-8.192-3.814,0-7.094,2.932-8.663,7.181a12.184,12.184,0,0,0-8.643-3.837c-5.706,0-10.632,4.407-12.942,10.789a5.926,5.926,0,0,0-3.7-1.361,6.167,6.167,0,0,0-4.4,1.994c-1.35-4.867-4.87-8.346-9.017-8.346-3.5,0-6.561,2.49-8.241,6.195-1.878-5.466-6.039-9.27-10.873-9.27a10.64,10.64,0,0,0-8.333,4.484,4.613,4.613,0,0,0-3.607-1.939c-2.863,0-5.184,3.072-5.184,6.861,0,.512.05,1.012.085,1.49l-.085-.008a4.938,4.938,0,0,0-2.86.943c-.479-2.469-2.165-4.293-4.179-4.293a4.031,4.031,0,0,0-3.359,2.119c-1.812-5.672-6.054-9.657-11-9.657a9.4,9.4,0,0,0-4.331,1.075c-.51-3.08-2.581-5.385-5.059-5.385-2.864,0-5.184,3.072-5.184,6.856v.074c-3.353-4.852-8.174-7.9-13.533-7.9-5.255,0-9.986,2.928-13.33,7.607a6.482,6.482,0,0,0-5-2.616c-3.618,0-6.619,3.465-7.225,8.019a8.328,8.328,0,0,0-1.77-.2c-3.272,0-6.2,1.931-8.174,4.977-.593-3.329-2.846-5.809-5.543-5.809a5.357,5.357,0,0,0-4.5,2.921c-2.29-4.573-6.214-7.589-10.671-7.589-5.469,0-10.134,4.536-11.967,10.914a5.624,5.624,0,0,0-4.4-2.358,4.953,4.953,0,0,0-2.189.526,2.545,2.545,0,1,0-5.082-.007,7.3,7.3,0,0,0-5.692-3.034,7.615,7.615,0,0,0-6.29,3.873c-.73-3.042-2.885-5.246-5.427-5.246a4.812,4.812,0,0,0-3.3,1.4c-.488-4.738-3.55-8.391-7.27-8.391-3.921,0-7.113,4.068-7.324,9.186a8.6,8.6,0,0,0-4.592-1.361,9.672,9.672,0,0,0-7.672,4.252c-1.337-6.783-6-11.79-11.548-11.79-4.051,0-7.627,2.671-9.785,6.75-3.3-8.123-9.778-13.647-17.239-13.647-6.859,0-12.891,4.675-16.379,11.746-1.389-4.786-4.884-8.192-8.994-8.192-3.814,0-7.1,2.932-8.662,7.181a12.186,12.186,0,0,0-8.644-3.837c-5.707,0-10.632,4.407-12.942,10.789a5.934,5.934,0,0,0-3.7-1.361,6.169,6.169,0,0,0-4.4,1.994c-1.348-4.867-4.87-8.346-9.017-8.346-3.5,0-6.563,2.49-8.24,6.195-1.877-5.466-6.038-9.27-10.873-9.27a10.629,10.629,0,0,0-8.332,4.484,4.615,4.615,0,0,0-3.607-1.939c-2.863,0-5.186,3.072-5.186,6.861a9.418,9.418,0,0,0,.126,1.49l-.126-.008a4.936,4.936,0,0,0-2.859.943c-.48-2.469-2.166-4.293-4.18-4.293a4.034,4.034,0,0,0-3.359,2.119c-1.811-5.672-6.053-9.657-11.006-9.657a9.4,9.4,0,0,0-4.327,1.075c-.509-3.08-2.578-5.385-5.062-5.385-2.812,0-5.1,2.965-5.173,6.658a10.005,10.005,0,0,0-2.437-.309c-5.47,0-10.134,4.536-11.967,10.914a5.63,5.63,0,0,0-4.4-2.358,4.958,4.958,0,0,0-2.191.526,2.543,2.543,0,1,0-5.077-.007,7.316,7.316,0,0,0-5.7-3.034,7.615,7.615,0,0,0-6.29,3.873c-.732-3.042-2.881-5.246-5.426-5.246a4.811,4.811,0,0,0-3.3,1.4c-.488-4.738-3.553-8.391-7.27-8.391-3.921,0-7.113,4.068-7.324,9.186a8.6,8.6,0,0,0-4.594-1.361,9.673,9.673,0,0,0-7.671,4.252c-1.338-6.783-6-11.79-11.547-11.79-6.365,0-11.563,6.585-11.918,14.884h-.021V1678.5h560.4Zm-135.333,15.5c-.115-.379-.236-.751-.362-1.119a4.769,4.769,0,0,0,.627.3C5574.255,1660.941,5574.167,1661.213,5574.082,1661.492Z" transform="translate(-1828.93 1176.005)" fill="#fff"/>
            <path id="Path_16907" data-name="Path 16907" d="M5963.674,1818.014a28.938,28.938,0,0,0-8.78,5.529,9.175,9.175,0,0,0-17.736.015,22.776,22.776,0,0,0-7.642-1.328,22.5,22.5,0,0,0-15.353,5.971c-6.4-16.149-22.683-27.626-41.767-27.626a45.154,45.154,0,0,0-37.261,19.21,20.152,20.152,0,0,0-15.7-7.394,19.733,19.733,0,0,0-19.345,14.7,38.176,38.176,0,0,0-28.533-12.6,39.758,39.758,0,0,0-6.178.493c-2.12-11.529-12.593-20.294-25.225-20.294a26.1,26.1,0,0,0-17.464,6.622,65.829,65.829,0,0,0-93.768.736c0-.063.008-.126.008-.188,0-9.586-8.1-17.356-18.1-17.356a17.941,17.941,0,0,0-17.668,13.63,43.155,43.155,0,0,0-15.11-2.719c-17.274,0-32.09,10.08-38.41,24.44a15.31,15.31,0,0,0-11.717-5.363,14.979,14.979,0,0,0-14.6,10.863,21.991,21.991,0,0,0-9.983-2.383c-.152,0-.3.018-.445.022a16.823,16.823,0,0,0,.445-3.774c0-9.586-8.106-17.359-18.1-17.359a18.429,18.429,0,0,0-12.59,4.907,42.459,42.459,0,0,0-29.083-11.352,41.792,41.792,0,0,0-37.952,23.462,34.111,34.111,0,0,0-60.246,5.448,25.915,25.915,0,0,0-28.274-1.6c-8.06-16.149-25.255-27.306-45.172-27.306a51.221,51.221,0,0,0-30.176,9.708,34.183,34.183,0,0,0-61.63,2.567,68.935,68.935,0,0,0-57.179-29.729c-34.027,0-62.229,23.881-67.4,55.123h-.857v30.569h908.991Zm-346.9,2.59c-.292-.7-.6-1.394-.93-2.075a17.623,17.623,0,0,0,2.193-.75C5617.6,1818.709,5617.169,1819.651,5616.774,1820.6Z" transform="translate(-2083.188 1533.115)" fill="#fff"/>
            <path id="Path_16908" data-name="Path 16908" d="M5938.777,1792.052a50.061,50.061,0,0,0-42.151,25.154,30.774,30.774,0,0,0-24.936-12.47c-14.134,0-26.02,9.248-29.434,21.777a27.937,27.937,0,0,0-19.546-7.85,28.324,28.324,0,0,0-11.7,2.512c-.536-9.454-8.672-16.969-18.665-16.969a18.465,18.465,0,0,0-18.522,15.505,14.846,14.846,0,0,0-8.4-2.585,14.478,14.478,0,0,0-13.833,9.689,21.549,21.549,0,0,0-30.53-1.545,6.7,6.7,0,0,0-12.945.007,16.718,16.718,0,0,0-5.577-.967,16.421,16.421,0,0,0-11.208,4.356,32.6,32.6,0,0,0-30.49-20.167,32.964,32.964,0,0,0-27.2,14.023,14.707,14.707,0,0,0-11.463-5.4,14.4,14.4,0,0,0-14.12,10.73,27.865,27.865,0,0,0-20.831-9.193,28.884,28.884,0,0,0-4.508.36,18.507,18.507,0,0,0-18.414-14.817,19.063,19.063,0,0,0-12.75,4.834,48.048,48.048,0,0,0-68.446.537l.007-.136a12.95,12.95,0,0,0-13.211-12.669,13.1,13.1,0,0,0-12.9,9.951,31.458,31.458,0,0,0-11.027-1.987,30.471,30.471,0,0,0-28.042,17.841,11.17,11.17,0,0,0-8.555-3.914,10.936,10.936,0,0,0-10.653,7.927,16.169,16.169,0,0,0-7.4-1.74s-.1.015-.213.018a12.173,12.173,0,0,0,.321-2.759,12.947,12.947,0,0,0-13.207-12.669,13.452,13.452,0,0,0-9.195,3.583,30.991,30.991,0,0,0-21.229-8.288,30.5,30.5,0,0,0-27.7,17.127,24.9,24.9,0,0,0-43.981,3.976,18.926,18.926,0,0,0-20.639-1.17,36.687,36.687,0,0,0-32.977-19.934,37.394,37.394,0,0,0-22.028,7.088,24.95,24.95,0,0,0-44.987,1.873,50.329,50.329,0,0,0-41.743-21.7c-24.838,0-45.427,17.436-49.2,40.24h-.625v22.315h874.857Zm-464.543,31.07q-.317-.768-.68-1.512a13.206,13.206,0,0,0,1.6-.548Q5474.672,1822.077,5474.234,1823.122Z" transform="translate(-2058.292 1570.701)" fill="#fff"/>
            <path id="Path_16909" data-name="Path 16909" d="M5919.768,1816.631c-.472.371-.987.7-1.427,1.1a9.6,9.6,0,0,0-6.556-2.553,9.233,9.233,0,0,0-9.418,9.034,8.646,8.646,0,0,0,.233,1.964l-.233-.01a11.413,11.413,0,0,0-5.2,1.24,7.8,7.8,0,0,0-7.6-5.654,7.97,7.97,0,0,0-6.1,2.792,21.727,21.727,0,0,0-19.991-12.724,22.53,22.53,0,0,0-7.87,1.416,9.33,9.33,0,0,0-9.192-7.093,9.23,9.23,0,0,0-9.419,9.035l0,.1a34.263,34.263,0,0,0-48.809-.383,13.59,13.59,0,0,0-9.09-3.447,13.2,13.2,0,0,0-13.132,10.565,20.451,20.451,0,0,0-3.215-.258,19.87,19.87,0,0,0-14.852,6.555,10.275,10.275,0,0,0-10.07-7.651,10.5,10.5,0,0,0-8.175,3.848,23.5,23.5,0,0,0-19.4-10,23.247,23.247,0,0,0-21.741,14.379,11.706,11.706,0,0,0-7.99-3.108,11.948,11.948,0,0,0-3.979.691,4.775,4.775,0,0,0-9.231,0,15.363,15.363,0,0,0-21.77,1.1,10.32,10.32,0,0,0-9.863-6.908,10.6,10.6,0,0,0-5.991,1.843,13.393,13.393,0,0,0-26.518,1.045,20.165,20.165,0,0,0-8.345-1.792,19.927,19.927,0,0,0-13.939,5.6,21.558,21.558,0,0,0-20.986-15.531,21.948,21.948,0,0,0-17.782,8.895,36.31,36.31,0,0,0-61.083-2.505,17.791,17.791,0,0,0-32.079-1.335,26.663,26.663,0,0,0-15.706-5.055,26.16,26.16,0,0,0-23.514,14.214,13.5,13.5,0,0,0-14.719.834,17.757,17.757,0,0,0-31.358-2.836,21.758,21.758,0,0,0-19.757-12.213,22.094,22.094,0,0,0-15.137,5.911,9.594,9.594,0,0,0-6.555-2.553,9.231,9.231,0,0,0-9.419,9.034,8.87,8.87,0,0,0,.229,1.964l-.229-.01a11.4,11.4,0,0,0-5.2,1.24,7.8,7.8,0,0,0-7.6-5.654,7.968,7.968,0,0,0-6.1,2.792,21.724,21.724,0,0,0-19.991-12.724,22.492,22.492,0,0,0-7.867,1.416,9.337,9.337,0,0,0-9.2-7.093,9.242,9.242,0,0,0-9.405,8.77,24.382,24.382,0,0,0-4.431-.408,23.247,23.247,0,0,0-21.74,14.379,11.708,11.708,0,0,0-7.99-3.108,11.948,11.948,0,0,0-3.979.691,4.775,4.775,0,0,0-9.23,0,15.364,15.364,0,0,0-21.771,1.1,10.32,10.32,0,0,0-9.863-6.908,10.593,10.593,0,0,0-5.99,1.843,13.394,13.394,0,0,0-26.52,1.045,20.148,20.148,0,0,0-8.344-1.792,19.93,19.93,0,0,0-13.939,5.6,21.561,21.561,0,0,0-20.987-15.531c-11.563,0-21.007,8.678-21.655,19.607h-.036v15.913h848.8Zm-76.442,8.3c-.208-.493-.43-.986-.664-1.468a9.42,9.42,0,0,0,1.146.39C5843.634,1824.208,5843.476,1824.569,5843.325,1824.933Z" transform="translate(-2039.282 1599.478)" fill="#fff"/>
            <path id="Path_16910" data-name="Path 16910" d="M5870.948,1909.437h-45.056v31.808h-56.411V1806.06H5619.976v71.568H5489.4v-49.7H5430.8v129.22h-43.528V1845.82h-61.943v111.328H5295.2V1782.2h-46.875v139.16h-78.567V1845.82h-80.669V2036.67h781.863Z" transform="translate(-1990.463 1544.479)" fill="#fff"/>
            <path id="Path_16911" data-name="Path 16911" d="M5838.37,1915.385h-2.094v-65.6H5613.241v65.6h-99.9v-65.6h-66.885v65.6h-47.843V1799.331h-45.247v50.458H5101.171v242.2h737.2Z" transform="translate(-1957.884 1590.355)" fill="#fff"/>
            <path id="Path_16912" data-name="Path 16912" d="M4675.01,1915.144v242.2H6987.053V2084.18h-74.506V1940.373h-25.493V2084.18h-42.493v-47.936h-33.992v-95.87H6673.533v-47.936h-43.552v47.936H6536.5v108.486h-73.652V1892.438h-70.818v156.422h-33.993v-93.348h-90.649v157.682h-45.326V1915.144h-36.825v198.049h-77.6V2025.95H5996.981v50.661H5967.11V1975.694H5834.334v100.917h-85.348V1804.135H5612.418v111.009H5293.9v121.1H5126.387v-121.1h-90.546v121.1h-68.558V1864.686H4864.567V1980.74h-93.482v-65.6Z" transform="translate(-3106.568 1603.224)" fill="#fff"/>
            <path id="Path_16913" data-name="Path 16913" d="M5700.208,1928.22c-16.544,6.253-29.7,20.111-35.738,37.65a41.918,41.918,0,0,0-49.8-3.13c-14.2-31.569-44.489-53.372-79.574-53.372a84.384,84.384,0,0,0-53.154,18.974c-9.617-21.008-29.816-35.52-53.252-35.52-25.261,0-46.773,16.848-55.3,40.538-21.457-34.976-58.54-58.107-100.72-58.107-59.939,0-109.622,46.678-118.726,107.735h-1.507v59.747h547.778Z" transform="translate(-1819.722 1793.714)" fill="#fff"/>
            <path id="Path_16914" data-name="Path 16914" d="M5656.354,1929.133c-16.252,4.1-29.64,16.064-36.407,31.919-7.542-13.379-21.263-22.362-36.993-22.362-18.608,0-34.421,12.566-40.475,30.138a30.6,30.6,0,0,0-36.356-2.288c-10.365-23.043-32.474-38.96-58.088-38.96a61.6,61.6,0,0,0-38.8,13.849c-7.017-15.332-21.763-25.927-38.873-25.927-18.441,0-34.141,12.3-40.368,29.591-15.666-25.53-42.734-42.418-73.524-42.418-43.758,0-80.021,34.075-86.669,78.645h-1.1v43.613h487.653Z" transform="translate(-1775.868 1867.175)" fill="#fff"/>
            <path id="Path_16915" data-name="Path 16915" d="M5622.871,1943.229c-8.772.467-15.769,8.118-15.769,17.572a18.811,18.811,0,0,0,.4,3.84c-.137,0-.265-.022-.4-.022a18.54,18.54,0,0,0-9.157,2.423,14.016,14.016,0,0,0-13.385-11.05,13.509,13.509,0,0,0-10.741,5.455c-5.8-14.611-19.379-24.864-35.219-24.864a36.074,36.074,0,0,0-13.854,2.766c-1.634-7.927-8.259-13.868-16.2-13.868-9,0-16.312,7.633-16.57,17.146a38.737,38.737,0,0,0-7.8-.8c-17.5,0-32.423,11.676-38.294,28.1a19.578,19.578,0,0,0-14.079-6.073,19.141,19.141,0,0,0-7.007,1.351,8.232,8.232,0,0,0-16.259-.011,25.235,25.235,0,0,0-38.348,2.151c-2.352-7.828-9.235-13.5-17.373-13.5a17.41,17.41,0,0,0-10.557,3.6c-1.563-12.2-11.372-21.608-23.263-21.608-12.55,0-22.771,10.473-23.444,23.649a32.587,32.587,0,0,0-14.7-3.5,33.382,33.382,0,0,0-24.551,10.94c-4.286-17.462-19.211-30.348-36.965-30.348-20.365,0-37,16.954-38.144,38.32h-.067V2006h441.75Z" transform="translate(-1742.385 1928.265)" fill="#fff"/>
            <path id="Path_16916" data-name="Path 16916" d="M5597.57,1973.176c-3.035-4.819-7.4-7.866-12.284-7.866-4.489,0-8.559,2.579-11.545,6.751-6.887-9.664-16.288-15.623-26.664-15.623-15.474,0-28.792,13.247-34.8,32.287-5.376-12.908-15.162-21.571-26.377-21.571-13.27,0-24.549,12.12-28.862,29.072-3.9-4.337-8.776-6.945-14.086-6.945a18.051,18.051,0,0,0-11.835,4.739c-7.39-22.226-23.16-37.581-41.421-37.581-10.392,0-19.975,4.977-27.668,13.361-5.007-14.791-15.521-25.011-27.72-25.011-13.149,0-24.345,11.863-28.788,28.542-11.167-24.628-30.471-40.917-52.427-40.917-31.2,0-57.06,32.872-61.8,75.863h-.789v42.072H5597.57Z" transform="translate(-1717.085 1946.825)" fill="#fff"/>
            <path id="Path_16917" data-name="Path 16917" d="M5595.333,2055.39V1988.4c-.635-.022-1.261-.088-1.9-.088a51.677,51.677,0,0,0-38.692,17.054c-4.515-13.394-17.751-23.1-33.39-23.1a36.2,36.2,0,0,0-20.29,6.158c-3.011-20.872-21.858-36.97-44.718-36.97-24.12,0-43.768,17.918-45.058,40.464a69.049,69.049,0,0,0-28.255-5.989,67.9,67.9,0,0,0-47.191,18.724c-8.244-29.885-36.926-51.937-71.055-51.937-39.141,0-71.122,29.013-73.312,65.574h-.129v37.1Z" transform="translate(-1714.848 1997.822)" fill="#fff"/>
            <path id="Path_17051" data-name="Path 17051" d="M5789.8,1716.383H5784.3v-83.138h-38.414V1837.31h-24.007v-75.579h-37.346v75.579h-8.4v-37.941h-31.124v65.34h-21.829V1716.383H5612.82v148.326h-12.748V1746.615h-25.5v69.911h-9.561V1699.377h-19.92v117.149h-20.715v-81.248h-26.294v-35.9h-12.252v35.9h-38.545v71.8h-9.561v35.9h-11.953v-107.7h-7.17v107.7h-22.709v-66.132h-10.758v-60.464H5368.4v60.464h-21.514v30.232h-20.137V1678.592h-53.366v68.022h-46.614v-47.237h-20.915v122.817h-15.537V1716.383H5168.21v105.812h-10.756V1655.919h-16.732v132.265h-28.045v-71.8h-38.885v115.26h-18.044v-43.459h-26.733v-41.569h-30.2v85.028h-30.2v-115.26h-70.936v-37.791h-12.729v86.918h-13.455v-49.127h-18.815v49.127h-28.1v-49.127h-62.734v49.127h-26.294v-86.918H4706.66v128.486h-19.284v-90.7h-25.468v90.7h-47.119v-90.7H4525.2v-83.138h-38.414v264.53H5789.8Z" transform="translate(-3613.91 1145.48)" fill="#fff"/>
            <path id="Path_17052" data-name="Path 17052" d="M5803.6,1716.13a26.284,26.284,0,0,0-17.517,1.472c-.495-8.8-8.068-15.785-17.361-15.785a17.175,17.175,0,0,0-17.229,14.42,13.813,13.813,0,0,0-7.816-2.4,13.463,13.463,0,0,0-12.867,9.012,20.036,20.036,0,0,0-28.4-1.438,6.229,6.229,0,0,0-12.042.008,15.5,15.5,0,0,0-5.187-.9,15.279,15.279,0,0,0-10.426,4.054,30.33,30.33,0,0,0-28.358-18.757,31.769,31.769,0,0,0-5.779.533,12.058,12.058,0,0,0-12.27-11.444,12.182,12.182,0,0,0-12,9.255,29.29,29.29,0,0,0-10.26-1.847,28.339,28.339,0,0,0-26.08,16.594,10.4,10.4,0,0,0-7.958-3.638,10.171,10.171,0,0,0-9.912,7.372,15.029,15.029,0,0,0-6.88-1.619l-.2.015a11.255,11.255,0,0,0,.3-2.56,12.043,12.043,0,0,0-12.285-11.786,12.524,12.524,0,0,0-8.552,3.329,28.83,28.83,0,0,0-19.745-7.707,28.385,28.385,0,0,0-25.773,15.928,23.161,23.161,0,0,0-40.9,3.7,17.6,17.6,0,0,0-19.2-1.089,34.128,34.128,0,0,0-30.676-18.54,34.8,34.8,0,0,0-20.491,6.592,23.2,23.2,0,0,0-41.843,1.744,47.367,47.367,0,0,0-79.68,3.262,28.625,28.625,0,0,0-23.194-11.6c-13.15,0-24.2,8.6-27.377,20.258a26,26,0,0,0-18.181-7.3,26.322,26.322,0,0,0-10.889,2.336c-.494-8.8-8.067-15.785-17.36-15.785a17.174,17.174,0,0,0-17.229,14.42,13.818,13.818,0,0,0-7.816-2.4,13.463,13.463,0,0,0-12.867,9.012,20.034,20.034,0,0,0-28.395-1.438,6.231,6.231,0,0,0-12.044.008,15.489,15.489,0,0,0-5.187-.9,15.283,15.283,0,0,0-10.425,4.054,30.331,30.331,0,0,0-28.358-18.757,30.657,30.657,0,0,0-25.3,13.045,13.676,13.676,0,0,0-10.66-5.021,13.4,13.4,0,0,0-13.135,9.98,25.926,25.926,0,0,0-19.373-8.549,26.716,26.716,0,0,0-4.2.334,17.211,17.211,0,0,0-17.127-13.783,17.706,17.706,0,0,0-11.858,4.5,44.692,44.692,0,0,0-63.668.5l0-.125a12.042,12.042,0,0,0-12.288-11.786,12.183,12.183,0,0,0-12,9.255,29.281,29.281,0,0,0-10.262-1.847,28.339,28.339,0,0,0-26.079,16.594,10.4,10.4,0,0,0-7.956-3.638,10.167,10.167,0,0,0-9.912,7.372,14.92,14.92,0,0,0-6.781-1.619l-.3.015a11.451,11.451,0,0,0,.3-2.56,12.044,12.044,0,0,0-12.288-11.786,12.511,12.511,0,0,0-8.55,3.329,28.832,28.832,0,0,0-19.748-7.707,28.38,28.38,0,0,0-25.77,15.928,23.164,23.164,0,0,0-40.907,3.7,17.609,17.609,0,0,0-19.2-1.089,34.122,34.122,0,0,0-30.67-18.54,34.788,34.788,0,0,0-20.491,6.592,23.205,23.205,0,0,0-41.844,1.744,46.82,46.82,0,0,0-38.827-20.188c-23.1,0-42.254,16.215-45.764,37.43h-.581v20.754H5803.6Zm-940.277,3.281c-.2-.475-.41-.945-.632-1.408a13.112,13.112,0,0,0,1.495-.508C4863.881,1718.125,4863.6,1718.764,4863.325,1719.411Z" transform="translate(-3627.708 1298.73)" fill="#fff"/>
            <path id="Path_17053" data-name="Path 17053" d="M5224.573,1712.822a19.652,19.652,0,0,0-3.74,6.5c-2.069-4.484-5.843-7.493-10.166-7.493-5.114,0-9.46,4.212-11.126,10.1a7.652,7.652,0,0,0-5.43-2.413,7.4,7.4,0,0,0-4.563,1.644c-2.849-7.721-8.928-13.055-15.965-13.055a15.192,15.192,0,0,0-10.667,4.642c-1.93-5.139-5.979-8.688-10.685-8.688-5.066,0-9.383,4.12-11.1,9.914-4.306-8.553-11.745-14.214-20.211-14.214-9.2,0-17.194,6.684-21.263,16.513-2.663-4.936-7.078-8.166-12.073-8.166-6.843,0-12.6,6.055-14.254,14.266a11.975,11.975,0,0,0-9.464-5.143,10.752,10.752,0,0,0-5.664,1.644c-.26-6.194-4.2-11.113-9.037-11.113-4.584,0-8.365,4.422-8.967,10.153a5.989,5.989,0,0,0-4.07-1.692c-3.138,0-5.79,2.667-6.7,6.345a9.422,9.422,0,0,0-7.761-4.683,9.061,9.061,0,0,0-7.021,3.672c-.322-1.865-1.6-3.26-3.135-3.26s-2.815,1.4-3.136,3.267a6.2,6.2,0,0,0-2.7-.636,6.98,6.98,0,0,0-5.43,2.855c-2.26-7.721-8.015-13.21-14.76-13.21-5.5,0-10.342,3.653-13.169,9.186a6.612,6.612,0,0,0-5.551-3.535c-3.325,0-6.107,3-6.836,7.03-2.437-3.686-6.048-6.022-10.085-6.022a10.219,10.219,0,0,0-2.183.236c-.75-5.514-4.454-9.7-8.917-9.7a8.048,8.048,0,0,0-6.171,3.164c-4.125-5.665-9.962-9.2-16.442-9.2-6.612,0-12.564,3.682-16.7,9.557l0-.088c0-4.583-2.866-8.3-6.4-8.3-3.061,0-5.617,2.792-6.248,6.515a11.772,11.772,0,0,0-5.339-1.3c-6.1,0-11.345,4.819-13.577,11.683a4.986,4.986,0,0,0-4.143-2.56c-2.482,0-4.567,2.208-5.158,5.191a6.227,6.227,0,0,0-3.583-1.137l-.1.008a10.724,10.724,0,0,0,.156-1.8c0-4.584-2.863-8.3-6.4-8.3a5.725,5.725,0,0,0-4.45,2.343,13.187,13.187,0,0,0-10.276-5.426c-5.969,0-11.1,4.6-13.416,11.216-2.071-4.484-5.844-7.493-10.17-7.493-5.113,0-9.459,4.212-11.121,10.1a7.666,7.666,0,0,0-5.434-2.413,7.391,7.391,0,0,0-4.56,1.644c-2.849-7.721-8.928-13.055-15.968-13.055a15.191,15.191,0,0,0-10.666,4.642c-1.929-5.139-5.983-8.688-10.683-8.688-5.069,0-9.386,4.12-11.1,9.914-4.306-8.553-11.747-14.214-20.21-14.214-12.029,0-21.995,11.419-23.824,26.357h-.3v14.615h528.086Zm-329.423,7.331c-.1-.335-.211-.666-.329-.993a5.769,5.769,0,0,0,.776-.357C4895.438,1719.245,4895.29,1719.7,4895.149,1720.153Z" transform="translate(-3048.679 1323.653)" fill="#fff"/>
          </g>
        </g>
      </g>
    </g>
  </g>
</svg>
