<?xml version="1.0" encoding="utf-8"?>
<!-- Generator: Adobe Illustrator 27.3.1, SVG Export Plug-In . SVG Version: 6.00 Build 0)  -->
<svg version="1.1" id="Layer_1" xmlns="http://www.w3.org/2000/svg" xmlns:xlink="http://www.w3.org/1999/xlink" x="0px" y="0px"
	 viewBox="0 0 1920 202" style="enable-background:new 0 0 1920 202;" xml:space="preserve">
<style type="text/css">
	.st0{display:none;}
	.st1{display:inline;}
	.st2{clip-path:url(#SVGID_00000141447341046636064580000010437508622629544603_);}
	.st3{clip-path:url(#SVGID_00000149351846164258498680000010848210645149724808_);}
	.st4{fill:#238087;}
	.st5{fill:none;stroke:#707070;}
	.st6{fill:#ECF6F8;}
</style>
<g id="Group_4878" transform="translate(0 -8343)" class="st0">
	<g class="st1">
		<g>
			<defs>
				<rect id="SVGID_1_" y="8343" width="1920" height="202"/>
			</defs>
			<clipPath id="SVGID_00000181796366350612629160000004723337263597199490_">
				<use xlink:href="#SVGID_1_"  style="overflow:visible;"/>
			</clipPath>
			<g id="Mask_Group_4365" style="clip-path:url(#SVGID_00000181796366350612629160000004723337263597199490_);">
				<g id="Group_4879">
					<g>
						<g>
							<defs>
								<path id="SVGID_00000060013939507976173690000012157779065048807315_" d="M116.1,16676.3
									c1546.7,339.5,1559.2-91.4,1559.2-91.4v1871.6H-662.8C-662.8,18456.6-1430.6,16336.8,116.1,16676.3z"/>
							</defs>
							<clipPath id="SVGID_00000176002257632082740020000014730029477091753118_">
								<use xlink:href="#SVGID_00000060013939507976173690000012157779065048807315_"  style="overflow:visible;"/>
							</clipPath>
							
								<g id="DUPLICTE" transform="translate(-426.657 8292.462)" style="clip-path:url(#SVGID_00000176002257632082740020000014730029477091753118_);">
								<g id="Rectangle_4056" transform="translate(-600.763 -304.406)">
									<rect x="572.9" y="57.2" class="st4" width="3438.2" height="2431.9"/>
									<rect x="0.5" y="0.5" class="st5" width="3437.2" height="2430.9"/>
								</g>
							</g>
						</g>
					</g>
				</g>
			</g>
		</g>
	</g>
</g>
<path class="st6" d="M0,0l-0.1,36.7c39.6-11.2,96.8-24.4,166.8-30c25.7-2.1,89.3-6,212.4,8.2c65,7.5,131.8,20.8,265.5,47.5
	c0,0,187.9,37.5,269.4,50.7c15.2,2.5,32.7,5.3,32.7,5.3c28.2,4.5,49.8,7.9,52.8,8.4c36,5.6,98.8,14.5,159.3,21.2
	c16.4,1.8,42.5,4.6,68.6,7.1c6.7,0.7,14.2,1.4,24.3,2.4c20.4,2,46.1,4.4,78,6.8c18.7,1.4,37.2,2.7,55.5,3.7
	c26.1,1.2,62.2,2.2,105.2,2.7c57.6,0.8,126.3,0.3,171.5-3.8c185.7-16.9,258.2-51.1,258.2-51.1L1920,0H0z"/>
</svg>
