<?xml version="1.0" encoding="utf-8"?>
<!-- Generator: Adobe Illustrator 27.0.1, SVG Export Plug-In . SVG Version: 6.00 Build 0)  -->
<svg version="1.1" id="Layer_1" xmlns="http://www.w3.org/2000/svg" xmlns:xlink="http://www.w3.org/1999/xlink" x="0px" y="0px"
	 viewBox="0 0 1920 202" style="enable-background:new 0 0 1920 202;" xml:space="preserve">
<style type="text/css">
	.st0{display:none;}
	.st1{display:inline;}
	.st2{clip-path:url(#SVGID_00000127036391199900852380000016447554354087333248_);}
	.st3{clip-path:url(#SVGID_00000037679845333379528280000005770493129652766624_);}
	.st4{fill:#238087;}
	.st5{fill:none;stroke:#707070;}
	.st6{fill:#FFFFFF;}
</style>
<g id="Group_4878" transform="translate(0 -8343)" class="st0">
	<g class="st1">
		<defs>
			<rect id="SVGID_1_" y="8343" width="1920" height="202"/>
		</defs>
		<clipPath id="SVGID_00000100374582537300427310000009616451223802267557_">
			<use xlink:href="#SVGID_1_"  style="overflow:visible;"/>
		</clipPath>
		<g id="Mask_Group_4365" style="clip-path:url(#SVGID_00000100374582537300427310000009616451223802267557_);">
			<g id="Group_4879">
				<g>
					<defs>
						<path id="SVGID_00000003087894426110713810000008573309141319102095_" d="M542.8,8383.8c1546.7,339.5,1559.2-91.4,1559.2-91.4
							v1871.6H-236.1C-236.1,10164.1-1003.9,8044.3,542.8,8383.8z"/>
					</defs>
					<clipPath id="SVGID_00000052077963148437901200000011759440160252816269_">
						<use xlink:href="#SVGID_00000003087894426110713810000008573309141319102095_"  style="overflow:visible;"/>
					</clipPath>
					
						<g id="DUPLICTE" transform="translate(-426.657 8292.462)" style="clip-path:url(#SVGID_00000052077963148437901200000011759440160252816269_);">
						<g id="Rectangle_4056" transform="translate(-600.763 -304.406)">
							<rect x="572.9" y="57.2" class="st4" width="3438.2" height="2431.9"/>
							<rect x="0.5" y="0.5" class="st5" width="3437.2" height="2430.9"/>
						</g>
					</g>
				</g>
			</g>
		</g>
	</g>
</g>
<path class="st6" d="M0,0l-0.1,36.7c39.6-11.2,96.8-24.4,166.8-30c25.7-2.1,89.3-6,212.4,8.2c65,7.5,131.8,20.8,265.5,47.5
	c0,0,187.9,37.5,269.4,50.7c15.2,2.5,32.7,5.3,32.7,5.3c28.2,4.5,49.8,7.9,52.8,8.4c36,5.6,98.8,14.5,159.3,21.2
	c16.4,1.8,42.5,4.6,68.6,7.1c6.7,0.7,14.2,1.4,24.3,2.4c20.4,2,46.1,4.4,78,6.8c18.7,1.4,37.2,2.7,55.5,3.7
	c26.1,1.2,62.2,2.2,105.2,2.7c57.6,0.8,126.3,0.3,171.5-3.8c185.7-16.9,258.2-51.1,258.2-51.1L1920,0L0,0z"/>
</svg>
