<svg id="Group_1310" data-name="Group 1310" xmlns="http://www.w3.org/2000/svg" xmlns:xlink="http://www.w3.org/1999/xlink" width="1053.431" height="1057.107" viewBox="0 0 1053.431 1057.107">
  <defs>
    <clipPath id="clip-path">
      <rect id="Rectangle_538" data-name="Rectangle 538" width="1053.431" height="1057.107" fill="none"/>
    </clipPath>
    <clipPath id="clip-path-2">
      <rect id="Rectangle_537" data-name="Rectangle 537" width="1053.428" height="1057.108" fill="none"/>
    </clipPath>
    <clipPath id="clip-path-3">
      <rect id="Rectangle_528" data-name="Rectangle 528" width="17.659" height="20.251" fill="none"/>
    </clipPath>
    <clipPath id="clip-path-4">
      <rect id="Rectangle_529" data-name="Rectangle 529" width="56.247" height="29.7" fill="none"/>
    </clipPath>
    <clipPath id="clip-path-5">
      <rect id="Rectangle_530" data-name="Rectangle 530" width="94.705" height="32.422" fill="none"/>
    </clipPath>
    <clipPath id="clip-path-6">
      <rect id="Rectangle_531" data-name="Rectangle 531" width="32.563" height="39.405" fill="none"/>
    </clipPath>
    <clipPath id="clip-path-7">
      <rect id="Rectangle_532" data-name="Rectangle 532" width="40.276" height="61.206" fill="none"/>
    </clipPath>
    <clipPath id="clip-path-8">
      <rect id="Rectangle_533" data-name="Rectangle 533" width="40.633" height="43.663" fill="none"/>
    </clipPath>
    <clipPath id="clip-path-9">
      <rect id="Rectangle_534" data-name="Rectangle 534" width="18.804" height="45.57" fill="none"/>
    </clipPath>
    <filter id="Path_2049" x="633.698" y="-6.001" width="259.042" height="398.727" filterUnits="userSpaceOnUse">
      <feOffset dy="3" input="SourceAlpha"/>
      <feGaussianBlur stdDeviation="3" result="blur"/>
      <feFlood flood-opacity="0.161"/>
      <feComposite operator="in" in2="blur"/>
      <feComposite in="SourceGraphic"/>
    </filter>
    <filter id="Path_2050" x="571.766" y="385.817" width="118.344" height="104.236" filterUnits="userSpaceOnUse">
      <feOffset dy="3" input="SourceAlpha"/>
      <feGaussianBlur stdDeviation="3" result="blur-2"/>
      <feFlood flood-opacity="0.161"/>
      <feComposite operator="in" in2="blur-2"/>
      <feComposite in="SourceGraphic"/>
    </filter>
    <clipPath id="clip-path-10">
      <rect id="Rectangle_535" data-name="Rectangle 535" width="221.697" height="71.661" fill="none"/>
    </clipPath>
    <filter id="Path_2051" x="298.834" y="197.97" width="239.697" height="89.658" filterUnits="userSpaceOnUse">
      <feOffset dy="3" input="SourceAlpha"/>
      <feGaussianBlur stdDeviation="3" result="blur-3"/>
      <feFlood flood-opacity="0.161"/>
      <feComposite operator="in" in2="blur-3"/>
      <feComposite in="SourceGraphic"/>
    </filter>
    <clipPath id="clip-path-11">
      <rect id="Rectangle_536" data-name="Rectangle 536" width="253.616" height="88.881" fill="none"/>
    </clipPath>
  </defs>
  <g id="Group_1309" data-name="Group 1309" clip-path="url(#clip-path)">
    <g id="Group_1308" data-name="Group 1308" transform="translate(0 -0.001)">
      <g id="Group_1307" data-name="Group 1307" clip-path="url(#clip-path-2)">
        <path id="Path_2022" data-name="Path 2022" d="M477.789,944.9a.007.007,0,0,0,.01,0,2.305,2.305,0,0,1,.264-.081,5.478,5.478,0,0,1,4.026.159c.085.041.17.082.251.129.1.054.2.115.3.176l3.66,2.339c.006,0,.006,0,.017,0l.006,0,.151.1.012.009.282.18,4.048,2.584,10.809,6.884a5.061,5.061,0,0,1,1.7,1.831c1.282,2.283,1.091,5.658-.712,8.591l-2.555,4.171-4.052,6.622a.1.1,0,0,1-.155.034l-3.534-2.249a.117.117,0,0,1-.044-.156l4.066-6.642,0-.006.589-.961a6.548,6.548,0,0,0,.558-6.376,3.741,3.741,0,0,0-1.3-1.425l-9.144-5.823-3.953-2.516-.007,0-1.094-.7a4.023,4.023,0,0,0-3.568-.3,6.7,6.7,0,0,0-3.012,2.184,7.193,7.193,0,0,0-.575.818l-.031.045-.511.834-4.117,6.73-.031.045a.107.107,0,0,1-.157.023l-3.534-2.249a.116.116,0,0,1-.044-.155l.031-.045,4.13-6.749,2.451-4.006a9.45,9.45,0,0,1,4.762-4.045" transform="translate(-178.696 -353.997)" fill="#201b2c"/>
        <path id="Path_2023" data-name="Path 2023" d="M477.818,944.847a.007.007,0,0,0,.01,0l0-.006c.073-.024.147-.049.227-.07a5.567,5.567,0,0,1,4.074.144c.085.041.17.082.25.129.1.054.2.115.3.176l3.651,2.38.007,0,.15.1.013.009a.12.12,0,0,1,0,.174l-.925.791,0,.006-.024.021-.02.015-1.582,1.359-.028.028-.009.013-1.875,1.591a4.058,4.058,0,0,0-3.568-.3l0,.007a6.637,6.637,0,0,0-3.039,2.222,7.2,7.2,0,0,0-.575.818l-.031.045-.5.839-4.123,6.725-.014.019a.117.117,0,0,1-.149.01l-3.533-2.249a.116.116,0,0,1-.039-.161l4.13-6.749,2.471-4.049a9.417,9.417,0,0,1,4.754-4.032" transform="translate(-178.714 -353.977)" fill="#201b2c"/>
        <path id="Path_2024" data-name="Path 2024" d="M371.989,932.216l-29.863,48.138a6.594,6.594,0,0,0,2.356,8.892l.07.045,91.1,60.26c10.358,6.676,14.538-.216,16.31-3.072l29.676-44.558c1.775-2.861,2.755-12.757-5.6-17.99L394.4,931.241l-3.063-1.981c-6.745-4.348-15.336-3.512-19.348,2.955" transform="translate(-130.744 -347.269)" fill="#603a3e"/>
        <path id="Path_2025" data-name="Path 2025" d="M371.989,932.216l-29.863,48.138a6.594,6.594,0,0,0,2.356,8.892.113.113,0,0,0,.13,0c2.82-2.179,6.272-6.246,10.157-13.639,9.434-17.947,26.747-34.011,39.519-44.273a.109.109,0,0,0-.02-.176l-2.93-1.895c-6.745-4.348-15.336-3.512-19.348,2.955" transform="translate(-130.744 -347.269)" fill="#775155"/>
        <path id="Path_2026" data-name="Path 2026" d="M507.693,1470.347c9.149-4.273,30.72-17.886,30.72-17.886l-12.644-23.748-32.214,20.742-1.566,21.568Z" transform="translate(-188.501 -535.475)" fill="#fff"/>
        <path id="Path_2027" data-name="Path 2027" d="M500.773,1480.572c1.9,2.179-1,2.4-4.234,5.319-7.408,6.682-10.037,30.739-6.3,36.1,3.217,4.622-5.775,18.363-13.918,5.809-7.276-11.219-2.456-12.447-14.191-53.219-.753-2.615-.73-5.383,1.27-7.2,7.14-6.484,20.206-12.766,22.164-9.7,4.082,4.027,7.294,13.811,15.212,22.891" transform="translate(-176.884 -546.033)" fill="#1f1f39"/>
        <path id="Path_2028" data-name="Path 2028" d="M610.87,1006.537c23.254,7.693,32.758,46.388,33.621,70.167,2.149,59.221,13.354,118.215,5.716,142.217-8.516,26.763-107.194,82.368-112.677,86.516s-28.8-30.194-24.56-36.51,89.368-53.8,90.46-62.392c5.068-39.871-39.031-150.191-30.884-176.811,14.106-46.1,38.325-23.186,38.325-23.186" transform="translate(-196.343 -375.111)" fill="#3b3b4c"/>
        <path id="Path_2029" data-name="Path 2029" d="M534.848,1344.725c10.064,1.1,35.6.655,35.6.655l1.249-27.016-38.347,1.022-12.373,17.726Z" transform="translate(-199.607 -494.117)" fill="#fff"/>
        <path id="Path_2030" data-name="Path 2030" d="M528.52,1345.016c.523,2.865-2.086,1.542-6.365,2.363-9.8,1.879-16.9,30.032-18.064,35.347-.6,2.743-10.5,6.613-10.627-7.184-.1-11.552,1.8-13.809,4.832-55.842a6.008,6.008,0,0,1,4.774-5.527c9.463-1.848,23.928-.43,24.048,3.224,1.458,5.592-.776,15.68,1.4,27.619" transform="translate(-189.064 -492.243)" fill="#1f1f39"/>
        <path id="Path_2031" data-name="Path 2031" d="M563.221,1197.664c.31,8.176,2.023,20.172,5.269,26.41,1.121,2.156,2.422,3.624,3.912,4.013,7.895,2.053,181.919,8.662,199.025-28.991s-31.562-106.813-50.57-134.527c-4.815-7.02-28.28-31.762-29.741-38.17-2.091-9.165-6.8-18.307-21.359-27.932-16.38-10.844-27.528,3.167-34.328,14.44-6.792,11.251-10.165,39.531,5.285,66.065,3.369,5.782,13.3,16.1,24.962,28.042,13.022,13.34,28.195,28.723,38.8,42.122,9.006,11.378,14.724,21.335,13.053,27.417-2.924,10.656-130.022,5.8-153.789,13.022-.491,1.081-.669,4.139-.523,8.089" transform="translate(-215.774 -372.757)" fill="#3b3b4c"/>
        <path id="Path_2032" data-name="Path 2032" d="M563.221,1197.664c.31,8.176,2.023,20.172,5.269,26.41,1.121,2.156,2.422,3.624,3.912,4.013,7.895,2.053,181.919,8.662,199.025-28.991s-31.562-106.813-50.57-134.527c-4.815-7.02-28.28-31.762-29.741-38.17-2.091-9.165-6.8-18.307-21.359-27.932-16.38-10.844-27.528,3.167-34.328,14.44-6.792,11.251-10.165,39.531,5.285,66.065,3.369,5.782,13.3,16.1,24.962,28.042,13.022,13.34,28.195,28.723,38.8,42.122,9.006,11.378,14.724,21.335,13.053,27.417-2.924,10.656-130.022,5.8-153.789,13.022-.491,1.081-.669,4.139-.523,8.089" transform="translate(-215.774 -372.757)" fill="#3b3b4c"/>
        <path id="Path_2033" data-name="Path 2033" d="M516.737,876.748c-3.521,5.045-9.427,12.031-12.973,19.376-3.428,7.1-4.886,10.282-10.463,14.058-4.945,3.348-14.711,11.374-9.985,19.011,2.014,3.253,16.667,12.981,19.483,6.565,5.435-12.389,6.228,1.9,10.373-2.614,3.116-3.395-5.736-13.729,6.724-22.12,6.929-4.666-6.3-31.924-3.976-34.6s.817.321.817.321" transform="translate(-184.696 -328.064)" fill="#efaea6"/>
        <path id="Path_2034" data-name="Path 2034" d="M1062.309,868.579c3.446-5.1,9.249-12.173,12.685-19.571,3.324-7.153,4.734-10.355,10.256-14.215,4.895-3.422,14.541-11.6,9.7-19.159-2.061-3.222-16.13-12.362-19.576-6.268-4.186,7.4-4.577.567-8.655,5.146-3.066,3.442,4.259,11.266-8.076,19.845-6.858,4.77-14.776,18.271-15.468,21.763s19.131,12.46,19.131,12.46" transform="translate(-399.676 -302.578)" fill="#efaea6"/>
        <path id="Path_2035" data-name="Path 2035" d="M844.377,768.013a28.758,28.758,0,0,0-1.917,7.591c-.3,4.412-3.729,9.513-2.429,17.095.973,5.674-14.472-7.367-14.472-7.367l-15.742-13.651c3.693-8.378,19.206-25.05,23.971-31.86,5.225-7.469,20.153-6.794,20.153-6.794l-1.827,19.538-.041.441-1.055,1.255a101.871,101.871,0,0,0-6.642,13.752" transform="translate(-310.274 -274.729)" fill="#efaea6"/>
        <g id="Group_1282" data-name="Group 1282" transform="translate(524.183 473.034)" opacity="0.14">
          <g id="Group_1281" data-name="Group 1281">
            <g id="Group_1280" data-name="Group 1280" clip-path="url(#clip-path-3)">
              <path id="Path_2036" data-name="Path 2036" d="M867.377,761.849l-1.054,1.255a101.834,101.834,0,0,0-6.643,13.752c-11.678-1.567-11.474-15.769-7.37-17.518,2.7-1.151,11.331-2.733,11.331-2.733l3.778,4.8Z" transform="translate(-849.76 -756.605)" fill="#1f1f39"/>
            </g>
          </g>
        </g>
        <path id="Path_2037" data-name="Path 2037" d="M762.407,774.014c8.853.917,4.338,14.9,12.131,18.756,4.114,2.033,3.919-.261,6.712-1.5,1.72-.761,3.421-1.7,4.57,1.148,23.365,58.01-59.252,148.2-57.074,157.636,1.78,7.722-36.318,3.143-55.367-10.563-26.123-18.8-1.843-38.7,1.407-44.6s52.322-111.845,52.322-111.845a168.275,168.275,0,0,0,35.3-9.04" transform="translate(-253.411 -290.096)" fill="#fff"/>
        <path id="Path_2038" data-name="Path 2038" d="M733.456,975.8c6.238,4.669,22.584,1.515,34.173-2.475,5.52-1.9,10.4-22.559,13.647-34.724,1.266-4.742,11.607-32.718,17.515-41.166,3.124-4.467,14.674-30.848,27.366-31.679,15.717-1.029,45.823,49.394,71.635,48.918,21.3-.393,48.773-36.231,61.562-66.756,4.025-9.607-16.591-23.665-19.714-21.155-3.737,3-27.758,51.018-37.618,51.229-12.344.264-41.868-59.539-89.568-74.534,0,0-3.724,6.685-8.565,26.045-6.394,25.588-28.5,37.138-35.08,68.253-10.593,50.1-47.847,68.692-35.353,78.043" transform="translate(-280.046 -301.132)" fill="#78c34e"/>
        <g id="Group_1285" data-name="Group 1285" transform="translate(374.958 656.674)" opacity="0.59">
          <g id="Group_1284" data-name="Group 1284">
            <g id="Group_1283" data-name="Group 1283" clip-path="url(#clip-path-4)">
              <path id="Path_2039" data-name="Path 2039" d="M664.1,1051.89c-5.91,10.612-53,28.145-53,28.145s-3.991-20.4-3.118-26.486,56.123-1.659,56.123-1.659" transform="translate(-607.849 -1050.334)" fill="#1f1f39"/>
            </g>
          </g>
        </g>
        <path id="Path_2040" data-name="Path 2040" d="M877.833,708.958c1.9,7.456,12.476,20.459,7.389,21.368s4.029,15.749-1.351,16.913c-13.036,2.82-29.518-2.776-32.286-8.833s-4.844-24-4.844-24Z" transform="translate(-324.42 -265.714)" fill="#efaea6"/>
        <path id="Path_2041" data-name="Path 2041" d="M858.5,708.7c4.214-.265,4.509.695,7.169-1.242s-3.025-5.041,2.226-6.923,11.124-3.294,10.642-9.613c-.7-9.146-8.388-6.3-13.11-4.368-3.039,1.244-4.979-5.5-11.228-4.06-4.9,1.131-3.836,3.927-8.168,5.131-2.615.727-8.549-2.732-12.155,1.241-6.689,7.371.966,13.539-4.36,21.075-6.212,8.79,13.747,21.5,15.429,19.221,1.962-2.663-2.783-9.738-.721-11.974,3.11-3.374,4.07-.4,7.54,1.9,3.706,2.446,9.635,1.555,4.863-3.6s-1.943-6.54,1.872-6.78" transform="translate(-317.362 -255.718)" fill="#1f1f39"/>
        <path id="Path_2042" data-name="Path 2042" d="M705.221,772.951s-1.773,8.536-5.1,21.134c-.319,1.207-.653,2.47-1,3.759q-.7,2.566-1.476,5.294c-.411,1.474-.851,2.982-1.3,4.518-7.974,27.275-21,63.377-37.685,80.108-22.657,22.71-23.989,48.967-31.238,59.5s-44.741,14.041-58.8,7.429c-33.338-15.677,4.792-32.839,13.251-41.994,22.413-24.249,29.161-40.631,36.136-57.507.624-1.5,1.241-3,1.875-4.514,5.884-13.994,16.849-20.449,11.717-29.688a8.366,8.366,0,0,0-1.591-2.011,13.752,13.752,0,0,0-3.593-2.351c-11.73-5.514-33.553-2.923-53.63,3.772-13.526,4.508-31,46.993-38.472,56.2-4.029,4.958-24.766-14-21.9-19.8,2.727-5.567,28.2-59.141,46.194-66.677q1.169-.493,2.15-.892c13.281-5.422,38.876-10.641,65.507-14.055,3.174-.411,6.364-.792,9.549-1.142,6.022-.674,12.024-1.237,17.883-1.685,20.986-1.6,40.13-1.679,51.525.6" transform="translate(-196.222 -289.036)" fill="#78c34e"/>
        <g id="Group_1288" data-name="Group 1288" transform="translate(430.045 483.31)" opacity="0.3">
          <g id="Group_1287" data-name="Group 1287">
            <g id="Group_1286" data-name="Group 1286" clip-path="url(#clip-path-5)">
              <path id="Path_2043" data-name="Path 2043" d="M791.7,794.561c-.573,1.569-1.788,3.927-3.388,4.361a5.828,5.828,0,0,1-4.384-.281.78.78,0,0,0-.481-.039c-1.708.35-7.6,3.314-14.911,5.234-.479.126-.965.25-1.456.364-.513.124-1.032.235-1.556.348a36.4,36.4,0,0,1-13.8.441,23.616,23.616,0,0,1-4.208-1.176c-6.538-2.508-14.729-7.719-22.84-12.984-1.6-1.028-3.185-2.064-4.762-3.087-.864-.563-1.72-1.112-2.578-1.662-6.571-4.2-12.71-7.882-17.412-9.511a17.347,17.347,0,0,0-2.767-.7c3.172-.408,6.364-.791,9.549-1.145,6.019-.67,12.02-1.233,17.88-1.683,2.556,2.124,5.064,4.352,7.489,6.524q1.725,1.546,3.392,3.036c5.8,5.17,11.026,9.579,15.25,10.952a38.53,38.53,0,0,0,10.181,1.795,50.746,50.746,0,0,0,9.314-.46c.254-.031.511-.068.758-.1a.147.147,0,0,0,.045-.009,75.734,75.734,0,0,0,11.224-2.616c2.786-.853,3.417-1.753,5.885-.765,3.262,1.317,4.148,1.584,3.578,3.162" transform="translate(-697.151 -773.042)" fill="#1f1f39"/>
            </g>
          </g>
        </g>
        <path id="Path_2044" data-name="Path 2044" d="M720.488,769.344a4.535,4.535,0,0,1-3.478-2.626c-.054-.083-.218-.094-.479-.046-1.943.371-9.32,4.029-18.006,5.692a36.3,36.3,0,0,1-13.8.252,23.619,23.619,0,0,1-4.2-1.235c-6.5-2.6-14.624-7.92-22.664-13.3-1.582-1.052-3.153-2.11-4.715-3.15-.855-.578-1.7-1.139-2.555-1.7-6.51-4.293-12.6-8.058-17.285-9.753-12.02-4.353-34.806,4.76-53.833-1.166-11.662-3.632-51.984-25.872-55.852-29.972s-5.209-10.1-4.166-12.857,5.787-2.349,13.037-.376,27.374,23.083,51.82,30.052S620,724.105,637.35,728.01c9.583,2.154,19.353,10.887,28.07,18.912,1.134,1.043,2.254,2.077,3.348,3.085,5.734,5.247,10.9,9.731,15.1,11.164a38.555,38.555,0,0,0,10.154,1.933,51.041,51.041,0,0,0,9.322-.327,74.105,74.105,0,0,0,12.058-2.558c2.8-.819,3.443-1.709,5.893-.688a4.462,4.462,0,0,1,2.607,5.894c-.6,1.565-1.936,4.209-3.418,3.921" transform="translate(-198.894 -261.426)" fill="#f4ad00"/>
        <g id="Group_1291" data-name="Group 1291" transform="translate(421.79 526.752)" opacity="0.18">
          <g id="Group_1290" data-name="Group 1290">
            <g id="Group_1289" data-name="Group 1289" clip-path="url(#clip-path-6)">
              <path id="Path_2045" data-name="Path 2045" d="M716.167,849.756c-7.151,15.562-24.73,26.819-32.4,32.175.624-1.5,1.241-3,1.874-4.514,5.885-13.995,16.85-20.448,11.718-29.688a8.386,8.386,0,0,0-1.591-2.011,13.761,13.761,0,0,0-3.593-2.351c1.427-.332,4.985-1.075,6.708-.768,2.185.388,19.308,2.74,17.281,7.157" transform="translate(-683.77 -842.527)" fill="#1f1f39"/>
            </g>
          </g>
        </g>
        <g id="Group_1294" data-name="Group 1294" transform="translate(448.431 715.174)" opacity="0.59">
          <g id="Group_1293" data-name="Group 1293">
            <g id="Group_1292" data-name="Group 1292" clip-path="url(#clip-path-7)">
              <path id="Path_2046" data-name="Path 2046" d="M726.958,1143.9l1.471,19.083c13.022,13.339,28.194,28.723,38.8,42.123-.021-.214-.045-.451-.085-.7-2.514-16.427-40.191-60.5-40.191-60.5" transform="translate(-726.958 -1143.904)" fill="#1f1f39"/>
            </g>
          </g>
        </g>
        <g id="Group_1297" data-name="Group 1297" transform="translate(367.385 812.278)" opacity="0.59">
          <g id="Group_1296" data-name="Group 1296">
            <g id="Group_1295" data-name="Group 1295" clip-path="url(#clip-path-8)">
              <path id="Path_2047" data-name="Path 2047" d="M634.973,1299.22c.6,10.134,2.269,15.934.3,19.145s-29.453,24.457-31.515,24.5-8.187,0-8.187,0,34.168-20.313,33.94-25.888-2.466-17.452-2.466-17.452Z" transform="translate(-595.573 -1299.22)" fill="#1f1f39"/>
            </g>
          </g>
        </g>
        <g id="Group_1300" data-name="Group 1300" transform="translate(445.16 810.63)" opacity="0.59">
          <g id="Group_1299" data-name="Group 1299">
            <g id="Group_1298" data-name="Group 1298" clip-path="url(#clip-path-9)">
              <path id="Path_2048" data-name="Path 2048" d="M732.842,1296.73c-.273,16.24.08,22.931-.613,25.774-.78,3.2-10.574,19.648-10.574,19.648l6.729-.413s6.9-15.437,7.273-19.25c.218-2.217,4.8-25.907,4.8-25.907Z" transform="translate(-721.655 -1296.583)" fill="#1f1f39"/>
            </g>
          </g>
        </g>
        <g transform="matrix(1, 0, 0, 1, 0, 0)" filter="url(#Path_2049)">
          <path id="Path_2049-2" data-name="Path 2049" d="M1066.338,379.58a33.46,33.46,0,0,1-23.419-40.548c.385-1.531,9.544-37.843,18.39-69.574,5.039-18.078,17.283-32.929,37.431-45.4,13.758-8.519,29.443-15.018,46.049-21.9,17.422-7.219,35.437-14.682,49.088-23.961,15.759-10.712,19.756-19.993,21.391-26.042,2.081-7.695,2.814-21.464-1.366-37.033-3.982-14.828-11.466-27.547-21.073-35.815-8.661-7.455-18.946-11.484-31.441-12.318-16.827-1.123-36.863,3.657-59.55,14.21a32.789,32.789,0,0,1-43.718-16.431,33.606,33.606,0,0,1,16.212-44.31c32.76-15.239,63.508-22.02,91.393-20.157,26.37,1.761,50.5,11.465,69.785,28.062,19.937,17.158,34.466,41.09,42.017,69.208,6.706,24.973,7.18,50.631,1.336,72.248a102.689,102.689,0,0,1-19.563,38.04,130.945,130.945,0,0,1-28.7,25.845c-19.221,13.065-41.345,22.231-60.866,30.319-12.773,5.292-24.839,10.29-33.891,15.445-1.147.654-2.181,1.274-3.112,1.859a23.1,23.1,0,0,0-9.949,13.457c-7.993,29.13-15.892,60.447-15.978,60.785a32.938,32.938,0,0,1-40.1,24.11l-.369-.1m58.286-91.569Z" transform="translate(-399.19 0)" fill="#fff"/>
        </g>
        <g transform="matrix(1, 0, 0, 1, 0, 0)" filter="url(#Path_2050)">
          <path id="Path_2050-2" data-name="Path 2050" d="M1041.831,670.01a43.271,43.271,0,0,1-12.372,30.206q-1.086,1.107-2.246,2.132a.079.079,0,0,1-.02.018c-.459.406-.928.8-1.408,1.185a41.987,41.987,0,0,1-26.684,9.387q-.978,0-1.944-.052c-.2-.011-.395-.021-.591-.036q-1.2-.073-2.377-.217c-8.611-1.043-16.817-4.593-24.837-6.49-10.638-2.516-30.072-4.437-27.66-7.188,8.551-9.753,9.4-13.468,14.009-32.157,3.033-12.3,6.542-21.208,15.162-29.062.629-.57,1.275-1.125,1.936-1.657.68-.553,1.382-1.082,2.1-1.591a42.907,42.907,0,0,1,5.043-3.08,41.724,41.724,0,0,1,8.969-3.414,41.992,41.992,0,0,1,7.284-1.18q1.625-.117,3.281-.111h.063a41.889,41.889,0,0,1,17.716,4.025c.139.064.275.128.41.194l.63.313c.451.229.9.463,1.336.71q1.244.687,2.437,1.456,1.236.8,2.415,1.677,1.506,1.119,2.905,2.371a43.244,43.244,0,0,1,14.439,31.556c.007.333.009.669.007,1" transform="translate(-360.72 -234.89)" fill="#fff"/>
        </g>
        <g id="Group_1303" data-name="Group 1303" transform="translate(307.834 203.968)" opacity="0.48">
          <g id="Group_1302" data-name="Group 1302">
            <g id="Group_1301" data-name="Group 1301" clip-path="url(#clip-path-10)">
              <g transform="matrix(1, 0, 0, 1, -307.83, -203.97)" filter="url(#Path_2051)">
                <path id="Path_2051-2" data-name="Path 2051" d="M196.228,655.922c15.573,0,47.574,28,1.839,32.481s-114.233,2.422-141.951,2.516C10.872,691.073-.351,689.2.009,670.461c.208-10.844,5.985-17.866,29.837-20.71,24.811-2.958,12.136-30.925,42.423-30.077,25.8.721,28.428,37.33,52.033,28.358s18.661,15.478,35.924,19.963c18.973,4.931,20.434-12.073,36-12.073" transform="translate(307.83 -415.68)" fill="#fdfffd"/>
              </g>
            </g>
          </g>
        </g>
        <g id="Group_1306" data-name="Group 1306" transform="translate(1390.72 423.24)" opacity="0.65">
          <g id="Group_1305" data-name="Group 1305">
            <g id="Group_1304" data-name="Group 1304" clip-path="url(#clip-path-11)">
              <path id="Path_2052" data-name="Path 2052" d="M1399.231,1308.163c-29.806,2.011-58.294-.624-87.542-7.332-4.486-1.029-9.244-2.4-12.285-6.221-4.6-5.781-3.22-15.514,1.747-20.91s12.451-7.012,19.356-6.262c4.422.48,8.955,1.805,13.223.432,5.332-1.715,8.864-7.147,12.438-11.876s8.415-9.406,13.926-8.665c4.128.555,7.383,4.016,11.057,6.185s9.011,2.4,11.118-1.6c4.509-8.546-1.82-31.977,21.4-31.977,33.518,0,28.042,23.584,32.077,28.589,6.117,7.586,17.005,5.916,25.864,3.349s19.41-5,26.245,1.779c5.927,5.882,6.538,16.667,12.841,22.044,6.709,5.722,16.238,2.669,24.366.1s18.609-3.514,23.327,4.3c3.955,6.547,1.005,16.055-4.619,20.853s-13.043,5.97-20.114,6.447c-45.913,3.1-87.6-1.719-124.426.766" transform="translate(-1296.591 -1219.941)" fill="#fff"/>
            </g>
          </g>
        </g>
      </g>
    </g>
  </g>
</svg>
