<svg xmlns="http://www.w3.org/2000/svg" xmlns:xlink="http://www.w3.org/1999/xlink" width="582.444" height="568.38" viewBox="0 0 582.444 568.38">
  <defs>
    <clipPath id="clip-path">
      <rect id="Rectangle_4147" data-name="Rectangle 4147" width="582.444" height="568.38" fill="#6bce44"/>
    </clipPath>
  </defs>
  <g id="steps-svg" opacity="0.266">
    <g id="Group_5320" data-name="Group 5320" clip-path="url(#clip-path)">
      <path id="Path_18219" data-name="Path 18219" d="M98.11,659.171s-.063-3.125-.1-5.079-2.855-2.288-2.855-2.288l-12.332-1.037a3.7,3.7,0,0,0-3.482,1.565c-.624,1.033-1.6,2.02-2.874,1.411a7.845,7.845,0,0,1-2.555-1.952,3.718,3.718,0,0,0-2.553-1.23,194.49,194.49,0,0,1-19.344-2.19c-7.051-1.422-6.9,6-6.9,6l.063,3.125.105,5.253.063,3.125s.149,7.423,7.137,5.72a194.228,194.228,0,0,1,19.241-2.964,3.72,3.72,0,0,0,2.5-1.332,7.845,7.845,0,0,1,2.475-2.053c1.253-.659,2.264.287,2.928,1.3a3.7,3.7,0,0,0,3.541,1.424l12.28-1.531s2.8-.447,2.761-2.4-.1-5.078-.1-5.078Z" transform="translate(-16.72 -240.242)" fill="#6bce44"/>
      <path id="Path_18220" data-name="Path 18220" d="M98.326,697.94l-.415-5.063c-.16-1.947-2.991-2.106-2.991-2.106L82.547,690.5a3.7,3.7,0,0,0-3.378,1.777c-.558,1.07-1.468,2.114-2.781,1.586a7.836,7.836,0,0,1-2.671-1.79A3.719,3.719,0,0,0,71.092,691a194.519,194.519,0,0,1-19.442-.991c-7.125-.984-6.518,6.416-6.518,6.416l.256,3.115.43,5.237.256,3.115s.607,7.4,7.477,5.268a194.357,194.357,0,0,1,19.021-4.148,3.717,3.717,0,0,0,2.414-1.483,7.842,7.842,0,0,1,2.344-2.2c1.21-.736,2.277.146,3,1.111a3.7,3.7,0,0,0,3.623,1.2l12.162-2.287s2.767-.619,2.607-2.567l-.415-5.063Z" transform="translate(-16.723 -255.709)" fill="#6bce44"/>
      <path id="Path_18221" data-name="Path 18221" d="M100.148,733.677s-.59-3.07-.96-4.988-3.2-1.772-3.2-1.772l-12.33,1.064a3.7,3.7,0,0,0-3.166,2.131c-.44,1.124-1.232,2.261-2.594,1.877a7.838,7.838,0,0,1-2.849-1.491,3.715,3.715,0,0,0-2.724-.78c-3.992.391-13.882.034-19.513-.13-7.189-.209-5.787,7.082-5.787,7.082l.667,4.312.993,5.16.667,4.313s1.4,7.291,8,4.429c5.168-2.24,14.533-6.3,18.385-7.42a3.716,3.716,0,0,0,2.24-1.735,7.842,7.842,0,0,1,2.093-2.442c1.123-.862,2.28-.1,3.1.781a3.7,3.7,0,0,0,3.731.8l11.845-3.586s2.684-.914,2.315-2.833-.96-4.988-.96-4.988Z" transform="translate(-17.388 -269.42)" fill="#6bce44"/>
      <path id="Path_18222" data-name="Path 18222" d="M106.946,765.754l-1.52-4.031c-.585-1.55-3.329-.87-3.329-.87l-11.9,3.324a4.013,4.013,0,0,0-2.839,2.426c-.3,1.037-.936,2.154-2.31,2.1a7.748,7.748,0,0,1-2.954-.7,3.975,3.975,0,0,0-2.748-.125C75.5,768.99,65.809,770.632,60.3,771.6c-7.038,1.237-4.816,7.129-4.816,7.129l1.156,3.517,1.572,4.17,1.156,3.517s2.222,5.891,8.323,2.174c4.778-2.911,13.437-8.188,17.063-9.891a3.974,3.974,0,0,0,1.982-1.908,7.737,7.737,0,0,1,1.755-2.477c.994-.95,2.212-.533,3.12.05a4.01,4.01,0,0,0,3.733-.053l11.133-5.362s2.511-1.3,1.926-2.852-1.52-4.031-1.52-4.031Z" transform="translate(-20.44 -281.944)" fill="#6bce44"/>
      <path id="Path_18223" data-name="Path 18223" d="M208.04,650.863s-.322-3.11-.522-5.053,2.552-2.621,2.552-2.621l12.111-2.544a3.7,3.7,0,0,1,3.647,1.125c.746.949,1.832,1.808,3.026,1.047a7.841,7.841,0,0,0,2.3-2.251,3.717,3.717,0,0,1,2.382-1.534,194.265,194.265,0,0,0,18.928-4.549c6.823-2.277,7.587,5.108,7.587,5.108l.322,3.11.541,5.226.322,3.11s.764,7.385-6.38,6.553a194.35,194.35,0,0,0-19.459-.579A3.716,3.716,0,0,1,232.746,656a7.841,7.841,0,0,0-2.708-1.733c-1.324-.5-2.212.563-2.747,1.645a3.7,3.7,0,0,1-3.34,1.848l-12.375-.011s-2.834-.1-3.035-2.044-.522-5.053-.522-5.053Z" transform="translate(-76.91 -235.001)" fill="#6bce44"/>
      <path id="Path_18224" data-name="Path 18224" d="M212.442,689.366l-.21-5.076c-.081-1.952,2.709-2.458,2.709-2.458l12.246-1.791a3.7,3.7,0,0,1,3.57,1.348c.686.994,1.717,1.918,2.956,1.233a7.859,7.859,0,0,0,2.431-2.1,3.716,3.716,0,0,1,2.472-1.384,194.437,194.437,0,0,0,19.174-3.371c6.951-1.851,7.257,5.567,7.257,5.567l.128,3.123.217,5.25.128,3.124s.306,7.418-6.773,6.146a194.411,194.411,0,0,0-19.386-1.781,3.72,3.72,0,0,1-2.578-1.176,7.833,7.833,0,0,0-2.6-1.9c-1.291-.581-2.242.425-2.843,1.472a3.7,3.7,0,0,1-3.448,1.638l-12.351-.776s-2.822-.275-2.9-2.227l-.209-5.075Z" transform="translate(-78.66 -250.352)" fill="#6bce44"/>
      <path id="Path_18225" data-name="Path 18225" d="M214.846,726.631s.209-3.119.34-5.069,2.959-2.151,2.959-2.151l12.368-.459a3.7,3.7,0,0,1,3.4,1.726c.575,1.062,1.5,2.092,2.806,1.544a7.85,7.85,0,0,0,2.644-1.83,3.715,3.715,0,0,1,2.607-1.109c4.01-.1,13.781-1.672,19.348-2.526,7.11-1.09,6.613,6.318,6.613,6.318l-.132,4.362-.351,5.243-.132,4.362s-.5,7.408-7.4,5.379c-5.4-1.589-15.2-4.47-19.157-5.105a3.721,3.721,0,0,1-2.436-1.447,7.829,7.829,0,0,0-2.376-2.166c-1.22-.717-2.275.181-2.985,1.156a3.7,3.7,0,0,1-3.6,1.256l-12.2-2.1s-2.776-.578-2.646-2.527.34-5.069.34-5.069Z" transform="translate(-79.507 -265.615)" fill="#6bce44"/>
      <path id="Path_18226" data-name="Path 18226" d="M212.354,760.842l1.013-4.187c.39-1.611,3.2-1.272,3.2-1.272l12.219,1.837a4.011,4.011,0,0,1,3.115,2.057c.422.993,1.194,2.023,2.551,1.8a7.74,7.74,0,0,0,2.845-1.059,3.975,3.975,0,0,1,2.712-.461c3.956.635,13.772,1.074,19.36,1.359,7.136.364,5.655,6.483,5.655,6.483l-.715,3.633-1.049,4.331-.715,3.633s-1.482,6.119-7.994,3.18c-5.1-2.3-14.341-6.476-18.149-7.72a3.978,3.978,0,0,1-2.2-1.65,7.745,7.745,0,0,0-2.045-2.243c-1.1-.82-2.261-.257-3.09.433a4.01,4.01,0,0,1-3.712.405l-11.707-3.954s-2.652-.982-2.262-2.593l1.014-4.187Z" transform="translate(-78.332 -279.961)" fill="#6bce44"/>
      <path id="Path_18227" data-name="Path 18227" d="M167.016,805.838l-3.307.242c-1.272.093-1.387,2.026-1.387,2.026l-.222,8.448a2.583,2.583,0,0,0,1.149,2.322c.7.39,1.376,1.02,1.026,1.913a13.132,13.132,0,0,1-1.236,2.134c-.848,1.354-1.1,3.144-1.65,4.635-.8,2.152-1.656,4.284-2.511,6.415-2.217,5.523-4.486,11.026-6.653,16.57a97.952,97.952,0,0,0-3.75,10.518c-.362,1.371-.68,3.164.511,4.21a5.038,5.038,0,0,0,2.321.99c4.543.974,9.417.351,14.022.4a75.017,75.017,0,0,0,11.388-.746q3.963-.565,7.924-1.146,2.045-.3,4.089-.609a3.8,3.8,0,0,0,2.87-1.376,4.068,4.068,0,0,0,.327-3.466c-.912-3.137-2.852-6.17-4.334-9.055-2.487-4.84-5.028-9.653-7.532-14.484-1.879-3.625-3.878-7.242-5.462-11.009a10.443,10.443,0,0,0-1.048-2.529,17.767,17.767,0,0,1-1.784-2c-.476-.832.1-1.555.736-2.042a2.582,2.582,0,0,0,.8-2.465l-1.451-8.326s-.395-1.9-1.667-1.8l-3.308.242Z" transform="translate(-54.908 -298.585)" fill="#6bce44"/>
      <path id="Path_18228" data-name="Path 18228" d="M190.026,799.112l-2.341,1.862c-.9.716.113,2.361.113,2.361l4.642,7.054a2.716,2.716,0,0,0,2.182,1.331,1.631,1.631,0,0,1,1.857,1.056,5.293,5.293,0,0,1,.147,2.079,2.7,2.7,0,0,0,.485,1.821c1.157,1.722,12.122,26.6,14.881,33.693.509,1.309,1.291,2.942,2.779,3.2a4.408,4.408,0,0,0,2.3-.352,37.442,37.442,0,0,0,11.235-6.992c1.666-1.444,3.246-2.987,4.763-4.591,1.067-1.128,3.465-2.836,3.347-4.649a4.432,4.432,0,0,0-1.727-3.012c-2.9-2.492-27.383-21.922-29.252-23.923a2.7,2.7,0,0,0-1.665-.882,5.293,5.293,0,0,1-1.993-.612,1.631,1.631,0,0,1-.61-2.048,2.716,2.716,0,0,0-.8-2.426l-5.826-6.112s-1.374-1.359-2.275-.643l-2.341,1.862Z" transform="translate(-69.424 -295.441)" fill="#6bce44"/>
      <path id="Path_18229" data-name="Path 18229" d="M201.762,788.171l-1.495,2.591c-.575,1,.972,2.155.972,2.155l6.907,4.857a2.72,2.72,0,0,0,2.519.437,1.631,1.631,0,0,1,2.115.3,5.3,5.3,0,0,1,.9,1.88,2.7,2.7,0,0,0,1.119,1.516c1.708,1.177,19.123,16.231,24.295,21.817.954,1.03,2.281,2.262,3.76,1.958a4.411,4.411,0,0,0,2.013-1.174,24.853,24.853,0,0,0,6.6-8.494,44.146,44.146,0,0,0,2.1-4.953c.578-1.441,2.182-3.91,1.407-5.553a4.435,4.435,0,0,0-2.713-2.168c-3.614-1.252-29.676-9.479-32.148-10.654a2.7,2.7,0,0,0-1.873-.21,5.293,5.293,0,0,1-2.078.163c-.936-.109-1.239-.94-1.319-1.681A2.718,2.718,0,0,0,213.208,789l-7.663-3.546s-1.777-.759-2.352.237l-1.495,2.591Z" transform="translate(-74.179 -291.014)" fill="#6bce44"/>
      <path id="Path_18230" data-name="Path 18230" d="M138.654,801.085l2.553,1.56c.981.6.177,2.357.177,2.357l-3.74,7.57a2.717,2.717,0,0,1-2,1.589c-.743.062-1.582.344-1.714,1.276a5.288,5.288,0,0,0,.11,2.081,2.694,2.694,0,0,1-.257,1.867c-.936,1.851-8.763,27.887-10.63,35.266-.345,1.361-.92,3.078-2.365,3.519a4.406,4.406,0,0,1-2.33-.067,37.446,37.446,0,0,1-12.009-5.559c-1.831-1.228-3.588-2.566-5.291-3.971-1.2-.989-3.787-2.389-3.893-4.2a4.434,4.434,0,0,1,1.344-3.2c2.574-2.83,24.483-25.12,26.092-27.335a2.7,2.7,0,0,1,1.544-1.08,5.285,5.285,0,0,0,1.9-.852,1.631,1.631,0,0,0,.354-2.107,2.718,2.718,0,0,1,.5-2.507l5.031-6.781s1.2-1.517,2.179-.917l2.553,1.56Z" transform="translate(-36.047 -296.305)" fill="#6bce44"/>
      <path id="Path_18231" data-name="Path 18231" d="M120.842,791.559l1.8,2.388c.693.919-.7,2.258-.7,2.258l-6.258,5.668a2.715,2.715,0,0,1-2.445.743,1.632,1.632,0,0,0-2.063.558,5.291,5.291,0,0,0-.662,1.976,2.7,2.7,0,0,1-.925,1.643c-1.551,1.378-16.985,18.457-21.431,24.636-.82,1.14-1.986,2.525-3.491,2.405a4.412,4.412,0,0,1-2.142-.918,24.865,24.865,0,0,1-7.593-7.619,44.234,44.234,0,0,1-2.695-4.657c-.751-1.359-2.646-3.613-2.078-5.338a4.432,4.432,0,0,1,2.426-2.484c3.433-1.687,28.287-13.052,30.6-14.522a2.7,2.7,0,0,1,1.833-.438,5.288,5.288,0,0,0,2.083-.094c.915-.223,1.113-1.085,1.1-1.83a2.715,2.715,0,0,1,1.386-2.147l7.168-4.461s1.67-.972,2.363-.053l1.8,2.388Z" transform="translate(-25.965 -292.386)" fill="#6bce44"/>
      <path id="Path_18232" data-name="Path 18232" d="M197.1,382.6l1.334-3.752c.514-1.443,3.582-.676,3.582-.676l13.336,3.674a5.055,5.055,0,0,1,3.316,2.423,2.958,2.958,0,0,0,2.709,2.089,8.929,8.929,0,0,0,3.183-.534,4.953,4.953,0,0,1,3.005,0c4.315,1.227,14.927,4.183,21.054,5.344,7.825,1.483,5.875,6.966,5.875,6.966l-.821,2.309-1.38,3.88-.821,2.309s-1.95,5.483-8.954,1.692c-5.484-2.969-15.579-7.379-19.7-9.152a4.959,4.959,0,0,1-2.332-1.9,8.918,8.918,0,0,0-2.13-2.424,2.957,2.957,0,0,0-3.42-.091,5.057,5.057,0,0,1-4.1-.216l-12.66-5.572s-2.863-1.344-2.35-2.786l1.334-3.752Z" transform="translate(-72.554 -140.087)" fill="#6bce44"/>
      <path id="Path_18233" data-name="Path 18233" d="M75.073,393.836l1.3,3.765c.5,1.448-2.379,2.762-2.379,2.762L61.271,405.8a5.053,5.053,0,0,1-4.1.173,2.957,2.957,0,0,0-3.421.055,8.933,8.933,0,0,0-2.156,2.4,4.953,4.953,0,0,1-2.352,1.87c-4.139,1.73-14.278,6.034-19.794,8.946-7.043,3.718-8.936-1.785-8.936-1.785l-.8-2.317-1.34-3.895-.8-2.317s-1.893-5.5,5.947-6.9c6.139-1.1,16.781-3.942,21.108-5.125a4.954,4.954,0,0,1,3.005.028,8.917,8.917,0,0,0,3.177.567,2.956,2.956,0,0,0,2.731-2.061,5.055,5.055,0,0,1,3.341-2.388l13.373-3.536s3.076-.734,3.575.714l1.3,3.765Z" transform="translate(-6.44 -144.3)" fill="#6bce44"/>
      <path id="Path_18234" data-name="Path 18234" d="M212.669,351.976l1.093-4.341c.42-1.668,3.557-1.234,3.557-1.234l13.655,2.271a4.7,4.7,0,0,1,3.5,2.239,2.785,2.785,0,0,0,2.862,1.95,8.718,8.718,0,0,0,3.166-1.023,4.632,4.632,0,0,1,3.023-.4c4.42.777,15.288,2.619,21.527,3.079,7.967.585,6.369,6.93,6.369,6.93l-.673,2.672-1.13,4.49-.673,2.671s-1.6,6.345-8.893,3.087c-5.712-2.551-16.156-6.076-20.418-7.484a4.637,4.637,0,0,1-2.471-1.786,8.743,8.743,0,0,0-2.3-2.4,2.787,2.787,0,0,0-3.445.363,4.7,4.7,0,0,1-4.139.316l-13.1-4.467s-2.968-1.1-2.548-2.772l1.093-4.341Z" transform="translate(-78.42 -128.369)" fill="#6bce44"/>
      <path id="Path_18235" data-name="Path 18235" d="M66.806,363.678s.47,2.714.763,4.411-2.749,2.573-2.749,2.573l-13.4,3.468a4.694,4.694,0,0,1-4.1-.626,2.785,2.785,0,0,0-3.408-.621,8.737,8.737,0,0,0-2.478,2.22,4.633,4.633,0,0,1-2.6,1.6c-4.355,1.084-15.035,3.813-20.923,5.927-7.519,2.7-8.635-3.747-8.635-3.747l-.47-2.714-.79-4.563-.47-2.714s-1.116-6.447,6.873-6.432c6.257.012,17.232-1.008,21.7-1.451a4.63,4.63,0,0,1,2.983.629,8.727,8.727,0,0,0,3.08,1.258,2.785,2.785,0,0,0,3-1.73,4.7,4.7,0,0,1,3.655-1.969l13.786-1.238s3.161-.2,3.454,1.5l.764,4.411Z" transform="translate(-2.777 -132.669)" fill="#6bce44"/>
      <path id="Path_18236" data-name="Path 18236" d="M225.264,313.978s.4-2.726.649-4.43,3.414-1.588,3.414-1.588l13.814.879a4.694,4.694,0,0,1,3.7,1.874,2.785,2.785,0,0,0,3.045,1.651,8.723,8.723,0,0,0,3.045-1.337,4.629,4.629,0,0,1,2.966-.706c4.477.327,15.475,1.06,21.729.886,7.986-.223,7.038,6.251,7.038,6.251l-.4,2.726-.671,4.582-.4,2.726s-.948,6.474-8.535,3.971c-5.941-1.96-16.688-4.411-21.07-5.382a4.629,4.629,0,0,1-2.639-1.527,8.724,8.724,0,0,0-2.534-2.155,2.786,2.786,0,0,0-3.391.709,4.693,4.693,0,0,1-4.086.733l-13.486-3.119s-3.064-.8-2.815-2.5.649-4.429.649-4.429Z" transform="translate(-83.255 -114.141)" fill="#6bce44"/>
      <path id="Path_18237" data-name="Path 18237" d="M63.622,326.179s.228,2.745.369,4.462-3.062,2.327-3.062,2.327l-14.076,2.3a4.928,4.928,0,0,1-4.153-.977,2.912,2.912,0,0,0-3.439-.911,9.018,9.018,0,0,0-2.75,2,4.85,4.85,0,0,1-2.816,1.366c-4.571.706-15.786,2.505-22.026,4.105-7.969,2.042-8.509-4.478-8.509-4.478l-.228-2.745-.383-4.615-.227-2.745s-.541-6.52,7.656-5.817c6.418.55,17.776.48,22.4.423a4.851,4.851,0,0,1,3,.884,9.024,9.024,0,0,0,3.042,1.519,2.913,2.913,0,0,0,3.242-1.465,4.924,4.924,0,0,1,3.934-1.647l14.263-.047s3.262.076,3.4,1.791.369,4.462.369,4.462Z" transform="translate(-0.858 -118.646)" fill="#6bce44"/>
      <path id="Path_18238" data-name="Path 18238" d="M61.3,289.111s-.16,2.75-.26,4.469-3.359,1.874-3.359,1.874l-14.26.3a4.927,4.927,0,0,1-3.974-1.55,2.912,2.912,0,0,0-3.277-1.385,9.023,9.023,0,0,0-3,1.593,4.854,4.854,0,0,1-2.98.957c-4.625.057-15.981.265-22.385.973-8.177.9-7.8-5.628-7.8-5.628l.16-2.75.269-4.623.16-2.75s.38-6.532,8.4-4.686c6.278,1.446,17.533,2.971,22.121,3.563a4.854,4.854,0,0,1,2.849,1.3,9.038,9.038,0,0,0,2.8,1.931,2.913,2.913,0,0,0,3.416-1,4.929,4.929,0,0,1,4.127-1.079l14.129,1.956s3.219.532,3.118,2.251-.261,4.469-.261,4.469Z" transform="translate(0 -102.14)" fill="#6bce44"/>
      <path id="Path_18239" data-name="Path 18239" d="M64.444,250.534s-.379,2.729-.616,4.434-3.5,1.6-3.5,1.6l-14.239-.835a4.93,4.93,0,0,1-3.837-1.863,2.912,2.912,0,0,0-3.156-1.643,9.036,9.036,0,0,0-3.122,1.348,4.852,4.852,0,0,1-3.047.716c-4.615-.312-15.952-1.012-22.391-.818-8.223.248-7.323-6.233-7.323-6.233l.38-2.728.637-4.587.38-2.728s.9-6.481,8.744-4c6.143,1.943,17.241,4.361,21.766,5.318a4.849,4.849,0,0,1,2.736,1.52,9.039,9.039,0,0,0,2.636,2.148,2.913,2.913,0,0,0,3.484-.72,4.927,4.927,0,0,1,4.2-.746L62.1,243.8s3.166.787,2.928,2.493-.616,4.434-.616,4.434Z" transform="translate(-1.181 -86.222)" fill="#6bce44"/>
      <path id="Path_18240" data-name="Path 18240" d="M234.873,283.221s.112-2.753.182-4.473,3.222-1.937,3.222-1.937l13.8-.572a4.677,4.677,0,0,1,3.872,1.475,2.778,2.778,0,0,0,3.2,1.323,8.713,8.713,0,0,0,2.883-1.649,4.62,4.62,0,0,1,2.871-1.013c4.477-.144,15.47-.566,21.66-1.394,7.9-1.058,7.638,5.48,7.638,5.48l-.112,2.752-.188,4.627-.112,2.752s-.266,6.537-8.057,4.842c-6.1-1.327-17.024-2.639-21.475-3.146a4.617,4.617,0,0,1-2.779-1.242,8.7,8.7,0,0,0-2.74-1.877,2.777,2.777,0,0,0-3.292,1.06,4.682,4.682,0,0,1-3.979,1.156l-13.711-1.69s-3.125-.471-3.055-2.191.181-4.473.181-4.473Z" transform="translate(-86.987 -101.875)" fill="#6bce44"/>
      <path id="Path_18241" data-name="Path 18241" d="M238.369,244.674l-.2-4.472c-.076-1.72,3.048-2.2,3.048-2.2l13.706-1.735a4.68,4.68,0,0,1,3.983,1.143,2.777,2.777,0,0,0,3.3,1.049,8.713,8.713,0,0,0,2.734-1.886,4.614,4.614,0,0,1,2.775-1.252c4.449-.521,15.367-1.869,21.464-3.216,7.786-1.721,8.073,4.816,8.073,4.816l.121,2.752.2,4.626.121,2.752s.287,6.537-7.62,5.505c-6.192-.808-17.186-1.194-21.663-1.323a4.621,4.621,0,0,1-2.874-1,8.7,8.7,0,0,0-2.889-1.639,2.776,2.776,0,0,0-3.19,1.334,4.681,4.681,0,0,1-3.867,1.488l-13.805-.527s-3.153-.206-3.229-1.926l-.2-4.472Z" transform="translate(-88.275 -85.919)" fill="#6bce44"/>
      <path id="Path_18242" data-name="Path 18242" d="M236.12,206.738s-.4-2.726-.642-4.43,2.813-2.5,2.813-2.5l13.463-3.095a4.68,4.68,0,0,1,4.077.74,2.777,2.777,0,0,0,3.383.714,8.694,8.694,0,0,0,2.532-2.15,4.617,4.617,0,0,1,2.636-1.523c4.375-.963,15.1-3.395,21.035-5.345,7.575-2.49,8.514,3.986,8.514,3.986l.395,2.726.665,4.582.4,2.726s.938,6.475-7.032,6.238c-6.241-.185-17.219.529-21.687.848a4.618,4.618,0,0,1-2.96-.712,8.708,8.708,0,0,0-3.039-1.343,2.777,2.777,0,0,0-3.041,1.646,4.678,4.678,0,0,1-3.7,1.867l-13.788.855s-3.159.11-3.406-1.594-.642-4.431-.642-4.431Z" transform="translate(-87.271 -69.896)" fill="#6bce44"/>
      <path id="Path_18243" data-name="Path 18243" d="M72.7,214.224s-.633,2.875-1.028,4.671-3.557,1.478-3.557,1.478l-13.767-1.792a4.538,4.538,0,0,1-3.553-2.222c-.5-1.094-1.393-2.222-2.911-1.945a8.7,8.7,0,0,0-3.166,1.234,4.5,4.5,0,0,1-3.033.567c-4.458-.625-15.417-2.088-21.7-2.29-8.021-.258-6.519-7.085-6.519-7.085l.633-2.875,1.064-4.832.633-2.875s1.5-6.827,8.892-3.694c5.786,2.454,16.346,5.727,20.655,7.031a4.49,4.49,0,0,1,2.514,1.789,8.7,8.7,0,0,0,2.356,2.449c1.261.889,2.545.24,3.458-.544a4.537,4.537,0,0,1,4.157-.526l13.248,4.154s3,1.038,2.607,2.835l-1.028,4.671Z" transform="translate(-4.952 -71.066)" fill="#6bce44"/>
      <path id="Path_18244" data-name="Path 18244" d="M83.417,179.515l-1.689,4.579c-.649,1.761-3.74,1.021-3.74,1.021l-13.4-3.63a4.489,4.489,0,0,1-3.206-2.713c-.34-1.171-1.064-2.427-2.609-2.348a8.688,8.688,0,0,0-3.318.826,4.454,4.454,0,0,1-3.091.172c-4.333-1.221-15-4.146-21.2-5.182-7.921-1.322-5.453-8.014-5.453-8.014l1.039-2.818,1.747-4.735,1.04-2.818S32,147.165,38.883,151.3c5.389,3.242,15.4,7.942,19.486,9.828a4.457,4.457,0,0,1,2.239,2.137,8.685,8.685,0,0,0,1.986,2.784c1.123,1.064,2.491.578,3.509-.091a4.488,4.488,0,0,1,4.2.02l12.55,5.945s2.831,1.444,2.181,3.205l-1.689,4.579Z" transform="translate(-9.393 -55.578)" fill="#6bce44"/>
      <path id="Path_18245" data-name="Path 18245" d="M94.382,143.358l-2.239,4.336c-.862,1.668-3.782.582-3.782.582L75.75,143.151a4.351,4.351,0,0,1-2.779-3.051c-.18-1.2-.724-2.523-2.243-2.621a8.52,8.52,0,0,0-3.344.437,4.326,4.326,0,0,1-3.038-.184c-4.071-1.7-14.1-5.819-20.019-7.553-7.56-2.215-4.287-8.552-4.287-8.552l1.378-2.668,2.316-4.485,1.378-2.669s3.273-6.337,9.454-1.454c4.841,3.823,14,9.619,17.747,11.953a4.323,4.323,0,0,1,1.908,2.371,8.523,8.523,0,0,0,1.579,2.981c.959,1.181,2.356.857,3.436.312a4.353,4.353,0,0,1,4.1.5l11.478,7.318s2.576,1.753,1.715,3.421l-2.239,4.336Z" transform="translate(-14.579 -40.215)" fill="#6bce44"/>
      <path id="Path_18246" data-name="Path 18246" d="M233.99,166.733s-.584-2.692-.95-4.375,2.632-2.686,2.632-2.686l13.215-4.027a4.682,4.682,0,0,1,4.119.453,2.776,2.776,0,0,0,3.425.477,8.7,8.7,0,0,0,2.376-2.322,4.619,4.619,0,0,1,2.523-1.7c4.3-1.266,14.83-4.44,20.612-6.8,7.383-3.012,8.771,3.382,8.771,3.382l.585,2.692.982,4.525.585,2.692s1.388,6.394-6.579,6.714c-6.24.25-17.141,1.729-21.576,2.358a4.614,4.614,0,0,1-3-.5,8.711,8.711,0,0,0-3.125-1.128,2.777,2.777,0,0,0-2.919,1.854,4.679,4.679,0,0,1-3.56,2.12l-13.695,1.814s-3.143.33-3.508-1.353-.95-4.375-.95-4.375Z" transform="translate(-86.361 -53.723)" fill="#6bce44"/>
      <path id="Path_18247" data-name="Path 18247" d="M225.818,134.3l-1.679-4.149c-.646-1.6,2.137-3.093,2.137-3.093l12.338-6.215a4.684,4.684,0,0,1,4.136-.254,2.778,2.778,0,0,0,3.456-.111,8.71,8.71,0,0,0,1.947-2.692,4.62,4.62,0,0,1,2.2-2.106c4.019-1.978,13.859-6.9,19.156-10.2,6.763-4.222,9.218,1.842,9.218,1.842l1.034,2.553,1.737,4.292,1.033,2.554s2.454,6.065-5.343,7.734c-6.105,1.307-16.6,4.618-20.861,5.992a4.613,4.613,0,0,1-3.044.014,8.714,8.714,0,0,0-3.271-.58,2.777,2.777,0,0,0-2.562,2.322,4.68,4.68,0,0,1-3.148,2.695l-13.188,4.115s-3.041.86-3.687-.736l-1.68-4.15Z" transform="translate(-83.038 -38.539)" fill="#6bce44"/>
      <path id="Path_18248" data-name="Path 18248" d="M212.309,95.713s1.107,1.689,1.8,2.743,2.435.213,2.435.213l11.883-7.343A2.593,2.593,0,0,0,229.9,89.2c.006-.793.23-1.687,1.178-1.819a5.317,5.317,0,0,1,2.147.138,2.588,2.588,0,0,0,1.9-.256c1.83-.982,23.569-5.66,31.005-7.581,1.371-.354,3.09-.952,3.432-2.491a4.968,4.968,0,0,0-.25-2.49,57.729,57.729,0,0,0-6.472-13.413c-1.31-2.125-2.68-4.212-4.026-6.315a50.793,50.793,0,0,0-3.773-5.92c-1.108-1.29-2.748-4.071-4.62-4.2a4.1,4.1,0,0,0-3.183,1.4c-2.707,2.722-16.369,29.551-18.519,31.248a2.6,2.6,0,0,0-.989,1.639A5.318,5.318,0,0,1,227,81.17c-.5.817-1.408.667-2.137.357a2.594,2.594,0,0,0-2.536.51l-10.972,8.731s-1.466,1.264-.773,2.319,1.8,2.743,1.8,2.743Z" transform="translate(-77.982 -16.622)" fill="#6bce44"/>
      <path id="Path_18249" data-name="Path 18249" d="M194.934,73.99l3.035,1.281c1.167.492,2.147-1.177,2.147-1.177L207.29,60.12a2.587,2.587,0,0,0,.04-2.587c-.439-.663-.752-1.531-.037-2.168a5.3,5.3,0,0,1,1.865-1.079,2.585,2.585,0,0,0,1.437-1.268c.973-1.834,22.223-23.342,27.338-29.075.943-1.057,2.04-2.51,1.463-3.98a5,5,0,0,0-1.6-1.933A75.1,75.1,0,0,0,222.32,8.708c-2.733-1.3-5.5-2.526-8.262-3.769-2.288-1.031-5.671-3.288-8.208-1.84a4.087,4.087,0,0,0-1.865,2.938c-.729,3.77-3.346,39.817-4.187,42.425a2.585,2.585,0,0,0,.094,1.913,5.319,5.319,0,0,1,.527,2.089c.043.957-.8,1.337-1.579,1.485a2.588,2.588,0,0,0-1.826,1.834L191.374,70.4s-.513,1.866.654,2.359l3.035,1.281Z" transform="translate(-70.888 -0.974)" fill="#6bce44"/>
      <path id="Path_18250" data-name="Path 18250" d="M160.17,72.023l-3.417.206c-1.314.079-1.692-1.821-1.692-1.821L152.9,54.845a2.543,2.543,0,0,1,.862-2.456c.66-.481,1.269-1.2.791-2.034a5.339,5.339,0,0,0-1.45-1.634,2.55,2.55,0,0,1-.965-1.673C151.822,45,138.5,17.667,135.493,10.564c-.556-1.31-1.123-3.044-.046-4.241a5.262,5.262,0,0,1,2.241-1.295,81.5,81.5,0,0,1,19.126-3.765c3.247-.312,6.5-.534,9.754-.77,2.122-.154,5.942-.839,7.6,1a3.961,3.961,0,0,1,.8,3.39c-.6,3.8-10.587,38.69-10.672,41.429a2.553,2.553,0,0,1-.758,1.775,5.351,5.351,0,0,0-1.244,1.8c-.374.889.317,1.527,1.03,1.925a2.544,2.544,0,0,1,1.149,2.335l.432,15.666s-.148,1.932-1.462,2.01l-3.417.206Z" transform="translate(-49.975 -0.09)" fill="#6bce44"/>
      <path id="Path_18251" data-name="Path 18251" d="M129.093,80.2,126.349,82c-1.055.692-2.319-.774-2.319-.774l-7.975-11.468a2.594,2.594,0,0,1-.509-2.536c.31-.73.461-1.639-.356-2.137a5.3,5.3,0,0,0-2.025-.728,2.594,2.594,0,0,1-1.639-.991c-1.286-1.629-19.365-14.579-25.42-19.3-1.117-.871-2.456-2.1-2.156-3.652.354-1.827,2.236-3.782,3.319-5.25,1.343-1.82,2.771-3.577,4.251-5.287a86.568,86.568,0,0,1,8.814-9.2,37.327,37.327,0,0,1,5.188-3.767c1.565-.934,4.242-2.791,6.15-2.117a4.1,4.1,0,0,1,2.361,2.556c1.4,3.575,5.959,37.2,7.257,39.614a2.593,2.593,0,0,1,.255,1.9,5.311,5.311,0,0,0-.14,2.147c.132.948,1.025,1.173,1.818,1.179a2.593,2.593,0,0,1,2.123,1.477l6.587,12.378s.841,1.743-.214,2.436l-2.745,1.8Z" transform="translate(-31.099 -5.43)" fill="#6bce44"/>
      <path id="Path_18252" data-name="Path 18252" d="M108.622,109.847l-2.9,3.928c-1.114,1.51-3.826-.023-3.826-.023L90.256,106.7a4.352,4.352,0,0,1-2.261-3.451c.011-1.21-.317-2.606-1.8-2.943a8.528,8.528,0,0,0-3.372-.1,4.322,4.322,0,0,1-2.971-.661c-3.752-2.325-13-7.972-18.575-10.62-7.116-3.381-2.882-9.121-2.882-9.121l1.782-2.417,3-4.063,1.782-2.417s4.232-5.74,9.565.057c4.176,4.54,12.306,11.71,15.636,14.606a4.325,4.325,0,0,1,1.51,2.643,8.522,8.522,0,0,0,1.088,3.193c.761,1.317,2.191,1.218,3.344.85a4.352,4.352,0,0,1,3.966,1.14l10.179,9.039s2.267,2.138,1.153,3.648l-2.9,3.928Z" transform="translate(-21.18 -25.342)" fill="#6bce44"/>
      <path id="Path_18253" data-name="Path 18253" d="M142.925,391.541l4.146,3.664a1.721,1.721,0,0,0,2.43-.15l3.665-4.146a1.722,1.722,0,0,0,.428-1.246l-.2-3.193a1.722,1.722,0,0,1,1.612-1.824l3.193-.2a1.723,1.723,0,0,0,1.184-.578l3.665-4.146a1.722,1.722,0,0,0-.15-2.43l-4.146-3.664a1.723,1.723,0,0,0-1.246-.429l-3.193.2a1.722,1.722,0,0,1-1.825-1.612l-.2-3.193a1.721,1.721,0,0,0-.578-1.184l-4.146-3.664a1.721,1.721,0,0,0-2.43.15l-3.665,4.146a1.722,1.722,0,0,0-.428,1.246l.2,3.193a1.721,1.721,0,0,1-1.612,1.824l-3.193.2a1.721,1.721,0,0,0-1.184.578l-3.665,4.146a1.722,1.722,0,0,0,.15,2.43l4.146,3.664a1.72,1.72,0,0,0,1.245.429l3.193-.2a1.722,1.722,0,0,1,1.825,1.612l.2,3.193a1.721,1.721,0,0,0,.578,1.184" transform="translate(-48.612 -134.657)" fill="#6bce44"/>
      <path id="Path_18254" data-name="Path 18254" d="M157.115,686.048l4.146,3.664a1.721,1.721,0,0,0,2.43-.15l3.665-4.146a1.722,1.722,0,0,0,.428-1.246l-.2-3.193a1.722,1.722,0,0,1,1.612-1.824l3.193-.2a1.723,1.723,0,0,0,1.184-.578l3.665-4.146a1.722,1.722,0,0,0-.15-2.43l-4.146-3.664a1.72,1.72,0,0,0-1.246-.429l-3.193.2a1.722,1.722,0,0,1-1.825-1.612l-.2-3.193a1.725,1.725,0,0,0-.578-1.184l-4.146-3.664a1.721,1.721,0,0,0-2.43.15l-3.665,4.146a1.722,1.722,0,0,0-.428,1.246l.2,3.193a1.721,1.721,0,0,1-1.612,1.824l-3.193.2a1.721,1.721,0,0,0-1.184.578l-3.665,4.146a1.722,1.722,0,0,0,.15,2.43l4.146,3.664a1.72,1.72,0,0,0,1.246.429l3.193-.2a1.722,1.722,0,0,1,1.825,1.612l.2,3.193a1.721,1.721,0,0,0,.578,1.184" transform="translate(-53.872 -243.812)" fill="#6bce44"/>
      <path id="Path_18255" data-name="Path 18255" d="M161.376,755.17l4.146,3.664a1.721,1.721,0,0,0,2.43-.15l3.665-4.146a1.722,1.722,0,0,0,.428-1.246l-.2-3.193a1.722,1.722,0,0,1,1.612-1.824l3.193-.2a1.723,1.723,0,0,0,1.184-.578l3.665-4.146a1.722,1.722,0,0,0-.15-2.43l-4.146-3.664a1.72,1.72,0,0,0-1.246-.429l-3.193.2a1.722,1.722,0,0,1-1.825-1.612l-.2-3.193a1.721,1.721,0,0,0-.578-1.184l-4.146-3.664a1.721,1.721,0,0,0-2.43.15l-3.665,4.146a1.722,1.722,0,0,0-.428,1.246l.2,3.193a1.721,1.721,0,0,1-1.612,1.824l-3.193.2a1.721,1.721,0,0,0-1.184.578l-3.665,4.146a1.722,1.722,0,0,0,.15,2.43l4.146,3.664a1.721,1.721,0,0,0,1.246.429l3.193-.2a1.722,1.722,0,0,1,1.825,1.612l.2,3.193a1.721,1.721,0,0,0,.578,1.184" transform="translate(-55.451 -269.431)" fill="#6bce44"/>
      <path id="Path_18256" data-name="Path 18256" d="M125.57,335.121l4.146,3.664a1.72,1.72,0,0,0,2.429-.15l3.665-4.146a1.725,1.725,0,0,0,.429-1.246l-.2-3.193a1.722,1.722,0,0,1,1.612-1.824l3.193-.2a1.723,1.723,0,0,0,1.184-.578l3.665-4.146a1.722,1.722,0,0,0-.149-2.43l-4.147-3.664a1.722,1.722,0,0,0-1.245-.429l-3.194.2a1.722,1.722,0,0,1-1.825-1.612l-.2-3.193a1.721,1.721,0,0,0-.578-1.184l-4.145-3.664a1.722,1.722,0,0,0-2.431.15l-3.665,4.146a1.722,1.722,0,0,0-.427,1.246l.2,3.193a1.721,1.721,0,0,1-1.612,1.824l-3.193.2a1.721,1.721,0,0,0-1.184.578l-3.665,4.146a1.721,1.721,0,0,0,.15,2.43l4.146,3.664a1.718,1.718,0,0,0,1.246.429l3.193-.2a1.721,1.721,0,0,1,1.825,1.612l.2,3.193a1.723,1.723,0,0,0,.578,1.184" transform="translate(-42.18 -113.746)" fill="#6bce44"/>
      <path id="Path_18257" data-name="Path 18257" d="M173.239,304.428l4.146,3.664a1.721,1.721,0,0,0,2.43-.15l3.665-4.146a1.722,1.722,0,0,0,.428-1.246l-.2-3.193a1.722,1.722,0,0,1,1.612-1.824l3.193-.2a1.721,1.721,0,0,0,1.184-.578l3.665-4.146a1.722,1.722,0,0,0-.15-2.43l-4.146-3.664a1.72,1.72,0,0,0-1.246-.429l-3.193.2a1.722,1.722,0,0,1-1.825-1.612l-.2-3.193a1.721,1.721,0,0,0-.578-1.184l-4.146-3.664a1.721,1.721,0,0,0-2.43.15l-3.665,4.146a1.722,1.722,0,0,0-.428,1.246l.2,3.193a1.721,1.721,0,0,1-1.612,1.824l-3.193.2a1.721,1.721,0,0,0-1.184.578l-3.665,4.146a1.722,1.722,0,0,0,.15,2.43l4.146,3.664a1.72,1.72,0,0,0,1.246.429l3.193-.2a1.722,1.722,0,0,1,1.825,1.612l.2,3.193a1.721,1.721,0,0,0,.578,1.184" transform="translate(-59.848 -102.37)" fill="#6bce44"/>
      <path id="Path_18258" data-name="Path 18258" d="M133.281,267.243l4.146,3.664a1.721,1.721,0,0,0,2.43-.15l3.665-4.146a1.722,1.722,0,0,0,.428-1.246l-.2-3.193a1.722,1.722,0,0,1,1.612-1.824l3.193-.2a1.723,1.723,0,0,0,1.184-.578l3.665-4.146a1.722,1.722,0,0,0-.15-2.43l-4.146-3.664a1.72,1.72,0,0,0-1.246-.429l-3.193.2a1.722,1.722,0,0,1-1.825-1.612l-.2-3.193a1.721,1.721,0,0,0-.578-1.184l-4.146-3.664a1.721,1.721,0,0,0-2.43.15l-3.665,4.146a1.722,1.722,0,0,0-.428,1.246l.2,3.193a1.721,1.721,0,0,1-1.612,1.824l-3.193.2a1.721,1.721,0,0,0-1.184.578l-3.665,4.146a1.722,1.722,0,0,0,.15,2.43l4.146,3.664a1.72,1.72,0,0,0,1.246.429l3.193-.2a1.722,1.722,0,0,1,1.825,1.612l.2,3.193a1.721,1.721,0,0,0,.578,1.184" transform="translate(-45.038 -88.588)" fill="#6bce44"/>
      <path id="Path_18259" data-name="Path 18259" d="M185.264,242.232l4.146,3.664a1.721,1.721,0,0,0,2.43-.15L195.5,241.6a1.722,1.722,0,0,0,.428-1.246l-.2-3.193a1.722,1.722,0,0,1,1.612-1.824l3.193-.2a1.723,1.723,0,0,0,1.184-.578l3.665-4.146a1.722,1.722,0,0,0-.15-2.43l-4.146-3.664a1.723,1.723,0,0,0-1.246-.429l-3.193.2a1.722,1.722,0,0,1-1.825-1.612l-.2-3.193a1.721,1.721,0,0,0-.578-1.184l-4.146-3.664a1.721,1.721,0,0,0-2.43.15l-3.665,4.146a1.722,1.722,0,0,0-.428,1.246l.2,3.193A1.721,1.721,0,0,1,181.972,225l-3.193.2a1.721,1.721,0,0,0-1.184.578l-3.665,4.146a1.722,1.722,0,0,0,.15,2.43l4.146,3.664a1.72,1.72,0,0,0,1.246.429l3.193-.2a1.722,1.722,0,0,1,1.825,1.612l.2,3.193a1.721,1.721,0,0,0,.578,1.184" transform="translate(-64.305 -79.318)" fill="#6bce44"/>
      <path id="Path_18260" data-name="Path 18260" d="M145.306,205.046l4.146,3.664a1.721,1.721,0,0,0,2.43-.15l3.665-4.146a1.722,1.722,0,0,0,.428-1.246l-.2-3.193a1.722,1.722,0,0,1,1.612-1.824l3.193-.2a1.723,1.723,0,0,0,1.184-.578l3.665-4.146a1.722,1.722,0,0,0-.15-2.43l-4.146-3.664a1.723,1.723,0,0,0-1.245-.429l-3.193.2a1.722,1.722,0,0,1-1.825-1.612l-.2-3.193a1.721,1.721,0,0,0-.578-1.184l-4.146-3.664a1.721,1.721,0,0,0-2.43.15l-3.665,4.146a1.722,1.722,0,0,0-.428,1.246l.2,3.193a1.721,1.721,0,0,1-1.612,1.824l-3.193.2a1.721,1.721,0,0,0-1.184.578l-3.665,4.146a1.722,1.722,0,0,0,.15,2.43l4.146,3.664a1.718,1.718,0,0,0,1.246.429l3.193-.2a1.722,1.722,0,0,1,1.825,1.612l.2,3.193a1.721,1.721,0,0,0,.578,1.184" transform="translate(-49.495 -65.535)" fill="#6bce44"/>
      <path id="Path_18261" data-name="Path 18261" d="M167.693,150.141l4.146,3.664a1.721,1.721,0,0,0,2.43-.15l3.665-4.146a1.722,1.722,0,0,0,.428-1.246l-.2-3.193a1.722,1.722,0,0,1,1.612-1.824l3.193-.2a1.723,1.723,0,0,0,1.184-.578l3.665-4.146a1.722,1.722,0,0,0-.15-2.43l-4.146-3.664a1.723,1.723,0,0,0-1.246-.429l-3.193.2a1.722,1.722,0,0,1-1.825-1.612l-.2-3.193a1.725,1.725,0,0,0-.578-1.184l-4.146-3.664a1.721,1.721,0,0,0-2.43.15l-3.665,4.146a1.722,1.722,0,0,0-.428,1.246l.2,3.193A1.721,1.721,0,0,1,164.4,132.9l-3.193.2a1.721,1.721,0,0,0-1.184.578l-3.665,4.146a1.722,1.722,0,0,0,.15,2.43l4.146,3.664a1.718,1.718,0,0,0,1.246.429l3.193-.2a1.722,1.722,0,0,1,1.825,1.612l.2,3.193a1.721,1.721,0,0,0,.578,1.184" transform="translate(-57.792 -45.186)" fill="#6bce44"/>
      <path id="Path_18262" data-name="Path 18262" d="M783.4,661.649s.171-3.122.278-5.073,2.932-2.188,2.932-2.188l12.36-.61a3.7,3.7,0,0,1,3.426,1.684c.587,1.055,1.525,2.074,2.823,1.51a7.84,7.84,0,0,0,2.621-1.863,3.718,3.718,0,0,1,2.594-1.14,194.453,194.453,0,0,0,19.408-1.521c7.1-1.178,6.69,6.236,6.69,6.236l-.171,3.122-.287,5.246-.171,3.122s-.405,7.413-7.331,5.469a194.412,194.412,0,0,0-19.126-3.628A3.715,3.715,0,0,1,807,670.6a7.856,7.856,0,0,0-2.4-2.137c-1.229-.7-2.273.209-2.971,1.193a3.7,3.7,0,0,1-3.589,1.3L785.813,669s-2.782-.544-2.676-2.494.278-5.073.278-5.073Z" transform="translate(-290.257 -241.774)" fill="#6bce44"/>
      <path id="Path_18263" data-name="Path 18263" d="M781.6,699.983l.59-5.046c.227-1.94,3.062-2,3.062-2l12.375.154a3.7,3.7,0,0,1,3.315,1.893c.52,1.089,1.393,2.164,2.724,1.681a7.836,7.836,0,0,0,2.731-1.7,3.722,3.722,0,0,1,2.659-.979,194.158,194.158,0,0,0,19.465-.318c7.155-.736,6.292,6.638,6.292,6.638l-.363,3.1-.611,5.219-.364,3.105s-.863,7.374-7.654,5.006a194.243,194.243,0,0,0-18.866-4.8,3.719,3.719,0,0,1-2.361-1.566,7.832,7.832,0,0,0-2.266-2.281c-1.183-.777-2.281.067-3.039,1.006a3.7,3.7,0,0,1-3.662,1.076l-12.076-2.706s-2.744-.714-2.517-2.655l.59-5.046Z" transform="translate(-289.476 -256.826)" fill="#6bce44"/>
      <path id="Path_18264" data-name="Path 18264" d="M778.232,735.145l1.132-4.952c.435-1.9,3.26-1.66,3.26-1.66l12.285,1.489A3.7,3.7,0,0,1,798,732.26c.4,1.138,1.152,2.3,2.527,1.966a7.84,7.84,0,0,0,2.9-1.392,3.717,3.717,0,0,1,2.749-.686c3.976.529,13.872.514,19.505.545,7.193.04,5.539,7.278,5.539,7.278l-.816,4.287-1.17,5.123-.816,4.287s-1.654,7.238-8.15,4.151c-5.087-2.418-14.306-6.8-18.118-8.05a3.721,3.721,0,0,1-2.178-1.812,7.84,7.84,0,0,0-2.006-2.512c-1.093-.9-2.275-.179-3.13.673a3.7,3.7,0,0,1-3.757.675L779.364,742.8s-2.651-1.007-2.215-2.911,1.132-4.952,1.132-4.952Z" transform="translate(-288.021 -270.016)" fill="#6bce44"/>
      <path id="Path_18265" data-name="Path 18265" d="M770.879,766.987l1.658-3.976c.638-1.529,3.358-.754,3.358-.754l11.779,3.733a4.011,4.011,0,0,1,2.753,2.521c.261,1.047.861,2.186,2.237,2.176a7.732,7.732,0,0,0,2.976-.6,3.982,3.982,0,0,1,2.75-.03c3.807,1.249,13.432,3.224,18.907,4.383,6.99,1.479,4.567,7.291,4.567,7.291l-1.277,3.475-1.715,4.113-1.277,3.475s-2.424,5.812-8.393,1.885c-4.675-3.074-13.146-8.647-16.711-10.474a3.976,3.976,0,0,1-1.915-1.976,7.732,7.732,0,0,0-1.668-2.536c-.962-.984-2.193-.609-3.12-.058a4.011,4.011,0,0,1-3.729-.182l-10.941-5.744s-2.464-1.387-1.826-2.916l1.658-3.976Z" transform="translate(-285.088 -282.447)" fill="#6bce44"/>
      <path id="Path_18266" data-name="Path 18266" d="M673.405,648.69s.429-3.1.7-5.032-2.46-2.708-2.46-2.708l-12.016-2.961a3.7,3.7,0,0,0-3.684,1c-.779.923-1.893,1.744-3.06.942a7.832,7.832,0,0,1-2.217-2.329,3.719,3.719,0,0,0-2.328-1.616,194.408,194.408,0,0,1-18.76-5.2c-6.74-2.511-7.759,4.843-7.759,4.843l-.429,3.1-.721,5.2-.429,3.1s-1.018,7.354,6.15,6.769a194.371,194.371,0,0,1,19.468.094,3.717,3.717,0,0,0,2.679-.922,7.842,7.842,0,0,1,2.767-1.638c1.341-.454,2.191.639,2.689,1.738a3.7,3.7,0,0,0,3.274,1.962l12.369.417s2.835,0,3.1-1.937l.7-5.032Z" transform="translate(-229.864 -233.597)" fill="#6bce44"/>
      <path id="Path_18267" data-name="Path 18267" d="M667.947,687.012l.385-5.065c.148-1.948-2.623-2.551-2.623-2.551l-12.176-2.213a3.7,3.7,0,0,0-3.615,1.224c-.719.969-1.782,1.858-3,1.13a7.836,7.836,0,0,1-2.357-2.187,3.722,3.722,0,0,0-2.423-1.469,194.348,194.348,0,0,1-19.046-4.032c-6.882-2.09-7.445,5.313-7.445,5.313l-.237,3.117-.4,5.239-.237,3.117s-.562,7.4,6.557,6.376a194.352,194.352,0,0,1,19.436-1.11,3.721,3.721,0,0,0,2.618-1.086,7.833,7.833,0,0,1,2.66-1.806c1.31-.536,2.227.5,2.791,1.569a3.7,3.7,0,0,0,3.389,1.756l12.37-.349s2.83-.177,2.978-2.125l.385-5.066Z" transform="translate(-227.855 -248.873)" fill="#6bce44"/>
      <path id="Path_18268" data-name="Path 18268" d="M664.4,724.16s-.1-3.125-.164-5.077-2.882-2.253-2.882-2.253l-12.344-.886a3.7,3.7,0,0,0-3.462,1.607c-.611,1.041-1.571,2.039-2.857,1.446a7.849,7.849,0,0,1-2.579-1.92,3.717,3.717,0,0,0-2.567-1.2c-4-.24-13.715-2.146-19.25-3.192-7.068-1.335-6.827,6.085-6.827,6.085l-.019,4.364.17,5.252-.018,4.364s.24,7.421,7.207,5.632c5.456-1.4,15.342-3.942,19.322-4.44a3.72,3.72,0,0,0,2.485-1.362,7.832,7.832,0,0,1,2.45-2.083c1.245-.675,2.268.259,2.944,1.259a3.7,3.7,0,0,0,3.558,1.38l12.261-1.682s2.794-.482,2.731-2.434-.164-5.077-.164-5.077Z" transform="translate(-226.624 -264.087)" fill="#6bce44"/>
      <path id="Path_18269" data-name="Path 18269" d="M665.4,759.323s-.534-2.6-.868-4.22-3.152-1.381-3.152-1.381L649.1,755.135a4.01,4.01,0,0,0-3.185,1.949c-.456.977-1.263,1.98-2.611,1.709a7.732,7.732,0,0,1-2.807-1.157,3.978,3.978,0,0,0-2.694-.554c-3.975.5-13.8.6-19.4.689-7.144.116-5.875,6.284-5.875,6.284l.589,3.655.9,4.365.589,3.655s1.269,6.167,7.879,3.454c5.176-2.125,14.556-5.976,18.4-7.088a3.977,3.977,0,0,0,2.257-1.573,7.732,7.732,0,0,1,2.122-2.171c1.132-.782,2.268-.179,3.074.539a4.013,4.013,0,0,0,3.7.534l11.836-3.548s2.684-.891,2.35-2.514l-.869-4.219Z" transform="translate(-226.996 -279.351)" fill="#6bce44"/>
      <path id="Path_18270" data-name="Path 18270" d="M714.014,805.506l3.3.357c1.268.137,1.315,2.072,1.315,2.072l-.07,8.451a2.582,2.582,0,0,1-1.228,2.281c-.71.366-1.41.972-1.092,1.876a13.172,13.172,0,0,0,1.162,2.175c.8,1.383.986,3.18,1.488,4.689.724,2.179,1.507,4.339,2.288,6.5,2.025,5.6,4.1,11.175,6.077,16.79a97.983,97.983,0,0,1,3.385,10.641c.314,1.383.57,3.187-.656,4.19a5.048,5.048,0,0,1-2.354.909c-4.574.815-9.423.025-14.028-.085a75.115,75.115,0,0,1-11.356-1.139q-3.941-.7-7.879-1.42-2.033-.372-4.066-.75a3.793,3.793,0,0,1-2.821-1.474,4.065,4.065,0,0,1-.206-3.475c1.019-3.1,3.063-6.068,4.644-8.9,2.653-4.751,5.358-9.473,8.028-14.215,2-3.558,4.125-7.1,5.84-10.814a10.453,10.453,0,0,1,1.135-2.492,17.7,17.7,0,0,0,1.852-1.938c.5-.815-.05-1.556-.665-2.066a2.581,2.581,0,0,1-.712-2.491l1.738-8.27s.46-1.88,1.728-1.743l3.3.357Z" transform="translate(-254.62 -298.42)" fill="#6bce44"/>
      <path id="Path_18271" data-name="Path 18271" d="M688.562,798.324l2.276,1.942c.875.746-.2,2.356-.2,2.356l-4.882,6.888a2.718,2.718,0,0,1-2.227,1.255,1.631,1.631,0,0,0-1.893.991,5.288,5.288,0,0,0-.218,2.073,2.7,2.7,0,0,1-.548,1.8c-1.216,1.681-13.033,26.165-16.037,33.159-.553,1.29-1.392,2.9-2.887,3.1a4.4,4.4,0,0,1-2.291-.432,37.453,37.453,0,0,1-10.986-7.375c-1.616-1.5-3.141-3.1-4.6-4.754-1.028-1.164-3.365-2.954-3.185-4.762a4.435,4.435,0,0,1,1.83-2.95c2.986-2.39,28.124-20.963,30.061-22.9a2.694,2.694,0,0,1,1.694-.824,5.288,5.288,0,0,0,2.013-.542,1.632,1.632,0,0,0,.68-2.026,2.717,2.717,0,0,1,.888-2.4l6.033-5.907s1.42-1.31,2.3-.563l2.276,1.941Z" transform="translate(-237.532 -295.113)" fill="#6bce44"/>
      <path id="Path_18272" data-name="Path 18272" d="M674.1,787.014l1.4,2.641c.54,1.016-1.046,2.12-1.046,2.12l-7.071,4.615a2.716,2.716,0,0,1-2.531.349,1.631,1.631,0,0,0-2.125.227,5.283,5.283,0,0,0-.964,1.848,2.7,2.7,0,0,1-1.171,1.477c-1.748,1.118-19.673,15.561-25.034,20.965-.989,1-2.358,2.182-3.826,1.827a4.4,4.4,0,0,1-1.971-1.243,24.848,24.848,0,0,1-6.3-8.717,44.214,44.214,0,0,1-1.931-5.022c-.528-1.46-2.045-3.983-1.213-5.6a4.433,4.433,0,0,1,2.786-2.073c3.655-1.127,29.985-8.448,32.5-9.537a2.7,2.7,0,0,1,1.879-.145,5.276,5.276,0,0,0,2.071.235c.939-.076,1.27-.9,1.376-1.634a2.717,2.717,0,0,1,1.706-1.9l7.78-3.28s1.8-.7,2.343.318l1.4,2.641Z" transform="translate(-229.82 -290.553)" fill="#6bce44"/>
      <path id="Path_18273" data-name="Path 18273" d="M743.314,801.4l-2.6,1.471c-1,.566-.259,2.349-.259,2.349l3.476,7.7a2.718,2.718,0,0,0,1.946,1.656c.74.087,1.569.4,1.669,1.335a5.29,5.29,0,0,1-.182,2.076,2.7,2.7,0,0,0,.193,1.875c.872,1.882,7.793,28.173,9.405,35.612.3,1.373.813,3.108,2.241,3.6a4.41,4.41,0,0,0,2.331.013,37.444,37.444,0,0,0,12.194-5.14c1.872-1.164,3.675-2.441,5.425-3.786,1.231-.947,3.867-2.257,4.035-4.066a4.432,4.432,0,0,0-1.233-3.246c-2.475-2.917-23.6-25.95-25.131-28.219a2.7,2.7,0,0,0-1.506-1.133,5.274,5.274,0,0,1-1.872-.917,1.63,1.63,0,0,1-.281-2.118,2.717,2.717,0,0,0-.413-2.522l-4.793-6.951s-1.144-1.558-2.146-.992l-2.6,1.47Z" transform="translate(-274.339 -296.46)" fill="#6bce44"/>
      <path id="Path_18274" data-name="Path 18274" d="M756.5,792.3l-1.883,2.324c-.724.894.622,2.281.622,2.281l6.058,5.881a2.716,2.716,0,0,0,2.419.826,1.631,1.631,0,0,1,2.042.629,5.3,5.3,0,0,1,.594,2,2.694,2.694,0,0,0,.867,1.673c1.5,1.431,16.336,19.033,20.567,25.362.78,1.167,1.9,2.592,3.406,2.525a4.41,4.41,0,0,0,2.173-.843,24.856,24.856,0,0,0,7.852-7.352,44.171,44.171,0,0,0,2.855-4.56c.8-1.332,2.769-3.519,2.261-5.263A4.432,4.432,0,0,0,804,815.213c-3.373-1.8-27.819-14.022-30.076-15.57a2.7,2.7,0,0,0-1.817-.5,5.287,5.287,0,0,1-2.078-.166,1.632,1.632,0,0,1-1.039-1.867,2.716,2.716,0,0,0-1.311-2.194l-7.011-4.706s-1.636-1.029-2.359-.135l-1.883,2.324Z" transform="translate(-279.61 -292.694)" fill="#6bce44"/>
      <path id="Path_18275" data-name="Path 18275" d="M690.531,381.831l-1.2-3.8c-.463-1.46-3.556-.8-3.556-.8l-13.454,3.212a5.056,5.056,0,0,0-3.4,2.307,2.956,2.956,0,0,1-2.779,1.994,8.934,8.934,0,0,1-3.163-.643,4.953,4.953,0,0,0-3-.1c-4.355,1.077-15.062,3.665-21.226,4.613-7.871,1.212-6.112,6.759-6.112,6.759l.741,2.336,1.245,3.925.741,2.336s1.759,5.547,8.89,2c5.584-2.778,15.825-6.836,20-8.466a4.952,4.952,0,0,0,2.4-1.814,8.937,8.937,0,0,1,2.213-2.349,2.957,2.957,0,0,1,3.421.028,5.055,5.055,0,0,0,4.107-.074l12.845-5.131s2.908-1.244,2.445-2.7l-1.2-3.8Z" transform="translate(-234.415 -139.762)" fill="#6bce44"/>
      <path id="Path_18276" data-name="Path 18276" d="M812.24,396.266l-1.424,3.718c-.548,1.43,2.281,2.842,2.281,2.842l12.522,5.876a5.056,5.056,0,0,0,4.1.315,2.955,2.955,0,0,1,3.416.173,8.926,8.926,0,0,1,2.072,2.475,4.954,4.954,0,0,0,2.286,1.951c4.077,1.872,14.062,6.523,19.473,9.625,6.91,3.959,8.992-1.475,8.992-1.475l.876-2.288,1.474-3.845.877-2.288s2.082-5.434-5.705-7.106c-6.1-1.309-16.635-4.519-20.919-5.851a4.953,4.953,0,0,0-3-.076,8.927,8.927,0,0,1-3.2.457,2.956,2.956,0,0,1-2.657-2.154,5.055,5.055,0,0,0-3.257-2.5l-13.243-4s-3.049-.84-3.6.59l-1.424,3.718Z" transform="translate(-300.491 -145.241)" fill="#6bce44"/>
      <path id="Path_18277" data-name="Path 18277" d="M675.525,350.685l-.943-4.376c-.362-1.684-3.512-1.358-3.512-1.358l-13.725,1.8a4.7,4.7,0,0,0-3.571,2.116,2.786,2.786,0,0,1-2.928,1.851,8.74,8.74,0,0,1-3.128-1.132,4.634,4.634,0,0,0-3.007-.507c-4.445.624-15.369,2.09-21.621,2.333-7.983.311-6.605,6.706-6.605,6.706l.58,2.693.975,4.527.58,2.693s1.378,6.4,8.78,3.392c5.8-2.352,16.357-5.514,20.665-6.774a4.629,4.629,0,0,0,2.531-1.7,8.731,8.731,0,0,1,2.385-2.319,2.786,2.786,0,0,1,3.431.481,4.693,4.693,0,0,0,4.125.459l13.248-4.012s3-1,2.642-2.682l-.943-4.377Z" transform="translate(-228.458 -127.842)" fill="#6bce44"/>
      <path id="Path_18278" data-name="Path 18278" d="M820.89,366.391l-.916,4.382c-.352,1.685,2.659,2.665,2.659,2.665l13.273,3.93a4.7,4.7,0,0,0,4.122-.484,2.784,2.784,0,0,1,3.428-.5,8.711,8.711,0,0,1,2.4,2.3,4.634,4.634,0,0,0,2.542,1.684c4.316,1.234,14.895,4.331,20.706,6.647,7.421,2.957,8.76-3.447,8.76-3.447l.563-2.7.947-4.532.563-2.7s1.338-6.4-6.647-6.666c-6.253-.2-17.187-1.6-21.635-2.2a4.632,4.632,0,0,0-3,.526,8.711,8.711,0,0,1-3.121,1.151,2.786,2.786,0,0,1-2.94-1.833,4.694,4.694,0,0,0-3.584-2.094l-13.736-1.714s-3.152-.307-3.5,1.379l-.916,4.382Z" transform="translate(-303.901 -133.724)" fill="#6bce44"/>
      <path id="Path_18279" data-name="Path 18279" d="M664.287,312.282s-.3-2.738-.5-4.449-3.357-1.706-3.357-1.706l-13.836.4a4.694,4.694,0,0,0-3.767,1.744,2.786,2.786,0,0,1-3.1,1.545,8.721,8.721,0,0,1-3-1.442,4.628,4.628,0,0,0-2.94-.809c-4.486.172-15.5.525-21.746.135-7.973-.5-7.25,6-7.25,6l.3,2.738.512,4.6.3,2.738s.724,6.5,8.393,4.263c6.005-1.754,16.83-3.832,21.244-4.65a4.629,4.629,0,0,0,2.69-1.436,8.727,8.727,0,0,1,2.607-2.066,2.784,2.784,0,0,1,3.364.825,4.7,4.7,0,0,0,4.058.874l13.586-2.652s3.09-.69,2.9-2.4-.5-4.449-.5-4.449Z" transform="translate(-224.153 -113.462)" fill="#6bce44"/>
      <path id="Path_18280" data-name="Path 18280" d="M824.431,328.984l-.524,4.446c-.2,1.71,2.98,2.431,2.98,2.431l13.988,2.787a4.924,4.924,0,0,0,4.183-.833,2.912,2.912,0,0,1,3.468-.792,9.014,9.014,0,0,1,2.68,2.093,4.855,4.855,0,0,0,2.768,1.463c4.543.863,15.689,3.049,21.871,4.863,7.893,2.317,8.659-4.181,8.659-4.181l.322-2.736.542-4.6.322-2.736s.765-6.5-7.45-6.079c-6.434.329-17.783-.135-22.4-.351a4.856,4.856,0,0,0-3.032.78,9.034,9.034,0,0,1-3.093,1.413,2.913,2.913,0,0,1-3.19-1.577,4.926,4.926,0,0,0-3.875-1.782l-14.253-.539s-3.262-.037-3.463,1.673l-.524,4.446Z" transform="translate(-305.366 -119.736)" fill="#6bce44"/>
      <path id="Path_18281" data-name="Path 18281" d="M828.142,293.058s.065,2.754.106,4.475,3.292,1.989,3.292,1.989l14.241.8a4.93,4.93,0,0,0,4.025-1.412,2.912,2.912,0,0,1,3.322-1.271,9.033,9.033,0,0,1,2.947,1.7,4.853,4.853,0,0,0,2.945,1.06c4.62.217,15.963.817,22.337,1.745,8.141,1.186,7.986-5.355,7.986-5.355l-.065-2.754-.109-4.629-.065-2.754s-.154-6.541-8.23-4.973c-6.325,1.228-17.626,2.363-22.23,2.8a4.854,4.854,0,0,0-2.892,1.2,9.046,9.046,0,0,1-2.864,1.833,2.913,2.913,0,0,1-3.379-1.113,4.927,4.927,0,0,0-4.087-1.221l-14.188,1.467s-3.235.421-3.195,2.142.106,4.475.106,4.475Z" transform="translate(-306.901 -104.307)" fill="#6bce44"/>
      <path id="Path_18282" data-name="Path 18282" d="M826.061,254.385s.285,2.74.463,4.453,3.44,1.72,3.44,1.72l14.26-.344a4.929,4.929,0,0,0,3.9-1.729,2.912,2.912,0,0,1,3.21-1.533,9.044,9.044,0,0,1,3.073,1.455,4.852,4.852,0,0,0,3.02.821c4.623-.153,15.977-.46,22.406-.043,8.209.532,7.533-5.976,7.533-5.976l-.284-2.74-.478-4.606-.284-2.74s-.676-6.508-8.6-4.3c-6.206,1.729-17.38,3.762-21.937,4.562a4.856,4.856,0,0,0-2.787,1.424,9.041,9.041,0,0,1-2.708,2.056,2.913,2.913,0,0,1-3.458-.84,4.927,4.927,0,0,0-4.171-.891l-14.026,2.595s-3.191.678-3.013,2.39.463,4.453.463,4.453Z" transform="translate(-306.001 -88.347)" fill="#6bce44"/>
      <path id="Path_18283" data-name="Path 18283" d="M656.154,280.213s-.016-2.755-.027-4.477-3.154-2.047-3.154-2.047L639.2,272.641a4.679,4.679,0,0,0-3.921,1.34,2.776,2.776,0,0,1-3.239,1.212,8.7,8.7,0,0,1-2.825-1.748,4.618,4.618,0,0,0-2.834-1.111c-4.47-.3-15.441-1.1-21.6-2.142-7.861-1.33-7.822,5.212-7.822,5.212l.017,2.755.028,4.63.016,2.755s.04,6.543,7.885,5.118c6.144-1.115,17.105-2.049,21.571-2.4a4.617,4.617,0,0,0,2.82-1.145,8.7,8.7,0,0,1,2.8-1.782,2.778,2.778,0,0,1,3.253,1.173,4.679,4.679,0,0,0,3.937,1.293l13.761-1.215s3.139-.363,3.129-2.085-.027-4.477-.027-4.477Z" transform="translate(-221.254 -100.077)" fill="#6bce44"/>
      <path id="Path_18284" data-name="Path 18284" d="M653.778,241.571s.216-2.747.351-4.463-2.97-2.306-2.97-2.306L637.522,232.6a4.679,4.679,0,0,0-4.02,1.005,2.777,2.777,0,0,1-3.329.934,8.718,8.718,0,0,1-2.667-1.979,4.613,4.613,0,0,0-2.729-1.347c-4.429-.675-15.294-2.4-21.341-3.956-7.722-1.989-8.235,4.534-8.235,4.534l-.216,2.747-.362,4.616-.216,2.746s-.513,6.523,7.425,5.765c6.216-.593,17.217-.6,21.7-.573a4.618,4.618,0,0,0,2.906-.9,8.707,8.707,0,0,1,2.944-1.539,2.777,2.777,0,0,1,3.142,1.443,4.681,4.681,0,0,0,3.813,1.621l13.815-.05s3.159-.1,3.293-1.814.351-4.463.351-4.463Z" transform="translate(-220.306 -84.088)" fill="#6bce44"/>
      <path id="Path_18285" data-name="Path 18285" d="M657.084,203.741l.795-4.406c.306-1.694-2.724-2.591-2.724-2.591l-13.349-3.558a4.679,4.679,0,0,0-4.1.6,2.777,2.777,0,0,1-3.406.6,8.717,8.717,0,0,1-2.456-2.236,4.615,4.615,0,0,0-2.582-1.613c-4.339-1.113-14.977-3.915-20.838-6.068-7.484-2.75-8.646,3.689-8.646,3.689l-.489,2.711-.823,4.557-.489,2.711s-1.162,6.439,6.812,6.478c6.245.03,17.191,1.124,21.646,1.6a4.618,4.618,0,0,0,2.983-.609,8.7,8.7,0,0,1,3.083-1.237,2.776,2.776,0,0,1,2.983,1.75,4.679,4.679,0,0,0,3.633,1.993l13.751,1.331s3.152.219,3.458-1.475.795-4.406.795-4.406Z" transform="translate(-221.609 -68.116)" fill="#6bce44"/>
      <path id="Path_18286" data-name="Path 18286" d="M819.853,217.793l.866,4.7c.334,1.809,3.5,1.6,3.5,1.6l13.821-1.315a4.538,4.538,0,0,0,3.627-2.1c.537-1.077,1.469-2.173,2.976-1.844a8.718,8.718,0,0,1,3.122,1.343,4.493,4.493,0,0,0,3.011.672c4.477-.47,15.48-1.554,21.765-1.539,8.025.019,6.759-6.856,6.759-6.856l-.533-2.9-.895-4.866-.534-2.9s-1.266-6.875-8.758-4c-5.868,2.252-16.535,5.158-20.886,6.313a4.5,4.5,0,0,0-2.575,1.7,8.7,8.7,0,0,1-2.439,2.366c-1.29.845-2.552.152-3.438-.663a4.538,4.538,0,0,0-4.136-.669l-13.384,3.694s-3.037.933-2.7,2.743l.867,4.7Z" transform="translate(-303.55 -73.053)" fill="#6bce44"/>
      <path id="Path_18287" data-name="Path 18287" d="M810.545,182.7l1.53,4.634c.588,1.782,3.7,1.149,3.7,1.149l13.521-3.164a4.49,4.49,0,0,0,3.3-2.6c.38-1.158,1.147-2.389,2.689-2.257a8.691,8.691,0,0,1,3.288.941,4.457,4.457,0,0,0,3.083.278c4.374-1.07,15.131-3.626,21.367-4.446,7.963-1.048,5.727-7.82,5.727-7.82l-.942-2.852-1.582-4.793-.942-2.852s-2.236-6.773-9.257-2.874c-5.5,3.053-15.664,7.405-19.814,9.149a4.449,4.449,0,0,0-2.311,2.059,8.7,8.7,0,0,1-2.082,2.713c-1.159,1.025-2.509.492-3.5-.212a4.486,4.486,0,0,0-4.2-.126l-12.748,5.508s-2.879,1.346-2.29,3.128l1.529,4.634Z" transform="translate(-299.845 -57.388)" fill="#6bce44"/>
      <path id="Path_18288" data-name="Path 18288" d="M802.152,146.16l2.088,4.411c.8,1.7,3.76.712,3.76.712L820.78,146.6a4.35,4.35,0,0,0,2.881-2.953c.222-1.19.813-2.5,2.332-2.543a8.514,8.514,0,0,1,3.328.553,4.325,4.325,0,0,0,3.042-.079c4.128-1.561,14.292-5.328,20.269-6.856,7.632-1.952,4.58-8.4,4.58-8.4l-1.285-2.714-2.16-4.562-1.285-2.714s-3.052-6.446-9.4-1.78c-4.97,3.654-14.325,9.13-18.149,11.333a4.324,4.324,0,0,0-1.989,2.3,8.526,8.526,0,0,1-1.682,2.925c-1,1.147-2.383.775-3.444.193a4.352,4.352,0,0,0-4.111.358l-11.724,6.917s-2.635,1.663-1.832,3.359l2.088,4.411Z" transform="translate(-296.509 -41.828)" fill="#6bce44"/>
      <path id="Path_18289" data-name="Path 18289" d="M660.6,163.847l1.1-4.339c.423-1.669-2.538-2.775-2.538-2.775l-13.068-4.48a4.678,4.678,0,0,0-4.132.311,2.778,2.778,0,0,1-3.439.358,8.714,8.714,0,0,1-2.294-2.4,4.621,4.621,0,0,0-2.463-1.789c-4.251-1.414-14.669-4.949-20.365-7.506-7.274-3.265-8.882,3.077-8.882,3.077l-.677,2.67-1.138,4.488-.677,2.67s-1.607,6.342,6.344,6.937c6.226.466,17.07,2.32,21.481,3.1a4.62,4.62,0,0,0,3.018-.4,8.713,8.713,0,0,1,3.162-1.02,2.777,2.777,0,0,1,2.853,1.954,4.681,4.681,0,0,0,3.485,2.242L656,169.232s3.13.438,3.553-1.231,1.1-4.339,1.1-4.339Z" transform="translate(-223.084 -51.996)" fill="#6bce44"/>
      <path id="Path_18290" data-name="Path 18290" d="M670.54,131.77l1.822-4.089c.7-1.573-2.029-3.166-2.029-3.166l-12.116-6.637a4.679,4.679,0,0,0-4.125-.4,2.778,2.778,0,0,1-3.45-.232,8.706,8.706,0,0,1-1.853-2.757,4.616,4.616,0,0,0-2.123-2.182c-3.949-2.115-13.613-7.37-18.792-10.859-6.613-4.454-9.276,1.522-9.276,1.522l-1.121,2.516-1.884,4.23-1.121,2.516s-2.663,5.976,5.071,7.914c6.057,1.517,16.428,5.188,20.641,6.709a4.619,4.619,0,0,0,3.042.12,8.694,8.694,0,0,1,3.289-.467,2.778,2.778,0,0,1,2.48,2.41,4.68,4.68,0,0,0,3.053,2.8l13.037,4.569s3.01.964,3.711-.609l1.821-4.09Z" transform="translate(-227.581 -36.991)" fill="#6bce44"/>
      <path id="Path_18291" data-name="Path 18291" d="M684.806,93.878l-1.894,2.68c-.728,1.03-2.441.129-2.441.129l-11.622-7.749a2.593,2.593,0,0,1-1.4-2.173c.021-.793-.172-1.694-1.115-1.859a5.311,5.311,0,0,0-2.15.064,2.6,2.6,0,0,1-1.889-.321C660.5,83.6,638.935,78.178,631.57,76c-1.359-.4-3.056-1.059-3.344-2.608a4.972,4.972,0,0,1,.336-2.48,57.7,57.7,0,0,1,6.931-13.181c1.383-2.078,2.825-4.117,4.242-6.172a50.762,50.762,0,0,1,3.975-5.786c1.152-1.251,2.888-3.974,4.762-4.041a4.1,4.1,0,0,1,3.134,1.513c2.611,2.815,15.337,30.1,17.428,31.87a2.591,2.591,0,0,1,.932,1.672,5.32,5.32,0,0,0,.657,2.049c.47.833,1.383.715,2.123.43a2.6,2.6,0,0,1,2.517.6l10.664,9.105s1.421,1.313.693,2.344l-1.894,2.679Z" transform="translate(-232.824 -15.467)" fill="#6bce44"/>
      <path id="Path_18292" data-name="Path 18292" d="M709.638,73.243l-3.077,1.176c-1.184.452-2.105-1.25-2.105-1.25l-6.688-14.214a2.588,2.588,0,0,1,.049-2.587c.461-.647.8-1.5.112-2.165A5.307,5.307,0,0,0,696.1,53.06a2.591,2.591,0,0,1-1.392-1.317c-.909-1.867-21.4-24.1-26.316-30-.907-1.089-1.952-2.579-1.324-4.029a4.991,4.991,0,0,1,1.668-1.876,75.075,75.075,0,0,1,15.786-8.783c2.777-1.206,5.586-2.334,8.388-3.481,2.322-.952,5.781-3.091,8.266-1.556a4.086,4.086,0,0,1,1.762,3c.6,3.793,1.969,39.909,2.719,42.544a2.592,2.592,0,0,1-.16,1.909,5.314,5.314,0,0,0-.6,2.069c-.076.955.751,1.364,1.527,1.539a2.588,2.588,0,0,1,1.762,1.9l5.133,14.808s.448,1.882-.736,2.335l-3.077,1.175Z" transform="translate(-247.169 -0.548)" fill="#6bce44"/>
      <path id="Path_18293" data-name="Path 18293" d="M749.5,72.091l3.408.323c1.311.125,1.755-1.761,1.755-1.761l2.7-15.479a2.543,2.543,0,0,0-.776-2.484c-.643-.5-1.228-1.239-.721-2.06a5.346,5.346,0,0,1,1.506-1.583,2.552,2.552,0,0,0,1.023-1.638c.385-2.04,14.639-28.893,17.895-35.887.6-1.29,1.228-3,.193-4.237a5.268,5.268,0,0,0-2.2-1.371A81.479,81.479,0,0,0,755.3,1.491c-3.234-.425-6.479-.758-9.722-1.106-2.115-.228-5.91-1.043-7.627.741a3.96,3.96,0,0,0-.919,3.361c.466,3.817,9.244,39.032,9.234,41.772a2.551,2.551,0,0,0,.7,1.8,5.349,5.349,0,0,1,1.181,1.839c.344.9-.369,1.514-1.1,1.887a2.546,2.546,0,0,0-1.229,2.294l-.973,15.642s.081,1.935,1.392,2.059l3.408.323Z" transform="translate(-273.154 0)" fill="#6bce44"/>
      <path id="Path_18294" data-name="Path 18294" d="M774.288,81.515l2.68,1.893c1.031.728,2.344-.694,2.344-.694l8.367-11.186a2.592,2.592,0,0,0,.6-2.517c-.284-.74-.4-1.654.43-2.124a5.318,5.318,0,0,1,2.049-.658,2.591,2.591,0,0,0,1.672-.933c1.342-1.583,19.857-13.9,26.071-18.412,1.147-.833,2.527-2.018,2.281-3.575-.291-1.838-2.1-3.857-3.135-5.361-1.279-1.865-2.646-3.67-4.066-5.43a86.484,86.484,0,0,0-8.491-9.5,37.317,37.317,0,0,0-5.054-3.944c-1.533-.987-4.143-2.936-6.073-2.328a4.1,4.1,0,0,0-2.448,2.473c-1.521,3.524-7.242,36.973-8.621,39.339a2.592,2.592,0,0,0-.32,1.888,5.313,5.313,0,0,1,.065,2.151c-.164.942-1.065,1.136-1.858,1.115a2.592,2.592,0,0,0-2.173,1.4l-7.011,12.143s-.9,1.713.13,2.441L774.4,81.6Z" transform="translate(-285.844 -6.165)" fill="#6bce44"/>
      <path id="Path_18295" data-name="Path 18295" d="M790.593,112.141l2.758,4.025c1.061,1.548,3.825.11,3.825.11l11.88-6.646a4.353,4.353,0,0,0,2.38-3.371c.031-1.21.407-2.594,1.9-2.879a8.523,8.523,0,0,1,3.373.021,4.322,4.322,0,0,0,2.991-.559c3.83-2.194,13.271-7.518,18.931-9.972,7.228-3.133,3.2-9.016,3.2-9.016l-1.7-2.477-2.854-4.163-1.7-2.478s-4.032-5.883-9.562-.273c-4.331,4.394-12.7,11.278-16.131,14.057a4.322,4.322,0,0,0-1.6,2.589,8.512,8.512,0,0,1-1.2,3.153c-.806,1.291-2.232,1.143-3.371.734a4.354,4.354,0,0,0-4,1L789.23,104.68s-2.339,2.058-1.278,3.606l2.759,4.025Z" transform="translate(-291.941 -26.7)" fill="#6bce44"/>
      <path id="Path_18296" data-name="Path 18296" d="M760.1,392.427l-4.27,3.519a1.721,1.721,0,0,1-2.423-.233l-3.519-4.27a1.718,1.718,0,0,1-.385-1.26l.307-3.185a1.721,1.721,0,0,0-1.548-1.879l-3.185-.307a1.724,1.724,0,0,1-1.164-.619l-3.519-4.27a1.722,1.722,0,0,1,.234-2.423l4.27-3.519a1.719,1.719,0,0,1,1.26-.385l3.185.307a1.721,1.721,0,0,0,1.879-1.548l.307-3.185a1.726,1.726,0,0,1,.619-1.164l4.27-3.519a1.721,1.721,0,0,1,2.423.233l3.519,4.27a1.721,1.721,0,0,1,.385,1.26l-.307,3.185a1.722,1.722,0,0,0,1.548,1.879l3.185.307a1.724,1.724,0,0,1,1.163.619l3.519,4.27a1.721,1.721,0,0,1-.233,2.423l-4.27,3.519a1.721,1.721,0,0,1-1.26.385l-3.185-.307a1.721,1.721,0,0,0-1.879,1.549l-.307,3.185a1.721,1.721,0,0,1-.619,1.163" transform="translate(-274.271 -134.946)" fill="#6bce44"/>
      <path id="Path_18297" data-name="Path 18297" d="M735.743,686.267l-4.27,3.519a1.721,1.721,0,0,1-2.423-.234l-3.519-4.27a1.718,1.718,0,0,1-.385-1.26l.307-3.185a1.722,1.722,0,0,0-1.548-1.879l-3.185-.307a1.724,1.724,0,0,1-1.164-.619l-3.519-4.27a1.722,1.722,0,0,1,.233-2.423l4.27-3.519a1.719,1.719,0,0,1,1.26-.385l3.185.307a1.721,1.721,0,0,0,1.879-1.548l.307-3.185a1.726,1.726,0,0,1,.619-1.164l4.27-3.519a1.721,1.721,0,0,1,2.423.234l3.519,4.27a1.721,1.721,0,0,1,.385,1.26l-.307,3.185a1.721,1.721,0,0,0,1.548,1.879l3.185.307a1.724,1.724,0,0,1,1.163.619l3.519,4.27a1.721,1.721,0,0,1-.233,2.423l-4.27,3.519a1.72,1.72,0,0,1-1.26.385l-3.185-.307a1.722,1.722,0,0,0-1.879,1.548l-.307,3.185a1.721,1.721,0,0,1-.619,1.163" transform="translate(-265.243 -243.854)" fill="#6bce44"/>
      <path id="Path_18298" data-name="Path 18298" d="M729.1,755.2l-4.27,3.519a1.721,1.721,0,0,1-2.423-.233l-3.519-4.27a1.718,1.718,0,0,1-.385-1.26l.307-3.185a1.722,1.722,0,0,0-1.548-1.879l-3.185-.307a1.723,1.723,0,0,1-1.164-.619l-3.519-4.27a1.721,1.721,0,0,1,.234-2.423l4.27-3.519a1.719,1.719,0,0,1,1.26-.385l3.185.307a1.722,1.722,0,0,0,1.879-1.548l.307-3.185a1.727,1.727,0,0,1,.619-1.164l4.27-3.519a1.721,1.721,0,0,1,2.423.234l3.519,4.27a1.721,1.721,0,0,1,.385,1.26l-.307,3.185a1.722,1.722,0,0,0,1.548,1.879l3.185.307a1.724,1.724,0,0,1,1.163.619l3.519,4.27a1.721,1.721,0,0,1-.234,2.423l-4.27,3.519a1.72,1.72,0,0,1-1.26.385L731.9,749.3a1.721,1.721,0,0,0-1.879,1.548l-.307,3.185a1.721,1.721,0,0,1-.619,1.163" transform="translate(-262.78 -269.403)" fill="#6bce44"/>
      <path id="Path_18299" data-name="Path 18299" d="M779.395,336.64l-4.27,3.519a1.721,1.721,0,0,1-2.423-.233l-3.519-4.27a1.718,1.718,0,0,1-.385-1.26l.307-3.185a1.722,1.722,0,0,0-1.548-1.879l-3.185-.307a1.724,1.724,0,0,1-1.164-.619l-3.519-4.27a1.721,1.721,0,0,1,.233-2.423l4.27-3.519a1.719,1.719,0,0,1,1.26-.385l3.185.307a1.722,1.722,0,0,0,1.879-1.548l.307-3.185a1.726,1.726,0,0,1,.619-1.164l4.27-3.519a1.721,1.721,0,0,1,2.423.233l3.519,4.27a1.721,1.721,0,0,1,.385,1.26l-.307,3.185a1.721,1.721,0,0,0,1.548,1.879l3.185.307a1.724,1.724,0,0,1,1.163.619l3.519,4.27a1.721,1.721,0,0,1-.234,2.423l-4.27,3.519a1.72,1.72,0,0,1-1.26.385l-3.185-.307a1.721,1.721,0,0,0-1.879,1.548l-.307,3.185a1.721,1.721,0,0,1-.619,1.163" transform="translate(-281.422 -114.27)" fill="#6bce44"/>
      <path id="Path_18300" data-name="Path 18300" d="M732.815,304.318l-4.27,3.519a1.722,1.722,0,0,1-2.424-.233l-3.519-4.27a1.721,1.721,0,0,1-.385-1.26l.308-3.185a1.723,1.723,0,0,0-1.549-1.879l-3.185-.307a1.725,1.725,0,0,1-1.164-.619l-3.519-4.27a1.722,1.722,0,0,1,.234-2.423l4.27-3.519a1.719,1.719,0,0,1,1.261-.385l3.185.307a1.721,1.721,0,0,0,1.878-1.548l.307-3.185a1.725,1.725,0,0,1,.619-1.164l4.27-3.519a1.722,1.722,0,0,1,2.424.233l3.519,4.27a1.724,1.724,0,0,1,.385,1.26l-.308,3.185a1.722,1.722,0,0,0,1.549,1.879l3.185.307a1.721,1.721,0,0,1,1.163.619l3.519,4.27a1.722,1.722,0,0,1-.234,2.423l-4.27,3.519a1.72,1.72,0,0,1-1.26.385l-3.185-.307a1.722,1.722,0,0,0-1.879,1.548l-.307,3.185a1.719,1.719,0,0,1-.619,1.163" transform="translate(-264.158 -102.29)" fill="#6bce44"/>
      <path id="Path_18301" data-name="Path 18301" d="M774.035,268.536l-4.27,3.519a1.721,1.721,0,0,1-2.423-.233l-3.519-4.27a1.718,1.718,0,0,1-.385-1.26l.307-3.185a1.722,1.722,0,0,0-1.548-1.879l-3.185-.307a1.724,1.724,0,0,1-1.164-.619l-3.519-4.27a1.722,1.722,0,0,1,.234-2.423l4.27-3.519a1.719,1.719,0,0,1,1.26-.385l3.185.307a1.722,1.722,0,0,0,1.879-1.548l.307-3.185a1.726,1.726,0,0,1,.619-1.164l4.27-3.519a1.721,1.721,0,0,1,2.423.234l3.519,4.27a1.722,1.722,0,0,1,.385,1.26l-.307,3.185a1.721,1.721,0,0,0,1.548,1.879l3.185.307a1.721,1.721,0,0,1,1.163.619l3.519,4.27a1.721,1.721,0,0,1-.234,2.423l-4.27,3.519a1.72,1.72,0,0,1-1.26.385l-3.185-.307a1.722,1.722,0,0,0-1.879,1.548l-.307,3.185a1.721,1.721,0,0,1-.619,1.163" transform="translate(-279.436 -89.028)" fill="#6bce44"/>
      <path id="Path_18302" data-name="Path 18302" d="M722.946,241.744l-4.27,3.519a1.721,1.721,0,0,1-2.423-.234l-3.519-4.27a1.718,1.718,0,0,1-.385-1.26l.307-3.185a1.722,1.722,0,0,0-1.548-1.879l-3.185-.307a1.724,1.724,0,0,1-1.164-.619l-3.519-4.27a1.722,1.722,0,0,1,.234-2.423l4.27-3.519a1.719,1.719,0,0,1,1.26-.385l3.185.307a1.722,1.722,0,0,0,1.879-1.548l.307-3.185a1.727,1.727,0,0,1,.619-1.164l4.27-3.519a1.721,1.721,0,0,1,2.423.233l3.519,4.27a1.721,1.721,0,0,1,.385,1.26l-.307,3.185a1.722,1.722,0,0,0,1.548,1.879l3.185.307a1.721,1.721,0,0,1,1.163.619l3.519,4.27a1.721,1.721,0,0,1-.234,2.423l-4.27,3.519a1.72,1.72,0,0,1-1.26.385l-3.185-.307a1.722,1.722,0,0,0-1.879,1.548l-.307,3.185a1.721,1.721,0,0,1-.619,1.163" transform="translate(-260.5 -79.098)" fill="#6bce44"/>
      <path id="Path_18303" data-name="Path 18303" d="M764.166,205.961l-4.27,3.519a1.721,1.721,0,0,1-2.423-.234l-3.519-4.27a1.718,1.718,0,0,1-.385-1.26l.307-3.185a1.722,1.722,0,0,0-1.548-1.879l-3.185-.307a1.724,1.724,0,0,1-1.164-.619l-3.519-4.27a1.721,1.721,0,0,1,.233-2.423l4.27-3.519a1.719,1.719,0,0,1,1.26-.385l3.185.307a1.721,1.721,0,0,0,1.879-1.548l.307-3.185a1.726,1.726,0,0,1,.619-1.164l4.27-3.519a1.721,1.721,0,0,1,2.423.233l3.519,4.27a1.721,1.721,0,0,1,.385,1.26l-.307,3.185a1.721,1.721,0,0,0,1.548,1.879l3.185.307a1.721,1.721,0,0,1,1.163.619l3.519,4.27a1.721,1.721,0,0,1-.234,2.423l-4.27,3.519a1.72,1.72,0,0,1-1.26.385l-3.185-.307a1.721,1.721,0,0,0-1.879,1.548l-.307,3.185a1.721,1.721,0,0,1-.619,1.163" transform="translate(-275.778 -65.835)" fill="#6bce44"/>
      <path id="Path_18304" data-name="Path 18304" d="M743.69,150.315l-4.27,3.519A1.721,1.721,0,0,1,737,153.6l-3.519-4.27a1.718,1.718,0,0,1-.385-1.26l.307-3.185a1.722,1.722,0,0,0-1.548-1.879l-3.185-.307a1.724,1.724,0,0,1-1.164-.619l-3.519-4.27a1.722,1.722,0,0,1,.234-2.423l4.27-3.519a1.719,1.719,0,0,1,1.26-.385l3.185.307a1.722,1.722,0,0,0,1.879-1.548l.307-3.185a1.727,1.727,0,0,1,.619-1.164l4.27-3.519a1.721,1.721,0,0,1,2.423.233l3.519,4.27a1.721,1.721,0,0,1,.385,1.26l-.307,3.185a1.722,1.722,0,0,0,1.548,1.879l3.185.307a1.721,1.721,0,0,1,1.163.619l3.519,4.27a1.721,1.721,0,0,1-.234,2.423l-4.27,3.519a1.72,1.72,0,0,1-1.26.385l-3.185-.307a1.722,1.722,0,0,0-1.879,1.548l-.307,3.185a1.721,1.721,0,0,1-.619,1.163" transform="translate(-268.189 -45.211)" fill="#6bce44"/>
    </g>
  </g>
</svg>
