<svg xmlns="http://www.w3.org/2000/svg" xmlns:xlink="http://www.w3.org/1999/xlink" width="1920" height="443" viewBox="0 0 1920 443">
  <defs>
    <clipPath id="clip-path">
      <rect id="Rectangle_4228" data-name="Rectangle 4228" width="1920" height="443" transform="translate(-785.376 10861.182)" fill="#fff"/>
    </clipPath>
    <filter id="Intersection_1" x="-524.366" y="-47.025" width="3055.484" height="2040.847" filterUnits="userSpaceOnUse">
      <feOffset dy="3" input="SourceAlpha"/>
      <feGaussianBlur stdDeviation="3" result="blur"/>
      <feFlood flood-opacity="0.161"/>
      <feComposite operator="in" in2="blur"/>
      <feComposite in="SourceGraphic"/>
    </filter>
  </defs>
  <g id="step-2-bg" transform="translate(785.376 -10861.182)" clip-path="url(#clip-path)">
    <g id="Step-2-bg-2" data-name="Step-2-bg" transform="translate(1736.742 12495.301) rotate(173)">
      <g transform="matrix(-0.99, -0.12, 0.12, -0.99, 2304.17, 1929.31)" filter="url(#Intersection_1)">
        <path id="Intersection_1-2" data-name="Intersection 1" d="M522.387,151.631C273.9,363.342-73.115,952.326,13.587,1426.29c62.989,344.363,603.465,313.158,1283.845,110.271,289.959-86.47,511.84-66.053,710.386-45.637,199.57,20.525,375.562,41.051,573.45-46.988,366.811-163.194,344.349-745.163,40.566-1053.968-208.654-212.093-360.559-204.867-562.5-197.64-92.091,3.3-194.582,6.592-317.608-10.911C1512.013,148.739,1223.823-.013,941.557,0,797.431.006,654.822,38.8,522.387,151.631Z" transform="translate(2522.12 1634.12) rotate(173)" fill="#e6fbff"/>
      </g>
    </g>
  </g>
</svg>
