<svg xmlns="http://www.w3.org/2000/svg" xmlns:xlink="http://www.w3.org/1999/xlink" width="1920" height="471" viewBox="0 0 1920 471">
  <defs>
    <clipPath id="clip-path">
      <rect id="Rectangle_4226" data-name="Rectangle 4226" width="1920" height="471" transform="translate(0 3694)" fill="#fff"/>
    </clipPath>
    <filter id="Intersection_1" x="-532.197" y="-5.696" width="3055.484" height="2040.846" filterUnits="userSpaceOnUse">
      <feOffset dy="3" input="SourceAlpha"/>
      <feGaussianBlur stdDeviation="3" result="blur"/>
      <feFlood flood-opacity="0.161"/>
      <feComposite operator="in" in2="blur"/>
      <feComposite in="SourceGraphic"/>
    </filter>
    <filter id="Intersection_1-2" x="-553.197" y="1197.963" width="3055.484" height="2040.846" filterUnits="userSpaceOnUse">
      <feOffset dy="3" input="SourceAlpha"/>
      <feGaussianBlur stdDeviation="3" result="blur-2"/>
      <feFlood flood-opacity="0.161"/>
      <feComposite operator="in" in2="blur-2"/>
      <feComposite in="SourceGraphic"/>
    </filter>
  </defs>
  <g id="video-bg-top" transform="translate(0 -3694)" clip-path="url(#clip-path)">
    <g id="video-bg" transform="translate(9.545 1615.15)" style="isolation: isolate">
      <g id="Group_5270" data-name="Group 5270" transform="translate(2504.742 3754.298) rotate(173)" style="isolation: isolate">
        <g transform="matrix(-0.99, -0.12, 0.12, -0.99, 2291.36, 1969.37)" filter="url(#Intersection_1)">
          <path id="Intersection_1-3" data-name="Intersection 1" d="M522.387,151.631C273.9,363.342-73.115,952.326,13.587,1426.29c62.989,344.363,603.465,313.158,1283.845,110.271,289.959-86.47,511.84-66.053,710.386-45.637,199.57,20.525,375.562,41.051,573.45-46.988,366.811-163.194,344.349-745.163,40.566-1053.968-208.654-212.093-360.559-204.867-562.5-197.64-92.091,3.3-194.582,6.592-317.608-10.911C1512.013,148.739,1223.823-.013,941.557,0,797.431.006,654.822,38.8,522.387,151.631Z" transform="translate(2514.29 1675.45) rotate(173)" fill="#238087"/>
        </g>
      </g>
      <g id="Group_5269" data-name="Group 5269" transform="translate(2483.742 4957.958) rotate(173)">
        <g transform="matrix(-0.99, -0.12, 0.12, -0.99, 2123.83, 3161.5)" filter="url(#Intersection_1-2)">
          <path id="Intersection_1-4" data-name="Intersection 1" d="M522.387,151.631C273.9,363.342-73.115,952.326,13.587,1426.29c62.989,344.363,603.465,313.158,1283.845,110.271,289.959-86.47,511.84-66.053,710.386-45.637,199.57,20.525,375.562,41.051,573.45-46.988,366.811-163.194,344.349-745.163,40.566-1053.968-208.654-212.093-360.559-204.867-562.5-197.64-92.091,3.3-194.582,6.592-317.608-10.911C1512.013,148.739,1223.823-.013,941.557,0,797.431.006,654.822,38.8,522.387,151.631Z" transform="translate(2493.29 2879.11) rotate(173)" fill="#fff"/>
        </g>
      </g>
      <path id="Path_21805" data-name="Path 21805" d="M589.342,536.671a7.106,7.106,0,0,1-1.63.232l1.567-.747a1.613,1.613,0,0,0-.736-1.651c-.274-.158-.579-.232-.853-.389a.766.766,0,0,1-.42-.768,2.035,2.035,0,0,0,1.883-1.146,91.175,91.175,0,0,0-9.583.663c-.747.084-1.757.042-1.957-.694-.189-.662.495-1.231,1.115-1.536a13.438,13.438,0,0,1,3.345-1.168c.4-.074.915-.284.852-.684a1.753,1.753,0,0,0-.263-.474c-.347-.641.326-1.325.926-1.725l2.314-1.567c.284-.2.589-.431.62-.778.053-.452-.452-.789-.9-.8a5.772,5.772,0,0,0-1.336.263,2.808,2.808,0,0,1-1.683-.21,1.053,1.053,0,0,1-.684-.842c.01-.894,1.736-.947,1.767-1.851a3.323,3.323,0,0,0-3.061.116c-.957.442-1.8,1.125-2.756,1.6a3.5,3.5,0,0,1-3.061.21c-.357-.189-.684-.631-.463-.968.105-.158.294-.221.431-.358a.863.863,0,0,0-.2-1.241,2.074,2.074,0,0,0-1.357-.284,4.553,4.553,0,0,1-1.42-.042.464.464,0,0,1-.326-.242.845.845,0,0,1,.052-.452c.105-.474-.547-1.178-.894-.831a10.343,10.343,0,0,0-1.7,2.335,1,1,0,0,1-.62-.389,1.9,1.9,0,0,0,.494-1.357,6.06,6.06,0,0,0-2.262-.6,2.261,2.261,0,0,1-1.862-1.231,8.24,8.24,0,0,0,2.683-.747.763.763,0,0,0-.653-.736,2.4,2.4,0,0,0-1.051.105c-3.114.757-6.375.494-9.572.221a2.105,2.105,0,0,1-1.073-.295.718.718,0,0,1-.231-.989l-4.249.253c-.442.031-1.01-.042-1.1-.463-.042-.168.011-.347-.063-.484a.568.568,0,0,0-.41-.253c-.789-.179-1.62.052-2.409-.148-1.241-.316-1.957-1.588-2.524-2.735a1.809,1.809,0,0,1-.242-1.6,7.454,7.454,0,0,0,5.638.484,5.777,5.777,0,0,1-4.428-4.8,2.64,2.64,0,0,0,3.082.536,9.221,9.221,0,0,0,4.87,1.536,1.259,1.259,0,0,0,1.7,1.652c.642-.316,1.031-1.157,1.746-1.147a1.1,1.1,0,0,1,.957,1.157,1.56,1.56,0,0,0,.063.736.908.908,0,0,0,.379.337,4.605,4.605,0,0,0,3.166.473c.873-.2,1.672-.642,2.546-.873a2.618,2.618,0,0,1,2.535.41c.389.378.589.925,1,1.262.484-.568.42-1.4.589-2.135s.968-1.462,1.588-1.052c.515.337.5,1.22,1.073,1.42s1.042-.442,1.294-.989a1.98,1.98,0,0,1,2.314,1.778c.862-.158,1.946-.547,1.967-1.431,0-.221-.074-.442-.053-.663a.865.865,0,0,1,1.146-.673c-.157-.295-.347-.778-.5-1.073a.873.873,0,0,1-1.042-.21.885.885,0,0,1-.021-1.063,2.957,2.957,0,0,0,3.04-.452c.358-.305.631-.694,1-.968a1.209,1.209,0,0,1,1.293-.211c.484.273.642,1,1.179,1.147a.908.908,0,0,0,.978-.547,2.5,2.5,0,0,0,.168-1.189c0-.778-.115-1.725-.831-2.03a.76.76,0,0,1-.305-.158.572.572,0,0,1-.042-.494,1.991,1.991,0,0,1,.7-1.336c.726-.453,1.651.189,2.525.157-.021-.494.073-1.146.557-1.262.557-.137,1.178.578,1.641.242.326-.232.189-.757-.053-1.083s-.578-.652-.557-1.052c.042-.547.663-.8,1.167-1.01s1.063-.715.821-1.2c-.232-.463-.989-.432-1.21-.895s.3-.957.789-1.157,1.094-.4,1.189-.915c-1.683-.431-3.482.9-5.123.337a4.884,4.884,0,0,0,.747-1.694,3.9,3.9,0,0,0-2.977,1.767,3.963,3.963,0,0,1-.694.957c-.81.653-2.072.126-3.019.558a1.319,1.319,0,0,1-.578.2,2.02,2.02,0,0,1-.558-.252c-.662-.294-1.367.284-1.862.81l-.4-.516c-1.02-.547-2.167.863-3.292.61-.337-.368-.032-.958.326-1.294s.81-.726.747-1.21c-1.6.168-3.314.389-4.471,1.494-.452.431-.872,1.01-1.493,1.062a1.21,1.21,0,0,0-.4-.989,3.154,3.154,0,0,1-2.125.652,2.183,2.183,0,0,0,1.115-1.378,19.677,19.677,0,0,0-5.849,1.809,31.886,31.886,0,0,0-4.576.526,2.17,2.17,0,0,1-.862.042.678.678,0,0,1-.547-.589.454.454,0,0,0-.032-.242.335.335,0,0,0-.2-.105l-3.45-.778c.378-.021.5-.6.263-.894a1.315,1.315,0,0,0-1.052-.347,2.688,2.688,0,0,1-1.125-.095.688.688,0,0,1-.41-.926c.053-.074.126-.147.179-.221.242-.368-.1-.894-.526-1a2.22,2.22,0,0,0-1.294.2,1.908,1.908,0,0,1-1.294.095c-.41-.179-.621-.8-.273-1.073a15.333,15.333,0,0,1-2.693-1.052l-1.179-.368a1.6,1.6,0,0,1-.715-.368c-.337-.347-.074-.946.336-1.2l1.5.873a3.048,3.048,0,0,0,1.3.495c.547.01,1.073-.273,1.62-.284.9-.021,1.651.7,2.535.9.526.116,1.062.053,1.588.116a9.558,9.558,0,0,1,3.523,1.683,3.127,3.127,0,0,0,1.126.431,1.232,1.232,0,0,0,1.094-.368,5.471,5.471,0,0,0,3.871,1.525,2.642,2.642,0,0,0,1.441-.378,1.325,1.325,0,0,0,.631-1.273c-.063-.389-.337-.789-.158-1.136.148-.294.515-.368.842-.41a2.532,2.532,0,0,0-1.336-1.778,12.371,12.371,0,0,1-1.957-1.21,1.789,1.789,0,0,1-.547-.873.9.9,0,0,1,.358-.926,1.132,1.132,0,0,0,.231-.158.518.518,0,0,0,.032-.621c-.105-.2-.273-.357-.379-.557a1.011,1.011,0,0,1,.157-1.115,1.551,1.551,0,0,0,.305-.347.726.726,0,0,0,.042-.337,2.322,2.322,0,0,0-1.178-1.872c-.642-.347-1.4-.379-2.051-.684-.094-.042-.189-.126-.157-.211.021-.063.095-.084.137-.126a.3.3,0,0,0-.011-.421.745.745,0,0,0-.442-.168c-.8-.095-1.756.105-2.335-.463a3.8,3.8,0,0,1-.147-1.567,1.4,1.4,0,0,1,.947-1.157c.61-.147,1.335.263,1.851-.105a1.33,1.33,0,0,0,.947.768,3.975,3.975,0,0,0,1.273.021.9.9,0,0,0,.463-.126c.368-.273.252-.978.673-1.147a.732.732,0,0,1,.474.011c.789.21,1.62.631,2.366.316a1.512,1.512,0,0,0,.852-1.315.334.334,0,0,1,.052-.221.269.269,0,0,1,.221-.042,3.174,3.174,0,0,1,.884.2c.578.221,1.262.589,1.746.21.674-.537-.01-1.7.453-2.42l.862-.063a.766.766,0,0,0,.306-.074.545.545,0,0,0,.168-.336c.148-.726-.189-1.641.347-2.156a2.754,2.754,0,0,1,1.167-.442c.4-.116.821-.473.7-.883-.053-.189-.21-.326-.273-.5-.179-.442.231-.9.652-1.136,1.009-.558,2.241-.589,3.272-1.115a.624.624,0,0,0,.274-.221.579.579,0,0,0,.052-.42,1.674,1.674,0,0,0-1.325-1.3c-.463-.073-.937.042-1.41,0a.947.947,0,0,1-.936-.841c.284.074.7.063.736-.232.031-.242-.242-.379-.463-.452a13.772,13.772,0,0,0-5.27-.558.712.712,0,0,0,.189-.4,8.069,8.069,0,0,0-5.88,3.334c-.169.242-.379.536-.684.557-.411.032-.747-.452-1.157-.368-.453.095-.484.747-.789,1.094a1.054,1.054,0,0,1-1.515-.179,3.046,3.046,0,0,1-.5-1.641,21.43,21.43,0,0,1-2.725-.021c-.547-.042-1.241-.232-1.294-.789-.021-.263.116-.568-.053-.768a.65.65,0,0,0-.578-.157l-1.788.115c-.294.011-.642.011-.81-.242-.326-.484.5-1.2.148-1.662a.924.924,0,0,0-.463-.263,6.142,6.142,0,0,1-2.019-1.515c-.242-.231-.495-.526-.421-.841a.736.736,0,0,1,.862-.463c.358.053.684.232,1.042.316a3.364,3.364,0,0,0,1.409-.084l3.282-.642a6.123,6.123,0,0,0,1.746.642,2.093,2.093,0,0,0,1.736-.474,1.814,1.814,0,0,1,.326-.305.987.987,0,0,1,.652-.073,5.491,5.491,0,0,1,1.578.484c.526.263,1.2.589,1.641.21.557-.484.01-1.388.105-2.114a1.551,1.551,0,0,1,1.326.095c.41.2.778.484,1.2.684a1.452,1.452,0,0,0,1.315.042.768.768,0,0,0,.242-1.157c-.137-.127-.316-.179-.453-.294s-.252-.315-.148-.463a.435.435,0,0,1,.179-.126,3.523,3.523,0,0,1,1.946.084,1.683,1.683,0,0,0,1.788-.505c.474-.81-.316-2.083.41-2.661a2.5,2.5,0,0,0,.263-.21.6.6,0,0,0,0-.705,1.8,1.8,0,0,0-.578-.473,5.843,5.843,0,0,1,2.44-1.367,2,2,0,0,0,.684-.263.593.593,0,0,0,.263-.631c-.126-.379-.662-.379-1.062-.3-.431.084-.957-.074-1.315.179-.431.305-1.031-.284-.926-.8a1.749,1.749,0,0,1,1.072-1.073,2.9,2.9,0,0,0,1.294-.863.647.647,0,0,0,.021-.789.8.8,0,0,0-.663-.168,18.828,18.828,0,0,0-5.27,1.273l-2.377.82a7.275,7.275,0,0,0,.536-1.115,22.1,22.1,0,0,0-5.4,2.009c-1.347.7-2.861,1.588-4.3,1.083a1.756,1.756,0,0,0-.21-.894l-4.565.347a1.8,1.8,0,0,1-1.262-.2c-.357-.252-.421-.9-.021-1.073-1.525-1.031-3.8.084-5.354-.894a.858.858,0,0,1,.631-.779,2.368,2.368,0,0,1,1.052-.042l8.415.873c.41.042,1-.053,1.009-.474,0-.494-.873-.642-.884-1.136,2.6-1.241,6.08-.232,8.257-2.114a9.792,9.792,0,0,1-3.387-.621c2.2-1.388,4.575-2.829,7.174-2.756a1.649,1.649,0,0,0,.936-.137c.273-.168.389-.62.116-.789a.6.6,0,0,0-.41-.074,3.317,3.317,0,0,1-1.115-.084.94.94,0,0,1-.684-.81,38.7,38.7,0,0,1,6.332-.421c-.4-.01.547-1.757.41-2-.357-.652-3.65-.021-3.355-1.231.231-.925,3.755-1.094,4.5-1.178,1.578-.158,1.788-1.126.337-1.883,1.2-.568,2.524-.926,3.692-1.557a1.858,1.858,0,0,0-1.5-.494,17.083,17.083,0,0,0,2.787-1.63c-2.177-1.073,1.063-1.368.936-2.419-2.409-.621-5.07,1.241-7.448,1.462-2.661.253-5.333.347-7.983.652-2.829.326-5.628.778-8.415,1.315.285-.189.526-.389.516-.715a1.967,1.967,0,0,1-1.641-1.588l2.84-.81c.221-.063.483-.179.494-.41s-.294-.368-.547-.41a18.424,18.424,0,0,0-3.882-.326,4.283,4.283,0,0,1-1.557-.116,1.312,1.312,0,0,1-.947-1.115c-.011-.946,1.21-1.3,2.146-1.367a7.223,7.223,0,0,0-4.092-2.451c.316-.967,1.62-1.041,2.63-1.115s2.314-.768,1.978-1.725l-1.452-.736,1.82-1.567-3.818-.158c-.474-.021-1.031-.095-1.263-.515-.368-.694.558-1.357,1.315-1.588s1.736-.768,1.484-1.515L544,404.185a6.418,6.418,0,0,0,1.526-1.441,22.8,22.8,0,0,0-7.406,2.24,3.466,3.466,0,0,1,1.841-2.724,6.508,6.508,0,0,0,2.493-2.3,4.233,4.233,0,0,1-3.25-.41,1.252,1.252,0,0,0,.968-1.073,3.1,3.1,0,0,1-1.283.737,1.075,1.075,0,0,1-1.252-.568c-.189-.515.189-1.052.537-1.472l1.567-1.851a1.338,1.338,0,0,1-1.547-.347c-.316-.473.042-1.283.611-1.22a5.639,5.639,0,0,0-3.051-.768l-.053-1.42a1.743,1.743,0,0,1-1.567-1.031,4.552,4.552,0,0,1-.368-1.946,32.546,32.546,0,0,1,.232-5.165l.084,1.083.053-1.031a1.423,1.423,0,0,0-1.756.715,4.151,4.151,0,0,0-.337,2.062c.021,2.419.032,4.828.053,7.247a1.2,1.2,0,0,1-.2.821c-.41.452-1.326.105-1.662.61-.379.578.547,1.262.441,1.935s-1.042.778-1.714.652-1.568-.179-1.841.452l1.325,1.483-1.914.852,4.2,1.357-.915.715a5.2,5.2,0,0,0,2.093.41,3.185,3.185,0,0,1,2,.673,1.259,1.259,0,0,1,.053,1.873l-5.807-.4c-.915-.063-2.1.053-2.335.947,1.546,1.641,4.271,1.136,6.353,2.009.273.126.589.326.589.631.011.368-.42.568-.768.663a16.6,16.6,0,0,1-4.828.578c.652,1.2,2.209,1.515,3.566,1.62s2.882.231,3.766,1.273c-2.671.6-5.407-.757-8.141-.663a1.118,1.118,0,0,0-.59.148c-.568.41.085,1.3.747,1.567s1.525.653,1.4,1.347a7.843,7.843,0,0,0-3.208,0c-.273.052-.6.179-.652.452a.792.792,0,0,0,.179.558l.957,1.483c-1.346.284-2.693-.4-3.976-.915s-2.9-.81-3.945.094c-.052.568.747.989.631,1.546-.1.494-.757.579-1.262.547l-6.763-.389c-.3.505.42.967.988,1.125s1.252.684.916,1.157a1.057,1.057,0,0,0-.821.368,28.539,28.539,0,0,0,5.27.463l-1.41,2.083,4.092.536a.913.913,0,0,1,.442.137c.389.305-.011.968-.495,1.073s-.988-.074-1.472.032c-.442.084-.81.631-.589.968l-.116-.032c-4.912-1.062-9.435-3.029-14.211-4.481a10.788,10.788,0,0,0-1.62-.41c.053,1.915,2.293,3.1,3.66,4.029a4.337,4.337,0,0,1,1.115.831c.453.631-.042.547-.074,1.041-.052,1.042,1.357,1.136,2.241,1.326a3.538,3.538,0,0,0-.557,1.294,7.479,7.479,0,0,0,3.913-.852c.968,1.378-.8,1.809-1.063,2.8-.305,1.126,2.64,1.189,3.4,1.441-.189.936.032,1.977-1.157,2.22-1.031.221-1.988-.621-3.029-.379l-2.03.042a2.7,2.7,0,0,1-2.177-.6,9.24,9.24,0,0,1-.526-.883.911.911,0,0,0-.862-.463c-.547.116-.6.873-.515,1.431a46.749,46.749,0,0,0-6.743-.463,9.314,9.314,0,0,0,5.985,3.566,4.4,4.4,0,0,1,1.389.337,1.1,1.1,0,0,1,.631,1.178,17.369,17.369,0,0,1,3.219.947,1.231,1.231,0,0,1,.5.3.876.876,0,0,1-.084,1.063,2.512,2.512,0,0,1-.978.62l.063.431a37.759,37.759,0,0,0,9.794-.883,1.729,1.729,0,0,0-.611,1.347q3.487-1.31,7-2.619a1.2,1.2,0,0,0-.725,1.4,28.217,28.217,0,0,0,4.88-1.43,1.331,1.331,0,0,0-.157,1.283,33.527,33.527,0,0,1,5.259-1.136l.01.61-1.073,1.83a4.319,4.319,0,0,1-.725,1.01,4.375,4.375,0,0,1-1.452.768,74.9,74.9,0,0,1-10.2,2.966c-.053.41-.536.61-.947.7a13.946,13.946,0,0,1-6.322-.031c-.42-.105-.852-.221-1.283-.284a12.684,12.684,0,0,0-1.536-.074,9.264,9.264,0,0,1-5.7-1.62,5.958,5.958,0,0,0-.789-.6c-.211-.126-.453-.21-.652-.347-.673-.431-.883-1.2-1.673-1.3a.858.858,0,0,1-1.02.558,3.131,3.131,0,0,1-1.115-.61,7.927,7.927,0,0,0-2.756-1.231,1.446,1.446,0,0,0-1.167.084,1.806,1.806,0,0,1-.463.336.792.792,0,0,1-.547-.116c-1.052-.558-1.925-1.578-3.114-1.683a13.459,13.459,0,0,0-1.441.084,6.358,6.358,0,0,1-3.3-1.178c-.9-.547-2.146-1.094-2.924-.368-.463.442-.694,1.3-1.347,1.273.842,1.1,1.715,2.346,1.6,3.734a2.286,2.286,0,0,0,0,.842c.211.642,1.052.747,1.725.8s1.525.347,1.515,1.02c-.01.274-.179.547-.105.81a.882.882,0,0,0,.537.5,6.263,6.263,0,0,0,3.3.6c.4-.031.884-.084,1.157.221.347.389.284,1.02.768,1.189l1.673-.957c.294,1.231,1.8,1.736,3.061,1.693s2.556-.41,3.765-.053a1.038,1.038,0,0,0,.368,1.241,2.689,2.689,0,0,0,1.326.442,26.24,26.24,0,0,0,5.817.147.63.63,0,0,0,.137.947,1.668,1.668,0,0,0,1.062.221,12.682,12.682,0,0,0,3.693-.705,6.759,6.759,0,0,1,3.25-.7,3.592,3.592,0,0,0,.873.137,2.345,2.345,0,0,0,.894-.316l3.218-1.7c1.431-.747,3.051-1.525,4.6-1.062a3.927,3.927,0,0,0,1.126.273,2.339,2.339,0,0,0,.8-.231l6.817-2.977c-3.219,1.936-5.8,4.807-8.962,6.827-4.976,3.166-11.055,4.05-16.936,4.523a26.282,26.282,0,0,1-5.533.031,28.7,28.7,0,0,1-4.933-1.23,65.1,65.1,0,0,1-8.636-3.145,9.906,9.906,0,0,0-4-1.346,20.69,20.69,0,0,0-2.756.389,7.451,7.451,0,0,1-4.5-.841,2.994,2.994,0,0,0,1.125,2.556,8.917,8.917,0,0,0,2.524,1.378,1.88,1.88,0,0,0,.337,2.956,2.988,2.988,0,0,1,1.167-1.062.943.943,0,0,0,.705.968,2.524,2.524,0,0,1,.694.126.941.941,0,0,1,.347,1,13.142,13.142,0,0,0-.41,2.261c.032.768.779,1.588,1.483,1.283s.715-1.4,1.367-1.8c.736-.452,1.7.41,1.683,1.263a3.278,3.278,0,0,1-1.262,2.156c-.5.463-1.01,1.346-.431,1.7a1.142,1.142,0,0,0,.652.095,4.284,4.284,0,0,0,1.82-.389,1.446,1.446,0,0,0,.778-1.557,3.725,3.725,0,0,1,1.546.547,1.232,1.232,0,0,1,.453,1.452,3.21,3.21,0,0,0,2.671-.778c.2-.179.421-.41.684-.368.505.084.368.852.558,1.326.242.589,1.062.684,1.662.473s1.125-.631,1.746-.789a2.127,2.127,0,0,1,1.988.6,8.883,8.883,0,0,0-.7,2.6l2.84-1.662a9.349,9.349,0,0,1-.042,3.419,5.2,5.2,0,0,0,4.06-.316c-.2.873-.326,1.967.41,2.462.547.358,1.262.179,1.914.242s1.357.747.968,1.273a30.9,30.9,0,0,0,9.12-5.449c.737-.642,1.641-1.368,2.577-1.1a17.847,17.847,0,0,1,5.365-3.945c-.337.442.284,1.062.82.978a2.59,2.59,0,0,0,1.3-.936,7,7,0,0,1,4.618-2.136c-.105-.042.084-.2.147-.094s-.032.221-.1.3l-2.451,2.6a65.264,65.264,0,0,1-7.174,6.89,33.206,33.206,0,0,1-20.27,7.005c-4.87,0-9.667-1.073-14.422-2.135a1.614,1.614,0,0,0-.2,2.051,3.235,3.235,0,0,0,1.809,1.252c1.957.642,4.218.41,5.944,1.536-.611.2-.632,1.157-.169,1.6a2.5,2.5,0,0,0,1.82.473,3.952,3.952,0,0,1,1.893.2c.347.452-.536.873-.694,1.42-.158.568.515.989,1.073,1.157a10.093,10.093,0,0,0,5.007.137,2.7,2.7,0,0,0-.747,2.283c3.713-1.81,7.637-3.808,9.73-7.363a4.07,4.07,0,0,0-.011,1.914,44.952,44.952,0,0,1,6.68-5.113,2.122,2.122,0,0,0-.358,2.1c.957-1.073,1.914-2.135,2.861-3.208a48.116,48.116,0,0,1,7.437-7.2c.221,3.482.81,7.49-.726,10.614-.516,1.031-.126,2.335-.631,3.377a4.186,4.186,0,0,1-1.136,1.262q-2.367,1.988-4.849,3.85a4.44,4.44,0,0,1-2.44,1.136c-.758.032-1.526-.316-2.241-.084-.862.294-1.262,1.283-2.009,1.8a3.974,3.974,0,0,1-1.389.494c-1.967.421-3.66,1.484-5.638,1.115l-4.934-.894a.712.712,0,0,0-.42.01.674.674,0,0,0-.263.305,5.643,5.643,0,0,1-3.2,2.882,5.26,5.26,0,0,1-3.4-.526,12.4,12.4,0,0,1-4.313-3.261,5.025,5.025,0,0,0-1.83-1.662,1.615,1.615,0,0,1-1.715,1.042,2.444,2.444,0,0,1-1.683-.631,11.926,11.926,0,0,0-8.131-2.861,1.165,1.165,0,0,0-.652.168c-.547.4-.063,1.262.431,1.725s1.031,1.263.526,1.725a2.762,2.762,0,0,1-.662.326,1.554,1.554,0,0,0-.579,1.872,4.483,4.483,0,0,0,1.252,1.694c-.126,1.378-2.472,1.409-2.9,2.724a1.672,1.672,0,0,0,1.042,1.894,4.9,4.9,0,0,0,2.346.2,1.938,1.938,0,0,1-.821,1.851,11.438,11.438,0,0,0-1.651,1.357,1.479,1.479,0,0,0-.105,1.936,1.975,1.975,0,0,0,1.43.379h5.838c-.074.768-.842,1.241-1.484,1.651s-1.346,1.073-1.157,1.82a26.653,26.653,0,0,0,9.489-1.326,11.619,11.619,0,0,0-2.714,3.187,52.294,52.294,0,0,0,9.688-1.83c-.873,1.241-1.735,2.483-2.6,3.734,3.523-.379,5.648-4.1,8.857-5.617a2.314,2.314,0,0,0,.7,1.126,12.485,12.485,0,0,0,5.207-4.586c.82-1.294,1.42-2.767,2.588-3.755a10.834,10.834,0,0,1,3.429-1.673,32.554,32.554,0,0,0,15.2-11.876c-1.63,3.366-.684,7.658-2.735,10.782a1.557,1.557,0,0,0-.389,1.01c.053.368.621.6.789.273a7.788,7.788,0,0,1-3.766,6.49,8.062,8.062,0,0,0,4.6-.253,12.6,12.6,0,0,1,.063,6.437c-1,.568-1.578,1.641-2.441,2.4a8.131,8.131,0,0,1-3.45,1.525,48.5,48.5,0,0,1-12.507,1.252c-.6,0-1.315.021-1.662.516-.148.221-.211.483-.368.683a1.581,1.581,0,0,1-.936.453c-2.714.641-5.523,1.273-8.257.736a3.024,3.024,0,0,0-1.557-.073c-.494.168-.852.81-.536,1.231l-7.29-.305a16.525,16.525,0,0,1-6.3-1.084c-.3-.147-.715-.284-.926-.031-.263.316-.368.989-.725,1.178a2.989,2.989,0,0,1-2.157,0,4.931,4.931,0,0,0-2.156-.337c-.725.126-1.409.82-1.22,1.536l-7.048-.5c-.768-.053-1.883.252-1.714,1a1.113,1.113,0,0,0,.42.578,6.457,6.457,0,0,0,3.409,1.525c-1.715,2.135-5.639,1.546-7.027,3.9a20.178,20.178,0,0,0,5.081.684,5.144,5.144,0,0,0,1.914-.252,12.88,12.88,0,0,0,1.588-.936,6.409,6.409,0,0,1,4.87-.684c-.484.558.021,1.5.737,1.725a4.076,4.076,0,0,0,2.177-.189,2.544,2.544,0,0,1,2.136.179c.147.589-.474,1.073-1.031,1.3s-1.231.495-1.368,1.083c-.179.778.768,1.367,1.578,1.42a4.876,4.876,0,0,1,2.357.305A2.984,2.984,0,0,0,486.2,535.3a16.134,16.134,0,0,0,9.246-1.82,1.555,1.555,0,0,0-.789,1.441c2.525-.662,5.175-1.409,7.006-3.271,1.136-1.157,2.1-2.808,3.724-2.924-.631,1.052-1.231,2.125-1.82,3.208,1.136.158,2.072-.852,2.724-1.809s1.41-2.03,2.556-2.135a2.958,2.958,0,0,0-.789,1.442,1.1,1.1,0,0,0,.82,1.262c.515.063.947-.368,1.294-.768a13.725,13.725,0,0,0-.6,2.23c2.7-1.052,4.419-3.829,7.079-5l.3,1.409c1.462-.221,1.809-2.209,2.945-3.156.294-.252.915-.274.9.105a30.507,30.507,0,0,1,10.182-3.377,79.943,79.943,0,0,1,.148,12.5c-.232,3.366-.758,6.953-2.956,9.656a18.939,18.939,0,0,1-4.25,3.618,55.33,55.33,0,0,1-12.433,6c-1.252.431-2.725.8-3.819.052-.768-.537-1.325-1.62-2.261-1.515-.578.063-.989.578-1.484.873-1.188.726-2.682.147-4.05-.116a17.354,17.354,0,0,0-5.06.011c-.305.031-.684.126-.747.431-.053.242.137.463.326.631a6.89,6.89,0,0,0,4.576,1.641c.515-.01,1.167,0,1.368.484.147.357-.074.778.042,1.146a1.041,1.041,0,0,0,1.094.579,7.174,7.174,0,0,1,1.336-.094,1.882,1.882,0,0,1,1.336,2.082,4.61,4.61,0,0,1-1.262,2.377,5.17,5.17,0,0,0,3.681.61,1.827,1.827,0,0,0,.968-.473,5.027,5.027,0,0,0,.515-.9c.653-1.062,2.156-1.22,3.072-2.062a6.838,6.838,0,0,1,.747-.726c1.02-.747,2.839-.379,3.3-1.547.126-.316.115-.715.389-.926a1.252,1.252,0,0,1,.683-.168c2.083-.158,3.482-2.2,5.365-3.093.947-.442,2.167-.726,2.524-1.7a3.187,3.187,0,0,1,.294-.789,1.5,1.5,0,0,1,.621-.4c1.673-.694,3.334-1.473,5-2.167.663,4.25-.726,8.531-1.21,12.8-.557,5.049.158,10.2-.747,15.19-.61,3.387-1.946,6.6-2.619,9.962a36.58,36.58,0,0,0-.053,12.118,10.651,10.651,0,0,1-.41,5.428,26.11,26.11,0,0,0-1.978,7.9c-.368,5.554,1.83,10.908,3.166,16.315a10.309,10.309,0,0,1,.368,2.577c-.053,1.873-1.073,3.661-.894,5.522a21.208,21.208,0,0,0,9.751-.126c.032-.852.053-1.693.074-2.546a270.678,270.678,0,0,0-.716-29.211c-.484-5.88-2.324-11.729-1.872-17.651.442-5.712,2.272-11.213,2.63-16.936.831-13.264,2.272-26.1,4.029-39.267a41.954,41.954,0,0,1,7.584-1.136,1.637,1.637,0,0,1,1.241.284,3.418,3.418,0,0,0,.41.452,1.184,1.184,0,0,0,.768.105,28.462,28.462,0,0,1,6.133.1,1.065,1.065,0,0,1,.578.2,1.66,1.66,0,0,1,.285.6,2.292,2.292,0,0,0,.841.925,12.549,12.549,0,0,0,4.565,1.63,1.464,1.464,0,0,1,.967.537,2.11,2.11,0,0,1,.084,1.031,2.324,2.324,0,0,0,.968,1.893c.368.252.862.463.926.9.084.578-.6.915-1.094,1.23a2.9,2.9,0,0,0-1.273,1.746,16.759,16.759,0,0,1,4.66.768.854.854,0,0,1,.421.242c.105.137.115.337.221.484a.9.9,0,0,0,.484.305c3.135,1.188,6.323,2.377,9.667,2.525.568.031,1.262-.053,1.483-.568.095-.221.084-.484.2-.7.21-.41.778-.452,1.241-.463a24.207,24.207,0,0,0,2.893-.232,1.41,1.41,0,0,0,.746-.252.588.588,0,0,0,.021-.768,1.605,1.605,0,0,1-.547-.032.2.2,0,0,1-.147-.074c-.094-.147.147-.263.315-.273a3.207,3.207,0,0,0,2.5-1.641c.115-.21.231-.452.463-.526.273-.073.526.158.779.284a1.181,1.181,0,0,0,.736.116,1.141,1.141,0,0,1,.326-1.178,3.676,3.676,0,0,0,.821-1C589.995,537.333,589.763,536.555,589.342,536.671ZM522.474,427.1c-.158.021-.305.074-.474.105-1.083-.105-2.177-.273-3.25-.463Z" transform="translate(634.938 1702.41)" fill="#238087"/>
    </g>
  </g>
</svg>
