<svg id="Group_48272" data-name="Group 48272" xmlns="http://www.w3.org/2000/svg" xmlns:xlink="http://www.w3.org/1999/xlink" width="113.038" height="147.558" viewBox="0 0 113.038 147.558">
  <defs>
    <clipPath id="clip-path">
      <rect id="Rectangle_16779" data-name="Rectangle 16779" width="113.038" height="147.558" fill="none"/>
    </clipPath>
  </defs>
  <g id="Group_48258" data-name="Group 48258" clip-path="url(#clip-path)">
    <path id="Path_37795" data-name="Path 37795" d="M31.081,0A13.727,13.727,0,1,0,44.807,13.727,13.742,13.742,0,0,0,31.081,0m0,22.495a8.769,8.769,0,1,1,8.768-8.768,8.778,8.778,0,0,1-8.768,8.768" transform="translate(25.44)" fill="#eab054"/>
    <path id="Path_37796" data-name="Path 37796" d="M57.834,24.344c.023-4.474-.049-8.948-.276-13.418a3.3,3.3,0,1,0-6.608,0c.232,4.542.3,9.091.271,13.64a56.612,56.612,0,1,0,6.613-.222" transform="matrix(0.999, 0.035, -0.035, 0.999, 2.564, 8.281)" fill="#76c546"/>
    <path id="Path_37797" data-name="Path 37797" d="M96.665,65.309A46.108,46.108,0,1,1,50.557,19.2,46.109,46.109,0,0,1,96.665,65.309" transform="translate(5.962 25.73)" fill="#fff"/>
    <path id="Path_37798" data-name="Path 37798" d="M28.738,50.875c-.246-5.16-.349-8.068-.6-11.808-.524-7.64-1.465-10.991-2.041-10.991-.878,0-2.913,17.581-3.187,22.8Z" transform="translate(30.696 37.623)" fill="#ebaa2f"/>
    <path id="Path_37799" data-name="Path 37799" d="M28.738,40.31c-.246,5.16-.349,8.068-.6,11.808-.524,7.64-1.465,10.991-2.041,10.991-.878,0-2.913-17.581-3.187-22.8Z" transform="translate(30.696 54.017)" fill="#ebaa2f"/>
    <path id="Path_37802" data-name="Path 37802" d="M32.268,41.86a5.16,5.16,0,1,1-5.16-5.16,5.159,5.159,0,0,1,5.16,5.16" transform="translate(29.411 49.179)" fill="#3c4245"/>
    <path id="Path_37803" data-name="Path 37803" d="M27.589,40.157A2.184,2.184,0,1,1,25.4,37.971a2.185,2.185,0,0,1,2.186,2.186" transform="translate(31.116 50.883)" fill="#f8e5d2"/>
    <path id="Path_37804" data-name="Path 37804" d="M29.944,30.769H28.079l-3.632-5.958v5.958H22.579V21.716h1.867l3.636,5.969V21.716h1.86Z" transform="translate(30.257 29.1)" fill="#3c4245"/>
    <path id="Path_37805" data-name="Path 37805" d="M14.123,43.412l1.219-6.442H17.2l-2.008,9.054H13.313l-1.472-6.056-1.474,6.056H8.488L6.48,36.97H8.34L9.564,43.4l1.493-6.43h1.58Z" transform="translate(8.683 49.542)" fill="#3c4245"/>
    <path id="Path_37806" data-name="Path 37806" d="M44.352,42.1H40.77v2.427h4.205v1.5H38.9V36.97h6.056V38.48H40.77v2.16h3.583Z" transform="translate(52.134 49.542)" fill="#3c4245"/>
    <path id="Path_37807" data-name="Path 37807" d="M27.745,59.346a.955.955,0,0,0-.374-.812,4.945,4.945,0,0,0-1.343-.6,9.39,9.39,0,0,1-1.535-.618,2.512,2.512,0,0,1-1.542-2.246,2.182,2.182,0,0,1,.414-1.308,2.686,2.686,0,0,1,1.186-.9,4.487,4.487,0,0,1,1.739-.323,4.077,4.077,0,0,1,1.729.351,2.733,2.733,0,0,1,1.177.992,2.586,2.586,0,0,1,.421,1.453H27.752a1.22,1.22,0,0,0-.393-.966,1.609,1.609,0,0,0-1.1-.344,1.73,1.73,0,0,0-1.065.288.915.915,0,0,0-.379.763.875.875,0,0,0,.445.739,4.993,4.993,0,0,0,1.31.559,5.673,5.673,0,0,1,2.319,1.189,2.37,2.37,0,0,1,.728,1.767,2.182,2.182,0,0,1-.889,1.844,3.9,3.9,0,0,1-2.394.667,4.631,4.631,0,0,1-1.9-.381,3,3,0,0,1-1.308-1.048,2.687,2.687,0,0,1-.452-1.542h1.872q0,1.5,1.792,1.5A1.738,1.738,0,0,0,27.37,60.1a.878.878,0,0,0,.374-.756" transform="translate(30.377 70.411)" fill="#3c4245"/>
  </g>
</svg>
