<svg xmlns="http://www.w3.org/2000/svg" width="535.308" height="356.263" viewBox="0 0 535.308 356.263">
  <g id="Vendavo_Brand_Elements-18" data-name="Vendavo Brand Elements-18" transform="translate(409.044 272.028)">
    <path id="Vendavo_Brand_Elements-18-2" data-name="Vendavo Brand Elements-18" d="M23.436,144.208l87.693,122.953a230.226,230.226,0,0,0,58.832,57.526c40.092,26.9,77.833,33.889,120.537,24.878a198.922,198.922,0,0,0,79.988-37.219L498.272,214.14c28.273-21.744,40.68-58.636,30.3-92.786l-.588-1.763a61.92,61.92,0,0,0-46.818-41.137L104.143,2.906A144.5,144.5,0,0,0,79.265.033C22.718-1.208-2.878,32.616.256,80.021A124.8,124.8,0,0,0,23.436,144.208Z" transform="translate(-407.529 -270.526)" fill="none" stroke="#7db554" stroke-miterlimit="10" stroke-width="3"/>
  </g>
</svg>
