<svg xmlns="http://www.w3.org/2000/svg" xmlns:xlink="http://www.w3.org/1999/xlink" width="1113" height="836" viewBox="0 0 1113 836">
  <defs>
    <clipPath id="clip-path">
      <rect id="Rectangle_4124" data-name="Rectangle 4124" width="1113" height="836" transform="translate(807 2536)" fill="#fff"/>
    </clipPath>
    <clipPath id="clip-path-2">
      <rect id="Rectangle_4122" data-name="Rectangle 4122" width="1179.242" height="830.124" fill="none"/>
    </clipPath>
    <clipPath id="clip-path-4">
      <rect id="Rectangle_4068" data-name="Rectangle 4068" width="243.06" height="58.708" fill="#fff"/>
    </clipPath>
    <clipPath id="clip-path-5">
      <rect id="Rectangle_4071" data-name="Rectangle 4071" width="267.297" height="64.561" fill="#fff"/>
    </clipPath>
  </defs>
  <g id="services-img" transform="translate(-807 -2536)" clip-path="url(#clip-path)">
    <g id="services_img" data-name="services img" transform="translate(814 2542.211)" clip-path="url(#clip-path-2)">
      <g id="Group_4913" data-name="Group 4913">
        <g id="Group_4912" data-name="Group 4912" clip-path="url(#clip-path-2)">
          <g id="Group_4908" data-name="Group 4908" transform="translate(0 454.135)">
            <g id="Group_4907" data-name="Group 4907">
              <g id="Group_4906" data-name="Group 4906" clip-path="url(#clip-path-4)">
                <path id="Path_21885" data-name="Path 21885" d="M890.412,350.507s-15.82-29.075-50.581-20.2c-21.973,5.609-31.006-29.019-49.2-36.636-33.368-13.962-52.729,55.525-89.561,36.107-24.354-12.84-53.712,20.732-53.712,20.732Z" transform="translate(-647.352 -291.799)" fill="#fff"/>
              </g>
            </g>
          </g>
          <path id="Path_21886" data-name="Path 21886" d="M63.149,547.421s15.812-69.585,76.382-97.923S242.445,429.411,250.7,423.567s.884,26.721-2.23,39.4-10.128,56.406-43.6,92.351S93.417,574.07,93.417,574.07Z" transform="translate(833.436 235.256)" fill="#fff"/>
          <path id="Path_21887" data-name="Path 21887" d="M71.334,516.859a.859.859,0,0,1-.44-.272,1,1,0,0,1,.038-1.338c.286-.291,29.117-29.3,65.214-49.734,18.283-10.35,35.431-17.219,49.212-22.738,13.584-5.441,23.4-9.372,27.081-13.727a.838.838,0,0,1,1.242-.062,1,1,0,0,1,.059,1.337c-3.97,4.694-13.953,8.692-27.769,14.226-13.733,5.5-30.824,12.345-49.005,22.638-35.878,20.312-64.543,49.149-64.829,49.438a.833.833,0,0,1-.8.232" transform="translate(863.094 238.521)" fill="#50a625"/>
          <path id="Path_21888" data-name="Path 21888" d="M130.019,478.972A220.431,220.431,0,0,1,90.2,464.64a.977.977,0,0,1-.427-1.256.854.854,0,0,1,1.169-.461c.39.2,39.559,19.554,74.069,18.6a.948.948,0,0,1,.045,1.891c-11.71.325-23.938-1.656-35.035-4.44" transform="translate(883.625 257.489)" fill="#50a625"/>
          <path id="Path_21889" data-name="Path 21889" d="M103.827,454.263a186.886,186.886,0,0,1-23-7.606.969.969,0,0,1-.5-1.222.863.863,0,0,1,1.135-.546c.25.1,25.137,10.311,39.427,9.917a.907.907,0,0,1,.9.921.916.916,0,0,1-.856.97c-5,.139-11.14-.939-17.1-2.434" transform="translate(941.385 247.47)" fill="#50a625"/>
          <path id="Path_21890" data-name="Path 21890" d="M174.217,503.854c-19.363-4.859-50.576-20.875-52.156-21.689a.979.979,0,0,1-.414-1.262.858.858,0,0,1,1.173-.445c.463.238,46.377,23.8,61.329,22.862a.907.907,0,0,1,.928.89.922.922,0,0,1-.826,1,35.078,35.078,0,0,1-10.035-1.356" transform="translate(818.365 267.242)" fill="#50a625"/>
          <path id="Path_21891" data-name="Path 21891" d="M150.278,490.647a.932.932,0,0,1-.678-.907c0-.238-.224-23.972,9.323-43.011a.846.846,0,0,1,1.19-.383.985.985,0,0,1,.357,1.282c-9.325,18.593-9.117,41.85-9.112,42.083a.919.919,0,0,1-.866.96.884.884,0,0,1-.214-.025" transform="translate(802.32 248.252)" fill="#50a625"/>
          <path id="Path_21892" data-name="Path 21892" d="M119.946,467.965l-.014,0a.953.953,0,0,1-.639-1.149c.2-.843,4.891-20.8,12.358-32.591a.842.842,0,0,1,1.222-.249.993.993,0,0,1,.231,1.315c-7.292,11.509-12.058,31.78-12.106,31.984a.877.877,0,0,1-1.051.693" transform="translate(873.508 241.341)" fill="#50a625"/>
          <path id="Path_21893" data-name="Path 21893" d="M520.065,572.725s22.952-71.471,90.335-49.494c0,0,.216-59.382,58.8-68.382,65.042-9.993,84.708,55.175,84.708,55.175s83.206-10.485,83.206,62.7Z" transform="translate(-409.978 252.466)" fill="#76c546"/>
          <path id="Path_21894" data-name="Path 21894" d="M219.785,158.731l25.025-4.523s14.518-17.68,54.633,43.376,57.309,121.291,36.105,132.8-81.379,3.494-81.379,3.494Z" transform="translate(516.709 84.467)" fill="#fad064"/>
          <path id="Path_21895" data-name="Path 21895" d="M251.532,188.429c13.755,16.548,27.508,19.062,48.139,54.809s-29.816,22.179-29.816,22.179-30.931-25.483-30.931-30.627,12.608-46.361,12.608-46.361" transform="translate(529.088 104.829)" fill="#ebbd46"/>
          <path id="Path_21896" data-name="Path 21896" d="M470.363,580.762s.156-101.841-103.466-52.3c0,0-22.771-87.67-82.446-83.527S219,532.035,219,532.035,137.272,487.328,93.434,578Z" transform="translate(573.758 247.45)" fill="#50a625"/>
          <path id="Path_21897" data-name="Path 21897" d="M244.486,564.052l-2.08-.313c6.917-53.141-19.687-91.262-19.957-91.641l1.669-1.374c.275.386,27.406,39.261,20.368,93.328" transform="translate(611.891 261.877)" fill="#97d1b0"/>
          <path id="Path_21898" data-name="Path 21898" d="M204.208,531.233l-1.7-1.334c.246-.361,24.507-36.272,28.657-58.874l2.061.437c-4.242,23.1-28.012,58.285-29.022,59.771" transform="translate(653.145 262.045)" fill="#97d1b0"/>
          <path id="Path_21899" data-name="Path 21899" d="M259.336,531.6c-18.818-1.268-35.49-25.279-36.19-26.3l1.691-1.342c.165.241,16.794,24.185,34.631,25.387Z" transform="translate(597.069 280.366)" fill="#97d1b0"/>
          <path id="Path_21900" data-name="Path 21900" d="M131.616,540.725l2.823-2.179c.327-.252,33.072-25.228,68.129-26.987l.1,2.258c-28.286,1.419-55.109,18.276-63.953,24.378l34.938-1.309.072,2.258Z" transform="translate(786.238 284.595)" fill="#97d1b0"/>
          <path id="Path_21901" data-name="Path 21901" d="M153.063,533.478l-1.986-.733c5.38-16.885,17.105-33.366,17.224-33.531l1.666,1.382c-.119.16-11.637,16.357-16.9,32.882" transform="translate(790.792 277.727)" fill="#97d1b0"/>
          <path id="Path_21902" data-name="Path 21902" d="M329.731,542.955c-.255-.23-25.733-23.256-54.161-33.989l.7-2.132c28.8,10.872,54.566,34.161,54.822,34.4Z" transform="translate(449.633 281.966)" fill="#97d1b0"/>
          <path id="Path_21903" data-name="Path 21903" d="M288.447,527.9l-.96-2.011c.745-.411,18.6-10.037,51.513-5.109l-.289,2.239c-32.192-4.82-50.087,4.783-50.263,4.881" transform="translate(424.487 288.943)" fill="#97d1b0"/>
          <path id="Path_21904" data-name="Path 21904" d="M585.26,555.445l-.9-1.573c34.707-22.953,43.183-60.82,43.264-61.2l1.673.417c-.082.388-8.728,39-44.039,62.357" transform="translate(-295.145 274.087)" fill="#97d1b0"/>
          <path id="Path_21905" data-name="Path 21905" d="M566.713,527.179l-.1-1.843c.338-.022,33.981-2.255,49.372-11.2l.816,1.625c-15.727,9.137-48.691,11.327-50.087,11.416" transform="translate(-256.976 286.03)" fill="#97d1b0"/>
          <path id="Path_21906" data-name="Path 21906" d="M613.421,542.012c-9.046-13.417-3.662-37.212-3.429-38.217l1.666.447c-.056.238-5.422,23.967,3.153,36.686Z" transform="translate(-315.118 280.276)" fill="#97d1b0"/>
          <path id="Path_21907" data-name="Path 21907" d="M434.925,305.41H649.42a5.48,5.48,0,0,0,5.268-5.668v-143.9a5.48,5.48,0,0,0-5.268-5.67H434.925a5.479,5.479,0,0,0-5.267,5.67v143.9a5.479,5.479,0,0,0,5.267,5.668" transform="translate(-96.806 83.543)" fill="#24292f"/>
          <rect id="Rectangle_4069" data-name="Rectangle 4069" width="50.431" height="48.002" transform="translate(420.152 366.855)" fill="#24292f"/>
          <rect id="Rectangle_4070" data-name="Rectangle 4070" width="213.568" height="142.908" transform="translate(338.584 239.879)" fill="#fff"/>
          <path id="Path_21908" data-name="Path 21908" d="M315.867,98.087s.415,2.38,1.2,6.222c2.61,12.753,9.321,41.61,18.57,52.984A26.661,26.661,0,0,0,357.8,167.367a10.02,10.02,0,0,1,9.746,7.712l8.209,30.32,46.7-15.247-15.073-35.962-5.549-13.24-21.2-61.364h-52.15Z" transform="translate(299.993 44.275)" fill="#f6a39c"/>
          <path id="Path_21909" data-name="Path 21909" d="M557.094,252.757s-26.362,1.85-38.682,7.092-24.07,14.391-20.058,14.391h53.584Z" transform="translate(-97.399 140.616)" fill="#f6a39c"/>
          <path id="Path_21910" data-name="Path 21910" d="M701.025,543.7,698.2,541.52c-.327-.252-33.073-25.228-68.129-26.987l-.1,2.258c28.286,1.419,55.109,18.276,63.953,24.378l-34.938-1.309-.072,2.258Z" transform="translate(-432.837 286.25)" fill="#97d1b0"/>
          <path id="Path_21911" data-name="Path 21911" d="M663.482,536.453l1.989-.733c-5.381-16.885-17.108-33.366-17.225-33.531l-1.664,1.382c.116.16,11.634,16.357,16.9,32.882" transform="translate(-421.296 279.382)" fill="#97d1b0"/>
          <path id="Path_21912" data-name="Path 21912" d="M593.047,492.16s-14.518,24.207-13.753,39.308,6.036,25.654,3.4,40.868H465.059s11.17-19.042,31.421-24.8,36.585,2.6,61.8-71c19.684-57.45,34.766,15.624,34.766,15.624" transform="translate(-86.36 252.855)" fill="#24292f"/>
          <path id="Path_21913" data-name="Path 21913" d="M379.994,541.255l50.431,23.016s2.373-4.958,6.453-12.841c10.6-20.511,32.757-60.846,54.673-85.084,30.339-33.55,59.6-120.878,59.6-120.878l-58.191-4-13.629-.938-4.538,9.165L442.678,414.59Z" transform="translate(78.554 189.448)" fill="#24a0b9"/>
          <path id="Path_21914" data-name="Path 21914" d="M422.247,349.362l18.167-8.227,58.191,4S469.343,432.46,439,466.01c-21.914,24.238-44.071,64.572-54.673,85.085a100.2,100.2,0,0,0-2.635-11.9c-9.17-32.07,22.167-41.937,12.229-87.119a148.2,148.2,0,0,1-3.793-37.819Z" transform="translate(131.1 189.783)" fill="#238087"/>
          <g id="Group_4911" data-name="Group 4911" transform="translate(911.945 208.386)">
            <g id="Group_4910" data-name="Group 4910">
              <g id="Group_4909" data-name="Group 4909" clip-path="url(#clip-path-5)">
                <path id="Path_21915" data-name="Path 21915" d="M267.3,198.458s-17.4-31.975-55.624-22.217c-24.166,6.168-34.1-31.914-54.113-40.29-36.694-15.355-57.987,61.063-98.492,39.708C32.287,161.538,0,198.458,0,198.458Z" transform="translate(0 -133.896)" fill="#fff"/>
              </g>
            </g>
          </g>
          <rect id="Rectangle_4072" data-name="Rectangle 4072" width="630.389" height="24.669" transform="translate(286.624 414.857)" fill="#7dcfe1"/>
          <rect id="Rectangle_4073" data-name="Rectangle 4073" width="630.389" height="6.295" transform="translate(286.624 439.668)" fill="#a6acbe"/>
          <rect id="Rectangle_4074" data-name="Rectangle 4074" width="199.433" height="24.669" transform="translate(286.624 414.857)" fill="#c2e6ef"/>
          <rect id="Rectangle_4075" data-name="Rectangle 4075" width="935.327" height="4.934" transform="translate(72.125 825.19)" fill="#3a3e4a"/>
          <path id="Path_21916" data-name="Path 21916" d="M462.419,480.767s.418,28.207,9.266,48.928c6.495,15.213,9.073,32.481,9.073,32.481H363.084a42,42,0,0,1,27.573-21.049c27.412-6.331,42.726-27.466,36.231-54.6s35.531-5.757,35.531-5.757" transform="translate(173.403 263.013)" fill="#24292f"/>
          <path id="Path_21917" data-name="Path 21917" d="M257.464,399.173l74.122,195.715h49.663s-16.8-49.339-20.631-91.277S331.586,385.6,331.586,385.6s17.789-.949,42.626-2.184C420.54,381.1,491.395,377.8,517.264,377.8c12.642,0,20.1-8.154,24.4-19.278,9.2-23.843,3.873-61.316,3.873-61.316H405.3s-89.755,26.322-127.2,43.591-20.631,58.379-20.631,58.379" transform="translate(265.268 165.342)" fill="#2ea0b7"/>
          <path id="Path_21918" data-name="Path 21918" d="M257.443,362.213c46.328-2.319,117.183-5.625,143.052-5.625,12.642,0,20.1-8.154,24.4-19.278-16.551,12.124-28.005,17.513-38.922,4.629-12.585-14.85-13.016-1.276-40.25,7.452-13.467,4.317-37.472,5.159-64.9,5.3-15.77.087-22.625,2.937-23.382,7.525" transform="translate(382.037 186.55)" fill="#238087"/>
          <path id="Path_21919" data-name="Path 21919" d="M412.542,591.652l1.046-.506c-.811-1.945-81.049-194.773-74.693-216.653,4.136-14.231,55.057-29.1,103.222-36.44,34.948-5.324,40.737-34.051,40.792-34.34l-1.124-.244c-.053.282-5.712,28.165-39.829,33.363C393.436,344.22,342.078,359.4,337.8,374.124c-6.485,22.324,71.421,209.567,74.741,217.528" transform="translate(208.369 168.828)" fill="#fff"/>
          <path id="Path_21920" data-name="Path 21920" d="M254.1,307.074H396.718l-.967-9.867H254.1Z" transform="translate(415.052 165.345)" fill="#24292f"/>
          <path id="Path_21921" data-name="Path 21921" d="M373.268,160.909s-3.439-21.381-17.192-22.2-42.791,16.035-46.228,30.837,63.42-8.634,63.42-8.634" transform="translate(358.067 77.15)" fill="#ebaa2f"/>
          <path id="Path_21922" data-name="Path 21922" d="M249.029,306.484v24.879H357.342s14.086,3.158,41.537-32.071a.038.038,0,0,1,.013-.025,317.92,317.92,0,0,0,19.587-28.5,4.139,4.139,0,0,1,7.668,1.64c3.049,16.626,9.352,47.809,16.585,65.163a232.579,232.579,0,0,0,22.327,41.482H605.292s7.242-11.151,8.206-38.571a200.929,200.929,0,0,0-.561-22.277c-3.439-43.787-18.913-101.761-21.778-119.646-1.157-7.252-3.174-15.912-5.145-23.658-3.37-13.2-14-22.783-26.67-23.918-26.638-2.355-76.887-1.714-139.992,23.066a40.391,40.391,0,0,0-15.669,11.089c-7.451,8.547-19.416,23.658-28.575,41.791-14.326,28.369-32.663,62.289-41.261,65.99s-84.816,13.568-84.816,13.568" transform="translate(205.507 83.498)" fill="#f5d895"/>
          <path id="Path_21923" data-name="Path 21923" d="M249.1,276.228a317.644,317.644,0,0,0,19.588-28.506,4.139,4.139,0,0,1,7.668,1.64c3.049,16.628,9.352,47.809,16.585,65.165a232.6,232.6,0,0,0,22.327,41.481H455.5s7.244-11.15,8.207-38.57c-13.4-16.355-47.9,1.74-73.538-16.516-27.119-19.328-54.626-11.928-61.5-53.866s-19.875-68.667-33.055-48.931-30.374,9.053-32.666,28.358c-2.257,19.007-13.5,48.821-13.846,49.745" transform="translate(355.3 106.537)" fill="#ebaa2f"/>
          <path id="Path_21924" data-name="Path 21924" d="M335.565,104.924a105.519,105.519,0,0,0,11.691,11.78s15.656-5.046,23.966-1.345c2.636,1.172,4.7,4.453,6.109,8.522v.012c3.062,8.745,3.141,21.105-.377,23.843-5.158,4.009-19.484,7.4-20.631,12.644s11.347,28.862,23.782,28.37c23.4-.926,10.89-25.287,8.884-35.463s-4.872-20.352-1.433-28.37,17.765-5.86,18.053,8.635-7.164,10.485-3.153,20.352c0,0,12.815,19.39,35.347,13.851,0,0-2.658-13.725-1.822-21.87,1.342-13.067,8.405-23.451-.191-43.185s-27.03-22.189-34.767-18.179c0,0-11.747-30.529-30.945-29.295s-12.321,16.961-12.321,16.961-20.917-11.719-30.947,3.7c-5.605,8.622,1.443,20.365,8.757,29.036" transform="translate(269.567 30.704)" fill="#023156"/>
          <rect id="Rectangle_4076" data-name="Rectangle 4076" width="140.312" height="96.797" transform="translate(288.485 64.669)" fill="#eee9f3"/>
          <rect id="Rectangle_4077" data-name="Rectangle 4077" width="107.235" height="55.198" transform="translate(305.024 94.858)" fill="#cabfde"/>
          <rect id="Rectangle_4078" data-name="Rectangle 4078" width="53.617" height="8.943" transform="translate(358.641 75.124)" fill="#cabfde"/>
          <rect id="Rectangle_4079" data-name="Rectangle 4079" width="54.061" height="5.86" transform="translate(352.195 105.651)" fill="#fff"/>
          <rect id="Rectangle_4080" data-name="Rectangle 4080" width="54.061" height="5.86" transform="translate(352.195 119.528)" fill="#fff"/>
          <rect id="Rectangle_4081" data-name="Rectangle 4081" width="31.138" height="5.86" transform="translate(375.118 133.404)" fill="#fff"/>
          <rect id="Rectangle_4082" data-name="Rectangle 4082" width="31.138" height="5.86" transform="translate(314.765 133.404)" fill="#fff"/>
          <path id="Path_21925" data-name="Path 21925" d="M580.663,77.753c0,5.45,4.106,9.867,9.169,9.867S599,83.2,599,77.753s-4.107-9.867-9.17-9.867-9.169,4.417-9.169,9.867" transform="translate(-259.499 37.767)" fill="#fff"/>
          <rect id="Rectangle_4083" data-name="Rectangle 4083" width="1.147" height="7.4" transform="translate(443.506 0.002)"/>
          <path id="Path_21926" data-name="Path 21926" d="M507.954,149.282H509.1V134.293h-1.147Zm0-29.976H509.1V104.317h-1.147Zm0-29.976H509.1V74.342h-1.147Zm0-29.978H509.1V44.362h-1.147Zm0-29.976H509.1V14.386h-1.147Z" transform="translate(-64.448 8.003)"/>
          <rect id="Rectangle_4084" data-name="Rectangle 4084" width="1.147" height="7.4" transform="translate(443.506 172.275)"/>
          <rect id="Rectangle_4085" data-name="Rectangle 4085" width="6.877" height="1.234" transform="translate(478.846 44.609)"/>
          <path id="Path_21927" data-name="Path 21927" d="M493.94,29.9h13.928V28.663H493.94Zm27.855,0h13.928V28.663H521.795Zm27.856,0h13.928V28.663H549.651Zm27.855,0h13.927V28.663H577.506Zm27.856,0H619.29V28.663H605.362Z" transform="translate(-154.37 15.946)"/>
          <rect id="Rectangle_4086" data-name="Rectangle 4086" width="6.877" height="1.234" transform="translate(318.765 44.609)"/>
          <rect id="Rectangle_4087" data-name="Rectangle 4087" width="156.966" height="108.286" transform="translate(138.358 196.55)" fill="#eee9f3"/>
          <rect id="Rectangle_4088" data-name="Rectangle 4088" width="119.963" height="61.749" transform="translate(156.861 230.324)" fill="#cabfde"/>
          <rect id="Rectangle_4089" data-name="Rectangle 4089" width="59.981" height="10.004" transform="translate(216.842 208.246)" fill="#cabfde"/>
          <rect id="Rectangle_4090" data-name="Rectangle 4090" width="60.477" height="6.554" transform="translate(209.63 242.398)" fill="#fff"/>
          <rect id="Rectangle_4091" data-name="Rectangle 4091" width="60.477" height="6.554" transform="translate(209.63 257.923)" fill="#fff"/>
          <rect id="Rectangle_4092" data-name="Rectangle 4092" width="34.834" height="6.555" transform="translate(235.275 273.444)" fill="#fff"/>
          <rect id="Rectangle_4093" data-name="Rectangle 4093" width="34.833" height="6.555" transform="translate(167.757 273.444)" fill="#fff"/>
          <path id="Path_21928" data-name="Path 21928" d="M680.286,166.789c0,6.1,4.593,11.039,10.258,11.039s10.258-4.943,10.258-11.039-4.593-11.039-10.258-11.039-10.258,4.943-10.258,11.039" transform="translate(-505.37 86.648)" fill="#fff"/>
          <rect id="Rectangle_4094" data-name="Rectangle 4094" width="1.145" height="7.4" transform="translate(120.384 366.545)"/>
          <path id="Path_21929" data-name="Path 21929" d="M731.388,282.635h1.145V268.313h-1.145Zm0-28.646h1.145V239.667h-1.145Zm0-28.647h1.145V211.019h-1.145Zm0-28.646h1.145V182.374h-1.145Zm0-28.646h1.145V153.728h-1.145Zm0-28.646h1.145V125.082h-1.145Z" transform="translate(-611.004 69.587)"/>
          <rect id="Rectangle_4095" data-name="Rectangle 4095" width="1.145" height="7.4" transform="translate(120.384 172.944)"/>
          <rect id="Rectangle_4096" data-name="Rectangle 4096" width="6.877" height="1.234" transform="translate(74.369 322.733)"/>
          <path id="Path_21930" data-name="Path 21930" d="M648.8,208.6h13.309v-1.234H648.8Zm26.62,0h13.309v-1.234H675.425Zm26.618,0h13.309v-1.234H702.043Zm26.618,0H741.97v-1.234H728.661Zm26.618,0h13.309v-1.234H755.279Zm26.62,0h13.309v-1.234H781.9Z" transform="translate(-554.25 115.365)"/>
          <rect id="Rectangle_4097" data-name="Rectangle 4097" width="6.877" height="1.234" transform="translate(254.267 322.733)"/>
          <path id="Path_21931" data-name="Path 21931" d="M210.008,331.578c0,21-15.817,38.018-35.327,38.018s-35.326-17.022-35.326-38.018,15.815-38.018,35.326-38.018,35.327,17.022,35.327,38.018" transform="translate(767.703 163.316)" fill="#238087"/>
          <path id="Path_21932" data-name="Path 21932" d="M183.49,333.433a1.342,1.342,0,0,1-.847-.3l-14.07-11.3,14.446-10.88a1.354,1.354,0,0,1,1.975.375,1.6,1.6,0,0,1-.349,2.126l-11.228,8.46,10.923,8.771a1.607,1.607,0,0,1,.288,2.138,1.384,1.384,0,0,1-1.138.613" transform="translate(750.207 172.836)" fill="#3a3e4a"/>
          <path id="Path_21933" data-name="Path 21933" d="M149.222,333.433a1.384,1.384,0,0,1-1.138-.613,1.6,1.6,0,0,1,.289-2.138l10.922-8.771-11.228-8.46a1.6,1.6,0,0,1-.35-2.126,1.356,1.356,0,0,1,1.977-.375l14.447,10.88-14.071,11.3a1.342,1.342,0,0,1-.847.3" transform="translate(801.849 172.836)" fill="#3a3e4a"/>
          <path id="Path_21934" data-name="Path 21934" d="M162.577,333.467a1.3,1.3,0,0,1-.424-.07,1.55,1.55,0,0,1-.931-1.913l5.74-19.75a1.4,1.4,0,0,1,1.777-1,1.55,1.55,0,0,1,.931,1.913l-5.74,19.75a1.434,1.434,0,0,1-1.354,1.072" transform="translate(776.446 172.829)" fill="#3a3e4a"/>
          <path id="Path_21937" data-name="Path 21937" d="M213.151,106.984c0,22.178,16.706,40.156,37.314,40.156s37.313-17.979,37.313-40.156-16.7-40.156-37.313-40.156-37.314,17.979-37.314,40.156" transform="translate(583.211 37.178)" fill="#e4e6e4"/>
          <path id="Path_21964" data-name="Path 21964" d="M.53,14.451l4.946.182L4.946.182,0,0Z" transform="matrix(-0.711, -0.703, 0.703, -0.711, 842.856, 164.004)" fill="#3a3e4a"/>
          <path id="Path_21939" data-name="Path 21939" d="M212.5,359.022l2.7,16.245,41.606,250.185h3.828L232.658,375.267l-1.822-16.245Z" transform="translate(611.3 199.735)" fill="#a6acbe"/>
          <path id="Path_21940" data-name="Path 21940" d="M332.394,359.022l2.7,16.245,41.618,250.185h3.816L352.555,375.267l-1.822-16.245Z" transform="translate(318.011 199.735)" fill="#a6acbe"/>
          <path id="Path_21941" data-name="Path 21941" d="M382.633,625.452h3.816l41.618-250.185,2.7-16.245H412.433l-1.822,16.245Z" transform="translate(195.116 199.734)" fill="#a6acbe"/>
          <path id="Path_21942" data-name="Path 21942" d="M250.182,359.022H231.843l2.706,16.245H252Z" transform="translate(591.953 199.735)" fill="#9399a9"/>
          <path id="Path_21943" data-name="Path 21943" d="M370.079,359.022H351.74l2.706,16.245H371.9Z" transform="translate(298.665 199.735)" fill="#9399a9"/>
          <path id="Path_21944" data-name="Path 21944" d="M382.633,375.267H400.09l2.7-16.245H384.456Z" transform="translate(223.094 199.734)" fill="#9399a9"/>
          <path id="Path_21945" data-name="Path 21945" d="M234.554,348.986H473.72a7.833,7.833,0,0,1,0,15.624H234.554a7.833,7.833,0,0,1,0-15.624" transform="translate(369.557 194.151)" fill="#a6acbe"/>
          <path id="Path_21946" data-name="Path 21946" d="M217.918,426.674h18.339l11.817-112.2,9.467-89.87.677-6.39H254.4l-1.089,6.218-15.76,90.043Z" transform="translate(605.879 121.401)" fill="#a6acbe"/>
          <path id="Path_21947" data-name="Path 21947" d="M337.807,426.674h18.339l11.828-112.2,9.49-90.043.654-6.218H374.3l-1.089,6.218-15.76,90.043Z" transform="translate(312.598 121.401)" fill="#a6acbe"/>
          <path id="Path_21948" data-name="Path 21948" d="M224.614,307.07H418.072a6.9,6.9,0,0,0,6.657-6.421l7.7-75.63c.434-4.266-2.67-7.992-6.657-7.992H237.129a6.855,6.855,0,0,0-6.593,5.942L218.02,298.6c-.73,4.415,2.425,8.469,6.593,8.469" transform="translate(431.628 120.738)" fill="#e4e6e4"/>
          <path id="Path_21949" data-name="Path 21949" d="M218.385,312.256h10.522l9.468-89.87a6.228,6.228,0,0,0-1.443-.173h-2.787Z" transform="translate(625.044 123.624)" fill="#9399a9"/>
          <path id="Path_21950" data-name="Path 21950" d="M338.258,312.256h10.522l9.49-90.043h-4.253Z" transform="translate(331.792 123.623)" fill="#9399a9"/>
          <rect id="Rectangle_4099" data-name="Rectangle 4099" width="15.389" height="385.665" transform="translate(286.624 439.526)" fill="#a6acbe"/>
          <rect id="Rectangle_4100" data-name="Rectangle 4100" width="15.389" height="385.665" transform="translate(901.625 439.526)" fill="#a6acbe"/>
          <path id="Path_21951" data-name="Path 21951" d="M221.45,308.258H414.909a6.9,6.9,0,0,0,6.657-6.421l7.7-75.63c.435-4.266-2.668-7.992-6.655-7.992H233.966a6.855,6.855,0,0,0-6.593,5.942l-12.515,75.631c-.73,4.415,2.425,8.47,6.593,8.47" transform="translate(439.366 121.399)" fill="#a6acbe"/>
          <path id="Path_21952" data-name="Path 21952" d="M368.045,87.146a105.519,105.519,0,0,0,11.691,11.78s15.656-5.046,23.966-1.345c2.636,1.172,4.7,4.453,6.109,8.522.1-.542,2.522-15.59-26.934-18.254-4.8-.433-9.812-.643-14.832-.7" transform="translate(237.087 48.482)" fill="#24292f"/>
          <rect id="Rectangle_4101" data-name="Rectangle 4101" width="127.803" height="84.699" transform="translate(349.663 286.164)" fill="#e4e6e4"/>
          <rect id="Rectangle_4102" data-name="Rectangle 4102" width="127.803" height="9.045" transform="translate(349.663 286.165)" fill="#a6acbe"/>
          <path id="Path_21953" data-name="Path 21953" d="M570.763,187.274a1.293,1.293,0,1,1-1.29-1.388,1.342,1.342,0,0,1,1.29,1.388" transform="translate(-213.215 103.414)" fill="#fff"/>
          <path id="Path_21954" data-name="Path 21954" d="M566.5,187.274a1.293,1.293,0,1,1-1.29-1.388,1.342,1.342,0,0,1,1.29,1.388" transform="translate(-202.794 103.414)" fill="#fff"/>
          <path id="Path_21955" data-name="Path 21955" d="M561.983,187.274a1.293,1.293,0,1,1-1.29-1.388,1.342,1.342,0,0,1,1.29,1.388" transform="translate(-191.735 103.414)" fill="#fff"/>
          <rect id="Rectangle_4103" data-name="Rectangle 4103" width="59.883" height="2.076" transform="translate(407.158 356.444)" fill="#fff"/>
          <rect id="Rectangle_4104" data-name="Rectangle 4104" width="59.883" height="2.076" transform="translate(407.158 344.111)" fill="#fff"/>
          <rect id="Rectangle_4105" data-name="Rectangle 4105" width="59.883" height="2.076" transform="translate(407.158 331.775)" fill="#fff"/>
          <rect id="Rectangle_4106" data-name="Rectangle 4106" width="59.883" height="2.076" transform="translate(407.158 319.441)" fill="#fff"/>
          <rect id="Rectangle_4107" data-name="Rectangle 4107" width="59.883" height="2.076" transform="translate(407.158 307.106)" fill="#fff"/>
          <rect id="Rectangle_4108" data-name="Rectangle 4108" width="35.817" height="51.415" transform="translate(360.265 307.106)" fill="#fff"/>
          <path id="Path_21956" data-name="Path 21956" d="M442.805,171.974H536.8a3.226,3.226,0,0,0,3.1-3.338V141.749a3.226,3.226,0,0,0-3.1-3.337H442.805a3.227,3.227,0,0,0-3.1,3.337v26.887a3.227,3.227,0,0,0,3.1,3.338" transform="translate(3.456 77.003)" fill="#cabfde"/>
          <path id="Path_21957" data-name="Path 21957" d="M445.423,152.222c0,4.678,3.524,8.471,7.871,8.471s7.873-3.793,7.873-8.471-3.524-8.471-7.873-8.471-7.871,3.793-7.871,8.471" transform="translate(73.916 79.973)" fill="#fff"/>
          <rect id="Rectangle_4109" data-name="Rectangle 4109" width="59.883" height="2.076" transform="translate(451.945 231.157)" fill="#fff"/>
          <rect id="Rectangle_4110" data-name="Rectangle 4110" width="31.606" height="2.076" transform="translate(480.222 237.757)" fill="#fff"/>
          <rect id="Rectangle_4111" data-name="Rectangle 4111" width="59.883" height="2.076" transform="translate(451.945 224.781)" fill="#fff"/>
          <path id="Path_21958" data-name="Path 21958" d="M457.27,184.57h93.993a3.226,3.226,0,0,0,3.1-3.338V154.346a3.226,3.226,0,0,0-3.1-3.338H457.27a3.227,3.227,0,0,0-3.1,3.338v26.886a3.227,3.227,0,0,0,3.1,3.338" transform="translate(-31.928 84.01)" fill="#67abe1"/>
          <path id="Path_21959" data-name="Path 21959" d="M459.888,164.818c0,4.678,3.524,8.473,7.871,8.473s7.873-3.794,7.873-8.473-3.524-8.471-7.873-8.471-7.871,3.793-7.871,8.471" transform="translate(38.532 86.98)" fill="#fff"/>
          <rect id="Rectangle_4112" data-name="Rectangle 4112" width="59.883" height="2.076" transform="translate(431.026 250.76)" fill="#fff"/>
          <rect id="Rectangle_4113" data-name="Rectangle 4113" width="31.606" height="2.076" transform="translate(459.303 257.362)" fill="#fff"/>
          <rect id="Rectangle_4114" data-name="Rectangle 4114" width="59.883" height="2.076" transform="translate(431.026 244.384)" fill="#fff"/>
          <path id="Path_21960" data-name="Path 21960" d="M471.982,196.905h93.993a3.226,3.226,0,0,0,3.1-3.338V166.681a3.226,3.226,0,0,0-3.1-3.338H471.982a3.226,3.226,0,0,0-3.1,3.338v26.886a3.226,3.226,0,0,0,3.1,3.338" transform="translate(-67.917 90.872)" fill="#76c546"/>
          <path id="Path_21961" data-name="Path 21961" d="M474.6,177.154c0,4.678,3.524,8.473,7.873,8.473s7.871-3.794,7.871-8.473-3.524-8.471-7.871-8.471-7.873,3.793-7.873,8.471" transform="translate(2.542 93.843)" fill="#fff"/>
          <rect id="Rectangle_4115" data-name="Rectangle 4115" width="59.883" height="2.076" transform="translate(409.748 269.959)" fill="#fff"/>
          <rect id="Rectangle_4116" data-name="Rectangle 4116" width="31.606" height="2.076" transform="translate(438.025 276.56)" fill="#fff"/>
          <rect id="Rectangle_4117" data-name="Rectangle 4117" width="59.883" height="2.076" transform="translate(409.748 263.581)" fill="#fff"/>
          <path id="Path_21962" data-name="Path 21962" d="M642.563,483.391c23.911,0,43.362-20.934,43.362-46.667s-19.451-46.667-43.362-46.667S599.2,410.994,599.2,436.725s19.452,46.667,43.363,46.667" transform="translate(-373.23 217.001)" fill="#c2e6ef"/>
          <path id="Path_21963" data-name="Path 21963" d="M616.77,446.27h35.906V407.629H616.77Zm34.76-1.233H617.917V408.863H651.53Z" transform="translate(-365.389 226.776)" fill="#3a3e4a"/>
          <path id="Path_21966" data-name="Path 21966" d="M.018,48H2.485L2.467,0H0Z" transform="translate(245.342 654.955) rotate(-90.283)" fill="#3a3e4a"/>
          <path id="Path_21965" data-name="Path 21965" d="M4.021,130.375l1.167.037L1.167.037,0,0Z" transform="translate(486.556 743.561) rotate(-150.534)" fill="#fff"/>
        </g>
      </g>
    </g>
  </g>
</svg>
