<svg xmlns="http://www.w3.org/2000/svg" width="272.896" height="208.951" viewBox="0 0 272.896 208.951">
  <g id="quote-icon" transform="translate(11 11)" opacity="0.281">
    <g id="Group_562" data-name="Group 562" transform="translate(0 0)">
      <path id="Path_1229" data-name="Path 1229" d="M161.1,2029.015c-18.33-.944-30.987,2.668-37.807,10.751-6.82,8.125-10.257,19.779-10.257,35.083a130.5,130.5,0,0,0,.546,14.076h53.355v93.024H66.772V2071.24q0-35.639,21.387-55.93,21.359-20.25,58.265-20.311a194.931,194.931,0,0,1,20.513,1.805Zm148.829,0q-27.5-1.416-37.807,10.751c-6.875,8.084-10.257,19.779-10.257,35.083a115.535,115.535,0,0,0,.6,14.076h53.3v93.024H215.6V2071.24q0-35.639,21.385-55.93,21.359-20.25,58.266-20.311a194.96,194.96,0,0,1,20.513,1.805Z" transform="translate(-66.772 -1994.999)" fill="none" stroke="#fff" stroke-width="22"/>
    </g>
  </g>
</svg>
