<svg xmlns="http://www.w3.org/2000/svg" width="194.367" height="146.857" viewBox="0 0 194.367 146.857">
  <g id="Vendavo_Brand_Elements-09" data-name="Vendavo Brand Elements-09" transform="translate(2.5 2.5)">
    <g id="Group_1488" data-name="Group 1488">
      <path id="Path_2397" data-name="Path 2397" d="M138.347,2020.811c-13.909-.716-23.512,2.024-28.687,8.158-5.175,6.166-7.783,15.008-7.783,26.622a99,99,0,0,0,.414,10.68h40.486v70.587h-76V2052.85q0-27.042,16.228-42.439,16.207-15.365,44.211-15.412a147.954,147.954,0,0,1,15.565,1.37Zm112.93,0q-20.865-1.074-28.687,8.158c-5.217,6.134-7.783,15.008-7.783,26.622a87.652,87.652,0,0,0,.455,10.68h40.445v70.587h-76V2052.85q0-27.042,16.227-42.439,16.207-15.365,44.212-15.412a147.976,147.976,0,0,1,15.565,1.37Z" transform="translate(-66.772 -1994.999)" fill="none" stroke="#459b35" stroke-width="5"/>
    </g>
  </g>
</svg>
