<svg xmlns="http://www.w3.org/2000/svg" xmlns:xlink="http://www.w3.org/1999/xlink" width="1126.611" height="989.864" viewBox="0 0 1126.611 989.864">
  <defs>
    <clipPath id="clip-path">
      <rect id="Rectangle_36" data-name="Rectangle 36" width="553.047" height="982.893" fill="rgba(255,255,255,0.31)"/>
    </clipPath>
  </defs>
  <g id="Group_1466" data-name="Group 1466" transform="matrix(0.53, 0.848, -0.848, 0.53, 833.541, 0)" opacity="0.842">
    <g id="Group_39" data-name="Group 39" clip-path="url(#clip-path)">
      <path id="Path_321" data-name="Path 321" d="M8.8.219C5.58,3.194-1.666,39.346.348,42.362,2.564,45.679,5.2,41.48,5.2,34.63A46.926,46.926,0,0,1,7.074,22.02C9.992,13.524,11.22-2.023,8.8.219" transform="translate(113.993 395.239)" fill="rgba(255,255,255,0.31)"/>
      <path id="Path_322" data-name="Path 322" d="M11.13,20.6C9.676,28.375,7.267,36.407,5.776,38.452s-2.71,6.716-2.71,10.379A53.012,53.012,0,0,1,1.088,61.872C0,65.382-.328,69.1.36,70.124h0C2.216,72.9,6.98,63.861,7.092,57.352c.052-3.109,1.514-10.319,3.247-16.021C14.787,26.7,19.36,7.138,19.36,2.748c0-8.372-5.6,3.765-8.23,17.852" transform="translate(150.749 544.794)" fill="rgba(255,255,255,0.31)"/>
      <path id="Path_323" data-name="Path 323" d="M2.158,0A2.04,2.04,0,0,0,0,1.884C0,2.921.4,3.768.9,3.768s1.465-.847,2.158-1.884S3.343,0,2.158,0" transform="translate(147.703 623.819)" fill="rgba(255,255,255,0.31)"/>
      <path id="Path_324" data-name="Path 324" d="M6.359.162C4.521,2,0,27.559,0,36.111H0c0,5.863,2.407,5.4,4.36,1.306a6.176,6.176,0,0,0,1.154-3.1,30.327,30.327,0,0,0,.927-4.244C8.471,16.126,8.421-1.9,6.359.162" transform="translate(139.555 634.115)" fill="rgba(255,255,255,0.31)"/>
      <path id="Path_325" data-name="Path 325" d="M3.453,0C.587,0-.734,2.121.412,4.885h0c.6,1.449,1.911,2.163,2.914,1.589C5.627,5.159,5.728,0,3.453,0" transform="translate(173.105 512.624)" fill="rgba(255,255,255,0.31)"/>
      <path id="Path_326" data-name="Path 326" d="M0,0H0Z" transform="translate(99.43 933.569)" fill="rgba(255,255,255,0.31)"/>
      <path id="Path_327" data-name="Path 327" d="M170.758,173.893c5.479-20.989,13.382-53.828,20.183-83.867,7.191-31.759,17.527-67.664,21.511-74.734a19.969,19.969,0,0,0,2.817-10.1,3.055,3.055,0,0,0-.47-2.768c-.9-2.508-2.994-3.343-5.733-1.189a4.675,4.675,0,0,0-.884.7,3.192,3.192,0,0,0-.338.424c-.153.161-.3.282-.455.46-4.342,4.963-22.418,69.543-22.453,80.21a10.558,10.558,0,0,1-.213,1.849c-.352,1.306-.695,2.53-1.024,3.641a27.24,27.24,0,0,1-1.837,4.108,46.659,46.659,0,0,0-4.24,13.193,145.762,145.762,0,0,1-4.933,19.069,148.483,148.483,0,0,0-5.042,19.789,124.677,124.677,0,0,1-4.1,16.961c-3.2,9.641-7.393,27.046-14.089,58.426-2.543,11.919-6.543,29.732-8.888,39.578-5.476,22.995-12.039,54.912-13.71,66.681-.72,5.058-2.159,10.995-3.2,13.192s-3.692,14.6-5.892,27.553-5.436,29.072-7.194,35.809-3.209,14.372-3.22,16.961-1.481,10.225-3.259,16.963a153.577,153.577,0,0,0-3.668,16.963c-.237,2.591-2.357,14.464-4.712,26.385-7.187,36.391-10.07,51.786-11.772,63.241-.4,2.22-.78,4.681-1.1,7.18-.175,1.377-.379,2.887-.6,4.471-1.064,6.675-2.521,14.941-3.766,21.226-1.744,8.811-3.784,21.533-4.53,28.27A183.625,183.625,0,0,1,69.8,627.156c-1.531,5.7-3.774,19.694-4.985,31.1s-2.686,23.275-3.283,26.385-1.482,8.623-1.964,12.251c-.363,2.721-.745,5.484-1.141,8.27-.014.018-.03.052-.044.066-.96.986-1.746,4.453-1.746,7.7,0,1.953-.486,6.58-1.23,12.073-3.5,21.634-7.438,41.936-10.222,51.986-1.725,6.219-4.038,14.7-5.143,18.847-2.5,9.407-13.712,30.3-18.329,34.168-3.141,2.63-3.7,2.493-6.085-1.5-6.369-10.652-7.572-54.755-1.908-69.985a130.47,130.47,0,0,0,5.215-18.384c.822-4.607,2.221-9.225,3.111-10.26s2.153-8.246,2.81-16.021,2.23-20.5,3.5-28.27,2.656-20.072,3.086-27.328a274.312,274.312,0,0,1,3.87-29.212c1.7-8.81,4.023-23.228,5.165-32.04s2.975-22.8,4.076-31.1,2.327-18.571,2.723-22.843a71.184,71.184,0,0,1,3.068-14.341c2.18-6.114,6.486-30.962,10.375-59.876.906-6.737,2.246-16.491,2.977-21.674,1.261-8.953,1.178-9.188-1.7-4.712-1.665,2.592-4.077,11.921-5.359,20.732s-3.626,21.225-5.207,27.588-3.837,19.567-5.015,29.341-3.521,25.348-5.206,34.606c-5.69,31.257-6.743,37.534-8.029,47.929-.706,5.7-2.082,12.486-3.056,15.079s-2.32,12.619-2.99,22.285a259.076,259.076,0,0,1-3.259,27.328c-1.564,7.458-10,63.8-10.01,66.875,0,.321-1,.012-2.219-.685-2.117-1.211-1.537-24.518,1.173-60.155.906-10.273,2-22.428,3.3-36.851.627-6.935,1.223-13.51,1.795-19.773.346-3.406.7-6.843,1.065-10.333,1.58-15.03,3.419-33.264,4.085-40.52,2.028-22.1,7.005-63.414,9.079-75.387.343-1.976.731-4.49,1.152-7.408.1-.672.194-1.333.283-1.994,1.7-12.1,3.842-30.2,5.668-48.079.477-4.665,1.792-13.39,2.923-19.392,1.013-5.369,1.474-10.779,1.141-12.869.137-.821.347-2.236.606-4.088a2.337,2.337,0,0,1,.358-.323c1.2-.685,2.177-4.985,2.177-9.558s1.315-17.031,2.923-27.687,4.9-32.944,7.325-49.53c4.426-30.322,13.145-73.516,16.476-81.634a29.75,29.75,0,0,0,1.793-9.425c0-2.781,3.256-13.963,7.232-24.848s8.572-24.768,10.216-30.852c3.094-11.471,11.371-32.558,16-40.765a50.807,50.807,0,0,0,4.069-10.183c1.2-4.647,7.676-14.562,12.032-19.269,2.447-2.21,3.8-2.5,5.365-1.544a9.8,9.8,0,0,1,1.851,2.229c1.735,2.87,2.145,2.655,3.337-1.735,1.346-4.967,1.067-8.546-.688-10.587a3.707,3.707,0,0,0-3.57-2.306,2.853,2.853,0,0,0-1.215.4c-2.806.225-5.755,2.776-10.574,8.984-4.068,5.239-7.4,10.246-7.4,11.125s-2.4,5.755-5.337,10.833c-7.842,13.565-12.032,25.158-23.607,65.3-4.243,14.719-7.744,19.006-7.692,9.423.016-2.85,1.818-14.087,4.009-24.971,3.657-18.182,6.694-30.429,15.189-61.252,4.023-14.589,4.02-18.34-.013-17.57-5.733,1.094-15.164,23.261-15.147,35.6.006,3.7-1.326,10.907-2.958,16.019s-4.371,16.5-6.083,25.313S64.482,181.953,61.56,191.8s-5.992,22.146-6.82,27.33-2.459,11.543-3.619,14.134a105.833,105.833,0,0,0-7.73,27.328c-.767,5.183-2.328,10.472-3.469,11.756-2.5,2.812-.458,8.756,2.44,7.1,1.129-.646,2.052-3.193,2.052-5.661,0-4.907,9.551-30.993,12.361-33.762,1.9-1.874,1.861-1.493-4.246,37.531-6.82,43.588-9.849,64.93-12.168,85.751-1.211,10.884-4,32.512-6.2,48.059C24.6,478.836,17.522,533.456,15.827,552.711c-1.005,11.4-3.261,33.877-5.016,49.945S7.255,637.38,6.8,644.118,4.439,674.6,2.546,696.888C1.34,711.07.641,725.362.377,739.181a252.684,252.684,0,0,0,.137,30.084c1.168,39.576,6.238,70.186,13.661,73.9,1.52.91,3.368.648,5.72-.844,4.6-2.094,10.26-6.355,10.26-8.448,0-.607,2.69-4.792,5.978-9.3a62.553,62.553,0,0,0,8.415-17.528c1.34-5.132,3.692-10.574,5.225-12.092,3.5-3.463,3.567-1.1.759,26.319-2.6,25.372-3.772,76.177-2.8,97.885.065,5.192.249,8.426.582,8.734a1.585,1.585,0,0,0,.213.118c.169.8.357,1.271.563,1.352,4.382,1.647,5.611,1.269,6.768-2.081.627-1.814,1.938-4.994,2.914-7.068,5.684-12.08,10.8-40.047,12.76-69.732.2-3.11,1-6.549,1.774-7.643s.638-5.126-.3-8.962c-.971-3.987-.919-7.421.125-8.017,1-.574,1.826-5.543,1.826-11.04a116.615,116.615,0,0,1,1.87-19.207c1.028-5.064,2.48-18.946,3.225-30.847.242-3.856.5-7.522.748-10.745.532-4.463,1.076-8.947,1.624-13.37.7-3.4,2.126-12.159,3.588-22.095,1.829-12.438,3.662-24.682,4.072-27.207,1.836-11.3-3.813-12.758-5.944-1.534-2.39,12.582-2.644,14.214-5.935,38.164-1.709,12.439-3.605,25.2-4.213,28.362-1.018,5.3-4.525,41.707-6.164,63.986-.276,3.764-.8,8.806-1.32,12.88-1.231,1.986-1.788,4.691-.938,6.472-.754,5.029-1.979,13.729-2.972,21.169-3.05,22.806-4,26.573-6.347,25.229-1.337-.764-1.608-8.324-.764-21.219,1.881-28.667,3.57-60.713,4.237-80.34a273.749,273.749,0,0,1,2.835-30.154c1.241-7.256,3.128-21.251,4.194-31.1.341-3.152.693-6.3,1.051-9.429.349-2.733.7-5.559,1.054-8.522.515-4.309,1.056-8.749,1.613-13.252,1.678-12.826,3.312-23.716,4.549-30.048,1.012-5.185,2.388-14.937,3.056-21.674s3.473-25.819,6.23-42.405c7.955-47.84,15.083-89.9,16.449-97.06.693-3.626,1.514-8.293,1.823-10.365s3.034-15.642,6.052-30.154,6.183-31.475,7.033-37.694,3.031-17.245,4.841-24.5,5.654-25.489,8.542-40.52,6.95-34.537,9.03-43.347,5.709-24.924,8.064-35.808c6.771-31.3,18.622-81.672,24.608-104.6" transform="translate(50.334 4.203)" fill="rgba(255,255,255,0.31)"/>
      <path id="Path_328" data-name="Path 328" d="M4.957,0C2.5,0-.985,9.675.262,13.041h0C1.051,15.168,1.82,15,4.025,12.209,7.14,8.265,7.772,0,4.957,0" transform="translate(181.644 473.044)" fill="rgba(255,255,255,0.31)"/>
      <path id="Path_329" data-name="Path 329" d="M203.193,282.131c-.1-22.911-.717-28.488-1.8-35.463-2.484-28.768-7.381-45.139-16.564-64.468-3.012-6.339-4.645-8.369-7.84-8.832a3.778,3.778,0,0,0-1.039-.171c-.251,0-.507.031-.759.051h-.024c-.109,0-.229.02-.341.025-.06.006-.118,0-.178.013a16.573,16.573,0,0,0-9.423,4.428,31.773,31.773,0,0,0-4.3,6.361,33.027,33.027,0,0,0-1.948,3.647c-4.783,9.347-10.264,22.741-12.608,31.7-1.084,4.144-2.966,10.929-4.183,15.076a90.263,90.263,0,0,0-2.813,14.135c-1.746,19.1-3.417,30.318-6.039,40.52-1.6,6.22-2.781,13.853-2.626,16.963.477,9.675-2.682,50.5-4.519,58.426-1.173,5.052-1.509-1.284-1.02-19.215.4-14.714,1.174-27.435,1.717-28.27s1.548-17.252,2.237-36.483,2.1-43.4,3.147-53.714c1.766-17.458,2.726-37.46,5.237-109.21.084-2.413.194-4.878.319-7.341.35-5.943.72-11.407,1.088-16.127a156.647,156.647,0,0,1,1.91-15.749,66.469,66.469,0,0,0,1.195-7.021c.395-3.079.11-4.925-.867-5.83a2.144,2.144,0,0,0-.232-.15c-.03-.029-.055-.061-.085-.089-3.318-3.071-7.7,2.833-11.548,15.556-1.725,5.7-5.376,17.576-8.116,26.386-9.763,31.4-27.561,117.559-36.79,178.1-1.738,11.4-4.064,26.243-5.169,32.98s-2.84,18.187-3.855,25.444-3.234,22.945-4.931,34.866c-4.361,30.611-7.357,56.209-9.265,79.154-.906,10.884-2.166,21.062-2.8,22.616s-2.112,20.637-3.28,42.405-3.008,46.362-4.088,54.655S47.662,604.456,46,618.969c-7.731,67.37-9.032,76.388-15.238,105.54a174.161,174.161,0,0,1-9.628,29.212c-2.02,4.748-3.253.194-3.945-17.6-.322-11.959-.567-29.206-.717-48.038-.011-3.422-.021-6.973-.025-10.694-.09-70.858,2.173-137.009,6.06-177.159,1.1-11.4,2.9-33.029,4-48.059,2.02-27.752,3.259-42.408,5.013-59.366.537-5.182,2-20.449,3.259-33.924s2.687-28.28,3.182-32.9c2.136-19.941,5.01-50.486,7.734-82.189,1.608-18.727,3.476-36.113,4.148-38.636s2.055-17.729,3.075-33.8C58.552,82.5,61.4,50.968,65.3,34.081c1.656-7.168,3.365-15.282,4.442-20.973C70.8,8.964,71.253,6.16,71.1,4.406,71.533.129,70.841-.339,68.008.162,65.388.626,63.4,3.551,61.783,9.3,60.478,13.956,57.426,24.547,55,32.84S49.391,52.3,47.921,57.66s-3.348,10.754-4.173,11.991c-1.466,2.2-6.266,17.7-12.526,40.46-1.4,5.071-2.874,11.893-3.681,16.782-.859,3.71-1.76,7.8-2.728,12.371a3.542,3.542,0,0,1-.573.908c-1.01.984-1.839,3.752-1.839,6.15a17.963,17.963,0,0,1-1.907,7.634c-1.05,1.8-3.46,10.056-5.356,18.349s-4.732,18.79-6.3,23.328c-2.7,7.807-5.692,21.987-7.561,35.576A28.463,28.463,0,0,0,0,238.346a9.592,9.592,0,0,0,.45,3.292c.428,5.344,3.258,3.927,5.736-4.783,1.255-4.4,3.166-10.979,4.249-14.607s3.248-13.38,4.813-21.674,5.234-23.132,8.156-32.98c7.1-23.941,13.319-48.259,14.689-57.443.617-4.123,2.333-9.212,3.814-11.307s3.319-7.433,4.083-11.861c2.014-11.674,4.928-11.715,4.933-.069.011,17.545-6.222,102.776-11.137,152.3-.2,2.058-.428,4.344-.668,6.8-.276,2.3-.546,5.075-.777,8.053-1.534,15.983-3.414,36.14-4.761,51.111-1.818,20.212-4.129,40.143-5.135,44.289s-2.372,17.716-3.038,30.154-2.429,34.491-3.922,49-2.338,26.966-1.878,27.677a3.713,3.713,0,0,1,.164,1.466c-.073,1.231-.137,2.4-.194,3.488-.221,2.527-.624,5.768-1.163,9.181-1.116,7.065-3.649,37.014-5.629,66.557C9.3,588.92,8.1,691.394,9.513,743.391c.248,14.938.693,25.237,1.37,27.712h0c.074.275.169.537.264.8a8.392,8.392,0,0,0,.856,3.25l0,0c2.652,2.956,3.1,2.944,6.914-.181C22.925,771.68,31.239,756.309,35,745.241c4.268-12.581,12.378-59.914,15.821-92.348,1.32-12.438,3.19-28.552,4.156-35.808s3.261-32.275,5.1-55.6c.308-3.889.628-7.855.957-11.859.014-.146.03-.3.046-.444.527-5.2,1.125-12.366,1.662-19.727,5.72-65.7,13.51-138.46,17.527-162.089,1.675-9.847,4.064-26.808,5.31-37.694s3.092-22.757,4.1-26.385,2.409-13.238,3.114-21.356,3.048-23.382,5.2-33.924,4.854-25.1,5.992-32.357,3.82-20.4,5.962-29.212c4.483-18.448,8.35-34.921,10.943-46.541.287-1.052.543-2.21.751-3.4.971-4.42,1.713-7.97,2.162-10.371.873-4.665,2.477-8.256,3.561-7.979,2.028.516,1.893,60.244-.2,87.136-3.338,42.943-5.356,73.323-5.255,79.155.062,3.628-.775,14.654-1.859,24.5s-2.873,31.9-3.973,49-2.885,41.275-3.967,53.713c-3.627,41.7-4.936,91.674-5.059,193.178-.128,104.052,1.1,142.291,4.671,145.6,1.72,1.59,4.134-.6,6.361-4.837a16.51,16.51,0,0,0,1.017-1.881,19.259,19.259,0,0,0,.709-1.9,61.44,61.44,0,0,0,3.629-14.169c.226-1.694.453-6.811.671-14.582a573.375,573.375,0,0,0,1.356-64.931c-.09-2.3-.172-4.735-.251-7.23.15-16.859.265-35.151.328-53.968.428-126.236.759-142.5,3.39-166.792,1.318-12.166,4.731-51.913,6.472-75.387,4.928-66.4,14.307-117.525,26.623-145.118,6.292-14.1,8.707-17.388,11.559-15.756,5.524,3.158,13.155,26.572,18.954,58.16,3.373,18.378,3.889,128.681.964,206.371-1.073,28.505-2.429,99.984-3.013,158.844-.942,95.218-.713,107.138,2.077,108.129a8.691,8.691,0,0,0,.969.277c.44.489.843.589,1.212.193a2.928,2.928,0,0,0,2.025-.348c1.384-1.279,2.48-55.508,3.815-188.612.1-9.783.205-19.277.319-28.333q.1-7.565.194-14.8c.527-37.894,1.132-64.87,1.522-65.454.527-.79,1.01-36.956,1.073-80.37.032-22.012-.1-40.279-.5-55.8m-85.35,409.481c-.123,2.3-.275,3.685-.44,3.685-.8,0-2.655-15.331-3.195-25,.021-2.633.071-5.227.147-7.713.357-1.84,1-3.091,1.739-3.091.873,0,1.542,3.745,1.85,9.811.069,9.152.025,17.245-.1,22.313m-2.952-39.925c.114-1.544.238-2.921.371-4.1q.357-.6.835-1.287a9.28,9.28,0,0,1,.838-1.065c.191,1.312.36,3.2.505,5.623-.357.673-.824,1.1-1.343,1.1a2.534,2.534,0,0,1-1.206-.264m1.2-16.7a1.967,1.967,0,0,1-2-1.731c.014-.2.035-.384.058-.571a2.022,2.022,0,0,1,3.9.032c.021.174.039.347.054.527a1.969,1.969,0,0,1-2.006,1.742" transform="translate(349.349 130.183)" fill="rgba(255,255,255,0.31)"/>
      <path id="Path_330" data-name="Path 330" d="M4.141,8.429C6.166,7.271,4.124,0,1.774,0c-2.066,0-2.45,6.308-.5,8.116l0,0a2.589,2.589,0,0,0,2.866.315" transform="translate(49.964 431.581)" fill="rgba(255,255,255,0.31)"/>
      <path id="Path_331" data-name="Path 331" d="M6.111,2.356C6.128,1.06,4.768,0,3.087,0,.014,0-1.167,5.8,1.42,8.2,3.011,9.667,6.065,5.864,6.111,2.356" transform="translate(51.944 420.275)" fill="rgba(255,255,255,0.31)"/>
      <path id="Path_332" data-name="Path 332" d="M3.458,6.434C5.77,5.11,5.718,0,3.392,0,1.144,0-1.047,4.89.543,6.361h0a2.666,2.666,0,0,0,2.915.074" transform="translate(56.948 405.198)" fill="rgba(255,255,255,0.31)"/>
      <path id="Path_333" data-name="Path 333" d="M19.309,22.065c.163-7.671,1.173-15.464,2.245-17.318C22.819,2.559,22.785.963,21.457.2,18.8-1.318,15.825,5.818,14.526,16.046a16.292,16.292,0,0,0-.657,7.319c-.541,6.714-1.694,17.6-2.751,25.84-1.2,9.33-2.909,23.747-3.8,32.04-.821,7.617-2.33,20.391-3.5,29.652-.448,1.9-.9,4.926-1.444,9.413h0c-.245,2.008-.38,3.887-.417,5.5C1.258,131.6.628,136.986.294,140.139h0c-.578,5.442-.276,9.894.669,9.894,2.56,0,3.853-6.489,5.261-26.385.7-9.848,2.129-21.005,3.184-24.8A138.136,138.136,0,0,0,12.4,79.065c.59-7.1,2.319-19.682,3.843-27.977a220.357,220.357,0,0,0,3.067-29.024" transform="translate(46.813 234.432)" fill="rgba(255,255,255,0.31)"/>
      <path id="Path_334" data-name="Path 334" d="M.578,11.6c.885,1.325,1.924,1.136,3.086-.558C5.973,7.668,5.972,0,3.662,0,1.271,0-1.133,9.036.578,11.6" transform="translate(68.901 188.46)" fill="rgba(255,255,255,0.31)"/>
      <path id="Path_335" data-name="Path 335" d="M6.068,20.459C6.556-.943,6.5-1.461,3.811,1.022,1.2,3.433-1.262,31.864.72,36.644c2.707,6.53,4.988-.37,5.348-16.186" transform="translate(70.391 147.271)" fill="rgba(255,255,255,0.31)"/>
      <path id="Path_336" data-name="Path 336" d="M0,5.183C.026,9.222.467,9.742,2.006,7.539,4.581,3.851,4.581,0,2.006,0,.886,0-.017,2.334,0,5.183" transform="translate(45.896 392.004)" fill="rgba(255,255,255,0.31)"/>
      <path id="Path_337" data-name="Path 337" d="M12.283,34.009c-.914,1.047-2.159,5.721-2.765,10.384-1.874,14.4-4.947,28.964-7.284,34.518A31.372,31.372,0,0,0,0,88.962v0c0,6.023,4.464,4.938,5.435-1.323A123.838,123.838,0,0,1,9.2,73.607c1.679-5.183,4.42-15.629,6.091-23.212s3.848-15.217,4.838-16.961,2.472-6.992,3.291-11.655,2.353-10,3.4-11.851c2.273-4,.106-11.94-2.579-9.455a12.174,12.174,0,0,0-1.624,3.212C21.3,5.134,20.456,7.03,20.643,8.36a5.069,5.069,0,0,1,.035.678c-.819,2.446-1.681,5.221-2.494,8.1-2.331,8.235-4.986,15.828-5.9,16.875" transform="translate(64.196 287.302)" fill="rgba(255,255,255,0.31)"/>
      <path id="Path_338" data-name="Path 338" d="M4.075,1.995C4.075.377,3.157-.419,2.039.222A4.026,4.026,0,0,0,0,3.16,1.926,1.926,0,0,0,2.039,4.934c1.118,0,2.036-1.323,2.036-2.939" transform="translate(47.901 445.494)" fill="rgba(255,255,255,0.31)"/>
      <path id="Path_339" data-name="Path 339" d="M.368,22.193c2.052,5.982,6.268.641,7.693-9.746S6.6-4.069,3.67,3.111C2.623,5.677,2.161,8.4,2.641,9.152s-.136,3.12-1.37,5.254a10.815,10.815,0,0,0-.9,7.788" transform="translate(64.943 204.243)" fill="rgba(255,255,255,0.31)"/>
      <path id="Path_340" data-name="Path 340" d="M0,0H0Z" transform="translate(69.479 200.056)" fill="rgba(255,255,255,0.31)"/>
      <path id="Path_341" data-name="Path 341" d="M5.407.308c-.622-.93-2.293.32-3.716,2.781S-.387,8.319.235,9.251s2.293-.32,3.716-2.779S6.029,1.238,5.407.308" transform="translate(191.729 443.764)" fill="rgba(255,255,255,0.31)"/>
      <path id="Path_342" data-name="Path 342" d="M1.415,37.692c1.214,0,2.686-3.6,3.274-8.01,1.514-11.35,2.8-18.525,4.388-24.5C9.836,2.331,9.617,0,8.591,0,5.614,0,1.824,11.772.463,25.253h0c-.846,8.391-.537,12.441.952,12.441" transform="translate(123.465 354.312)" fill="rgba(255,255,255,0.31)"/>
      <path id="Path_343" data-name="Path 343" d="M5.575,5.859C5.613-4.4,2.292-.43.527,11.891c-.871,6.079-.65,9.894.573,9.894,2.589,0,4.44-6.587,4.475-15.926" transform="translate(131.917 328.757)" fill="rgba(255,255,255,0.31)"/>
      <path id="Path_344" data-name="Path 344" d="M.516,110.167c-.025.022-.049.035-.074.058-.619.574-.575,2.246.049,3.913.265,7.132,2.363,7.862,3.981-2.059.522-3.2,1.52-8.924,2.657-15.267A5.425,5.425,0,0,0,7.471,94.9c1.018-5.663,2.117-11.658,3.065-16.71a16.382,16.382,0,0,1,3.048-6.72c1.242-1.386,2.841-7.552,3.551-13.7a190.533,190.533,0,0,1,3.986-21.549c3.351-12.9,4.663-35.5,2.1-36.218-1.051-.292-4.462,13.885-7.58,31.507S9.155,65.247,8.156,67.318s-1.381,6.529-.844,9.9c.576,3.632-.243,7.855-2.012,10.365C3.657,89.914,1.665,97.968.87,105.483c-.178,1.693-.292,3.257-.354,4.684" transform="translate(158.215 105.122)" fill="rgba(255,255,255,0.31)"/>
      <path id="Path_345" data-name="Path 345" d="M11.294,3.4c-.483-4.682-.5-4.678-3.285.943a32.159,32.159,0,0,0-2.889,11.5,44.035,44.035,0,0,1-1.97,11.307,81.849,81.849,0,0,0-2.816,14.5C-1.371,58.1,3.807,50.24,7.635,30.574,12.07,7.782,11.887,9.145,11.294,3.4" transform="translate(144.713 234.061)" fill="rgba(255,255,255,0.31)"/>
      <path id="Path_346" data-name="Path 346" d="M3.9,1.671C2.942-.63,2.473-.582.92,1.987-.1,3.664-.3,5.967.459,7.106,2.388,9.994,5.384,5.257,3.9,1.671" transform="translate(138.223 305.959)" fill="rgba(255,255,255,0.31)"/>
      <path id="Path_347" data-name="Path 347" d="M3.056,9.211c1.679-2.22,2.5-5.372,1.823-7C2.963-2.412,0,.671,0,7.284H0c0,5.836.063,5.877,3.054,1.926" transform="translate(141.593 289.133)" fill="rgba(255,255,255,0.31)"/>
      <path id="Path_348" data-name="Path 348" d="M5.542,18.375C6.931,11.9,8.492,5.112,9.013,3.3S9.1,0,8.049,0C6.1,0,2.71,10.406.531,23.088c-2.052,11.934,2.325,7.818,5.011-4.713" transform="translate(366.14 99.88)" fill="rgba(255,255,255,0.31)"/>
      <path id="Path_349" data-name="Path 349" d="M103.8,370.067c-2.368,1.983-4.527,6.989-5.278,12.238-.7,4.885-3.04,15.669-5.2,23.96s-5.411,21.863-7.229,30.156-4.154,18.47-5.191,22.615-2.338,10.507-2.889,14.135c-.985,6.5-5.264,30.587-9.038,50.887-1.059,5.7-3.42,15.7-5.245,22.212S60.944,558.921,61.6,559.9c.256.383.276,1.948.106,4.271-.717,4.853-1.458,10.171-2.205,15.813-2.8,15.8-7.916,51.453-10.49,73.167-.491,4.148-2.188,16.444-3.769,27.328s-3.409,27-4.061,35.808c-.073.968-.153,1.986-.245,3.048-.254,2.5-.491,4.947-.7,7.269-.022.234-.044.478-.066.714-1.567,14.877-4.587,37.632-10,75.663-2.125,14.943-12.572,62-16.43,74.021-.432,1.347-.841,2.454-1.226,3.353a9.527,9.527,0,0,1-1.962,2.784c-1.727.349-2.436-7.111-1.765-21.308.893-18.909,4.237-68,5.932-87.121.414-4.663,1.31-18.233,1.992-30.154S18.84,717.8,19.924,711.58c1.91-10.957,4.983-43.165,8-83.867,1.493-20.141,6.749-61.519,10.413-81.983.548-3.058,1.242-7.588,1.924-12.448,1.043-1.967,1.462-4.531.919-5.844a1.547,1.547,0,0,1-.082-.323c.4-3.047.766-6.041,1.069-8.714A241.375,241.375,0,0,1,46.1,493.9a95.966,95.966,0,0,0,2.2-18.847c.035-5.7,1.452-12.832,3.152-15.847,1.837-3.261,3.435-12.428,3.94-22.616.467-9.425,2.3-22.315,4.071-28.648s4.061-16.933,5.089-23.558c1.986-12.8,7.134-39.692,14.4-75.18,2.439-11.919,5.117-26.789,5.952-33.043s2.574-13.195,3.866-15.425a20.355,20.355,0,0,0,2.346-8.588c0-2.495,1.825-11.135,4.055-19.2,6.784-24.55,10.309-46.888,8.9-56.413-1.182-7.983-.879-9,2.982-9.929,4.3-1.041,7.973-7.411,5.558-9.645-.707-.654-1.815.682-2.461,2.969s-1.918,4.158-2.825,4.158c-2.991,0-3.313-6.486-.655-13.193a78.678,78.678,0,0,0,3.673-16.963,143.023,143.023,0,0,1,3.051-17.9c1.1-4.146,3.885-16.019,6.2-26.385,7.3-32.726,12.369-48.686,19.517-61.478,3.957-7.081,5.376-6.865,4.587.7-.464,4.45.2,6.124,2.415,6.124q3.052,0,3.578-6.6a82.752,82.752,0,0,1,3.965-16.434c1.894-5.411,2.808-10.425,2.033-11.144-.036-.032-.088-.048-.128-.077C155.533.7,155.529.628,155.5.6c-1.132-1.046-3.027-.673-5.234.64-3.234,1.29-6.77,3.743-7.641,5.927a10.791,10.791,0,0,1-3.042,4.392c-1.593,1-5.772,10.193-11.931,26.249-1.392,3.628-3.236,8.293-4.1,10.367S119.678,60,116.841,69.852c-4.587,15.924-7.243,28.5-15.525,73.5-1.239,6.737-3.185,16.914-4.325,22.616s-2.461,14.182-2.939,18.847c-1.446,14.11-2.527,20.807-6.694,41.463-7.218,35.773-9.818,49.68-10.38,56.092-.6,2.914-1.19,5.76-1.8,8.629a1.725,1.725,0,0,1-.358.3c-1.121.641-2.038,2.963-2.038,5.162a39.071,39.071,0,0,1-1.918,9.783c-2,6.031-4.08,16.327-9.313,46.08-1.711,9.721-3.768,18.625-4.573,19.789a6.07,6.07,0,0,0-.53,1.234,11.95,11.95,0,0,0-1.38,4.8c-.9,3.516-1.956,8.172-2.922,13.043-1.853,9.328-4.9,24.441-6.775,33.584-2.759,13.457-2.917,17.166-.833,19.489,1.414,1.579,2.3,5.971,1.964,9.765s-.745,9.016-.912,11.607c-.232,3.6-1.389,4.674-4.887,4.561-3.2-.105-4.584.93-4.584,3.422a16.888,16.888,0,0,1-2.03,7.082c-2.656,4.595-.556,9.512,3.452,8.088,2.691-.955,2.92.508,1.657,10.573-.8,6.426-1.769,14.822-2.143,18.661s-1.136,9.523-1.694,12.634c-1.053,5.871-3.623,22.669-7.591,49.647-1.272,8.648-2.614,20.1-2.979,25.443-.21,3.066-.851,8.744-1.675,15.079a14.246,14.246,0,0,0-1.241,5.658c0,1.2-.12,3.209-.331,5.648-.156,1.055-.313,2.1-.47,3.124-1.678,10.884-4.036,31.663-5.237,46.173s-3.209,36.14-4.462,48.06S8.943,753.7,8.754,756.812a104.206,104.206,0,0,1-1.714,12.251C3.987,783.73-1.617,897.1.445,902.4h0a4.221,4.221,0,0,0,.739,1.225,3.8,3.8,0,0,0,.139.61h0c.717,1.988,6.355-.226,9.437-3.622a49.635,49.635,0,0,0,7.273-9.049c3.34-5.182,8.476-21.606,11.788-37.692,5.865-28.494,10.4-55.747,12.388-74.446,1.211-11.4,3.081-25.4,4.154-31.1,1.724-9.161,5.384-41.035,10.059-87.637.833-8.293,3.062-26.1,4.955-39.578s4.251-30.861,5.239-38.635c2.058-16.189,9.319-60.472,12.208-74.445,2.268-10.974,3.948-20.433,6.192-34.866,2.237-14.385,12.3-60.438,14.209-65.02,2.1-5.034,5.57-20.423,7.231-32.027,1.326-9.267,1.286-9.361-2.66-6.057" transform="translate(243.978 9.299)" fill="rgba(255,255,255,0.31)"/>
      <path id="Path_350" data-name="Path 350" d="M1.7,16.847C.1,24.881-.472,31.452.424,31.452,2.34,31.452,6.367,19.3,7.8,10.566a19.3,19.3,0,0,0,.524-4.412c0-.161-.009-.282-.013-.434s.009-.292.009-.429c0-10.558-3.414-4.6-6.626,11.556" transform="translate(375.647 64.659)" fill="rgba(255,255,255,0.31)"/>
      <path id="Path_351" data-name="Path 351" d="M2.189,9.059C5.312,8.095,5.9.085,2.855,0,1.8-.032.675,1.924.238,4.429.2,4.566.149,4.7.116,4.844a3.791,3.791,0,0,0-.09,1.342c-.15,2.5.527,3.377,2.162,2.873" transform="translate(384.171 50.822)" fill="rgba(255,255,255,0.31)"/>
      <path id="Path_352" data-name="Path 352" d="M0,9.849c-.017,2.851.844,5.184,1.913,5.184,1.473,0,3.151-5.042,3.72-9.25a7.171,7.171,0,0,0,.183-2.061C5.88,2.136,5.711.87,5.195.392,3.1-1.546.035,4.032,0,9.849" transform="translate(221.06 348.702)" fill="rgba(255,255,255,0.31)"/>
      <path id="Path_353" data-name="Path 353" d="M1.818,13.106c2.308,0,4.311-4.76,4.227-10.048-.063-4-.129-4.006-3.056-.428C1.345,4.642,0,7.823,0,9.7s.818,3.409,1.818,3.409" transform="translate(235.287 305.395)" fill="rgba(255,255,255,0.31)"/>
      <path id="Path_354" data-name="Path 354" d="M55.8,661.824c.5-3.887.882-7.549,1.13-10.585a3.38,3.38,0,0,0,.126-1.634c.254-3.624.268-6.047-.024-6.318-2.088-1.932-4.929,6.361-6.244,18.227-.747,6.737-2.663,19.035-4.259,27.328-.281,1.453-.543,2.832-.8,4.2a55.584,55.584,0,0,0-1.769,9.413c-3.514,19.054-4.808,28.679-5.723,41.044-.11,1.485-.245,3.016-.395,4.547-.368,2.928-.72,5.871-1.045,8.756a70.953,70.953,0,0,1-1.52,8.194c-1.013,3.531-1.356,7.148-.761,8.039a4.284,4.284,0,0,1,.249,1.866c-.343,2.893-.687,5.715-1.021,8.386-.081.409-.156.816-.245,1.231a442.207,442.207,0,0,0-7.374,51.329c-1.417,19.105-2.77,32.991-3.951,40.521-.568,3.626-1.577,14.229-2.241,23.557-.188,2.666-.439,5.43-.721,8.112-.532,4.063-1.062,8.017-1.583,11.8-.27,1.531-.534,2.791-.778,3.65a65.694,65.694,0,0,0-1.981,14.135c-.006.543-.038,1.119-.087,1.713-.366,2.322-.71,4.4-1.024,6.162a27.072,27.072,0,0,1-1.79,5.316c-2.554,5.164-2.827,3.486-3.147-19.317-.193-13.735-.4-27.3-.47-30.154-.115-5.018,1.7-47.758,3.495-82.453.963-18.552,4.356-59.4,6.421-77.271.718-6.221,1.517-14.277,1.776-17.906,1.631-22.926,3.613-41.739,5.234-49.67,1.029-5.031,1.487-9.724,1.018-10.428s-.03-5.065.977-9.7,2.835-19.443,4.063-32.919c3.124-34.317,3.433-37.1,4.721-42.405,1.564-6.444,4.869-29.319,7.351-50.885a257.871,257.871,0,0,1,5.062-29.212c1.649-6.22,3.037-14.7,3.084-18.847a62.528,62.528,0,0,1,2.131-14.361A194.645,194.645,0,0,0,57.763,445.5c2.211-14.08,5.51-31.472,7.106-37.469.552-2.072,2.379-12.245,4.061-22.6s3.885-21.385,4.895-24.5,2.947-12.448,4.3-20.743,2.8-16.773,3.215-18.847c.316-1.574,1.627-8.432,3.2-16.732.784-3.454,1.533-7.376,2.088-10.953,2.158-10.894,5.015-22.587,6.618-26.956,1.739-4.744,3.165-10.478,3.165-12.74s1.755-10.926,3.9-19.251c.254-.99.532-2.078.826-3.234a46.994,46.994,0,0,0,2.226-8.848c1.771-7.11,3.7-14.966,5.133-20.962,2.358-9.848,5.147-20.874,6.2-24.5s6.05-21.863,11.107-40.521c11.5-42.434,26.3-85.225,37.237-108.642.481-.914.958-1.792,1.419-2.6a40.811,40.811,0,0,0,2.6-5.424c1.01-1.864,1.975-3.516,2.877-4.893.636-.973,1.206-1.94,1.739-2.9A9.254,9.254,0,0,0,173,9.608c1.732-3.667,2.483-6.749,1.725-7.884-2.467-3.694-6.4-1.388-10.721,6.283-2.481,4.406-7.217,12.251-10.523,17.433s-6.045,11.091-6.08,13.13-1.364,7.127-2.949,11.307-4.948,13.963-7.472,21.737a229.412,229.412,0,0,1-9.34,23.908c-2.611,5.375-4.748,10.922-4.748,12.324s-1.833,5.876-4.074,9.942-4.074,8.459-4.074,9.765-1.833,5.389-4.072,9.08c-5.166,8.511-5.15,11.066.058,9.806,3.744-.907,4.019-.349,2.92,5.9-2.232,12.71-5.742,25.735-7.425,27.543-.915.986-1.648,3.53-1.637,5.655s-1.818,10.859-4.074,19.411c-9.36,35.487-12.105,47.172-13.393,57.011-.028.216-.062.428-.092.643-.816,3.78-1.624,7.592-2.4,11.3a3.043,3.043,0,0,1-.147.3c-1.533,2.261-8.894,39.3-14.8,74.444-2.35,13.993-5.06,27.14-6.023,29.212s-2.208,9.886-2.769,17.361-1.874,15.108-2.92,16.963c-2.271,4.019-5.922,22.561-7.36,37.038-.77,4.5-1.5,9.28-2.145,14.12a4.419,4.419,0,0,1-.421,1c-.775,1.152-3.021,14.394-4.989,29.424s-4.975,34.537-6.681,43.347-3.97,22.8-5.029,31.1c-6.942,54.361-10.7,85.693-12.631,105.487-3.114,31.834-3.165,32.271-5.555,49.055-1.181,8.291-2.693,25.615-3.362,38.5S7.73,786.176,6.674,788s-1.908,9.942-1.9,18.04-.395,20.662-.9,27.92C2.747,850.13-.08,911.341,0,917.827.379,947.45,2.8,978.769,4.884,981.1c2.125,2.368,2.9,2.4,5.78.028a8.553,8.553,0,0,0,3.266-4.082,15.983,15.983,0,0,0,1.689-4.2c.6-2.788,2.1-9.31,3.326-14.493,5.337-22.592,11.583-75.833,16.471-140.407,1.138-15.029,2.914-29.447,3.948-32.038s2.791-13.193,3.905-23.56,3.883-33.264,6.153-50.885S54.56,671.5,55.8,661.824" transform="translate(195.899 0)" fill="rgba(255,255,255,0.31)"/>
      <path id="Path_355" data-name="Path 355" d="M2.036.229A4.988,4.988,0,0,0,0,4.221c0,1.555.915,2.3,2.036,1.662A4.986,4.986,0,0,0,4.072,1.891c0-1.555-.915-2.3-2.036-1.662" transform="translate(361.568 136.403)" fill="rgba(255,255,255,0.31)"/>
      <path id="Path_356" data-name="Path 356" d="M2.036.23A4.988,4.988,0,0,0,0,4.221c0,1.555.915,2.3,2.036,1.662A4.986,4.986,0,0,0,4.072,1.892c0-1.554-.915-2.3-2.036-1.662" transform="translate(212.883 379.525)" fill="rgba(255,255,255,0.31)"/>
      <path id="Path_357" data-name="Path 357" d="M2.164,62.479h0a69.51,69.51,0,0,0-1.8,7.266,1.651,1.651,0,0,0-.289.885,3.646,3.646,0,0,0,.057.587C-.116,73.082-.019,74.157.487,74,1.952,73.55,5,67.843,8.067,60.265a12.171,12.171,0,0,0,1.93-5c.855-2.332,1.686-4.76,2.458-7.2,1.473-4.664,3.813-10.177,5.2-12.25,3.381-5.049,8.291-18.984,9.96-28.27L28.973,0,24.832,7.237c-2.279,3.98-6.543,13.665-9.474,21.521S9.074,44.688,7.911,46.7,4.162,55.81,2.164,62.479" transform="translate(255.586 191.288)" fill="rgba(255,255,255,0.31)"/>
      <path id="Path_358" data-name="Path 358" d="M2.038,0C.917,0,0,1.322,0,2.939S.917,5.353,2.038,4.713A4.021,4.021,0,0,0,4.074,1.775,1.924,1.924,0,0,0,2.038,0" transform="translate(251.579 271.385)" fill="rgba(255,255,255,0.31)"/>
      <path id="Path_359" data-name="Path 359" d="M5.573,18.932C5.786,13.88,6.714,8.647,7.636,7.3a6.368,6.368,0,0,0,.451-5.4C7.126-.413,6.245-.568,3.969,1.179a7.736,7.736,0,0,0-2.852,5.4C1.141,8.318.774,14.2.3,19.642S-.08,29.977.5,30.511c2.418,2.236,4.712-3,5.075-11.579" transform="translate(271.146 501.935)" fill="rgba(255,255,255,0.31)"/>
      <path id="Path_360" data-name="Path 360" d="M1.081,4.494c.677-.627.748-2.252.161-3.613C.591-.622.108-.175.01,2.02c-.088,1.988.393,3.1,1.07,2.474" transform="translate(282.282 469.925)" fill="rgba(255,255,255,0.31)"/>
      <path id="Path_361" data-name="Path 361" d="M18.135,8.5c2.675-1.529,2.7-8.5.035-8.5a2.26,2.26,0,0,0-2.3,1.414c-.144.777-.609,3.11-1.035,5.182C11.15,24.538,7.392,44.321,5.886,53.713c-1,6.219-2.688,16.4-3.758,22.616A161.024,161.024,0,0,0,.009,94.7h0c-.095,3.888.672,7.068,1.7,7.068,2.3,0,4.42-8.48,5.349-21.394A177.423,177.423,0,0,1,9.9,60.577c4.039-19.079,8.23-47.8,7.2-49.349A2.005,2.005,0,0,1,18.135,8.5" transform="translate(251.742 537.124)" fill="rgba(255,255,255,0.31)"/>
      <path id="Path_362" data-name="Path 362" d="M1.037,34.671a3.775,3.775,0,0,0,1.844-2.848c0-.986,1.741-5.389,3.869-9.783a91.318,91.318,0,0,0,4.86-11.759,64.331,64.331,0,0,1,2.623-7.539C15.688-.62,15.491-.747,12.4,1.577,9.242,3.958,5.529,10.558,3,17.583A14.077,14.077,0,0,0,.911,24.011c0,.229.008.437.021.647C.7,25.7.5,26.732.354,27.725c-.663,4.577-.371,7.55.683,6.946" transform="translate(289.436 150.852)" fill="rgba(255,255,255,0.31)"/>
      <path id="Path_363" data-name="Path 363" d="M1.081,4.493c.677-.627.748-2.252.161-3.612C.591-.623.108-.175.01,2.021h0c-.088,1.988.393,3.1,1.07,2.474" transform="translate(284.318 460.502)" fill="rgba(255,255,255,0.31)"/>
      <path id="Path_364" data-name="Path 364" d="M47.813,450.484c-1.029,0-2.445,2.121-3.147,4.712-2.6,9.581-4.888,4.329-3.742-8.585.8-9.035.4-14.17-1.261-16.019a9.644,9.644,0,0,1-.71-.891c-.1-.871-.183-1.96-.26-3.258a8.02,8.02,0,0,1,.988-1.319c1.354-1.51,1.82-3.705,1.035-4.88-1.632-2.444-1.567-94.53.1-147.86.617-19.7,2.552-48.006,4.3-62.916,1.076-9.181,1.714-15.724,1.937-20.442a28.029,28.029,0,0,0,.068-4.856c-.095-2.893-.486-4.681-1.165-5.855-3.517-6.079-1.1-75.833,4.02-116.072,3.48-27.359,12.184-51.588,18.2-52.433a7.855,7.855,0,0,1,3.357,3.058c2.745,7.046,4.789,26.757,4.937,49.375.09,13.993.338,27.14.548,29.212s-.39,11.54-1.332,21.036c-1.046,10.549-.961,18.511.219,20.462,2.956,4.887,4.715-12.777,5.918-59.4.706-27.356.268-43.888-1.342-50.885-1.313-5.7-2.791-12.3-3.283-14.671-.409-1.956-2.391-4.293-4.713-5.743A8.209,8.209,0,0,0,66.895,0c-2.15,0-4.439,1.9-6.723,5.329-.1.117-.2.219-.309.34-3.2,3.549-6.408,9.461-7.123,13.138A42.876,42.876,0,0,1,49.824,28.4Q42.347,41.866,35.413,191.342c-2.679,57.793-3.158,67.391-4.625,92.348-.593,10.107-1.141,20.069-1.642,29.818-.915,8.071-1.495,16.321-1.32,19.133.065,1.055.093,3.355.09,6.661-1.443,32.722-2.262,61.981-2.33,84.53-.063,21.4-.548,48.652-1.078,60.574s-1.481,33.547-2.115,48.059c-1.526,34.913-2.941,55.9-4,59.366-.474,1.554-1.847,13.428-3.05,26.386-4,43.1-9.6,80.636-13.6,91.248-3.057,8.1-2,14.291,2.431,14.291,3.845,0,6.745-5.473,9.172-17.316,3.727-18.182,5.577-13.573,4.806,11.975-1.3,43.2-2.827,62.42-5.161,65.022-1.661,1.852-1.585,3.258.283,5.341h0a9.23,9.23,0,0,0,1.143,1.062c0,.006.006.022.011.028v0a3.9,3.9,0,0,0,3.015,1.583,3.624,3.624,0,0,0,.923.152c1.943,0,3.4-.279,4.5-2.258.051-.053.11-.092.159-.146a2.086,2.086,0,0,0,.273-.768c2.663-6.546,2.958-26.383,3.334-85.941.208-33.115.759-62.653,1.61-87.752.633-16.953,1.38-32.342,2.218-45.81.909-13.342,1.962-24.054,3.146-31.754,1.035-6.737,2.83-19.46,3.989-28.27s2.641-18.988,3.3-22.616,1.351-9.14,1.544-12.249,1.391-6.5,2.66-7.539c2.917-2.381,5.228-16.019,2.715-16.019" transform="translate(0.001 5.603)" fill="rgba(255,255,255,0.31)"/>
    </g>
  </g>
</svg>
