<svg xmlns="http://www.w3.org/2000/svg" xmlns:xlink="http://www.w3.org/1999/xlink" width="1099.711" height="850.836" viewBox="0 0 1099.711 850.836">
  <defs>
    <clipPath id="clip-path">
      <rect id="Rectangle_36" data-name="Rectangle 36" width="483.588" height="817.542" fill="#78c34e"/>
    </clipPath>
    <clipPath id="clip-path-2">
      <rect id="Rectangle_2691" data-name="Rectangle 2691" width="456.536" height="1004.517" fill="#0f3154"/>
    </clipPath>
  </defs>
  <g id="video-shape" transform="translate(-845.109 -1569.371)">
    <g id="Group_39" data-name="Group 39" transform="matrix(-0.545, 0.839, -0.839, -0.545, 1794.139, 2014.636)" clip-path="url(#clip-path)">
      <path id="Path_321" data-name="Path 321" d="M7.691.182C4.88,2.656-1.457,32.727.3,35.236,2.242,37.995,4.543,34.5,4.543,28.8A37.277,37.277,0,0,1,6.185,18.316c2.552-7.067,3.626-20,1.506-18.134" transform="translate(99.677 328.748)" fill="#78c34e"/>
      <path id="Path_322" data-name="Path 322" d="M9.732,17.135C8.461,23.6,6.355,30.283,5.05,31.983s-2.37,5.586-2.37,8.633A42.109,42.109,0,0,1,.951,51.463C0,54.383-.287,57.472.315,58.327h0C1.938,60.639,6.1,53.118,6.2,47.7c.046-2.586,1.324-8.583,2.839-13.325,3.889-12.17,7.888-28.44,7.888-32.092,0-6.963-4.893,3.132-7.2,14.849" transform="translate(131.816 453.144)" fill="#78c34e"/>
      <path id="Path_323" data-name="Path 323" d="M1.887,0A1.754,1.754,0,0,0,0,1.567C0,2.43.353,3.134.785,3.134s1.281-.7,1.887-1.567S2.923,0,1.887,0" transform="translate(129.153 518.874)" fill="#78c34e"/>
      <path id="Path_324" data-name="Path 324" d="M5.561.135C3.953,1.666,0,22.923,0,30.036H0c0,4.876,2.1,4.49,3.812,1.086a4.992,4.992,0,0,0,1.009-2.578,24.172,24.172,0,0,0,.81-3.53c1.775-11.6,1.731-26.6-.072-24.879" transform="translate(122.028 527.438)" fill="#78c34e"/>
      <path id="Path_325" data-name="Path 325" d="M3.02,0C.513,0-.642,1.764.36,4.064h0c.524,1.205,1.671,1.8,2.548,1.322C4.92,4.291,5.008,0,3.02,0" transform="translate(151.364 426.385)" fill="#78c34e"/>
      <path id="Path_326" data-name="Path 326" d="M0,0H0Z" transform="translate(86.942 776.516)" fill="#78c34e"/>
      <path id="Path_327" data-name="Path 327" d="M149.312,144.639c4.791-17.458,11.7-44.773,17.648-69.758C173.249,48.465,182.286,18.6,185.77,12.72a15.994,15.994,0,0,0,2.464-8.4,2.444,2.444,0,0,0-.411-2.3c-.787-2.086-2.618-2.781-5.013-.989a4.062,4.062,0,0,0-.773.586,2.682,2.682,0,0,0-.3.352c-.134.134-.261.234-.4.383-3.8,4.128-19.6,57.844-19.633,66.716a8.372,8.372,0,0,1-.186,1.538c-.308,1.086-.607,2.1-.9,3.029a22.125,22.125,0,0,1-1.607,3.417,37.489,37.489,0,0,0-3.707,10.974A116.465,116.465,0,0,1,151,103.882a118.616,118.616,0,0,0-4.408,16.46,99.513,99.513,0,0,1-3.584,14.108c-2.795,8.019-6.465,22.5-12.32,48.6-2.223,9.914-5.721,24.73-7.772,32.92-4.788,19.126-10.527,45.674-11.988,55.463-.629,4.207-1.888,9.145-2.8,10.972s-3.228,12.141-5.152,22.918S98.224,329.5,96.687,335.1s-2.806,11.954-2.816,14.108-1.295,8.505-2.85,14.109a122.348,122.348,0,0,0-3.208,14.109c-.207,2.155-2.061,12.03-4.12,21.946-6.284,30.269-8.806,43.074-10.293,52.6-.348,1.846-.682,3.893-.962,5.972-.153,1.146-.331,2.4-.526,3.719-.93,5.552-2.2,12.428-3.293,17.655-1.525,7.329-3.308,17.91-3.961,23.514a146.054,146.054,0,0,1-3.624,18.812c-1.339,4.741-3.3,16.381-4.359,25.865s-2.349,19.36-2.871,21.946-1.3,7.172-1.717,10.19c-.317,2.263-.651,4.562-1,6.878-.012.015-.026.044-.039.055-.839.82-1.526,3.7-1.526,6.408a97.137,97.137,0,0,1-1.075,10.042c-3.057,17.994-6.5,34.881-8.938,43.241-1.509,5.173-3.531,12.226-4.5,15.676-2.19,7.825-11.99,25.2-16.027,28.42-2.747,2.188-3.232,2.074-5.321-1.25C8.1,680.261,7.046,643.577,12,630.91a104.449,104.449,0,0,0,4.56-15.291c.719-3.832,1.942-7.673,2.72-8.534s1.883-6.859,2.457-13.326,1.95-17.048,3.057-23.514,2.323-16.7,2.7-22.731a217.637,217.637,0,0,1,3.384-24.3c1.485-7.328,3.518-19.321,4.516-26.65s2.6-18.967,3.564-25.865,2.034-15.447,2.381-19a56.728,56.728,0,0,1,2.683-11.928c1.906-5.085,5.671-25.753,9.072-49.8.792-5.6,1.964-13.717,2.6-18.028,1.1-7.447,1.03-7.643-1.486-3.919-1.456,2.156-3.565,9.915-4.686,17.245s-3.17,17.654-4.553,22.947a240.172,240.172,0,0,0-4.385,24.4C39.554,440.75,37.5,453.7,36.031,461.4c-4.976,26-5.9,31.22-7.021,39.866a70,70,0,0,1-2.672,12.542c-.853,2.155-2.029,10.5-2.614,18.536a205.468,205.468,0,0,1-2.85,22.731c-1.368,6.2-8.742,53.07-8.753,55.625,0,.267-.874.01-1.941-.57-1.851-1.007-1.344-20.393,1.025-50.035.792-8.545,1.746-18.655,2.886-30.651.548-5.768,1.07-11.237,1.569-16.446.3-2.833.611-5.691.932-8.595,1.382-12.5,2.989-27.668,3.572-33.7,1.774-18.379,6.125-52.746,7.939-62.7.3-1.644.639-3.734,1.008-6.162.088-.559.17-1.109.247-1.658,1.482-10.064,3.359-25.121,4.956-39.991.417-3.88,1.567-11.138,2.556-16.129.886-4.466,1.289-8.965,1-10.7.12-.683.3-1.86.53-3.4a2.011,2.011,0,0,1,.313-.268c1.048-.57,1.9-4.146,1.9-7.95s1.15-14.166,2.556-23.03,4.287-27.4,6.405-41.2c3.87-25.221,11.494-61.149,14.406-67.9a23.685,23.685,0,0,0,1.568-7.839c0-2.313,2.847-11.614,6.324-20.668s7.5-20.6,8.933-25.662C83.513,125.9,90.75,108.356,94.8,101.53a41.085,41.085,0,0,0,3.558-8.47c1.049-3.866,6.712-12.112,10.521-16.027,2.139-1.838,3.325-2.08,4.691-1.284a8.261,8.261,0,0,1,1.619,1.854c1.517,2.387,1.876,2.209,2.918-1.443,1.177-4.132.933-7.108-.6-8.806a3.252,3.252,0,0,0-3.122-1.918,2.586,2.586,0,0,0-1.063.329c-2.454.187-5.032,2.309-9.246,7.472-3.557,4.358-6.468,8.522-6.468,9.253s-2.1,4.786-4.666,9.01c-6.857,11.283-10.521,20.925-20.642,54.315-3.71,12.243-6.771,15.809-6.726,7.838.014-2.37,1.59-11.717,3.506-20.77,3.2-15.123,5.853-25.31,13.282-50.948,3.518-12.135,3.515-15.255-.011-14.614-5.013.91-13.259,19.347-13.244,29.615a51.833,51.833,0,0,1-2.586,13.324c-1.428,4.251-3.822,13.726-5.319,21.054s-4.814,20.028-7.369,28.217a230.257,230.257,0,0,0-5.964,22.732A58.166,58.166,0,0,1,44.7,194.02a84.759,84.759,0,0,0-6.759,22.731c-.671,4.311-2.036,8.71-3.034,9.778-2.188,2.339-.4,7.283,2.134,5.9.987-.537,1.794-2.656,1.794-4.709,0-4.082,8.352-25.779,10.808-28.082,1.665-1.559,1.627-1.242-3.713,31.218-5.964,36.255-8.612,54.007-10.64,71.325-1.059,9.053-3.5,27.042-5.426,39.974-8.352,56.123-14.544,101.554-16.027,117.57-.879,9.484-2.851,28.178-4.386,41.542s-3.11,28.883-3.5,34.487-2.069,25.356-3.724,43.893C1.172,591.447.56,603.335.33,614.829a199.946,199.946,0,0,0,.12,25.023C1.471,672.771,5.9,698.231,12.4,701.323c1.329.757,2.945.539,5-.7,4.026-1.742,8.971-5.286,8.971-7.026,0-.505,2.352-3.986,5.227-7.735a50.977,50.977,0,0,0,7.358-14.579c1.172-4.269,3.228-8.8,4.568-10.057,3.06-2.88,3.119-.918.664,21.891-2.273,21.1-3.3,63.362-2.446,81.418.057,4.319.218,7.008.509,7.265a1.408,1.408,0,0,0,.186.1c.148.666.312,1.057.493,1.125,3.831,1.37,4.907,1.056,5.918-1.731.548-1.509,1.695-4.154,2.548-5.879,4.97-10.048,9.445-33.31,11.157-58,.178-2.586.878-5.447,1.551-6.357s.558-4.264-.259-7.454c-.849-3.316-.8-6.173.109-6.668.878-.477,1.6-4.61,1.6-9.183a92.421,92.421,0,0,1,1.636-15.976c.9-4.212,2.168-15.759,2.82-25.657.211-3.207.436-6.256.654-8.937.465-3.713.941-7.442,1.42-11.121.609-2.831,1.859-10.113,3.137-18.378,1.6-10.346,3.2-20.529,3.561-22.63,1.605-9.4-3.335-10.612-5.2-1.276-2.09,10.466-2.312,11.823-5.189,31.743-1.495,10.347-3.152,20.962-3.684,23.591-.89,4.4-3.957,34.691-5.39,53.222-.242,3.131-.7,7.324-1.154,10.714-1.077,1.652-1.564,3.9-.82,5.383-.66,4.183-1.731,11.419-2.6,17.608-2.667,18.97-3.495,22.1-5.55,20.985-1.169-.635-1.406-6.923-.668-17.649,1.645-23.845,3.122-50.5,3.7-66.824a216.917,216.917,0,0,1,2.479-25.081c1.085-6.035,2.736-17.676,3.667-25.866.3-2.622.606-5.243.919-7.843.305-2.273.611-4.624.922-7.089.45-3.584.923-7.277,1.411-11.022,1.467-10.669,2.9-19.727,3.978-24.993.885-4.313,2.088-12.424,2.672-18.028s3.036-21.476,5.448-35.271c6.956-39.792,13.189-74.774,14.383-80.732.606-3.016,1.324-6.9,1.594-8.622s2.653-13.011,5.292-25.081,5.406-26.18,6.15-31.352,2.65-14.343,4.233-20.379,4.944-21.2,7.47-33.7,6.077-28.727,7.9-36.055,4.992-20.731,7.051-29.784c5.921-26.031,16.283-67.932,21.517-87" transform="translate(44.013 3.496)" fill="#78c34e"/>
      <path id="Path_328" data-name="Path 328" d="M4.335,0C2.184,0-.862,8.047.229,10.847h0c.69,1.77,1.362,1.628,3.29-.691C6.244,6.875,6.8,0,4.335,0" transform="translate(158.831 393.465)" fill="#78c34e"/>
      <path id="Path_329" data-name="Path 329" d="M177.673,234.669c-.088-19.057-.627-23.7-1.576-29.5-2.172-23.929-6.454-37.546-14.484-53.623-2.633-5.272-4.062-6.961-6.855-7.346a3.459,3.459,0,0,0-.908-.142c-.219,0-.443.025-.664.042h-.021c-.1,0-.2.017-.3.021-.052,0-.1,0-.156.011a14.823,14.823,0,0,0-8.24,3.683,26.424,26.424,0,0,0-3.761,5.291,27.055,27.055,0,0,0-1.7,3.033c-4.182,7.775-8.975,18.915-11.025,26.368-.948,3.446-2.593,9.091-3.657,12.54a71.853,71.853,0,0,0-2.46,11.757c-1.526,15.884-2.988,25.217-5.281,33.7-1.4,5.174-2.432,11.523-2.3,14.109.417,8.047-2.345,42-3.952,48.6-1.025,4.2-1.319-1.068-.892-15.982.352-12.238,1.027-22.819,1.5-23.514s1.354-14.35,1.956-30.345,1.84-36.1,2.752-44.678c1.544-14.521,2.384-31.158,4.58-90.838.073-2.007.17-4.058.279-6.106.306-4.943.629-9.488.951-13.414a124.248,124.248,0,0,1,1.67-13.1,52.821,52.821,0,0,0,1.045-5.84c.345-2.561.1-4.1-.758-4.85a1.888,1.888,0,0,0-.2-.125c-.026-.024-.048-.051-.075-.074-2.9-2.555-6.734,2.357-10.1,12.939-1.509,4.743-4.7,14.619-7.1,21.947-8.536,26.114-24.1,97.782-32.17,148.139-1.52,9.484-3.554,21.828-4.52,27.432s-2.483,15.127-3.37,21.164-2.828,19.085-4.312,29c-3.813,25.462-6.433,46.753-8.1,65.838-.792,9.053-1.894,17.519-2.448,18.812s-1.847,17.166-2.868,35.271-2.631,38.562-3.575,45.46-2.908,22.416-4.364,34.488c-6.76,56.037-7.9,63.537-13.324,87.785a139.934,139.934,0,0,1-8.419,24.3c-1.767,3.949-2.845.161-3.449-14.635-.282-9.947-.5-24.293-.627-39.957-.01-2.846-.018-5.8-.022-8.895-.079-58.938,1.9-113.96,5.3-147.356.965-9.483,2.538-27.472,3.495-39.974,1.767-23.083,2.85-35.274,4.384-49.379.469-4.31,1.751-17.009,2.85-28.217s2.349-23.523,2.782-27.368c1.867-16.586,4.381-41.993,6.763-68.362,1.406-15.577,3.039-30.038,3.627-32.136s1.8-14.747,2.689-28.111C51.2,68.619,53.685,42.393,57.1,28.348c1.448-5.962,2.943-12.711,3.884-17.445.926-3.446,1.325-5.779,1.19-7.238.38-3.557-.225-3.947-2.7-3.53-2.291.386-4.033,2.82-5.443,7.6-1.141,3.87-3.809,12.679-5.929,19.577S43.188,43.5,41.9,47.96s-2.927,8.945-3.649,9.974C36.971,59.759,32.774,72.655,27.3,91.587c-1.22,4.218-2.513,9.892-3.219,13.958-.751,3.086-1.539,6.488-2.385,10.29a2.933,2.933,0,0,1-.5.756c-.883.819-1.608,3.121-1.608,5.116a14.363,14.363,0,0,1-1.667,6.35c-.918,1.5-3.025,8.364-4.683,15.262s-4.138,15.629-5.511,19.4c-2.364,6.493-4.977,18.288-6.611,29.591A22.635,22.635,0,0,0,0,198.249a7.621,7.621,0,0,0,.393,2.738c.374,4.445,2.849,3.267,5.016-3.979,1.1-3.664,2.769-9.132,3.715-12.15s2.84-11.129,4.208-18.028,4.577-19.241,7.131-27.432c6.208-19.914,11.646-40.14,12.844-47.779.54-3.429,2.04-7.662,3.335-9.405s2.9-6.182,3.571-9.866c1.761-9.71,4.309-9.744,4.313-.057.01,14.594-5.441,85.486-9.739,126.675-.178,1.712-.374,3.613-.584,5.655-.242,1.917-.478,4.222-.679,6.7-1.342,13.294-2.985,30.06-4.163,42.513-1.59,16.812-3.611,33.39-4.49,36.839s-2.074,14.736-2.657,25.081-2.124,28.688-3.43,40.758-2.044,22.429-1.642,23.021a2.949,2.949,0,0,1,.144,1.22c-.064,1.024-.12,1.993-.17,2.9-.193,2.1-.545,4.8-1.017,7.636-.976,5.876-3.191,30.787-4.922,55.36-3.043,43.2-4.092,128.432-2.86,171.681.217,12.425.606,20.991,1.2,23.05h0c.065.228.148.447.23.666a6.724,6.724,0,0,0,.748,2.7h0c2.319,2.459,2.715,2.449,6.045-.151,3.508-2.739,10.778-15.524,14.063-24.73,3.732-10.464,10.823-49.835,13.834-76.813,1.154-10.345,2.789-23.749,3.634-29.784s2.851-26.845,4.457-46.244c.269-3.235.549-6.533.836-9.864.012-.122.026-.25.04-.369.461-4.321.984-10.286,1.453-16.409,5-54.65,11.813-115.167,15.326-134.821,1.464-8.19,3.554-22.3,4.643-31.352s2.7-18.928,3.584-21.946,2.106-11.011,2.723-17.763,2.665-19.448,4.55-28.217,4.244-20.877,5.239-26.913,3.34-16.97,5.213-24.3c3.92-15.345,7.3-29.047,9.569-38.712.251-.875.475-1.838.657-2.826.849-3.676,1.5-6.629,1.891-8.627.763-3.88,2.165-6.867,3.114-6.637,1.774.429,1.655,50.109-.173,72.477-2.919,35.719-4.683,60.988-4.595,65.839.054,3.018-.678,12.188-1.626,20.379s-2.512,26.532-3.474,40.758-2.523,34.331-3.468,44.677c-3.172,34.685-4.316,76.251-4.423,160.68-.112,86.547.962,118.354,4.084,121.1,1.5,1.323,3.615-.5,5.562-4.023a13.537,13.537,0,0,0,.889-1.565,15.533,15.533,0,0,0,.62-1.583,49.107,49.107,0,0,0,3.173-11.785c.2-1.409.4-5.665.587-12.129a453.733,453.733,0,0,0,1.186-54.008c-.079-1.911-.15-3.938-.219-6.013.131-14.023.232-29.237.287-44.889.374-105,.664-118.531,2.965-138.733,1.152-10.12,4.136-43.18,5.659-62.7,4.309-55.23,12.51-97.754,23.28-120.7,5.5-11.726,7.613-14.463,10.107-13.106,4.831,2.626,11.5,22.1,16.573,48.376,2.949,15.286,3.4,107.033.843,171.653-.939,23.71-2.124,83.164-2.635,132.121-.824,79.2-.624,89.114,1.816,89.939a7.9,7.9,0,0,0,.847.231c.385.407.737.49,1.06.16a2.67,2.67,0,0,0,1.771-.289c1.21-1.064,2.168-46.17,3.336-156.882.087-8.137.179-16.034.279-23.566q.087-6.292.17-12.311c.461-31.519.99-53.957,1.331-54.443.461-.657.883-30.739.939-66.85.028-18.309-.087-33.5-.439-46.415M103.042,575.263c-.108,1.913-.24,3.065-.385,3.065-.7,0-2.321-12.752-2.793-20.8.018-2.19.062-4.348.128-6.415.312-1.531.875-2.571,1.521-2.571.763,0,1.348,3.115,1.618,8.16.061,7.612.022,14.344-.088,18.559m-2.581-33.209c.1-1.284.208-2.43.324-3.414q.313-.5.73-1.07a7.792,7.792,0,0,1,.733-.886c.167,1.091.315,2.664.442,4.677a1.475,1.475,0,0,1-1.175.912,2.309,2.309,0,0,1-1.054-.22m1.052-13.889a1.694,1.694,0,0,1-1.751-1.44c.012-.163.03-.319.051-.475a1.794,1.794,0,0,1,3.408.027c.018.145.034.289.047.438a1.694,1.694,0,0,1-1.754,1.449" transform="translate(305.473 108.282)" fill="#78c34e"/>
      <path id="Path_330" data-name="Path 330" d="M3.621,7.011C5.392,6.047,3.606,0,1.551,0-.256,0-.591,5.247,1.116,6.751v0a2.357,2.357,0,0,0,2.506.262" transform="translate(43.689 358.977)" fill="#78c34e"/>
      <path id="Path_331" data-name="Path 331" d="M5.344,1.96C5.359.882,4.169,0,2.7,0,.012,0-1.021,4.825,1.242,6.818,2.633,8.041,5.3,4.878,5.344,1.96" transform="translate(45.42 349.573)" fill="#78c34e"/>
      <path id="Path_332" data-name="Path 332" d="M3.024,5.351C5.046,4.251,5,0,2.966,0,1,0-.915,4.067.475,5.291h0a2.431,2.431,0,0,0,2.549.062" transform="translate(49.796 337.032)" fill="#78c34e"/>
      <path id="Path_333" data-name="Path 333" d="M16.884,18.353c.142-6.38,1.025-12.863,1.963-14.4C19.953,2.129,19.923.8,18.762.17,16.435-1.1,13.838,4.839,12.7,13.347a12.924,12.924,0,0,0-.574,6.088c-.473,5.585-1.481,14.638-2.406,21.493C8.675,48.687,7.178,60.679,6.4,67.577,5.68,73.912,4.36,84.537,3.34,92.24a78.086,78.086,0,0,0-1.263,7.83h0a45.013,45.013,0,0,0-.364,4.578C1.1,109.459.549,113.941.257,116.564h0c-.505,4.526-.242,8.229.585,8.229,2.239,0,3.369-5.4,4.6-21.946C6.051,94.656,7.3,85.376,8.226,82.224a109.71,109.71,0,0,0,2.615-16.46c.516-5.9,2.027-16.371,3.361-23.27a174.67,174.67,0,0,0,2.682-24.141" transform="translate(40.934 194.993)" fill="#78c34e"/>
      <path id="Path_334" data-name="Path 334" d="M.505,9.646c.774,1.1,1.682.945,2.7-.464C5.223,6.378,5.222,0,3.2,0,1.111,0-.991,7.516.505,9.646" transform="translate(60.248 156.756)" fill="#78c34e"/>
      <path id="Path_335" data-name="Path 335" d="M5.306,17.017C5.732-.784,5.68-1.215,3.332.85,1.053,2.856-1.1,26.5.63,30.48,3,35.911,4.991,30.172,5.306,17.017" transform="translate(61.551 122.496)" fill="#78c34e"/>
      <path id="Path_336" data-name="Path 336" d="M0,4.311C.022,7.67.409,8.1,1.754,6.271,4.006,3.2,4.006,0,1.754,0,.775,0-.015,1.941,0,4.311" transform="translate(40.132 326.057)" fill="#78c34e"/>
      <path id="Path_337" data-name="Path 337" d="M10.741,28.288c-.8.871-1.888,4.759-2.418,8.637C6.684,48.9,4,61.016,1.953,65.636A25.018,25.018,0,0,0,0,74v0c0,5.01,3.9,4.107,4.752-1.1A99.008,99.008,0,0,1,8.047,61.224c1.469-4.311,3.865-13,5.326-19.307s3.365-12.657,4.23-14.108,2.161-5.815,2.878-9.694S22.539,9.8,23.458,8.257C25.445,4.929,23.55-1.674,21.2.393a9.964,9.964,0,0,0-1.42,2.671,5.36,5.36,0,0,0-1.732,3.89,4.013,4.013,0,0,1,.03.564c-.716,2.035-1.47,4.343-2.181,6.734-2.039,6.849-4.36,13.165-5.159,14.036" transform="translate(56.134 238.969)" fill="#78c34e"/>
      <path id="Path_338" data-name="Path 338" d="M3.564,1.659c0-1.346-.8-2.008-1.78-1.475A3.35,3.35,0,0,0,0,2.629,1.656,1.656,0,0,0,1.783,4.1c.977,0,1.78-1.1,1.78-2.444" transform="translate(41.885 370.549)" fill="#78c34e"/>
      <path id="Path_339" data-name="Path 339" d="M.322,18.459c1.794,4.976,5.481.533,6.727-8.107S5.768-3.385,3.209,2.588c-.915,2.134-1.319,4.4-.9,5.025s-.119,2.595-1.2,4.37a8.6,8.6,0,0,0-.789,6.477" transform="translate(56.786 169.883)" fill="#78c34e"/>
      <path id="Path_340" data-name="Path 340" d="M0,0H0Z" transform="translate(60.753 166.4)" fill="#78c34e"/>
      <path id="Path_341" data-name="Path 341" d="M4.728.256C4.184-.518,2.723.522,1.479,2.569S-.338,6.919.205,7.694s2.005-.266,3.249-2.312S5.272,1.03,4.728.256" transform="translate(167.649 369.11)" fill="#78c34e"/>
      <path id="Path_342" data-name="Path 342" d="M1.238,31.351c1.061,0,2.349-3,2.863-6.662A156.547,156.547,0,0,1,7.937,4.31C8.6,1.939,8.409,0,7.512,0,4.909,0,1.595,9.792.405,21h0c-.74,6.979-.469,10.348.832,10.348" transform="translate(107.959 294.706)" fill="#78c34e"/>
      <path id="Path_343" data-name="Path 343" d="M4.875,4.873C4.908-3.66,2-.358.461,9.891c-.762,5.056-.569,8.229.5,8.229,2.264,0,3.882-5.479,3.913-13.247" transform="translate(115.35 273.451)" fill="#78c34e"/>
      <path id="Path_344" data-name="Path 344" d="M.451,91.634c-.022.018-.043.029-.065.049-.541.477-.5,1.868.043,3.255.232,5.932,2.066,6.539,3.481-1.713.457-2.662,1.329-7.423,2.323-12.7a4.316,4.316,0,0,0,.3-1.587c.89-4.71,1.851-9.7,2.68-13.9a13.329,13.329,0,0,1,2.665-5.589c1.086-1.153,2.484-6.282,3.105-11.4a151.553,151.553,0,0,1,3.485-17.924C21.4,19.4,22.545.6,20.307,0c-.919-.243-3.9,11.549-6.628,26.206S8.005,54.27,7.131,55.993s-1.208,5.43-.738,8.234a12.144,12.144,0,0,1-1.76,8.622C3.2,74.788,1.456,81.487.761,87.738.6,89.146.505,90.447.451,91.634" transform="translate(138.345 87.437)" fill="#78c34e"/>
      <path id="Path_345" data-name="Path 345" d="M9.875,2.828C9.453-1.066,9.435-1.063,7,3.613a25.7,25.7,0,0,0-2.526,9.563,35.018,35.018,0,0,1-1.722,9.405A65.155,65.155,0,0,0,.293,34.642C-1.2,48.324,3.329,41.788,6.676,25.43c3.878-18.957,3.718-17.824,3.2-22.6" transform="translate(126.538 194.685)" fill="#78c34e"/>
      <path id="Path_346" data-name="Path 346" d="M3.407,1.39C2.572-.524,2.162-.484.8,1.653-.083,3.047-.264,4.963.4,5.911c1.687,2.4,4.306-1.538,3.006-4.52" transform="translate(120.864 254.487)" fill="#78c34e"/>
      <path id="Path_347" data-name="Path 347" d="M2.672,7.661C4.141,5.815,4.858,3.193,4.266,1.835,2.591-2.007,0,.558,0,6.059H0c0,4.854.055,4.888,2.671,1.6" transform="translate(123.81 240.493)" fill="#78c34e"/>
      <path id="Path_348" data-name="Path 348" d="M4.846,15.284C6.061,9.9,7.426,4.252,7.881,2.744S7.957,0,7.038,0C5.335,0,2.37,8.656.464,19.2c-1.794,9.926,2.033,6.5,4.382-3.92" transform="translate(320.156 83.077)" fill="#78c34e"/>
      <path id="Path_349" data-name="Path 349" d="M90.76,307.811c-2.07,1.65-3.958,5.813-4.615,10.179-.613,4.064-2.658,13.033-4.545,19.929S76.868,356.1,75.278,363s-3.633,15.363-4.539,18.81-2.044,8.739-2.526,11.757c-.861,5.4-4.6,25.441-7.9,42.326-.926,4.743-2.991,13.056-4.586,18.475s-2.433,10.524-1.859,11.342c.224.318.242,1.621.092,3.552-.627,4.037-1.275,8.46-1.928,13.153-2.448,13.145-6.922,42.8-9.173,60.858-.429,3.45-1.913,13.678-3.3,22.731s-2.981,22.456-3.551,29.784c-.063.805-.134,1.652-.214,2.535-.222,2.076-.429,4.115-.614,6.046-.019.194-.039.4-.058.594-1.371,12.374-4.011,31.3-8.742,62.934-1.858,12.429-10.993,51.573-14.366,61.569-.378,1.12-.736,2.041-1.072,2.789a7.948,7.948,0,0,1-1.716,2.315c-1.51.29-2.13-5.915-1.543-17.723.781-15.728,3.7-56.564,5.187-72.465.362-3.879,1.146-15.166,1.742-25.081s1.862-22.259,2.81-27.433c1.67-9.114,4.357-35.9,7-69.758,1.306-16.752,5.9-51.17,9.105-68.191.479-2.544,1.086-6.311,1.682-10.354.912-1.636,1.278-3.768.8-4.861a1.236,1.236,0,0,1-.072-.268c.348-2.534.669-5.025.934-7.248a191.773,191.773,0,0,1,3.441-20.379,76.112,76.112,0,0,0,1.921-15.676c.03-4.741,1.27-10.673,2.756-13.181,1.607-2.713,3-10.337,3.445-18.812.409-7.839,2.011-18.561,3.56-23.829a195.757,195.757,0,0,0,4.45-19.6c1.736-10.648,6.238-33.014,12.587-62.532,2.132-9.914,4.475-22.282,5.2-27.484s2.251-10.975,3.38-12.83a16.3,16.3,0,0,0,2.051-7.143c0-2.075,1.6-9.262,3.546-15.973,5.932-20.42,9.014-39,7.78-46.923-1.034-6.64-.769-7.482,2.607-8.258,3.764-.866,6.971-6.164,4.86-8.023-.618-.544-1.587.567-2.152,2.47s-1.677,3.459-2.471,3.459c-2.615,0-2.9-5.4-.573-10.974A62.72,62.72,0,0,0,96.476,111.4a113.686,113.686,0,0,1,2.668-14.891c.959-3.449,3.4-13.324,5.42-21.946,6.385-27.221,10.815-40.5,17.066-51.136,3.46-5.89,4.7-5.71,4.011.581-.406,3.7.171,5.094,2.112,5.094q2.669,0,3.129-5.486a66.044,66.044,0,0,1,3.467-13.669c1.656-4.5,2.455-8.671,1.778-9.269-.032-.027-.077-.04-.112-.064C136,.58,136,.523,135.975.5c-.99-.87-2.647-.56-4.577.532-2.828,1.073-5.92,3.114-6.682,4.93a9,9,0,0,1-2.66,3.653c-1.393.831-5.047,8.478-10.433,21.833-1.217,3.018-2.829,6.9-3.582,8.623s-3.4,9.836-5.875,18.027c-4.011,13.245-6.334,23.706-13.576,61.136-1.083,5.6-2.785,14.069-3.782,18.812s-2.152,11.8-2.57,15.676c-1.264,11.736-2.21,17.306-5.853,34.488-6.312,29.755-8.585,41.322-9.076,46.656-.52,2.424-1.041,4.791-1.578,7.177a1.494,1.494,0,0,1-.313.249c-.98.533-1.782,2.465-1.782,4.293a31.1,31.1,0,0,1-1.677,8.137c-1.747,5.016-3.568,13.581-8.143,38.328-1.5,8.086-3.295,15.492-4,16.46a4.927,4.927,0,0,0-.464,1.026,9.577,9.577,0,0,0-1.206,3.991c-.788,2.924-1.71,6.8-2.555,10.848-1.62,7.759-4.286,20.329-5.924,27.934-2.413,11.193-2.551,14.278-.729,16.211,1.237,1.313,2.011,4.966,1.717,8.122s-.651,7.5-.8,9.654c-.2,2.991-1.215,3.887-4.273,3.794-2.8-.087-4.008.774-4.008,2.846a13.534,13.534,0,0,1-1.775,5.891c-2.323,3.822-.486,7.912,3.018,6.728,2.353-.794,2.553.423,1.449,8.794-.7,5.345-1.547,12.328-1.874,15.522s-.994,7.921-1.481,10.508c-.921,4.884-3.168,18.855-6.637,41.295-1.112,7.193-2.286,16.716-2.6,21.162-.184,2.55-.744,7.273-1.464,12.542a11.365,11.365,0,0,0-1.085,4.706c0,1-.1,2.669-.29,4.7-.137.877-.273,1.748-.411,2.6-1.467,9.053-3.529,26.336-4.579,38.406s-2.806,30.06-3.9,39.975-2.124,20.143-2.29,22.729a82.7,82.7,0,0,1-1.5,10.19c-2.669,12.2-7.569,106.5-5.766,110.908h0a3.484,3.484,0,0,0,.646,1.019,3.03,3.03,0,0,0,.121.508h0c.627,1.653,5.557-.188,8.252-3.013a41.752,41.752,0,0,0,6.36-7.527c2.92-4.31,7.412-17.971,10.307-31.351,5.129-23.7,9.1-46.369,10.832-61.922,1.059-9.483,2.694-21.123,3.633-25.865,1.507-7.62,4.708-34.132,8.8-72.894.729-6.9,2.678-21.71,4.332-32.92s3.717-25.669,4.581-32.136c1.8-13.465,8.149-50.3,10.674-61.921,1.983-9.128,3.452-17,5.415-29C76.294,381.6,85.094,343.3,86.763,339.487c1.833-4.187,4.871-16.987,6.323-26.639,1.159-7.708,1.125-7.786-2.326-5.038" transform="translate(213.336 7.735)" fill="#78c34e"/>
      <path id="Path_350" data-name="Path 350" d="M1.483,14.013C.087,20.7-.413,26.161.371,26.161c1.676,0,5.2-10.109,6.451-17.372a15.306,15.306,0,0,0,.458-3.67c0-.134-.008-.234-.011-.361s.008-.243.008-.357c0-8.782-2.985-3.829-5.794,9.612" transform="translate(328.469 53.781)" fill="#78c34e"/>
      <path id="Path_351" data-name="Path 351" d="M1.914,7.535C4.645,6.733,5.16.071,2.5,0,1.576-.026.59,1.6.208,3.684.171,3.8.131,3.91.1,4.029A3,3,0,0,0,.023,5.145c-.131,2.08.461,2.809,1.891,2.39" transform="translate(335.922 42.272)" fill="#78c34e"/>
      <path id="Path_352" data-name="Path 352" d="M0,8.192C-.015,10.564.739,12.5,1.673,12.5c1.288,0,2.755-4.194,3.253-7.694A5.683,5.683,0,0,0,5.086,3.1C5.141,1.777,4.994.723,4.542.326,2.71-1.286.031,3.353,0,8.192" transform="translate(193.297 290.041)" fill="#78c34e"/>
      <path id="Path_353" data-name="Path 353" d="M1.59,10.9c2.018,0,3.769-3.959,3.7-8.358C5.231-.782,5.173-.789,2.614,2.187A11.058,11.058,0,0,0,0,8.066C0,9.625.715,10.9,1.59,10.9" transform="translate(205.737 254.019)" fill="#78c34e"/>
      <path id="Path_354" data-name="Path 354" d="M48.79,550.486c.435-3.233.772-6.279.988-8.8a2.681,2.681,0,0,0,.11-1.359c.222-3.014.235-5.029-.021-5.255-1.826-1.607-4.31,5.291-5.46,15.161-.653,5.6-2.328,15.833-3.724,22.731-.246,1.209-.475,2.356-.7,3.491a44.215,44.215,0,0,0-1.547,7.83c-3.072,15.849-4.2,23.854-5,34.139-.1,1.235-.214,2.509-.345,3.782-.322,2.436-.629,4.883-.914,7.283a56.453,56.453,0,0,1-1.329,6.815c-.886,2.937-1.186,5.945-.665,6.686a3.406,3.406,0,0,1,.218,1.552c-.3,2.407-.6,4.754-.893,6.976-.07.34-.137.679-.214,1.024a351.024,351.024,0,0,0-6.448,42.694c-1.239,15.891-2.422,27.441-3.455,33.7-.5,3.016-1.379,11.835-1.96,19.594-.164,2.217-.384,4.517-.631,6.747-.465,3.38-.929,6.668-1.384,9.812-.236,1.273-.467,2.321-.68,3.036A52.153,52.153,0,0,0,13,779.883c-.006.452-.033.931-.076,1.425-.32,1.932-.621,3.657-.9,5.125a21.776,21.776,0,0,1-1.565,4.422c-2.233,4.3-2.472,2.9-2.752-16.067-.168-11.424-.353-22.71-.411-25.081-.1-4.174,1.484-39.724,3.056-68.582.842-15.431,3.809-49.4,5.615-64.272.628-5.174,1.326-11.875,1.553-14.894,1.426-19.069,3.159-34.717,4.577-41.314.9-4.185,1.3-8.088.89-8.674s-.026-4.213.854-8.064,2.479-16.172,3.553-27.381c2.731-28.544,3-30.858,4.128-35.271,1.368-5.36,4.258-24.387,6.428-42.325a205,205,0,0,1,4.426-24.3,77.083,77.083,0,0,0,2.7-15.676,49.66,49.66,0,0,1,1.863-11.945,155.027,155.027,0,0,0,3.572-16.46c1.934-11.711,4.818-26.177,6.214-31.165.483-1.724,2.08-10.185,3.551-18.8s3.4-17.788,4.28-20.379a160.983,160.983,0,0,0,3.761-17.253c1.184-6.9,2.45-13.951,2.811-15.676.276-1.31,1.423-7.013,2.8-13.917.686-2.873,1.34-6.135,1.826-9.11,1.887-9.061,4.385-18.787,5.787-22.421,1.521-3.946,2.767-8.715,2.767-10.6s1.535-9.088,3.41-16.013c.222-.824.465-1.729.722-2.69a37.552,37.552,0,0,0,1.946-7.359c1.549-5.914,3.234-12.448,4.488-17.435,2.062-8.192,4.5-17.362,5.42-20.379s5.29-18.185,9.712-33.7c10.057-35.3,23-70.888,32.56-90.365.421-.76.838-1.491,1.241-2.164a33.241,33.241,0,0,0,2.27-4.512c.883-1.55,1.727-2.924,2.516-4.07.556-.809,1.054-1.613,1.521-2.409a7.57,7.57,0,0,0,1.159-2.138c1.514-3.05,2.171-5.614,1.509-6.558-2.157-3.072-5.6-1.154-9.374,5.226-2.17,3.665-6.31,10.19-9.2,14.5s-5.286,9.225-5.316,10.921-1.193,5.928-2.578,9.405-4.327,11.614-6.534,18.08a185.351,185.351,0,0,1-8.167,19.886c-2.283,4.471-4.152,9.085-4.152,10.251s-1.6,4.887-3.562,8.269-3.562,7.036-3.562,8.122-1.6,4.483-3.561,7.553c-4.517,7.079-4.5,9.2.051,8.156,3.274-.754,3.514-.29,2.553,4.912-1.952,10.571-5.021,21.405-6.492,22.909a7.788,7.788,0,0,0-1.431,4.7c.014,1.766-1.59,9.032-3.562,16.145-8.185,29.517-10.585,39.237-11.711,47.42-.025.18-.054.356-.08.535-.714,3.144-1.42,6.315-2.1,9.4a2.482,2.482,0,0,1-.128.253c-1.34,1.881-7.777,32.691-12.938,61.92-2.055,11.639-4.425,22.574-5.267,24.3s-1.931,8.223-2.421,14.441-1.638,12.566-2.553,14.109c-1.986,3.343-5.178,18.766-6.436,30.807-.674,3.744-1.31,7.719-1.876,11.745a3.582,3.582,0,0,1-.369.832c-.678.958-2.642,11.972-4.363,24.474s-4.35,28.727-5.842,36.055-3.471,18.967-4.4,25.866c-6.07,45.216-9.352,71.277-11.044,87.741-2.723,26.479-2.767,26.842-4.857,40.8-1.032,6.9-2.355,21.306-2.94,32.021s-1.818,20.723-2.741,22.24S4.167,663.7,4.177,670.441s-.345,17.186-.788,23.223C2.4,707.113-.07,758.027,0,763.422c.33,24.639,2.443,50.69,4.269,52.629,1.858,1.969,2.534,2,5.054.023a7.206,7.206,0,0,0,2.856-3.4,12.927,12.927,0,0,0,1.477-3.5c.529-2.319,1.837-7.744,2.908-12.055,4.666-18.791,10.128-63.075,14.4-116.787,1-12.5,2.548-24.493,3.452-26.649s2.44-10.974,3.415-19.6,3.4-27.668,5.38-42.325,4.494-33.234,5.576-41.284" transform="translate(171.295 0)" fill="#78c34e"/>
      <path id="Path_355" data-name="Path 355" d="M1.78.191A4.092,4.092,0,0,0,0,3.511C0,4.8.8,5.426,1.78,4.893a4.09,4.09,0,0,0,1.78-3.32c0-1.294-.8-1.915-1.78-1.382" transform="translate(316.158 113.456)" fill="#78c34e"/>
      <path id="Path_356" data-name="Path 356" d="M1.78.191A4.092,4.092,0,0,0,0,3.511C0,4.8.8,5.427,1.78,4.893a4.09,4.09,0,0,0,1.78-3.32c0-1.293-.8-1.916-1.78-1.382" transform="translate(186.146 315.678)" fill="#78c34e"/>
      <path id="Path_357" data-name="Path 357" d="M1.892,51.968h0A55.5,55.5,0,0,0,.314,58.013a1.328,1.328,0,0,0-.253.736,2.889,2.889,0,0,0,.05.488c-.213,1.55-.128,2.444.315,2.314,1.281-.375,3.942-5.122,6.628-11.426a9.841,9.841,0,0,0,1.688-4.16c.748-1.94,1.474-3.959,2.149-5.993A50.358,50.358,0,0,1,15.44,29.785c2.956-4.2,7.25-15.79,8.709-23.514L25.334,0,21.713,6.02a152.893,152.893,0,0,0-8.284,17.9A158.609,158.609,0,0,1,6.917,38.842C5.9,40.515,3.639,46.421,1.892,51.968" transform="translate(223.486 159.108)" fill="#78c34e"/>
      <path id="Path_358" data-name="Path 358" d="M1.782,0C.8,0,0,1.1,0,2.444S.8,4.452,1.782,3.92a3.346,3.346,0,0,0,1.78-2.444A1.654,1.654,0,0,0,1.782,0" transform="translate(219.983 225.73)" fill="#78c34e"/>
      <path id="Path_359" data-name="Path 359" d="M4.873,15.747c.186-4.2,1-8.555,1.8-9.675a5.069,5.069,0,0,0,.395-4.488c-.841-1.928-1.611-2.057-3.6-.6A6.343,6.343,0,0,0,.977,5.468C1,6.919.677,11.811.264,16.338s-.334,8.6.171,9.041c2.114,1.86,4.12-2.493,4.437-9.631" transform="translate(237.093 417.495)" fill="#78c34e"/>
      <path id="Path_360" data-name="Path 360" d="M.945,3.738c.592-.521.654-1.873.141-3.005C.517-.518.095-.146.009,1.68-.068,3.334.353,4.258.945,3.738" transform="translate(246.83 390.87)" fill="#78c34e"/>
      <path id="Path_361" data-name="Path 361" d="M15.857,7.07C18.2,5.8,18.22,0,15.887,0c-.98,0-1.883.528-2.008,1.176s-.533,2.586-.905,4.31C9.75,20.41,6.463,36.865,5.147,44.677,4.276,49.849,2.8,58.314,1.861,63.488A127.67,127.67,0,0,0,.008,78.772h0c-.083,3.234.588,5.879,1.489,5.879,2.01,0,3.865-7.053,4.677-17.795a140.835,140.835,0,0,1,2.48-16.469c3.532-15.869,7.2-39.763,6.3-41.047-.5-.707-.087-1.729.908-2.269" transform="translate(220.125 446.764)" fill="#78c34e"/>
      <path id="Path_362" data-name="Path 362" d="M.907,28.839A3.131,3.131,0,0,0,2.519,26.47c0-.82,1.522-4.483,3.383-8.137a73.9,73.9,0,0,0,4.25-9.781,51.772,51.772,0,0,1,2.294-6.271c1.273-2.8,1.1-2.9-1.6-.969-2.764,1.98-6.011,7.47-8.219,13.313A11.317,11.317,0,0,0,.8,19.972c0,.191.007.363.018.538-.2.869-.38,1.725-.505,2.551-.58,3.807-.324,6.279.6,5.778" transform="translate(253.085 125.474)" fill="#78c34e"/>
      <path id="Path_363" data-name="Path 363" d="M.945,3.737c.592-.521.654-1.873.141-3C.517-.518.095-.145.009,1.681h0C-.068,3.333.353,4.257.945,3.737" transform="translate(248.61 383.032)" fill="#78c34e"/>
      <path id="Path_364" data-name="Path 364" d="M41.808,374.7c-.9,0-2.138,1.764-2.752,3.919-2.273,7.969-4.274,3.6-3.272-7.141.7-7.515.348-11.786-1.1-13.324a8.1,8.1,0,0,1-.621-.741c-.084-.724-.16-1.63-.228-2.71a6.708,6.708,0,0,1,.864-1.1c1.184-1.256,1.591-3.082.905-4.059-1.427-2.032-1.371-78.628.09-122.986.54-16.382,2.232-39.93,3.762-52.331.941-7.636,1.5-13.079,1.693-17a22.181,22.181,0,0,0,.059-4.039,10.176,10.176,0,0,0-1.019-4.87c-3.075-5.056-.962-63.075,3.515-96.545C46.747,29.015,54.357,8.862,59.615,8.159A6.766,6.766,0,0,1,62.551,10.7c2.4,5.86,4.188,22.256,4.317,41.069.079,11.639.3,22.574.479,24.3s-.341,9.6-1.165,17.5c-.915,8.775-.841,15.4.192,17.02,2.585,4.065,4.123-10.627,5.174-49.41.617-22.754.235-36.5-1.173-42.325-1.148-4.741-2.44-10.234-2.871-12.2-.357-1.627-2.091-3.57-4.121-4.777A7.378,7.378,0,0,0,58.493,0c-1.88,0-3.881,1.583-5.878,4.433-.091.1-.175.182-.271.283-2.8,2.952-5.6,7.87-6.229,10.927a34.4,34.4,0,0,1-2.549,7.978q-6.538,11.2-12.6,135.532c-2.342,48.071-2.762,56.054-4.044,76.813-.519,8.407-1,16.693-1.435,24.8a128,128,0,0,0-1.154,15.914c.057.877.081,2.79.079,5.541-1.261,27.217-1.978,51.554-2.037,70.31-.055,17.8-.479,40.467-.943,50.384s-1.295,27.9-1.849,39.974c-1.335,29.039-2.571,46.5-3.5,49.379-.414,1.293-1.615,11.169-2.667,21.947-3.5,35.85-8.39,67.071-11.892,75.9C-1.147,596.852-.227,602,3.651,602c3.362,0,5.9-4.552,8.02-14.4,3.259-15.123,4.876-11.289,4.2,9.96-1.139,35.935-2.472,51.919-4.513,54.083-1.452,1.54-1.386,2.71.247,4.443h0a7.925,7.925,0,0,0,1,.883s.006.018.01.023h0a3.463,3.463,0,0,0,2.636,1.317,3.319,3.319,0,0,0,.807.126c1.7,0,2.973-.232,3.935-1.878.044-.044.1-.076.139-.121a1.684,1.684,0,0,0,.239-.639c2.328-5.445,2.586-21.945,2.915-71.483.182-27.544.664-52.113,1.408-72.989.553-14.1,1.206-26.9,1.939-38.1.795-11.1,1.716-20.007,2.751-26.412.905-5.6,2.475-16.186,3.488-23.514s2.309-15.794,2.883-18.812a101.812,101.812,0,0,0,1.35-10.189c.17-2.588,1.216-5.408,2.326-6.271,2.551-1.98,4.571-13.324,2.374-13.324" transform="translate(0.001 4.66)" fill="#78c34e"/>
    </g>
    <g id="Group_3769" data-name="Group 3769" transform="matrix(0.276, 0.961, -0.961, 0.276, 1818.982, 1639.437)" clip-path="url(#clip-path-2)">
      <path id="Path_16660" data-name="Path 16660" d="M7.261.223C4.607,3.264-1.375,40.212.287,43.294c1.829,3.39,4-.9,4-7.9A58.594,58.594,0,0,1,5.839,22.5C8.249,13.822,9.262-2.068,7.261.223" transform="translate(94.101 403.935)" fill="#0f3154"/>
      <path id="Path_16661" data-name="Path 16661" d="M9.188,21.053C7.987,29,6,37.208,4.768,39.3S2.531,46.161,2.531,49.905A66.2,66.2,0,0,1,.9,63.233C0,66.82-.271,70.616.3,71.667v0c1.532,2.839,5.465-6.4,5.557-13.055C5.9,55.435,7.1,48.068,8.535,42.24,12.207,27.287,15.981,7.3,15.981,2.808c0-8.556-4.619,3.848-6.794,18.245" transform="translate(124.442 556.78)" fill="#0f3154"/>
      <path id="Path_16662" data-name="Path 16662" d="M1.781,0A1.862,1.862,0,0,0,0,1.926c0,1.06.334,1.926.741,1.926s1.209-.866,1.781-1.926S2.76,0,1.781,0" transform="translate(121.928 637.543)" fill="#0f3154"/>
      <path id="Path_16663" data-name="Path 16663" d="M5.25.166C3.732,2.047,0,28.166,0,36.905H0C0,42.9,1.988,42.422,3.6,38.24a7.259,7.259,0,0,0,.952-3.168,37.441,37.441,0,0,0,.765-4.338C6.993,16.481,6.951-1.943,5.25.166" transform="translate(115.202 648.066)" fill="#0f3154"/>
      <path id="Path_16664" data-name="Path 16664" d="M2.851,0C.484,0-.606,2.167.34,4.993h0C.836,6.474,1.919,7.2,2.746,6.617,4.645,5.272,4.728,0,2.851,0" transform="translate(142.897 523.902)" fill="#0f3154"/>
      <path id="Path_16665" data-name="Path 16665" d="M0,0V0Z" transform="translate(82.079 954.108)" fill="#0f3154"/>
      <path id="Path_16666" data-name="Path 16666" d="M140.959,177.719c4.523-21.451,11.047-55.012,16.661-85.712,5.936-32.458,14.468-69.152,17.757-76.378A24.242,24.242,0,0,0,177.7,5.305a3.722,3.722,0,0,0-.388-2.829c-.743-2.563-2.472-3.417-4.732-1.215a4.13,4.13,0,0,0-.73.719,3.244,3.244,0,0,0-.279.433c-.126.164-.246.288-.375.47-3.585,5.072-18.506,71.073-18.535,81.974a13.263,13.263,0,0,1-.176,1.89c-.291,1.334-.573,2.585-.846,3.721a31.5,31.5,0,0,1-1.517,4.2,56.038,56.038,0,0,0-3.5,13.483,178.454,178.454,0,0,1-4.072,19.488,181.933,181.933,0,0,0-4.162,20.224,153.184,153.184,0,0,1-3.384,17.334c-2.639,9.853-6.1,27.641-11.63,59.711-2.1,12.182-5.4,30.386-7.337,40.448-4.52,23.5-9.938,56.12-11.318,68.148-.594,5.169-1.782,11.237-2.642,13.482s-3.048,14.918-4.864,28.159-4.487,29.712-5.939,36.6-2.649,14.688-2.658,17.334-1.222,10.45-2.691,17.336S83.1,461.1,82.9,463.75s-1.945,14.782-3.889,26.965c-5.932,37.191-8.313,52.926-9.718,64.633-.328,2.269-.644,4.784-.908,7.338-.145,1.408-.313,2.951-.5,4.569-.878,6.822-2.081,15.27-3.109,21.693-1.44,9.005-3.123,22.007-3.74,28.892a228.311,228.311,0,0,1-3.422,23.114c-1.264,5.826-3.115,20.127-4.115,31.78s-2.218,23.787-2.71,26.965-1.224,8.813-1.621,12.521c-.3,2.781-.615,5.6-.942,8.452-.012.018-.025.054-.036.067-.792,1.008-1.441,4.551-1.441,7.874,0,2-.4,6.725-1.015,12.338-2.886,22.11-6.14,42.859-8.438,53.13-1.424,6.356-3.333,15.022-4.245,19.261-2.068,9.614-11.319,30.968-15.13,34.92-2.593,2.688-3.052,2.548-5.023-1.536-5.258-10.886-6.25-55.96-1.575-71.524a158.689,158.689,0,0,0,4.305-18.788c.679-4.708,1.833-9.428,2.568-10.486s1.777-8.428,2.319-16.373,1.841-20.947,2.886-28.892,2.193-20.514,2.547-27.929,1.793-20.851,3.195-29.855,3.321-23.739,4.263-32.745,2.456-23.305,3.364-31.78,1.921-18.979,2.248-23.345a87.928,87.928,0,0,1,2.533-14.656c1.8-6.248,5.354-31.643,8.565-61.193.748-6.886,1.854-16.854,2.457-22.151,1.041-9.15.972-9.39-1.4-4.815-1.375,2.65-3.366,12.183-4.424,21.189s-2.993,21.691-4.3,28.2-3.168,20-4.14,29.986-2.907,25.905-4.3,35.367c-4.7,31.945-5.566,38.36-6.628,48.983a108.764,108.764,0,0,1-2.523,15.41c-.805,2.648-1.915,12.9-2.468,22.775s-1.763,22.447-2.691,27.929c-1.291,7.622-8.253,65.207-8.264,68.346,0,.328-.825.012-1.832-.7-1.747-1.237-1.269-25.057.968-61.479.748-10.5,1.648-22.921,2.725-37.661.517-7.087,1.01-13.807,1.481-20.208.285-3.481.577-6.993.88-10.561,1.3-15.361,2.822-34,3.372-41.411,1.674-22.583,5.783-64.809,7.495-77.046.283-2.02.6-4.589.951-7.571.083-.687.16-1.363.233-2.037,1.4-12.365,3.171-30.867,4.679-49.137.394-4.768,1.479-13.685,2.413-19.818.837-5.487,1.217-11.016.942-13.152.113-.839.287-2.285.5-4.178a2.148,2.148,0,0,1,.3-.33c.989-.7,1.8-5.095,1.8-9.768s1.085-17.406,2.413-28.3S44.8,333.351,46.8,316.4c3.654-30.989,10.851-75.134,13.6-83.43a36.872,36.872,0,0,0,1.48-9.632c0-2.842,2.688-14.27,5.97-25.395s7.076-25.313,8.433-31.531c2.554-11.723,9.387-33.275,13.208-41.662a59.667,59.667,0,0,0,3.359-10.407c.99-4.75,6.336-14.882,9.933-19.693,2.02-2.258,3.139-2.555,4.429-1.578a9.839,9.839,0,0,1,1.528,2.278c1.432,2.933,1.771,2.714,2.755-1.773,1.111-5.077.881-8.734-.568-10.82a3.108,3.108,0,0,0-2.947-2.357,2.051,2.051,0,0,0-1,.4c-2.317.23-4.751,2.838-8.729,9.181-3.358,5.354-6.106,10.471-6.106,11.37s-1.982,5.881-4.405,11.071c-6.473,13.864-9.933,25.711-19.487,66.737-3.5,15.043-6.392,19.424-6.349,9.631.013-2.912,1.5-14.4,3.31-25.52,3.019-18.582,5.526-31.1,12.539-62.6,3.321-14.91,3.319-18.743-.01-17.957-4.732,1.118-12.518,23.772-12.5,36.388A80.973,80.973,0,0,1,62.8,135.478c-1.349,5.223-3.608,16.866-5.022,25.869s-4.545,24.608-6.957,34.67-4.946,22.633-5.63,27.931A88.964,88.964,0,0,1,42.2,238.393a128.534,128.534,0,0,0-6.381,27.929c-.633,5.3-1.922,10.7-2.864,12.014-2.065,2.873-.378,8.948,2.014,7.254.932-.66,1.694-3.263,1.694-5.786,0-5.015,7.884-31.674,10.2-34.5,1.571-1.915,1.536-1.526-3.505,38.357-5.63,44.547-8.131,66.358-10.045,87.638-1,11.123-3.3,33.227-5.122,49.116-7.884,68.958-13.731,124.78-15.13,144.459-.83,11.653-2.692,34.622-4.141,51.043S5.989,651.4,5.617,658.289,3.664,689.444,2.1,712.22c-1,14.494-1.573,29.1-1.79,43.223-.442,12.029-.422,20.641.113,30.746.964,40.447,5.149,71.73,11.277,75.529,1.255.93,2.781.663,4.722-.863,3.8-2.14,8.469-6.495,8.469-8.634,0-.621,2.22-4.9,4.934-9.5A71.444,71.444,0,0,0,36.774,824.8c1.106-5.245,3.048-10.807,4.313-12.358,2.889-3.539,2.945-1.129.627,26.9C39.568,865.276,38.6,917.2,39.4,939.384c.053,5.307.206,8.611.481,8.926a1.269,1.269,0,0,0,.176.121c.139.818.294,1.3.465,1.382,3.617,1.684,4.632,1.3,5.587-2.127.517-1.854,1.6-5.1,2.405-7.223,4.692-12.346,8.916-40.927,10.533-71.266.168-3.178.829-6.693,1.465-7.811s.526-5.239-.245-9.159c-.8-4.075-.758-7.584.1-8.193.829-.587,1.508-5.665,1.508-11.283a146.738,146.738,0,0,1,1.544-19.63c.848-5.175,2.047-19.363,2.662-31.525.2-3.941.412-7.687.618-10.982.439-4.562.889-9.144,1.341-13.664.575-3.478,1.755-12.426,2.962-22.581,1.51-12.712,3.023-25.225,3.362-27.806,1.515-11.55-3.148-13.038-4.907-1.567-1.973,12.859-2.182,14.527-4.9,39-1.411,12.713-2.976,25.756-3.478,28.986-.84,5.412-3.736,42.625-5.088,65.394-.228,3.847-.662,9-1.089,13.164-1.016,2.03-1.476,4.794-.774,6.614-.623,5.139-1.634,14.031-2.454,21.635-2.517,23.308-3.3,27.158-5.239,25.784-1.1-.781-1.328-8.507-.631-21.686,1.553-29.3,2.947-62.049,3.5-82.107.262-9.535,1.315-23.4,2.34-30.818s2.583-21.718,3.462-31.782c.281-3.221.572-6.442.868-9.637.288-2.793.577-5.681.87-8.71.425-4.4.872-8.941,1.332-13.543,1.385-13.109,2.734-24.238,3.755-30.709.835-5.3,1.971-15.266,2.523-22.151S67.325,628.047,69.6,611.1c6.567-48.892,12.451-91.875,13.578-99.2.572-3.706,1.25-8.475,1.5-10.593s2.5-15.987,5-30.818,5.1-32.167,5.806-38.523,2.5-17.624,4-25.039,4.667-26.05,7.052-41.411,5.737-35.3,7.454-44.3,4.713-25.472,6.657-36.6c5.59-31.985,15.373-83.469,20.313-106.9" transform="translate(41.551 4.295)" fill="#0f3154"/>
      <path id="Path_16667" data-name="Path 16667" d="M4.092,0C2.062,0-.813,9.887.216,13.328v0c.651,2.175,1.286,2,3.106-.849C5.894,8.447,6.416,0,4.092,0" transform="translate(149.946 483.452)" fill="#0f3154"/>
      <path id="Path_16668" data-name="Path 16668" d="M167.734,288.338c-.083-23.416-.592-29.115-1.488-36.243-2.051-29.4-6.093-46.132-13.673-65.886-2.486-6.478-3.835-8.553-6.472-9.026a2.578,2.578,0,0,0-.857-.175c-.207,0-.418.031-.627.052h-.02c-.09,0-.189.021-.281.025-.049.006-.1,0-.147.013-2.486.2-5.777,2.085-7.779,4.526a33.646,33.646,0,0,0-3.551,6.5,37.036,37.036,0,0,0-1.608,3.727c-3.948,9.553-8.473,23.241-10.408,32.4-.9,4.235-2.448,11.17-3.453,15.407a111.912,111.912,0,0,0-2.322,14.446c-1.441,19.517-2.821,30.985-4.985,41.411-1.32,6.357-2.3,14.158-2.168,17.336.393,9.887-2.214,51.611-3.73,59.711-.968,5.163-1.246-1.312-.842-19.638.332-15.037.969-28.038,1.418-28.892s1.278-17.631,1.846-37.285,1.737-44.358,2.6-54.9c1.458-17.842,2.25-38.284,4.323-111.613.069-2.466.16-4.985.263-7.5.289-6.074.594-11.658.9-16.482.493-7.13,1.055-13.061,1.577-16.1.512-2.978.838-5.314.986-7.175.326-3.147.091-5.033-.715-5.959a1.779,1.779,0,0,0-.192-.154c-.025-.03-.046-.063-.07-.091-2.739-3.139-6.357,2.9-9.533,15.9-1.424,5.827-4.438,17.963-6.7,26.967-8.059,32.086-22.751,120.145-30.37,182.019-1.435,11.653-3.355,26.82-4.267,33.706s-2.344,18.587-3.182,26-2.67,23.45-4.071,35.633c-3.6,31.285-6.073,57.445-7.648,80.9-.748,11.123-1.788,21.526-2.311,23.114s-1.743,21.091-2.708,43.338-2.483,47.382-3.375,55.857-2.745,27.543-4.12,42.375c-6.382,68.852-7.456,78.068-12.579,107.862A209.193,209.193,0,0,1,17.443,770.3c-1.668,4.853-2.685.2-3.256-17.982-.266-12.222-.468-29.849-.592-49.1-.009-3.5-.017-7.126-.021-10.929-.074-72.417,1.794-140.023,5-181.056.911-11.652,2.4-33.755,3.3-49.116,1.668-28.362,2.691-43.341,4.138-60.673.443-5.3,1.653-20.9,2.691-34.67s2.218-28.9,2.627-33.627c1.763-20.379,4.136-51.6,6.385-84,1.328-19.139,2.869-36.908,3.424-39.486s1.7-18.12,2.538-34.54c4.656-90.819,7-123.042,10.223-140.3C55.269,27.5,56.68,19.213,57.568,13.4c.874-4.235,1.251-7.1,1.123-8.893C59.05.132,58.479-.347,56.14.165,53.977.64,52.333,3.63,51,9.508c-1.078,4.756-3.6,15.579-5.6,24.054s-4.632,19.89-5.845,25.366-2.764,10.991-3.445,12.255c-1.21,2.243-5.173,18.088-10.34,41.35-1.152,5.183-2.373,12.155-3.039,17.151-.709,3.791-1.453,7.972-2.252,12.643a3.816,3.816,0,0,1-.473.928c-.834,1.006-1.518,3.835-1.518,6.286a21.937,21.937,0,0,1-1.574,7.8c-.866,1.839-2.856,10.277-4.421,18.752s-3.906,19.2-5.2,23.841c-2.232,7.978-4.7,22.471-6.241,36.359A35.408,35.408,0,0,0,0,243.59a11.975,11.975,0,0,0,.371,3.364c.353,5.462,2.689,4.014,4.735-4.888,1.036-4.5,2.614-11.22,3.508-14.928s2.682-13.674,3.973-22.151,4.321-23.641,6.732-33.706c5.861-24.468,10.995-49.321,12.126-58.707.509-4.214,1.926-9.414,3.148-11.556s2.74-7.6,3.371-12.122c1.663-11.931,4.068-11.973,4.072-.07.009,17.931-5.136,105.038-9.194,155.647-.168,2.1-.353,4.439-.551,6.948-.228,2.355-.451,5.187-.641,8.231-1.267,16.334-2.818,36.935-3.93,52.236-1.5,20.657-3.409,41.026-4.239,45.264s-1.958,18.106-2.508,30.818-2.005,35.249-3.238,50.079-1.93,27.559-1.551,28.286a4.64,4.64,0,0,1,.136,1.5c-.06,1.258-.113,2.449-.16,3.565-.182,2.582-.515,5.895-.96,9.383-.921,7.22-3.013,37.829-4.646,68.021-2.873,53.076-3.863,157.805-2.7,210.945.2,15.267.572,25.792,1.131,28.322h0c.061.281.139.549.218.818a10.169,10.169,0,0,0,.706,3.321v0c2.189,3.021,2.563,3.009,5.707-.185,3.312-3.366,10.175-19.075,13.276-30.386,3.523-12.858,10.218-61.232,13.06-94.38,1.089-12.711,2.633-29.18,3.431-36.6s2.692-32.985,4.207-56.82c.254-3.975.519-8.028.79-12.12.012-.149.025-.308.038-.454.435-5.309.929-12.638,1.372-20.161C56.508,473.956,62.938,399.6,66.254,375.451c1.382-10.064,3.355-27.4,4.383-38.523s2.553-23.257,3.384-26.965a200.635,200.635,0,0,0,2.571-21.826c.582-8.295,2.516-23.9,4.3-34.67s4.007-25.652,4.946-33.069,3.153-20.851,4.921-29.855c3.7-18.854,6.893-35.69,9.034-47.565.237-1.075.448-2.258.62-3.472.8-4.517,1.414-8.145,1.785-10.6.721-4.768,2.044-8.438,2.94-8.154,1.674.527,1.562,61.57-.163,89.053-2.756,43.888-4.421,74.937-4.338,80.9.051,3.708-.64,14.976-1.535,25.04s-2.371,32.6-3.28,50.079S93.437,408,92.544,420.714c-2.994,42.617-4.074,93.69-4.176,197.428-.106,106.341.908,145.422,3.856,148.8,1.42,1.625,3.413-.613,5.251-4.944a18.476,18.476,0,0,0,.839-1.923c.2-.546.393-1.212.585-1.945a75.138,75.138,0,0,0,3-14.481c.186-1.732.374-6.96.554-14.9,1.289-19.424,1.811-44.322,1.119-66.36-.074-2.348-.142-4.839-.207-7.389.124-17.23.219-35.924.271-55.156.353-129.013.627-145.64,2.8-170.461,1.088-12.434,3.905-53.055,5.342-77.046,4.068-67.861,11.81-120.111,21.977-148.31,5.194-14.407,7.187-17.77,9.542-16.1,4.56,3.227,10.859,27.156,15.646,59.44,2.784,18.782,3.211,131.512.8,210.911-.886,29.132-2.005,102.184-2.487,162.338-.778,97.313-.589,109.495,1.715,110.508a6.164,6.164,0,0,0,.8.284c.364.5.7.6,1,.2a2.039,2.039,0,0,0,1.672-.355c1.143-1.308,2.047-56.729,3.149-192.762.082-10,.169-19.7.263-28.956q.082-7.731.16-15.127c.435-38.727.934-66.3,1.256-66.894.435-.807.834-37.769.886-82.139.026-22.5-.082-41.165-.414-57.03M97.278,706.828c-.1,2.351-.227,3.766-.364,3.766-.657,0-2.192-15.669-2.637-25.555.017-2.691.059-5.342.121-7.883.294-1.881.826-3.159,1.436-3.159.721,0,1.273,3.827,1.527,10.026.057,9.353.021,17.624-.083,22.8m-2.437-40.8c.094-1.578.2-2.985.306-4.194q.3-.618.689-1.315a9.464,9.464,0,0,1,.692-1.088c.158,1.34.3,3.273.417,5.747-.294.688-.68,1.121-1.109,1.121a1.768,1.768,0,0,1-1-.27m.993-17.066a1.786,1.786,0,0,1-1.653-1.769c.012-.2.029-.392.048-.583a1.612,1.612,0,0,1,3.217.033c.017.178.033.355.044.539a1.79,1.79,0,0,1-1.656,1.781" transform="translate(288.385 133.047)" fill="#0f3154"/>
      <path id="Path_16669" data-name="Path 16669" d="M3.419,8.614C5.09,7.431,3.4,0,1.464,0-.242,0-.558,6.447,1.054,8.295v0a1.818,1.818,0,0,0,2.366.322" transform="translate(41.245 441.076)" fill="#0f3154"/>
      <path id="Path_16670" data-name="Path 16670" d="M5.045,2.408A2.442,2.442,0,0,0,2.548,0C.011,0-.963,5.929,1.172,8.377c1.313,1.5,3.835-2.384,3.872-5.969" transform="translate(42.879 429.522)" fill="#0f3154"/>
      <path id="Path_16671" data-name="Path 16671" d="M2.855,6.575C4.763,5.223,4.72,0,2.8,0,.944,0-.864,5,.448,6.5v0a1.856,1.856,0,0,0,2.407.076" transform="translate(47.011 414.113)" fill="#0f3154"/>
      <path id="Path_16672" data-name="Path 16672" d="M15.939,22.55c.134-7.839.968-15.8,1.853-17.7C18.837,2.616,18.809.984,17.713.209c-2.2-1.557-4.649,5.736-5.721,16.189a20.438,20.438,0,0,0-.542,7.48C11,30.74,10.051,41.864,9.178,50.287c-.989,9.535-2.4,24.269-3.139,32.745-.678,7.784-1.923,20.839-2.886,30.3-.37,1.945-.741,5.035-1.192,9.62h0c-.2,2.052-.314,3.972-.344,5.624C1.039,134.493.519,140,.242,143.222h0c-.477,5.562-.228,10.111.552,10.111,2.113,0,3.181-6.632,4.343-26.965C5.712,116.3,6.9,104.9,7.766,101.029A172.6,172.6,0,0,0,10.235,80.8c.487-7.251,1.914-20.115,3.173-28.592A277.119,277.119,0,0,0,15.939,22.55" transform="translate(38.644 239.589)" fill="#0f3154"/>
      <path id="Path_16673" data-name="Path 16673" d="M.477,11.852c.731,1.354,1.588,1.161,2.547-.57C4.931,7.837,4.93,0,3.023,0,1.049,0-.935,9.235.477,11.852" transform="translate(56.877 192.607)" fill="#0f3154"/>
      <path id="Path_16674" data-name="Path 16674" d="M5.009,20.909c.4-21.872.353-22.4-1.863-19.864C.994,3.509-1.042,32.565.594,37.451c2.235,6.674,4.117-.378,4.414-16.542" transform="translate(58.107 150.511)" fill="#0f3154"/>
      <path id="Path_16675" data-name="Path 16675" d="M0,5.3C.021,9.425.386,9.956,1.656,7.705,3.781,3.936,3.781,0,1.656,0,.731,0-.014,2.385,0,5.3" transform="translate(37.887 400.628)" fill="#0f3154"/>
      <path id="Path_16676" data-name="Path 16676" d="M10.14,34.757C9.385,35.827,8.357,40.6,7.857,45.37,6.31,60.086,3.773,74.971,1.844,80.648A38.657,38.657,0,0,0,0,90.919v0c0,6.156,3.685,5.047,4.486-1.352.324-2.591,1.724-9.047,3.11-14.343S11.245,59.253,12.625,51.5,15.8,35.951,16.618,34.169s2.04-7.145,2.717-11.911,1.943-10.217,2.811-12.112c1.876-4.09.087-12.2-2.129-9.664a13.687,13.687,0,0,0-1.341,3.282,7.656,7.656,0,0,0-1.635,4.78,6.4,6.4,0,0,1,.029.693c-.676,2.5-1.388,5.336-2.059,8.274-1.925,8.416-4.116,16.176-4.871,17.246" transform="translate(52.994 293.623)" fill="#0f3154"/>
      <path id="Path_16677" data-name="Path 16677" d="M3.364,2.039C3.364.385,2.606-.429,1.683.227A4.235,4.235,0,0,0,0,3.23,1.757,1.757,0,0,0,1.683,5.042c.923,0,1.681-1.352,1.681-3" transform="translate(39.542 455.296)" fill="#0f3154"/>
      <path id="Path_16678" data-name="Path 16678" d="M.3,22.681C2,28.8,5.478,23.336,6.654,12.72S5.445-4.159,3.03,3.179C2.166,5.8,1.784,8.58,2.18,9.353s-.112,3.188-1.131,5.369A13.435,13.435,0,0,0,.3,22.681" transform="translate(53.61 208.736)" fill="#0f3154"/>
      <path id="Path_16679" data-name="Path 16679" d="M0,0V0Z" transform="translate(57.355 204.457)" fill="#0f3154"/>
      <path id="Path_16680" data-name="Path 16680" d="M4.464.315C3.95-.636,2.571.642,1.4,3.157S-.32,8.5.194,9.454s1.893-.327,3.067-2.841,1.716-5.348,1.2-6.3" transform="translate(158.271 453.527)" fill="#0f3154"/>
      <path id="Path_16681" data-name="Path 16681" d="M1.168,38.521c1,0,2.218-3.684,2.7-8.186A244.794,244.794,0,0,1,7.493,5.3c.627-2.914.446-5.3-.4-5.3C4.634,0,1.506,12.031.383,25.808h0c-.7,8.575-.443,12.715.786,12.715" transform="translate(101.92 362.107)" fill="#0f3154"/>
      <path id="Path_16682" data-name="Path 16682" d="M4.6,5.988C4.633-4.5,1.892-.439.435,12.153-.284,18.365-.1,22.264.908,22.264c2.137,0,3.665-6.732,3.694-16.276" transform="translate(108.897 335.99)" fill="#0f3154"/>
      <path id="Path_16683" data-name="Path 16683" d="M.426,112.591c-.021.022-.04.036-.061.06-.511.587-.474,2.3.04,4,.219,7.289,1.951,8.035,3.286-2.1.431-3.27,1.255-9.12,2.193-15.6a6.74,6.74,0,0,0,.283-1.949c.84-5.787,1.747-11.914,2.53-17.078a18.813,18.813,0,0,1,2.516-6.868c1.025-1.417,2.345-7.719,2.932-14s2.067-16.2,3.29-22.023C20.2,23.832,21.284.737,19.171,0c-.868-.3-3.684,14.191-6.257,32.2S7.557,66.682,6.733,68.8s-1.14,6.672-.7,10.117c.476,3.712-.2,8.028-1.661,10.593-1.355,2.382-3,10.614-3.656,18.294-.147,1.73-.241,3.329-.292,4.787" transform="translate(130.606 107.435)" fill="#0f3154"/>
      <path id="Path_16684" data-name="Path 16684" d="M9.323,3.475c-.4-4.786-.416-4.781-2.712.964A39.336,39.336,0,0,0,4.227,16.19,54.783,54.783,0,0,1,2.6,27.746,101.48,101.48,0,0,0,.276,42.565c-1.409,16.81,2.867,8.78,6.026-11.319,3.661-23.293,3.51-21.9,3.02-27.771" transform="translate(119.46 239.21)" fill="#0f3154"/>
      <path id="Path_16685" data-name="Path 16685" d="M3.217,1.708C2.428-.644,2.041-.6.759,2.031-.079,3.744-.249,6.1.379,7.262c1.592,2.951,4.065-1.89,2.838-5.554" transform="translate(114.102 312.69)" fill="#0f3154"/>
      <path id="Path_16686" data-name="Path 16686" d="M2.523,9.413c1.386-2.269,2.064-5.49,1.5-7.159C2.446-2.465,0,.686,0,7.444H0c0,5.965.052,6.007,2.521,1.969" transform="translate(116.884 295.494)" fill="#0f3154"/>
      <path id="Path_16687" data-name="Path 16687" d="M4.575,18.779C5.722,12.159,7.01,5.224,7.44,3.372S7.512,0,6.644,0C5.036,0,2.237,10.635.438,23.6c-1.694,12.2,1.919,7.99,4.137-4.817" transform="translate(302.246 102.078)" fill="#0f3154"/>
      <path id="Path_16688" data-name="Path 16688" d="M85.682,378.208c-1.954,2.027-3.737,7.142-4.357,12.507-.579,4.993-2.51,16.013-4.291,24.487s-4.467,22.344-5.968,30.819-3.429,18.876-4.286,23.113-1.93,10.738-2.384,14.446c-.813,6.639-4.345,31.259-7.461,52.006-.874,5.827-2.824,16.042-4.33,22.7s-2.3,12.931-1.755,13.935a14.455,14.455,0,0,1,.087,4.365c-.592,4.96-1.2,10.395-1.82,16.161-2.311,16.151-6.534,52.585-8.66,74.777-.405,4.239-1.806,16.806-3.112,27.929s-2.814,27.592-3.353,36.6c-.06.99-.126,2.03-.2,3.115-.21,2.551-.405,5.056-.58,7.429-.018.239-.036.488-.055.73-1.294,15.2-3.786,38.46-8.253,77.328-1.754,15.271-10.378,63.368-13.563,75.65-.357,1.376-.694,2.508-1.012,3.427a9.963,9.963,0,0,1-1.62,2.845c-1.425.357-2.01-7.268-1.457-21.777.737-19.326,3.5-69.5,4.9-89.038.341-4.766,1.081-18.634,1.644-30.818s1.758-27.35,2.653-33.707c1.577-11.2,4.114-44.115,6.6-85.712,1.233-20.584,5.572-62.873,8.6-83.786.452-3.126,1.025-7.754,1.588-12.722.861-2.011,1.207-4.63.758-5.972a1.891,1.891,0,0,1-.068-.33c.328-3.114.632-6.174.882-8.905.817-9,2.28-20.272,3.248-25.04a120.459,120.459,0,0,0,1.814-19.261c.029-5.826,1.2-13.115,2.6-16.2,1.517-3.333,2.835-12.7,3.252-23.114.386-9.632,1.9-22.806,3.36-29.279s3.353-17.306,4.2-24.077c1.639-13.083,5.889-40.565,11.883-76.834,2.013-12.182,4.224-27.379,4.914-33.77s2.125-13.485,3.191-15.764A24.735,24.735,0,0,0,75.21,257.7c0-2.549,1.506-11.38,3.347-19.626,5.6-25.09,8.51-47.919,7.345-57.654-.976-8.159-.726-9.193,2.461-10.147,3.553-1.064,6.581-7.574,4.588-9.858-.584-.669-1.5.7-2.031,3.035s-1.583,4.25-2.332,4.25c-2.469,0-2.735-6.629-.541-13.483a97.072,97.072,0,0,0,3.032-17.336,178.211,178.211,0,0,1,2.519-18.3c.906-4.238,3.207-16.372,5.117-26.965,6.028-33.446,10.21-49.757,16.111-62.831,3.267-7.236,4.438-7.016,3.786.713-.383,4.548.162,6.259,1.994,6.259,1.68,0,2.667-2.252,2.954-6.741a101.709,101.709,0,0,1,3.273-16.8C128.4,6.689,129.151,1.564,128.511.83c-.03-.033-.073-.049-.105-.079a.7.7,0,0,0-.038-.133c-.934-1.069-2.5-.688-4.321.654-2.67,1.318-5.589,3.826-6.308,6.057a11.313,11.313,0,0,1-2.511,4.488c-1.315,1.021-4.765,10.417-9.849,26.826-1.149,3.708-2.671,8.475-3.381,10.595s-3.205,12.086-5.547,22.15c-3.786,16.275-5.979,29.128-12.816,75.119-1.023,6.886-2.629,17.287-3.57,23.114s-2.031,14.494-2.426,19.261c-1.194,14.421-2.086,21.265-5.526,42.375-5.959,36.56-8.1,50.773-8.568,57.326-.491,2.978-.982,5.887-1.489,8.819a1.547,1.547,0,0,1-.3.306c-.925.655-1.682,3.029-1.682,5.275a48.454,48.454,0,0,1-1.583,10c-1.65,6.163-3.368,16.686-7.688,47.094-1.412,9.935-3.11,19.035-3.775,20.224a7.035,7.035,0,0,0-.438,1.261,14.481,14.481,0,0,0-1.139,4.9c-.744,3.593-1.614,8.351-2.412,13.33-1.53,9.534-4.046,24.978-5.592,34.322-2.278,13.753-2.408,17.543-.688,19.918,1.167,1.614,1.9,6.1,1.621,9.98s-.615,9.214-.753,11.862c-.192,3.675-1.147,4.776-4.034,4.662-2.64-.107-3.784.951-3.784,3.5a20.461,20.461,0,0,1-1.676,7.238c-2.193,4.7-.459,9.722,2.85,8.266,2.222-.976,2.411.52,1.368,10.805-.665,6.568-1.461,15.148-1.769,19.072s-.938,9.732-1.4,12.912c-.869,6-2.99,23.168-6.266,50.739-1.05,8.838-2.158,20.539-2.459,26-.173,3.133-.7,8.937-1.382,15.41a17.532,17.532,0,0,0-1.024,5.783c0,1.231-.1,3.279-.274,5.772-.129,1.078-.258,2.148-.388,3.193-1.385,11.123-3.332,32.36-4.323,47.189s-2.649,36.935-3.684,49.118-2.005,24.75-2.162,27.928-.792,8.813-1.415,12.521C3.291,800.973-1.335,916.839.367,922.256h0a4.6,4.6,0,0,0,.61,1.252,4.673,4.673,0,0,0,.115.624h0c.592,2.032,5.246-.231,7.791-3.7a50.281,50.281,0,0,0,6-9.249c2.757-5.3,7-22.081,9.731-38.521,4.842-29.121,8.587-56.974,10.226-76.084,1-11.652,2.543-25.954,3.429-31.78,1.423-9.362,4.444-41.938,8.3-89.565.688-8.475,2.528-26.676,4.09-40.448s3.509-31.54,4.325-39.485c1.7-16.545,7.693-61.8,10.077-76.083C66.94,508,68.327,498.331,70.18,483.58c1.846-14.7,10.154-61.768,11.729-66.451,1.73-5.145,4.6-20.872,5.969-32.731,1.095-9.471,1.062-9.566-2.2-6.19" transform="translate(201.402 9.504)" fill="#0f3154"/>
      <path id="Path_16689" data-name="Path 16689" d="M1.4,17.217C.082,25.428-.39,32.144.35,32.144c1.582,0,4.906-12.421,6.09-21.345a24.207,24.207,0,0,0,.433-4.509c0-.164-.008-.288-.01-.443s.008-.3.008-.439C6.87-5.383,4.052.7,1.4,17.217" transform="translate(310.094 66.081)" fill="#0f3154"/>
      <path id="Path_16690" data-name="Path 16690" d="M1.807,9.258C4.385,8.273,4.871.087,2.357,0,1.487-.032.557,1.966.2,4.526c-.035.14-.073.278-.1.424A4.774,4.774,0,0,0,.022,6.322C-.1,8.877.457,9.773,1.807,9.258" transform="translate(317.131 51.94)" fill="#0f3154"/>
      <path id="Path_16691" data-name="Path 16691" d="M0,10.066c-.014,2.914.7,5.3,1.579,5.3,1.216,0,2.6-5.153,3.071-9.453A9.024,9.024,0,0,0,4.8,3.8C4.854,2.183,4.714.889,4.288.4,2.558-1.58.029,4.12,0,10.066" transform="translate(182.484 356.374)" fill="#0f3154"/>
      <path id="Path_16692" data-name="Path 16692" d="M1.5,13.394c1.9,0,3.558-4.865,3.489-10.27C4.938-.961,4.884-.97,2.468,2.687A15.86,15.86,0,0,0,0,9.91c0,1.917.675,3.484,1.5,3.484" transform="translate(194.228 312.114)" fill="#0f3154"/>
      <path id="Path_16693" data-name="Path 16693" d="M46.061,676.385c.41-3.972.728-7.716.933-10.817a4.243,4.243,0,0,0,.1-1.67c.21-3.7.222-6.18-.02-6.457-1.724-1.975-4.069,6.5-5.155,18.628-.616,6.886-2.2,19.454-3.515,27.929-.232,1.485-.448,2.894-.663,4.29a69.088,69.088,0,0,0-1.461,9.62c-2.9,19.473-3.969,29.31-4.725,41.947-.091,1.518-.2,3.082-.326,4.647-.3,2.993-.594,6-.863,8.948-.417,3.633-.864,6.692-1.255,8.374-.837,3.609-1.119,7.3-.628,8.216a5.335,5.335,0,0,1,.206,1.908c-.283,2.957-.567,5.841-.843,8.571-.066.418-.129.834-.2,1.258-2.611,15.212-5.183,37.376-6.088,52.458-1.17,19.526-2.287,33.717-3.261,41.413-.469,3.706-1.3,14.542-1.85,24.075-.155,2.724-.362,5.55-.6,8.29-.439,4.153-.877,8.193-1.307,12.056-.223,1.564-.44,2.852-.642,3.73a82.2,82.2,0,0,0-1.635,14.446c-.005.555-.031,1.143-.072,1.751-.3,2.373-.586,4.493-.846,6.3a32.4,32.4,0,0,1-1.478,5.433c-2.108,5.278-2.334,3.563-2.6-19.742-.159-14.037-.334-27.9-.388-30.818-.1-5.129,1.4-48.809,2.885-84.267.795-18.96,3.6-60.7,5.3-78.971.593-6.357,1.252-14.591,1.466-18.3,1.346-23.43,2.983-42.657,4.321-50.763.85-5.142,1.227-9.938.84-10.658s-.025-5.176.807-9.908,2.34-19.87,3.354-33.643c2.579-35.072,2.834-37.915,3.9-43.338,1.291-6.586,4.02-29.964,6.068-52,.937-10.065,2.816-23.5,4.179-29.855A121.049,121.049,0,0,0,42.552,490.2a78.134,78.134,0,0,1,1.759-14.677c.93-3.836,2.447-12.936,3.372-20.224,1.825-14.389,4.549-32.164,5.866-38.293.456-2.118,1.964-12.515,3.353-23.1s3.207-21.856,4.041-25.039,2.433-12.722,3.551-21.2,2.313-17.142,2.654-19.261c.261-1.609,1.343-8.617,2.645-17.1.648-3.53,1.265-7.538,1.724-11.194,1.781-11.134,4.14-23.084,5.463-27.549,1.436-4.848,2.613-10.708,2.613-13.02s1.449-11.167,3.22-19.675c.21-1.012.439-2.124.681-3.3a57.524,57.524,0,0,0,1.837-9.043c1.462-7.266,3.053-15.3,4.237-21.423,1.947-10.065,4.249-21.333,5.117-25.04s4.994-22.344,9.169-41.413c9.495-43.368,21.712-87.1,30.739-111.032.4-.934.791-1.832,1.171-2.658a46.711,46.711,0,0,0,2.143-5.544c.834-1.9,1.63-3.593,2.375-5,.525-.994,1-1.982,1.436-2.96a10.424,10.424,0,0,0,1.095-2.627c1.429-3.748,2.05-6.9,1.424-8.057-2.037-3.775-5.285-1.418-8.85,6.421C133.338,12.687,129.429,20.7,126.7,26s-4.99,11.335-5.019,13.419a56.952,56.952,0,0,1-2.434,11.556c-1.309,4.272-4.085,14.27-6.168,22.215s-5.553,18.94-7.71,24.433-3.919,11.162-3.919,12.6-1.513,6.005-3.363,10.161-3.363,8.646-3.363,9.98-1.513,5.508-3.362,9.28c-4.265,8.7-4.252,11.31.048,10.022,3.091-.927,3.317-.357,2.411,6.035-1.842,12.989-4.74,26.3-6.129,28.149-.756,1.008-1.36,3.608-1.351,5.78s-1.5,11.1-3.363,19.838c-7.727,36.267-9.993,48.21-11.056,58.265-.023.221-.051.437-.076.657-.674,3.863-1.341,7.759-1.978,11.553-.04.1-.083.242-.121.31-1.265,2.311-7.342,40.168-12.214,76.081-1.94,14.3-4.177,27.737-4.972,29.855s-1.823,10.1-2.285,17.743-1.547,15.44-2.411,17.336c-1.875,4.108-4.889,23.057-6.076,37.853-.636,4.6-1.237,9.484-1.771,14.431a5.136,5.136,0,0,1-.348,1.022c-.64,1.178-2.494,14.71-4.119,30.071s-4.107,35.3-5.516,44.3-3.277,23.305-4.151,31.782c-5.731,55.557-8.829,87.578-10.426,107.808-2.571,32.534-2.612,32.98-4.585,50.134C9.9,747.14,8.649,764.845,8.1,778.01s-1.716,25.462-2.588,27.326S3.934,815.5,3.943,823.774s-.326,21.117-.744,28.534C2.267,868.833-.066,931.391,0,938.02c.311,30.274,2.306,62.283,4.03,64.665,1.754,2.42,2.392,2.454,4.771.028.988-.655,1.895-2.054,2.7-4.172a18.762,18.762,0,0,0,1.394-4.3c.5-2.849,1.734-9.515,2.745-14.812,4.405-23.089,9.561-77.5,13.6-143.5.939-15.36,2.405-30.1,3.259-32.743s2.3-13.483,3.224-24.078,3.205-34,5.079-52,4.243-40.835,5.264-50.725" transform="translate(161.713 0)" fill="#0f3154"/>
      <path id="Path_16694" data-name="Path 16694" d="M1.681.234A5.547,5.547,0,0,0,0,4.314c0,1.59.756,2.354,1.681,1.7A5.544,5.544,0,0,0,3.362,1.933c0-1.59-.756-2.352-1.681-1.7" transform="translate(298.471 139.404)" fill="#0f3154"/>
      <path id="Path_16695" data-name="Path 16695" d="M1.681.235A5.547,5.547,0,0,0,0,4.314c0,1.59.756,2.354,1.681,1.7A5.544,5.544,0,0,0,3.362,1.933c0-1.588-.756-2.354-1.681-1.7" transform="translate(175.733 387.874)" fill="#0f3154"/>
      <path id="Path_16696" data-name="Path 16696" d="M1.786,63.853h0C1.1,66.7.593,69.264.3,71.281a1.972,1.972,0,0,0-.238.9,4.588,4.588,0,0,0,.047.6c-.2,1.9-.121,3,.3,2.844,1.209-.461,3.721-6.293,6.257-14.039A14.292,14.292,0,0,0,8.253,56.48c.706-2.384,1.392-4.865,2.029-7.363A72.194,72.194,0,0,1,14.576,36.6c2.791-5.16,6.845-19.4,8.222-28.892L23.917,0,20.5,7.4a218.122,218.122,0,0,0-7.821,21.994C10.257,37.42,7.491,45.671,6.53,47.725S3.436,57.038,1.786,63.853" transform="translate(210.984 195.496)" fill="#0f3154"/>
      <path id="Path_16697" data-name="Path 16697" d="M1.682,0C.757,0,0,1.351,0,3S.757,5.471,1.682,4.817a4.231,4.231,0,0,0,1.681-3A1.756,1.756,0,0,0,1.682,0" transform="translate(207.677 277.356)" fill="#0f3154"/>
      <path id="Path_16698" data-name="Path 16698" d="M4.6,19.349c.176-5.163.942-10.511,1.7-11.888a7.894,7.894,0,0,0,.373-5.514C5.882-.422,5.155-.58,3.276,1.205A8.622,8.622,0,0,0,.922,6.719C.941,8.5.639,14.512.25,20.074S-.066,30.636.411,31.182c2,2.285,3.889-3.063,4.189-11.834" transform="translate(223.829 512.978)" fill="#0f3154"/>
      <path id="Path_16699" data-name="Path 16699" d="M.892,4.593c.559-.64.618-2.3.133-3.693C.488-.636.089-.179.009,2.064-.064,4.1.333,5.232.892,4.593" transform="translate(233.022 480.263)" fill="#0f3154"/>
      <path id="Path_16700" data-name="Path 16700" d="M14.97,8.687C17.179,7.125,17.2,0,15,0a1.9,1.9,0,0,0-1.9,1.445c-.119.794-.5,3.178-.855,5.3C9.2,25.078,6.1,45.3,4.859,54.894c-.822,6.356-2.219,16.757-3.1,23.114S.086,92.816.008,96.788h0c-.078,3.973.555,7.223,1.406,7.223,1.9,0,3.648-8.666,4.416-21.865C6.146,76.692,7.2,67.585,8.17,61.91c3.334-19.5,6.794-48.857,5.943-50.434a2.277,2.277,0,0,1,.857-2.788" transform="translate(207.811 548.941)" fill="#0f3154"/>
      <path id="Path_16701" data-name="Path 16701" d="M.856,35.434a4.027,4.027,0,0,0,1.522-2.911c0-1.008,1.437-5.508,3.194-10A106.983,106.983,0,0,0,9.584,10.508,76.84,76.84,0,0,1,11.749,2.8c1.2-3.436,1.039-3.566-1.51-1.191C7.629,4.045,4.564,10.79,2.48,17.97A16.867,16.867,0,0,0,.752,24.539c0,.234.007.446.017.661C.577,26.268.411,27.32.292,28.335c-.547,4.678-.306,7.716.564,7.1" transform="translate(238.928 154.171)" fill="#0f3154"/>
      <path id="Path_16702" data-name="Path 16702" d="M.892,4.592c.559-.64.618-2.3.133-3.691C.488-.637.089-.178.009,2.065v0C-.064,4.1.333,5.231.892,4.592" transform="translate(234.703 470.634)" fill="#0f3154"/>
      <path id="Path_16703" data-name="Path 16703" d="M39.469,460.394c-.85,0-2.018,2.167-2.6,4.815-2.146,9.792-4.035,4.424-3.089-8.774.663-9.234.328-14.482-1.041-16.372a9.815,9.815,0,0,1-.586-.911c-.079-.89-.151-2-.215-3.33a8.313,8.313,0,0,1,.816-1.348c1.118-1.543,1.5-3.787.855-4.987-1.347-2.5-1.294-96.61.085-151.113.509-20.129,2.107-49.063,3.552-64.3.889-9.383,1.415-16.07,1.6-20.891a35.439,35.439,0,0,0,.056-4.963,15.7,15.7,0,0,0-.962-5.984c-2.9-6.212-.908-77.5,3.319-118.625C44.131,35.651,51.316,10.889,56.28,10.025a7.193,7.193,0,0,1,2.771,3.126c2.266,7.2,3.953,27.346,4.076,50.461.074,14.3.279,27.737.452,29.855s-.322,11.794-1.1,21.5c-.864,10.782-.794,18.918.181,20.912,2.44,4.994,3.892-13.058,4.885-60.71.582-27.958.222-44.853-1.108-52-1.084-5.826-2.3-12.574-2.71-14.994A10.6,10.6,0,0,0,59.838,2.3,6.155,6.155,0,0,0,55.221,0c-1.775,0-3.664,1.945-5.549,5.447-.086.119-.165.224-.255.348a37.363,37.363,0,0,0-5.88,13.427,51.731,51.731,0,0,1-2.407,9.8q-6.172,13.763-11.9,166.528c-2.211,59.065-2.607,68.873-3.818,94.38-.49,10.329-.942,20.511-1.355,30.474-.756,8.248-1.234,16.681-1.089,19.554.053,1.078.077,3.429.074,6.808-1.191,33.442-1.867,63.344-1.923,86.39-.052,21.866-.452,49.722-.89,61.907s-1.222,34.285-1.746,49.116c-1.26,35.681-2.427,57.13-3.3,60.672-.391,1.588-1.524,13.724-2.517,26.967-3.3,44.049-7.921,82.41-11.226,93.256-2.524,8.278-1.655,14.606,2.007,14.606,3.174,0,5.568-5.593,7.572-17.7,3.076-18.582,4.6-13.871,3.968,12.238-1.075,44.153-2.334,63.794-4.261,66.452-1.371,1.893-1.308,3.33.233,5.459h0a8.565,8.565,0,0,0,.943,1.085c0,.006.005.022.009.028v0a3.1,3.1,0,0,0,2.489,1.618,2.47,2.47,0,0,0,.762.155,3.432,3.432,0,0,0,3.715-2.308c.042-.054.091-.094.132-.149a2.465,2.465,0,0,0,.225-.785c2.2-6.69,2.442-26.964,2.752-87.832.172-33.843.627-64.031,1.329-89.682.522-17.326,1.139-33.054,1.831-46.818.751-13.636,1.62-24.583,2.6-32.452.855-6.886,2.336-19.888,3.293-28.892s2.18-19.406,2.722-23.114,1.115-9.341,1.274-12.519,1.148-6.645,2.2-7.705c2.408-2.433,4.315-16.372,2.241-16.372" transform="translate(0.001 5.726)" fill="#0f3154"/>
    </g>
  </g>
</svg>
