<svg xmlns="http://www.w3.org/2000/svg" xmlns:xlink="http://www.w3.org/1999/xlink" width="948.192" height="858.076" viewBox="0 0 948.192 858.076">
  <defs>
    <clipPath id="clip-path">
      <rect id="Rectangle_36" data-name="Rectangle 36" width="483.588" height="817.542" fill="#78c34e"/>
    </clipPath>
  </defs>
  <g id="Group_3768" data-name="Group 3768" transform="translate(0 400.913) rotate(-56)" opacity="0.842">
    <g id="shape-video" clip-path="url(#clip-path)">
      <path id="Path_321" data-name="Path 321" d="M7.691.182C4.88,2.656-1.457,32.727.3,35.236,2.242,37.995,4.543,34.5,4.543,28.8A37.277,37.277,0,0,1,6.185,18.316c2.552-7.067,3.626-20,1.506-18.134" transform="translate(99.677 328.748)" fill="#78c34e"/>
      <path id="Path_322" data-name="Path 322" d="M9.732,17.135C8.461,23.6,6.355,30.283,5.05,31.983s-2.37,5.586-2.37,8.633A42.109,42.109,0,0,1,.951,51.463C0,54.383-.287,57.472.315,58.327h0C1.938,60.639,6.1,53.118,6.2,47.7c.046-2.586,1.324-8.583,2.839-13.325,3.889-12.17,7.888-28.44,7.888-32.092,0-6.963-4.893,3.132-7.2,14.849" transform="translate(131.816 453.144)" fill="#78c34e"/>
      <path id="Path_323" data-name="Path 323" d="M1.887,0A1.754,1.754,0,0,0,0,1.567C0,2.43.353,3.134.785,3.134s1.281-.7,1.887-1.567S2.923,0,1.887,0" transform="translate(129.153 518.874)" fill="#78c34e"/>
      <path id="Path_324" data-name="Path 324" d="M5.561.135C3.953,1.666,0,22.923,0,30.036H0c0,4.876,2.1,4.49,3.812,1.086a4.992,4.992,0,0,0,1.009-2.578,24.172,24.172,0,0,0,.81-3.53c1.775-11.6,1.731-26.6-.072-24.879" transform="translate(122.028 527.438)" fill="#78c34e"/>
      <path id="Path_325" data-name="Path 325" d="M3.02,0C.513,0-.642,1.764.36,4.064h0c.524,1.205,1.671,1.8,2.548,1.322C4.92,4.291,5.008,0,3.02,0" transform="translate(151.364 426.385)" fill="#78c34e"/>
      <path id="Path_326" data-name="Path 326" d="M0,0H0Z" transform="translate(86.942 776.516)" fill="#78c34e"/>
      <path id="Path_327" data-name="Path 327" d="M149.312,144.639c4.791-17.458,11.7-44.773,17.648-69.758C173.249,48.465,182.286,18.6,185.77,12.72a15.994,15.994,0,0,0,2.464-8.4,2.444,2.444,0,0,0-.411-2.3c-.787-2.086-2.618-2.781-5.013-.989a4.062,4.062,0,0,0-.773.586,2.682,2.682,0,0,0-.3.352c-.134.134-.261.234-.4.383-3.8,4.128-19.6,57.844-19.633,66.716a8.372,8.372,0,0,1-.186,1.538c-.308,1.086-.607,2.1-.9,3.029a22.125,22.125,0,0,1-1.607,3.417,37.489,37.489,0,0,0-3.707,10.974A116.465,116.465,0,0,1,151,103.882a118.616,118.616,0,0,0-4.408,16.46,99.513,99.513,0,0,1-3.584,14.108c-2.795,8.019-6.465,22.5-12.32,48.6-2.223,9.914-5.721,24.73-7.772,32.92-4.788,19.126-10.527,45.674-11.988,55.463-.629,4.207-1.888,9.145-2.8,10.972s-3.228,12.141-5.152,22.918S98.224,329.5,96.687,335.1s-2.806,11.954-2.816,14.108-1.295,8.505-2.85,14.109a122.348,122.348,0,0,0-3.208,14.109c-.207,2.155-2.061,12.03-4.12,21.946-6.284,30.269-8.806,43.074-10.293,52.6-.348,1.846-.682,3.893-.962,5.972-.153,1.146-.331,2.4-.526,3.719-.93,5.552-2.2,12.428-3.293,17.655-1.525,7.329-3.308,17.91-3.961,23.514a146.054,146.054,0,0,1-3.624,18.812c-1.339,4.741-3.3,16.381-4.359,25.865s-2.349,19.36-2.871,21.946-1.3,7.172-1.717,10.19c-.317,2.263-.651,4.562-1,6.878-.012.015-.026.044-.039.055-.839.82-1.526,3.7-1.526,6.408a97.137,97.137,0,0,1-1.075,10.042c-3.057,17.994-6.5,34.881-8.938,43.241-1.509,5.173-3.531,12.226-4.5,15.676-2.19,7.825-11.99,25.2-16.027,28.42-2.747,2.188-3.232,2.074-5.321-1.25C8.1,680.261,7.046,643.577,12,630.91a104.449,104.449,0,0,0,4.56-15.291c.719-3.832,1.942-7.673,2.72-8.534s1.883-6.859,2.457-13.326,1.95-17.048,3.057-23.514,2.323-16.7,2.7-22.731a217.637,217.637,0,0,1,3.384-24.3c1.485-7.328,3.518-19.321,4.516-26.65s2.6-18.967,3.564-25.865,2.034-15.447,2.381-19a56.728,56.728,0,0,1,2.683-11.928c1.906-5.085,5.671-25.753,9.072-49.8.792-5.6,1.964-13.717,2.6-18.028,1.1-7.447,1.03-7.643-1.486-3.919-1.456,2.156-3.565,9.915-4.686,17.245s-3.17,17.654-4.553,22.947a240.172,240.172,0,0,0-4.385,24.4C39.554,440.75,37.5,453.7,36.031,461.4c-4.976,26-5.9,31.22-7.021,39.866a70,70,0,0,1-2.672,12.542c-.853,2.155-2.029,10.5-2.614,18.536a205.468,205.468,0,0,1-2.85,22.731c-1.368,6.2-8.742,53.07-8.753,55.625,0,.267-.874.01-1.941-.57-1.851-1.007-1.344-20.393,1.025-50.035.792-8.545,1.746-18.655,2.886-30.651.548-5.768,1.07-11.237,1.569-16.446.3-2.833.611-5.691.932-8.595,1.382-12.5,2.989-27.668,3.572-33.7,1.774-18.379,6.125-52.746,7.939-62.7.3-1.644.639-3.734,1.008-6.162.088-.559.17-1.109.247-1.658,1.482-10.064,3.359-25.121,4.956-39.991.417-3.88,1.567-11.138,2.556-16.129.886-4.466,1.289-8.965,1-10.7.12-.683.3-1.86.53-3.4a2.011,2.011,0,0,1,.313-.268c1.048-.57,1.9-4.146,1.9-7.95s1.15-14.166,2.556-23.03,4.287-27.4,6.405-41.2c3.87-25.221,11.494-61.149,14.406-67.9a23.685,23.685,0,0,0,1.568-7.839c0-2.313,2.847-11.614,6.324-20.668s7.5-20.6,8.933-25.662C83.513,125.9,90.75,108.356,94.8,101.53a41.085,41.085,0,0,0,3.558-8.47c1.049-3.866,6.712-12.112,10.521-16.027,2.139-1.838,3.325-2.08,4.691-1.284a8.261,8.261,0,0,1,1.619,1.854c1.517,2.387,1.876,2.209,2.918-1.443,1.177-4.132.933-7.108-.6-8.806a3.252,3.252,0,0,0-3.122-1.918,2.586,2.586,0,0,0-1.063.329c-2.454.187-5.032,2.309-9.246,7.472-3.557,4.358-6.468,8.522-6.468,9.253s-2.1,4.786-4.666,9.01c-6.857,11.283-10.521,20.925-20.642,54.315-3.71,12.243-6.771,15.809-6.726,7.838.014-2.37,1.59-11.717,3.506-20.77,3.2-15.123,5.853-25.31,13.282-50.948,3.518-12.135,3.515-15.255-.011-14.614-5.013.91-13.259,19.347-13.244,29.615a51.833,51.833,0,0,1-2.586,13.324c-1.428,4.251-3.822,13.726-5.319,21.054s-4.814,20.028-7.369,28.217a230.257,230.257,0,0,0-5.964,22.732A58.166,58.166,0,0,1,44.7,194.02a84.759,84.759,0,0,0-6.759,22.731c-.671,4.311-2.036,8.71-3.034,9.778-2.188,2.339-.4,7.283,2.134,5.9.987-.537,1.794-2.656,1.794-4.709,0-4.082,8.352-25.779,10.808-28.082,1.665-1.559,1.627-1.242-3.713,31.218-5.964,36.255-8.612,54.007-10.64,71.325-1.059,9.053-3.5,27.042-5.426,39.974-8.352,56.123-14.544,101.554-16.027,117.57-.879,9.484-2.851,28.178-4.386,41.542s-3.11,28.883-3.5,34.487-2.069,25.356-3.724,43.893C1.172,591.447.56,603.335.33,614.829a199.946,199.946,0,0,0,.12,25.023C1.471,672.771,5.9,698.231,12.4,701.323c1.329.757,2.945.539,5-.7,4.026-1.742,8.971-5.286,8.971-7.026,0-.505,2.352-3.986,5.227-7.735a50.977,50.977,0,0,0,7.358-14.579c1.172-4.269,3.228-8.8,4.568-10.057,3.06-2.88,3.119-.918.664,21.891-2.273,21.1-3.3,63.362-2.446,81.418.057,4.319.218,7.008.509,7.265a1.408,1.408,0,0,0,.186.1c.148.666.312,1.057.493,1.125,3.831,1.37,4.907,1.056,5.918-1.731.548-1.509,1.695-4.154,2.548-5.879,4.97-10.048,9.445-33.31,11.157-58,.178-2.586.878-5.447,1.551-6.357s.558-4.264-.259-7.454c-.849-3.316-.8-6.173.109-6.668.878-.477,1.6-4.61,1.6-9.183a92.421,92.421,0,0,1,1.636-15.976c.9-4.212,2.168-15.759,2.82-25.657.211-3.207.436-6.256.654-8.937.465-3.713.941-7.442,1.42-11.121.609-2.831,1.859-10.113,3.137-18.378,1.6-10.346,3.2-20.529,3.561-22.63,1.605-9.4-3.335-10.612-5.2-1.276-2.09,10.466-2.312,11.823-5.189,31.743-1.495,10.347-3.152,20.962-3.684,23.591-.89,4.4-3.957,34.691-5.39,53.222-.242,3.131-.7,7.324-1.154,10.714-1.077,1.652-1.564,3.9-.82,5.383-.66,4.183-1.731,11.419-2.6,17.608-2.667,18.97-3.495,22.1-5.55,20.985-1.169-.635-1.406-6.923-.668-17.649,1.645-23.845,3.122-50.5,3.7-66.824a216.917,216.917,0,0,1,2.479-25.081c1.085-6.035,2.736-17.676,3.667-25.866.3-2.622.606-5.243.919-7.843.305-2.273.611-4.624.922-7.089.45-3.584.923-7.277,1.411-11.022,1.467-10.669,2.9-19.727,3.978-24.993.885-4.313,2.088-12.424,2.672-18.028s3.036-21.476,5.448-35.271c6.956-39.792,13.189-74.774,14.383-80.732.606-3.016,1.324-6.9,1.594-8.622s2.653-13.011,5.292-25.081,5.406-26.18,6.15-31.352,2.65-14.343,4.233-20.379,4.944-21.2,7.47-33.7,6.077-28.727,7.9-36.055,4.992-20.731,7.051-29.784c5.921-26.031,16.283-67.932,21.517-87" transform="translate(44.013 3.496)" fill="#78c34e"/>
      <path id="Path_328" data-name="Path 328" d="M4.335,0C2.184,0-.862,8.047.229,10.847h0c.69,1.77,1.362,1.628,3.29-.691C6.244,6.875,6.8,0,4.335,0" transform="translate(158.831 393.465)" fill="#78c34e"/>
      <path id="Path_329" data-name="Path 329" d="M177.673,234.669c-.088-19.057-.627-23.7-1.576-29.5-2.172-23.929-6.454-37.546-14.484-53.623-2.633-5.272-4.062-6.961-6.855-7.346a3.459,3.459,0,0,0-.908-.142c-.219,0-.443.025-.664.042h-.021c-.1,0-.2.017-.3.021-.052,0-.1,0-.156.011a14.823,14.823,0,0,0-8.24,3.683,26.424,26.424,0,0,0-3.761,5.291,27.055,27.055,0,0,0-1.7,3.033c-4.182,7.775-8.975,18.915-11.025,26.368-.948,3.446-2.593,9.091-3.657,12.54a71.853,71.853,0,0,0-2.46,11.757c-1.526,15.884-2.988,25.217-5.281,33.7-1.4,5.174-2.432,11.523-2.3,14.109.417,8.047-2.345,42-3.952,48.6-1.025,4.2-1.319-1.068-.892-15.982.352-12.238,1.027-22.819,1.5-23.514s1.354-14.35,1.956-30.345,1.84-36.1,2.752-44.678c1.544-14.521,2.384-31.158,4.58-90.838.073-2.007.17-4.058.279-6.106.306-4.943.629-9.488.951-13.414a124.248,124.248,0,0,1,1.67-13.1,52.821,52.821,0,0,0,1.045-5.84c.345-2.561.1-4.1-.758-4.85a1.888,1.888,0,0,0-.2-.125c-.026-.024-.048-.051-.075-.074-2.9-2.555-6.734,2.357-10.1,12.939-1.509,4.743-4.7,14.619-7.1,21.947-8.536,26.114-24.1,97.782-32.17,148.139-1.52,9.484-3.554,21.828-4.52,27.432s-2.483,15.127-3.37,21.164-2.828,19.085-4.312,29c-3.813,25.462-6.433,46.753-8.1,65.838-.792,9.053-1.894,17.519-2.448,18.812s-1.847,17.166-2.868,35.271-2.631,38.562-3.575,45.46-2.908,22.416-4.364,34.488c-6.76,56.037-7.9,63.537-13.324,87.785a139.934,139.934,0,0,1-8.419,24.3c-1.767,3.949-2.845.161-3.449-14.635-.282-9.947-.5-24.293-.627-39.957-.01-2.846-.018-5.8-.022-8.895-.079-58.938,1.9-113.96,5.3-147.356.965-9.483,2.538-27.472,3.495-39.974,1.767-23.083,2.85-35.274,4.384-49.379.469-4.31,1.751-17.009,2.85-28.217s2.349-23.523,2.782-27.368c1.867-16.586,4.381-41.993,6.763-68.362,1.406-15.577,3.039-30.038,3.627-32.136s1.8-14.747,2.689-28.111C51.2,68.619,53.685,42.393,57.1,28.348c1.448-5.962,2.943-12.711,3.884-17.445.926-3.446,1.325-5.779,1.19-7.238.38-3.557-.225-3.947-2.7-3.53-2.291.386-4.033,2.82-5.443,7.6-1.141,3.87-3.809,12.679-5.929,19.577S43.188,43.5,41.9,47.96s-2.927,8.945-3.649,9.974C36.971,59.759,32.774,72.655,27.3,91.587c-1.22,4.218-2.513,9.892-3.219,13.958-.751,3.086-1.539,6.488-2.385,10.29a2.933,2.933,0,0,1-.5.756c-.883.819-1.608,3.121-1.608,5.116a14.363,14.363,0,0,1-1.667,6.35c-.918,1.5-3.025,8.364-4.683,15.262s-4.138,15.629-5.511,19.4c-2.364,6.493-4.977,18.288-6.611,29.591A22.635,22.635,0,0,0,0,198.249a7.621,7.621,0,0,0,.393,2.738c.374,4.445,2.849,3.267,5.016-3.979,1.1-3.664,2.769-9.132,3.715-12.15s2.84-11.129,4.208-18.028,4.577-19.241,7.131-27.432c6.208-19.914,11.646-40.14,12.844-47.779.54-3.429,2.04-7.662,3.335-9.405s2.9-6.182,3.571-9.866c1.761-9.71,4.309-9.744,4.313-.057.01,14.594-5.441,85.486-9.739,126.675-.178,1.712-.374,3.613-.584,5.655-.242,1.917-.478,4.222-.679,6.7-1.342,13.294-2.985,30.06-4.163,42.513-1.59,16.812-3.611,33.39-4.49,36.839s-2.074,14.736-2.657,25.081-2.124,28.688-3.43,40.758-2.044,22.429-1.642,23.021a2.949,2.949,0,0,1,.144,1.22c-.064,1.024-.12,1.993-.17,2.9-.193,2.1-.545,4.8-1.017,7.636-.976,5.876-3.191,30.787-4.922,55.36-3.043,43.2-4.092,128.432-2.86,171.681.217,12.425.606,20.991,1.2,23.05h0c.065.228.148.447.23.666a6.724,6.724,0,0,0,.748,2.7h0c2.319,2.459,2.715,2.449,6.045-.151,3.508-2.739,10.778-15.524,14.063-24.73,3.732-10.464,10.823-49.835,13.834-76.813,1.154-10.345,2.789-23.749,3.634-29.784s2.851-26.845,4.457-46.244c.269-3.235.549-6.533.836-9.864.012-.122.026-.25.04-.369.461-4.321.984-10.286,1.453-16.409,5-54.65,11.813-115.167,15.326-134.821,1.464-8.19,3.554-22.3,4.643-31.352s2.7-18.928,3.584-21.946,2.106-11.011,2.723-17.763,2.665-19.448,4.55-28.217,4.244-20.877,5.239-26.913,3.34-16.97,5.213-24.3c3.92-15.345,7.3-29.047,9.569-38.712.251-.875.475-1.838.657-2.826.849-3.676,1.5-6.629,1.891-8.627.763-3.88,2.165-6.867,3.114-6.637,1.774.429,1.655,50.109-.173,72.477-2.919,35.719-4.683,60.988-4.595,65.839.054,3.018-.678,12.188-1.626,20.379s-2.512,26.532-3.474,40.758-2.523,34.331-3.468,44.677c-3.172,34.685-4.316,76.251-4.423,160.68-.112,86.547.962,118.354,4.084,121.1,1.5,1.323,3.615-.5,5.562-4.023a13.537,13.537,0,0,0,.889-1.565,15.533,15.533,0,0,0,.62-1.583,49.107,49.107,0,0,0,3.173-11.785c.2-1.409.4-5.665.587-12.129a453.733,453.733,0,0,0,1.186-54.008c-.079-1.911-.15-3.938-.219-6.013.131-14.023.232-29.237.287-44.889.374-105,.664-118.531,2.965-138.733,1.152-10.12,4.136-43.18,5.659-62.7,4.309-55.23,12.51-97.754,23.28-120.7,5.5-11.726,7.613-14.463,10.107-13.106,4.831,2.626,11.5,22.1,16.573,48.376,2.949,15.286,3.4,107.033.843,171.653-.939,23.71-2.124,83.164-2.635,132.121-.824,79.2-.624,89.114,1.816,89.939a7.9,7.9,0,0,0,.847.231c.385.407.737.49,1.06.16a2.67,2.67,0,0,0,1.771-.289c1.21-1.064,2.168-46.17,3.336-156.882.087-8.137.179-16.034.279-23.566q.087-6.292.17-12.311c.461-31.519.99-53.957,1.331-54.443.461-.657.883-30.739.939-66.85.028-18.309-.087-33.5-.439-46.415M103.042,575.263c-.108,1.913-.24,3.065-.385,3.065-.7,0-2.321-12.752-2.793-20.8.018-2.19.062-4.348.128-6.415.312-1.531.875-2.571,1.521-2.571.763,0,1.348,3.115,1.618,8.16.061,7.612.022,14.344-.088,18.559m-2.581-33.209c.1-1.284.208-2.43.324-3.414q.313-.5.73-1.07a7.792,7.792,0,0,1,.733-.886c.167,1.091.315,2.664.442,4.677a1.475,1.475,0,0,1-1.175.912,2.309,2.309,0,0,1-1.054-.22m1.052-13.889a1.694,1.694,0,0,1-1.751-1.44c.012-.163.03-.319.051-.475a1.794,1.794,0,0,1,3.408.027c.018.145.034.289.047.438a1.694,1.694,0,0,1-1.754,1.449" transform="translate(305.473 108.282)" fill="#78c34e"/>
      <path id="Path_330" data-name="Path 330" d="M3.621,7.011C5.392,6.047,3.606,0,1.551,0-.256,0-.591,5.247,1.116,6.751v0a2.357,2.357,0,0,0,2.506.262" transform="translate(43.689 358.977)" fill="#78c34e"/>
      <path id="Path_331" data-name="Path 331" d="M5.344,1.96C5.359.882,4.169,0,2.7,0,.012,0-1.021,4.825,1.242,6.818,2.633,8.041,5.3,4.878,5.344,1.96" transform="translate(45.42 349.573)" fill="#78c34e"/>
      <path id="Path_332" data-name="Path 332" d="M3.024,5.351C5.046,4.251,5,0,2.966,0,1,0-.915,4.067.475,5.291h0a2.431,2.431,0,0,0,2.549.062" transform="translate(49.796 337.032)" fill="#78c34e"/>
      <path id="Path_333" data-name="Path 333" d="M16.884,18.353c.142-6.38,1.025-12.863,1.963-14.4C19.953,2.129,19.923.8,18.762.17,16.435-1.1,13.838,4.839,12.7,13.347a12.924,12.924,0,0,0-.574,6.088c-.473,5.585-1.481,14.638-2.406,21.493C8.675,48.687,7.178,60.679,6.4,67.577,5.68,73.912,4.36,84.537,3.34,92.24a78.086,78.086,0,0,0-1.263,7.83h0a45.013,45.013,0,0,0-.364,4.578C1.1,109.459.549,113.941.257,116.564h0c-.505,4.526-.242,8.229.585,8.229,2.239,0,3.369-5.4,4.6-21.946C6.051,94.656,7.3,85.376,8.226,82.224a109.71,109.71,0,0,0,2.615-16.46c.516-5.9,2.027-16.371,3.361-23.27a174.67,174.67,0,0,0,2.682-24.141" transform="translate(40.934 194.993)" fill="#78c34e"/>
      <path id="Path_334" data-name="Path 334" d="M.505,9.646c.774,1.1,1.682.945,2.7-.464C5.223,6.378,5.222,0,3.2,0,1.111,0-.991,7.516.505,9.646" transform="translate(60.248 156.756)" fill="#78c34e"/>
      <path id="Path_335" data-name="Path 335" d="M5.306,17.017C5.732-.784,5.68-1.215,3.332.85,1.053,2.856-1.1,26.5.63,30.48,3,35.911,4.991,30.172,5.306,17.017" transform="translate(61.551 122.496)" fill="#78c34e"/>
      <path id="Path_336" data-name="Path 336" d="M0,4.311C.022,7.67.409,8.1,1.754,6.271,4.006,3.2,4.006,0,1.754,0,.775,0-.015,1.941,0,4.311" transform="translate(40.132 326.057)" fill="#78c34e"/>
      <path id="Path_337" data-name="Path 337" d="M10.741,28.288c-.8.871-1.888,4.759-2.418,8.637C6.684,48.9,4,61.016,1.953,65.636A25.018,25.018,0,0,0,0,74v0c0,5.01,3.9,4.107,4.752-1.1A99.008,99.008,0,0,1,8.047,61.224c1.469-4.311,3.865-13,5.326-19.307s3.365-12.657,4.23-14.108,2.161-5.815,2.878-9.694S22.539,9.8,23.458,8.257C25.445,4.929,23.55-1.674,21.2.393a9.964,9.964,0,0,0-1.42,2.671,5.36,5.36,0,0,0-1.732,3.89,4.013,4.013,0,0,1,.03.564c-.716,2.035-1.47,4.343-2.181,6.734-2.039,6.849-4.36,13.165-5.159,14.036" transform="translate(56.134 238.969)" fill="#78c34e"/>
      <path id="Path_338" data-name="Path 338" d="M3.564,1.659c0-1.346-.8-2.008-1.78-1.475A3.35,3.35,0,0,0,0,2.629,1.656,1.656,0,0,0,1.783,4.1c.977,0,1.78-1.1,1.78-2.444" transform="translate(41.885 370.549)" fill="#78c34e"/>
      <path id="Path_339" data-name="Path 339" d="M.322,18.459c1.794,4.976,5.481.533,6.727-8.107S5.768-3.385,3.209,2.588c-.915,2.134-1.319,4.4-.9,5.025s-.119,2.595-1.2,4.37a8.6,8.6,0,0,0-.789,6.477" transform="translate(56.786 169.883)" fill="#78c34e"/>
      <path id="Path_340" data-name="Path 340" d="M0,0H0Z" transform="translate(60.753 166.4)" fill="#78c34e"/>
      <path id="Path_341" data-name="Path 341" d="M4.728.256C4.184-.518,2.723.522,1.479,2.569S-.338,6.919.205,7.694s2.005-.266,3.249-2.312S5.272,1.03,4.728.256" transform="translate(167.649 369.11)" fill="#78c34e"/>
      <path id="Path_342" data-name="Path 342" d="M1.238,31.351c1.061,0,2.349-3,2.863-6.662A156.547,156.547,0,0,1,7.937,4.31C8.6,1.939,8.409,0,7.512,0,4.909,0,1.595,9.792.405,21h0c-.74,6.979-.469,10.348.832,10.348" transform="translate(107.959 294.706)" fill="#78c34e"/>
      <path id="Path_343" data-name="Path 343" d="M4.875,4.873C4.908-3.66,2-.358.461,9.891c-.762,5.056-.569,8.229.5,8.229,2.264,0,3.882-5.479,3.913-13.247" transform="translate(115.35 273.451)" fill="#78c34e"/>
      <path id="Path_344" data-name="Path 344" d="M.451,91.634c-.022.018-.043.029-.065.049-.541.477-.5,1.868.043,3.255.232,5.932,2.066,6.539,3.481-1.713.457-2.662,1.329-7.423,2.323-12.7a4.316,4.316,0,0,0,.3-1.587c.89-4.71,1.851-9.7,2.68-13.9a13.329,13.329,0,0,1,2.665-5.589c1.086-1.153,2.484-6.282,3.105-11.4a151.553,151.553,0,0,1,3.485-17.924C21.4,19.4,22.545.6,20.307,0c-.919-.243-3.9,11.549-6.628,26.206S8.005,54.27,7.131,55.993s-1.208,5.43-.738,8.234a12.144,12.144,0,0,1-1.76,8.622C3.2,74.788,1.456,81.487.761,87.738.6,89.146.505,90.447.451,91.634" transform="translate(138.345 87.437)" fill="#78c34e"/>
      <path id="Path_345" data-name="Path 345" d="M9.875,2.828C9.453-1.066,9.435-1.063,7,3.613a25.7,25.7,0,0,0-2.526,9.563,35.018,35.018,0,0,1-1.722,9.405A65.155,65.155,0,0,0,.293,34.642C-1.2,48.324,3.329,41.788,6.676,25.43c3.878-18.957,3.718-17.824,3.2-22.6" transform="translate(126.538 194.685)" fill="#78c34e"/>
      <path id="Path_346" data-name="Path 346" d="M3.407,1.39C2.572-.524,2.162-.484.8,1.653-.083,3.047-.264,4.963.4,5.911c1.687,2.4,4.306-1.538,3.006-4.52" transform="translate(120.864 254.487)" fill="#78c34e"/>
      <path id="Path_347" data-name="Path 347" d="M2.672,7.661C4.141,5.815,4.858,3.193,4.266,1.835,2.591-2.007,0,.558,0,6.059H0c0,4.854.055,4.888,2.671,1.6" transform="translate(123.81 240.493)" fill="#78c34e"/>
      <path id="Path_348" data-name="Path 348" d="M4.846,15.284C6.061,9.9,7.426,4.252,7.881,2.744S7.957,0,7.038,0C5.335,0,2.37,8.656.464,19.2c-1.794,9.926,2.033,6.5,4.382-3.92" transform="translate(320.156 83.077)" fill="#78c34e"/>
      <path id="Path_349" data-name="Path 349" d="M90.76,307.811c-2.07,1.65-3.958,5.813-4.615,10.179-.613,4.064-2.658,13.033-4.545,19.929S76.868,356.1,75.278,363s-3.633,15.363-4.539,18.81-2.044,8.739-2.526,11.757c-.861,5.4-4.6,25.441-7.9,42.326-.926,4.743-2.991,13.056-4.586,18.475s-2.433,10.524-1.859,11.342c.224.318.242,1.621.092,3.552-.627,4.037-1.275,8.46-1.928,13.153-2.448,13.145-6.922,42.8-9.173,60.858-.429,3.45-1.913,13.678-3.3,22.731s-2.981,22.456-3.551,29.784c-.063.805-.134,1.652-.214,2.535-.222,2.076-.429,4.115-.614,6.046-.019.194-.039.4-.058.594-1.371,12.374-4.011,31.3-8.742,62.934-1.858,12.429-10.993,51.573-14.366,61.569-.378,1.12-.736,2.041-1.072,2.789a7.948,7.948,0,0,1-1.716,2.315c-1.51.29-2.13-5.915-1.543-17.723.781-15.728,3.7-56.564,5.187-72.465.362-3.879,1.146-15.166,1.742-25.081s1.862-22.259,2.81-27.433c1.67-9.114,4.357-35.9,7-69.758,1.306-16.752,5.9-51.17,9.105-68.191.479-2.544,1.086-6.311,1.682-10.354.912-1.636,1.278-3.768.8-4.861a1.236,1.236,0,0,1-.072-.268c.348-2.534.669-5.025.934-7.248a191.773,191.773,0,0,1,3.441-20.379,76.112,76.112,0,0,0,1.921-15.676c.03-4.741,1.27-10.673,2.756-13.181,1.607-2.713,3-10.337,3.445-18.812.409-7.839,2.011-18.561,3.56-23.829a195.757,195.757,0,0,0,4.45-19.6c1.736-10.648,6.238-33.014,12.587-62.532,2.132-9.914,4.475-22.282,5.2-27.484s2.251-10.975,3.38-12.83a16.3,16.3,0,0,0,2.051-7.143c0-2.075,1.6-9.262,3.546-15.973,5.932-20.42,9.014-39,7.78-46.923-1.034-6.64-.769-7.482,2.607-8.258,3.764-.866,6.971-6.164,4.86-8.023-.618-.544-1.587.567-2.152,2.47s-1.677,3.459-2.471,3.459c-2.615,0-2.9-5.4-.573-10.974A62.72,62.72,0,0,0,96.476,111.4a113.686,113.686,0,0,1,2.668-14.891c.959-3.449,3.4-13.324,5.42-21.946,6.385-27.221,10.815-40.5,17.066-51.136,3.46-5.89,4.7-5.71,4.011.581-.406,3.7.171,5.094,2.112,5.094q2.669,0,3.129-5.486a66.044,66.044,0,0,1,3.467-13.669c1.656-4.5,2.455-8.671,1.778-9.269-.032-.027-.077-.04-.112-.064C136,.58,136,.523,135.975.5c-.99-.87-2.647-.56-4.577.532-2.828,1.073-5.92,3.114-6.682,4.93a9,9,0,0,1-2.66,3.653c-1.393.831-5.047,8.478-10.433,21.833-1.217,3.018-2.829,6.9-3.582,8.623s-3.4,9.836-5.875,18.027c-4.011,13.245-6.334,23.706-13.576,61.136-1.083,5.6-2.785,14.069-3.782,18.812s-2.152,11.8-2.57,15.676c-1.264,11.736-2.21,17.306-5.853,34.488-6.312,29.755-8.585,41.322-9.076,46.656-.52,2.424-1.041,4.791-1.578,7.177a1.494,1.494,0,0,1-.313.249c-.98.533-1.782,2.465-1.782,4.293a31.1,31.1,0,0,1-1.677,8.137c-1.747,5.016-3.568,13.581-8.143,38.328-1.5,8.086-3.295,15.492-4,16.46a4.927,4.927,0,0,0-.464,1.026,9.577,9.577,0,0,0-1.206,3.991c-.788,2.924-1.71,6.8-2.555,10.848-1.62,7.759-4.286,20.329-5.924,27.934-2.413,11.193-2.551,14.278-.729,16.211,1.237,1.313,2.011,4.966,1.717,8.122s-.651,7.5-.8,9.654c-.2,2.991-1.215,3.887-4.273,3.794-2.8-.087-4.008.774-4.008,2.846a13.534,13.534,0,0,1-1.775,5.891c-2.323,3.822-.486,7.912,3.018,6.728,2.353-.794,2.553.423,1.449,8.794-.7,5.345-1.547,12.328-1.874,15.522s-.994,7.921-1.481,10.508c-.921,4.884-3.168,18.855-6.637,41.295-1.112,7.193-2.286,16.716-2.6,21.162-.184,2.55-.744,7.273-1.464,12.542a11.365,11.365,0,0,0-1.085,4.706c0,1-.1,2.669-.29,4.7-.137.877-.273,1.748-.411,2.6-1.467,9.053-3.529,26.336-4.579,38.406s-2.806,30.06-3.9,39.975-2.124,20.143-2.29,22.729a82.7,82.7,0,0,1-1.5,10.19c-2.669,12.2-7.569,106.5-5.766,110.908h0a3.484,3.484,0,0,0,.646,1.019,3.03,3.03,0,0,0,.121.508h0c.627,1.653,5.557-.188,8.252-3.013a41.752,41.752,0,0,0,6.36-7.527c2.92-4.31,7.412-17.971,10.307-31.351,5.129-23.7,9.1-46.369,10.832-61.922,1.059-9.483,2.694-21.123,3.633-25.865,1.507-7.62,4.708-34.132,8.8-72.894.729-6.9,2.678-21.71,4.332-32.92s3.717-25.669,4.581-32.136c1.8-13.465,8.149-50.3,10.674-61.921,1.983-9.128,3.452-17,5.415-29C76.294,381.6,85.094,343.3,86.763,339.487c1.833-4.187,4.871-16.987,6.323-26.639,1.159-7.708,1.125-7.786-2.326-5.038" transform="translate(213.336 7.735)" fill="#78c34e"/>
      <path id="Path_350" data-name="Path 350" d="M1.483,14.013C.087,20.7-.413,26.161.371,26.161c1.676,0,5.2-10.109,6.451-17.372a15.306,15.306,0,0,0,.458-3.67c0-.134-.008-.234-.011-.361s.008-.243.008-.357c0-8.782-2.985-3.829-5.794,9.612" transform="translate(328.469 53.781)" fill="#78c34e"/>
      <path id="Path_351" data-name="Path 351" d="M1.914,7.535C4.645,6.733,5.16.071,2.5,0,1.576-.026.59,1.6.208,3.684.171,3.8.131,3.91.1,4.029A3,3,0,0,0,.023,5.145c-.131,2.08.461,2.809,1.891,2.39" transform="translate(335.922 42.272)" fill="#78c34e"/>
      <path id="Path_352" data-name="Path 352" d="M0,8.192C-.015,10.564.739,12.5,1.673,12.5c1.288,0,2.755-4.194,3.253-7.694A5.683,5.683,0,0,0,5.086,3.1C5.141,1.777,4.994.723,4.542.326,2.71-1.286.031,3.353,0,8.192" transform="translate(193.297 290.041)" fill="#78c34e"/>
      <path id="Path_353" data-name="Path 353" d="M1.59,10.9c2.018,0,3.769-3.959,3.7-8.358C5.231-.782,5.173-.789,2.614,2.187A11.058,11.058,0,0,0,0,8.066C0,9.625.715,10.9,1.59,10.9" transform="translate(205.737 254.019)" fill="#78c34e"/>
      <path id="Path_354" data-name="Path 354" d="M48.79,550.486c.435-3.233.772-6.279.988-8.8a2.681,2.681,0,0,0,.11-1.359c.222-3.014.235-5.029-.021-5.255-1.826-1.607-4.31,5.291-5.46,15.161-.653,5.6-2.328,15.833-3.724,22.731-.246,1.209-.475,2.356-.7,3.491a44.215,44.215,0,0,0-1.547,7.83c-3.072,15.849-4.2,23.854-5,34.139-.1,1.235-.214,2.509-.345,3.782-.322,2.436-.629,4.883-.914,7.283a56.453,56.453,0,0,1-1.329,6.815c-.886,2.937-1.186,5.945-.665,6.686a3.406,3.406,0,0,1,.218,1.552c-.3,2.407-.6,4.754-.893,6.976-.07.34-.137.679-.214,1.024a351.024,351.024,0,0,0-6.448,42.694c-1.239,15.891-2.422,27.441-3.455,33.7-.5,3.016-1.379,11.835-1.96,19.594-.164,2.217-.384,4.517-.631,6.747-.465,3.38-.929,6.668-1.384,9.812-.236,1.273-.467,2.321-.68,3.036A52.153,52.153,0,0,0,13,779.883c-.006.452-.033.931-.076,1.425-.32,1.932-.621,3.657-.9,5.125a21.776,21.776,0,0,1-1.565,4.422c-2.233,4.3-2.472,2.9-2.752-16.067-.168-11.424-.353-22.71-.411-25.081-.1-4.174,1.484-39.724,3.056-68.582.842-15.431,3.809-49.4,5.615-64.272.628-5.174,1.326-11.875,1.553-14.894,1.426-19.069,3.159-34.717,4.577-41.314.9-4.185,1.3-8.088.89-8.674s-.026-4.213.854-8.064,2.479-16.172,3.553-27.381c2.731-28.544,3-30.858,4.128-35.271,1.368-5.36,4.258-24.387,6.428-42.325a205,205,0,0,1,4.426-24.3,77.083,77.083,0,0,0,2.7-15.676,49.66,49.66,0,0,1,1.863-11.945,155.027,155.027,0,0,0,3.572-16.46c1.934-11.711,4.818-26.177,6.214-31.165.483-1.724,2.08-10.185,3.551-18.8s3.4-17.788,4.28-20.379a160.983,160.983,0,0,0,3.761-17.253c1.184-6.9,2.45-13.951,2.811-15.676.276-1.31,1.423-7.013,2.8-13.917.686-2.873,1.34-6.135,1.826-9.11,1.887-9.061,4.385-18.787,5.787-22.421,1.521-3.946,2.767-8.715,2.767-10.6s1.535-9.088,3.41-16.013c.222-.824.465-1.729.722-2.69a37.552,37.552,0,0,0,1.946-7.359c1.549-5.914,3.234-12.448,4.488-17.435,2.062-8.192,4.5-17.362,5.42-20.379s5.29-18.185,9.712-33.7c10.057-35.3,23-70.888,32.56-90.365.421-.76.838-1.491,1.241-2.164a33.241,33.241,0,0,0,2.27-4.512c.883-1.55,1.727-2.924,2.516-4.07.556-.809,1.054-1.613,1.521-2.409a7.57,7.57,0,0,0,1.159-2.138c1.514-3.05,2.171-5.614,1.509-6.558-2.157-3.072-5.6-1.154-9.374,5.226-2.17,3.665-6.31,10.19-9.2,14.5s-5.286,9.225-5.316,10.921-1.193,5.928-2.578,9.405-4.327,11.614-6.534,18.08a185.351,185.351,0,0,1-8.167,19.886c-2.283,4.471-4.152,9.085-4.152,10.251s-1.6,4.887-3.562,8.269-3.562,7.036-3.562,8.122-1.6,4.483-3.561,7.553c-4.517,7.079-4.5,9.2.051,8.156,3.274-.754,3.514-.29,2.553,4.912-1.952,10.571-5.021,21.405-6.492,22.909a7.788,7.788,0,0,0-1.431,4.7c.014,1.766-1.59,9.032-3.562,16.145-8.185,29.517-10.585,39.237-11.711,47.42-.025.18-.054.356-.08.535-.714,3.144-1.42,6.315-2.1,9.4a2.482,2.482,0,0,1-.128.253c-1.34,1.881-7.777,32.691-12.938,61.92-2.055,11.639-4.425,22.574-5.267,24.3s-1.931,8.223-2.421,14.441-1.638,12.566-2.553,14.109c-1.986,3.343-5.178,18.766-6.436,30.807-.674,3.744-1.31,7.719-1.876,11.745a3.582,3.582,0,0,1-.369.832c-.678.958-2.642,11.972-4.363,24.474s-4.35,28.727-5.842,36.055-3.471,18.967-4.4,25.866c-6.07,45.216-9.352,71.277-11.044,87.741-2.723,26.479-2.767,26.842-4.857,40.8-1.032,6.9-2.355,21.306-2.94,32.021s-1.818,20.723-2.741,22.24S4.167,663.7,4.177,670.441s-.345,17.186-.788,23.223C2.4,707.113-.07,758.027,0,763.422c.33,24.639,2.443,50.69,4.269,52.629,1.858,1.969,2.534,2,5.054.023a7.206,7.206,0,0,0,2.856-3.4,12.927,12.927,0,0,0,1.477-3.5c.529-2.319,1.837-7.744,2.908-12.055,4.666-18.791,10.128-63.075,14.4-116.787,1-12.5,2.548-24.493,3.452-26.649s2.44-10.974,3.415-19.6,3.4-27.668,5.38-42.325,4.494-33.234,5.576-41.284" transform="translate(171.295 0)" fill="#78c34e"/>
      <path id="Path_355" data-name="Path 355" d="M1.78.191A4.092,4.092,0,0,0,0,3.511C0,4.8.8,5.426,1.78,4.893a4.09,4.09,0,0,0,1.78-3.32c0-1.294-.8-1.915-1.78-1.382" transform="translate(316.158 113.456)" fill="#78c34e"/>
      <path id="Path_356" data-name="Path 356" d="M1.78.191A4.092,4.092,0,0,0,0,3.511C0,4.8.8,5.427,1.78,4.893a4.09,4.09,0,0,0,1.78-3.32c0-1.293-.8-1.916-1.78-1.382" transform="translate(186.146 315.678)" fill="#78c34e"/>
      <path id="Path_357" data-name="Path 357" d="M1.892,51.968h0A55.5,55.5,0,0,0,.314,58.013a1.328,1.328,0,0,0-.253.736,2.889,2.889,0,0,0,.05.488c-.213,1.55-.128,2.444.315,2.314,1.281-.375,3.942-5.122,6.628-11.426a9.841,9.841,0,0,0,1.688-4.16c.748-1.94,1.474-3.959,2.149-5.993A50.358,50.358,0,0,1,15.44,29.785c2.956-4.2,7.25-15.79,8.709-23.514L25.334,0,21.713,6.02a152.893,152.893,0,0,0-8.284,17.9A158.609,158.609,0,0,1,6.917,38.842C5.9,40.515,3.639,46.421,1.892,51.968" transform="translate(223.486 159.108)" fill="#78c34e"/>
      <path id="Path_358" data-name="Path 358" d="M1.782,0C.8,0,0,1.1,0,2.444S.8,4.452,1.782,3.92a3.346,3.346,0,0,0,1.78-2.444A1.654,1.654,0,0,0,1.782,0" transform="translate(219.983 225.73)" fill="#78c34e"/>
      <path id="Path_359" data-name="Path 359" d="M4.873,15.747c.186-4.2,1-8.555,1.8-9.675a5.069,5.069,0,0,0,.395-4.488c-.841-1.928-1.611-2.057-3.6-.6A6.343,6.343,0,0,0,.977,5.468C1,6.919.677,11.811.264,16.338s-.334,8.6.171,9.041c2.114,1.86,4.12-2.493,4.437-9.631" transform="translate(237.093 417.495)" fill="#78c34e"/>
      <path id="Path_360" data-name="Path 360" d="M.945,3.738c.592-.521.654-1.873.141-3.005C.517-.518.095-.146.009,1.68-.068,3.334.353,4.258.945,3.738" transform="translate(246.83 390.87)" fill="#78c34e"/>
      <path id="Path_361" data-name="Path 361" d="M15.857,7.07C18.2,5.8,18.22,0,15.887,0c-.98,0-1.883.528-2.008,1.176s-.533,2.586-.905,4.31C9.75,20.41,6.463,36.865,5.147,44.677,4.276,49.849,2.8,58.314,1.861,63.488A127.67,127.67,0,0,0,.008,78.772h0c-.083,3.234.588,5.879,1.489,5.879,2.01,0,3.865-7.053,4.677-17.795a140.835,140.835,0,0,1,2.48-16.469c3.532-15.869,7.2-39.763,6.3-41.047-.5-.707-.087-1.729.908-2.269" transform="translate(220.125 446.764)" fill="#78c34e"/>
      <path id="Path_362" data-name="Path 362" d="M.907,28.839A3.131,3.131,0,0,0,2.519,26.47c0-.82,1.522-4.483,3.383-8.137a73.9,73.9,0,0,0,4.25-9.781,51.772,51.772,0,0,1,2.294-6.271c1.273-2.8,1.1-2.9-1.6-.969-2.764,1.98-6.011,7.47-8.219,13.313A11.317,11.317,0,0,0,.8,19.972c0,.191.007.363.018.538-.2.869-.38,1.725-.505,2.551-.58,3.807-.324,6.279.6,5.778" transform="translate(253.085 125.474)" fill="#78c34e"/>
      <path id="Path_363" data-name="Path 363" d="M.945,3.737c.592-.521.654-1.873.141-3C.517-.518.095-.145.009,1.681h0C-.068,3.333.353,4.257.945,3.737" transform="translate(248.61 383.032)" fill="#78c34e"/>
      <path id="Path_364" data-name="Path 364" d="M41.808,374.7c-.9,0-2.138,1.764-2.752,3.919-2.273,7.969-4.274,3.6-3.272-7.141.7-7.515.348-11.786-1.1-13.324a8.1,8.1,0,0,1-.621-.741c-.084-.724-.16-1.63-.228-2.71a6.708,6.708,0,0,1,.864-1.1c1.184-1.256,1.591-3.082.905-4.059-1.427-2.032-1.371-78.628.09-122.986.54-16.382,2.232-39.93,3.762-52.331.941-7.636,1.5-13.079,1.693-17a22.181,22.181,0,0,0,.059-4.039,10.176,10.176,0,0,0-1.019-4.87c-3.075-5.056-.962-63.075,3.515-96.545C46.747,29.015,54.357,8.862,59.615,8.159A6.766,6.766,0,0,1,62.551,10.7c2.4,5.86,4.188,22.256,4.317,41.069.079,11.639.3,22.574.479,24.3s-.341,9.6-1.165,17.5c-.915,8.775-.841,15.4.192,17.02,2.585,4.065,4.123-10.627,5.174-49.41.617-22.754.235-36.5-1.173-42.325-1.148-4.741-2.44-10.234-2.871-12.2-.357-1.627-2.091-3.57-4.121-4.777A7.378,7.378,0,0,0,58.493,0c-1.88,0-3.881,1.583-5.878,4.433-.091.1-.175.182-.271.283-2.8,2.952-5.6,7.87-6.229,10.927a34.4,34.4,0,0,1-2.549,7.978q-6.538,11.2-12.6,135.532c-2.342,48.071-2.762,56.054-4.044,76.813-.519,8.407-1,16.693-1.435,24.8a128,128,0,0,0-1.154,15.914c.057.877.081,2.79.079,5.541-1.261,27.217-1.978,51.554-2.037,70.31-.055,17.8-.479,40.467-.943,50.384s-1.295,27.9-1.849,39.974c-1.335,29.039-2.571,46.5-3.5,49.379-.414,1.293-1.615,11.169-2.667,21.947-3.5,35.85-8.39,67.071-11.892,75.9C-1.147,596.852-.227,602,3.651,602c3.362,0,5.9-4.552,8.02-14.4,3.259-15.123,4.876-11.289,4.2,9.96-1.139,35.935-2.472,51.919-4.513,54.083-1.452,1.54-1.386,2.71.247,4.443h0a7.925,7.925,0,0,0,1,.883s.006.018.01.023h0a3.463,3.463,0,0,0,2.636,1.317,3.319,3.319,0,0,0,.807.126c1.7,0,2.973-.232,3.935-1.878.044-.044.1-.076.139-.121a1.684,1.684,0,0,0,.239-.639c2.328-5.445,2.586-21.945,2.915-71.483.182-27.544.664-52.113,1.408-72.989.553-14.1,1.206-26.9,1.939-38.1.795-11.1,1.716-20.007,2.751-26.412.905-5.6,2.475-16.186,3.488-23.514s2.309-15.794,2.883-18.812a101.812,101.812,0,0,0,1.35-10.189c.17-2.588,1.216-5.408,2.326-6.271,2.551-1.98,4.571-13.324,2.374-13.324" transform="translate(0.001 4.66)" fill="#78c34e"/>
    </g>
  </g>
</svg>
