<svg xmlns="http://www.w3.org/2000/svg" xmlns:xlink="http://www.w3.org/1999/xlink" width="1167.394" height="1328.665" viewBox="0 0 1167.394 1328.665">
  <defs>
    <clipPath id="clip-path">
      <rect id="Rectangle_2955" data-name="Rectangle 2955" width="652.234" height="1159.172" fill="#78c34e"/>
    </clipPath>
  </defs>
  <g id="shape-right-way" transform="matrix(-0.848, -0.53, 0.53, -0.848, 553.126, 1328.665)" clip-path="url(#clip-path)">
    <path id="Path_21744" data-name="Path 21744" d="M10.373.258C6.581,3.766-1.965,46.4.41,49.96c2.614,3.912,5.717-1.04,5.717-9.119A55.343,55.343,0,0,1,8.342,25.969C11.784,15.95,13.233-2.386,10.373.258" transform="translate(134.438 466.124)" fill="#78c34e"/>
    <path id="Path_21745" data-name="Path 21745" d="M13.126,24.295c-1.714,9.169-4.555,18.642-6.314,21.054s-3.2,7.92-3.2,12.24a62.52,62.52,0,0,1-2.332,15.38C0,77.108-.387,81.488.425,82.7v0c2.189,3.276,7.807-7.388,7.939-15.065.061-3.667,1.785-12.169,3.829-18.894,5.246-17.256,10.639-40.325,10.639-45.5,0-9.873-6.6,4.441-9.706,21.054" transform="translate(177.786 642.502)" fill="#78c34e"/>
    <path id="Path_21746" data-name="Path 21746" d="M2.545,0A2.406,2.406,0,0,0,0,2.222C0,3.445.477,4.444,1.059,4.444s1.727-1,2.545-2.222S3.943,0,2.545,0" transform="translate(174.193 735.699)" fill="#78c34e"/>
    <path id="Path_21747" data-name="Path 21747" d="M7.5.192C5.331,2.362,0,32.5,0,42.587H0c0,6.914,2.839,6.366,5.142,1.54A7.283,7.283,0,0,0,6.5,40.472,35.766,35.766,0,0,0,7.6,35.466C9.991,19.018,9.931-2.242,7.5.192" transform="translate(164.584 747.842)" fill="#78c34e"/>
    <path id="Path_21748" data-name="Path 21748" d="M4.073,0C.692,0-.866,2.5.485,5.762h0C1.195,7.47,2.742,8.313,3.924,7.636,6.636,6.084,6.755,0,4.073,0" transform="translate(204.151 604.561)" fill="#78c34e"/>
    <path id="Path_21749" data-name="Path 21749" d="M0,0,0,0Z" transform="translate(117.262 1101.002)" fill="#78c34e"/>
    <path id="Path_21750" data-name="Path 21750" d="M201.383,205.081c6.461-24.754,15.782-63.482,23.8-98.908,8.481-37.455,20.67-79.8,25.369-88.138a23.55,23.55,0,0,0,3.323-11.913,3.6,3.6,0,0,0-.555-3.264c-1.061-2.957-3.531-3.943-6.761-1.4a5.514,5.514,0,0,0-1.042.83,3.766,3.766,0,0,0-.4.5c-.181.189-.352.332-.536.543-5.121,5.853-26.439,82.016-26.48,94.6a12.451,12.451,0,0,1-.251,2.181c-.415,1.54-.819,2.983-1.208,4.294a32.125,32.125,0,0,1-2.167,4.845,55.027,55.027,0,0,0-5,15.559,171.9,171.9,0,0,1-5.817,22.489,175.113,175.113,0,0,0-5.946,23.338,147.037,147.037,0,0,1-4.834,20c-3.77,11.37-8.719,31.9-16.616,68.9-3,14.057-7.716,35.064-10.482,46.676-6.458,27.119-14.2,64.76-16.169,78.64-.849,5.965-2.547,12.967-3.775,15.557s-4.354,17.215-6.949,32.495-6.411,34.286-8.485,42.232-3.784,16.949-3.8,20-1.746,12.059-3.844,20-4.045,16.949-4.326,20-2.779,17.058-5.557,31.117C104.405,609.183,101,627.34,99,640.849c-.469,2.618-.92,5.52-1.3,8.468-.207,1.624-.447,3.405-.709,5.272-1.255,7.872-2.973,17.621-4.442,25.033-2.057,10.392-4.462,25.395-5.343,33.34a216.559,216.559,0,0,1-4.888,26.673c-1.806,6.723-4.451,23.226-5.879,36.673s-3.168,27.449-3.872,31.117-1.748,10.169-2.316,14.448c-.428,3.209-.879,6.468-1.346,9.753-.017.021-.035.062-.052.077-1.132,1.163-2.059,5.252-2.059,9.086,0,2.3-.573,7.76-1.45,14.238-4.123,25.513-8.771,49.458-12.055,61.31-2.035,7.334-4.762,17.335-6.065,22.227-2.954,11.095-16.171,35.736-21.616,40.3-3.7,3.1-4.36,2.94-7.176-1.773-7.511-12.562-8.93-64.576-2.251-82.536a153.87,153.87,0,0,0,6.15-21.681c.97-5.433,2.619-10.879,3.669-12.1s2.539-9.725,3.314-18.894,2.63-24.172,4.123-33.34,3.133-23.672,3.639-32.229a323.509,323.509,0,0,1,4.564-34.451c2-10.39,4.745-27.394,6.091-37.786s3.509-26.893,4.806-36.673,2.744-21.9,3.211-26.94a83.951,83.951,0,0,1,3.619-16.913c2.571-7.21,7.649-36.515,12.236-70.615,1.069-7.946,2.649-19.449,3.511-25.562,1.487-10.559,1.389-10.836-2-5.557-1.964,3.057-4.808,14.059-6.32,24.451S62.515,571.292,60.65,578.8s-4.525,23.076-5.914,34.6-4.153,29.894-6.139,40.812c-6.711,36.863-7.952,44.266-9.47,56.525-.832,6.723-2.455,14.726-3.6,17.783S32.787,743.4,32,754.8s-2.519,25.9-3.844,32.229c-1.845,8.8-11.791,75.247-11.806,78.869,0,.379-1.178.014-2.617-.808-2.5-1.428-1.813-28.915,1.383-70.944,1.069-12.116,2.355-26.45,3.892-43.46.739-8.178,1.443-15.933,2.117-23.319.408-4.017.825-8.07,1.257-12.186,1.863-17.726,4.032-39.229,4.818-47.787,2.392-26.059,8.261-74.787,10.707-88.907.4-2.331.862-5.295,1.359-8.737.119-.792.229-1.573.333-2.351,2-14.269,4.531-35.619,6.685-56.7.562-5.5,2.113-15.792,3.448-22.869,1.2-6.332,1.739-12.712,1.346-15.177.162-.968.41-2.637.715-4.821a2.757,2.757,0,0,1,.423-.381c1.413-.808,2.567-5.879,2.567-11.272s1.551-20.086,3.448-32.653,5.782-38.852,8.639-58.413c5.22-35.76,15.5-86.7,19.431-96.275a35.086,35.086,0,0,0,2.115-11.115c0-3.28,3.84-16.467,8.529-29.3s10.11-29.21,12.048-36.386c3.649-13.528,13.41-38.4,18.87-48.076a59.92,59.92,0,0,0,4.8-12.009c1.415-5.481,9.053-17.173,14.19-22.725,2.885-2.606,4.484-2.949,6.327-1.821a11.557,11.557,0,0,1,2.184,2.629c2.046,3.385,2.53,3.131,3.935-2.046,1.588-5.858,1.258-10.078-.812-12.486a4.372,4.372,0,0,0-4.211-2.72,3.365,3.365,0,0,0-1.433.467c-3.31.265-6.787,3.274-12.47,10.595-4.8,6.179-8.723,12.083-8.723,13.12s-2.831,6.787-6.294,12.776c-9.248,16-14.19,29.67-27.841,77.012-5,17.359-9.133,22.415-9.071,11.113.019-3.361,2.144-16.613,4.728-29.449,4.313-21.443,7.895-35.886,17.913-72.237,4.745-17.206,4.741-21.629-.015-20.721-6.761,1.29-17.884,27.432-17.863,41.991.007,4.363-1.564,12.863-3.488,18.892S84.559,175.8,82.54,186.189s-6.493,28.4-9.939,40.008-7.066,26.118-8.044,32.231-2.9,13.613-4.268,16.668a124.814,124.814,0,0,0-9.116,32.229c-.9,6.113-2.746,12.35-4.092,13.864-2.951,3.316-.54,10.326,2.878,8.371,1.331-.761,2.42-3.765,2.42-6.676,0-5.788,11.264-36.551,14.578-39.817,2.245-2.21,2.195-1.76-5.007,44.263C53.906,378.736,50.334,403.9,47.6,428.46c-1.428,12.836-4.721,38.342-7.318,56.678-11.264,79.575-19.617,143.991-21.616,166.7-1.186,13.447-3.846,39.953-5.916,58.9s-4.194,40.952-4.725,48.9S5.235,795.59,3,821.873C1.581,838.6.756,855.453.445,871.751a298,298,0,0,0,.162,35.48C1.984,953.9,7.964,990,16.718,994.388c1.793,1.073,3.972.765,6.746-1,5.43-2.47,12.1-7.494,12.1-9.963,0-.716,3.172-5.651,7.05-10.967a73.773,73.773,0,0,0,9.924-20.672c1.58-6.053,4.354-12.471,6.162-14.26,4.127-4.084,4.207-1.3.9,31.039-3.066,29.923-4.449,89.839-3.3,115.44.076,6.124.294,9.937.687,10.3a1.865,1.865,0,0,0,.251.14c.2.944.421,1.5.665,1.595,5.168,1.943,6.618,1.5,7.982-2.454.739-2.139,2.286-5.889,3.436-8.335,6.7-14.247,12.738-47.229,15.049-82.238.24-3.667,1.184-7.724,2.092-9.014s.752-6.046-.35-10.569c-1.145-4.7-1.083-8.752.147-9.455,1.184-.677,2.154-6.537,2.154-13.02a137.53,137.53,0,0,1,2.206-22.652c1.212-5.972,2.924-22.344,3.8-36.379.285-4.547.588-8.871.882-12.672.627-5.264,1.27-10.552,1.915-15.768.821-4.013,2.507-14.34,4.231-26.058,2.157-14.669,4.319-29.108,4.8-32.086,2.165-13.329-4.5-15.046-7.01-1.809-2.818,14.839-3.118,16.763-7,45.008-2.016,14.67-4.252,29.721-4.968,33.449-1.2,6.246-5.337,49.187-7.269,75.462-.326,4.439-.946,10.385-1.556,15.191-1.452,2.343-2.109,5.533-1.106,7.632-.89,5.931-2.334,16.191-3.505,24.966-3.6,26.9-4.713,31.339-7.485,29.754-1.577-.9-1.9-9.816-.9-25.024,2.219-33.809,4.211-71.6,5-94.748a322.845,322.845,0,0,1,3.343-35.562c1.463-8.557,3.69-25.062,4.946-36.675.4-3.717.817-7.434,1.24-11.12.411-3.223.825-6.556,1.243-10.051.607-5.081,1.245-10.318,1.9-15.628,1.979-15.127,3.905-27.97,5.365-35.437,1.193-6.115,2.816-17.616,3.6-25.562s4.1-30.45,7.347-50.01c9.382-56.42,17.789-106.02,19.4-114.467.817-4.277,1.785-9.78,2.15-12.224s3.578-18.448,7.137-35.562,7.292-37.119,8.295-44.454,3.574-20.337,5.709-28.895,6.668-30.061,10.075-47.787,8.2-40.732,10.65-51.122,6.733-29.394,9.51-42.23c7.986-36.909,21.962-96.319,29.021-123.359" transform="translate(59.362 4.957)" fill="#78c34e"/>
    <path id="Path_21751" data-name="Path 21751" d="M5.847,0C2.946,0-1.162,11.41.309,15.38v0c.931,2.51,1.837,2.308,4.438-.98C8.421,9.748,9.166,0,5.847,0" transform="translate(214.222 557.884)" fill="#78c34e"/>
    <path id="Path_21752" data-name="Path 21752" d="M239.635,332.731c-.119-27.021-.845-33.6-2.126-41.824-2.93-33.928-8.7-53.235-19.535-76.03-3.552-7.476-5.478-9.87-9.246-10.416a4.456,4.456,0,0,0-1.225-.2c-.3,0-.6.036-.9.06h-.028c-.128,0-.27.024-.4.029-.071.007-.14.005-.21.016a19.545,19.545,0,0,0-11.113,5.223,37.471,37.471,0,0,0-5.073,7.5,38.951,38.951,0,0,0-2.3,4.3c-5.64,11.024-12.105,26.819-14.87,37.386-1.279,4.887-3.5,12.889-4.933,17.779a106.453,106.453,0,0,0-3.317,16.67c-2.059,22.521-4.03,35.755-7.122,47.787-1.886,7.336-3.28,16.338-3.1,20,.562,11.41-3.163,59.556-5.33,68.9-1.383,5.958-1.78-1.514-1.2-22.661.475-17.352,1.385-32.355,2.025-33.34s1.826-20.346,2.638-43.026,2.481-51.187,3.712-63.348c2.083-20.589,3.215-44.178,6.177-128.8.1-2.846.229-5.753.376-8.657.413-7.009.849-13.453,1.283-19.02A184.738,184.738,0,0,1,166.075,92.5a78.393,78.393,0,0,0,1.409-8.28c.465-3.631.13-5.808-1.022-6.876a2.529,2.529,0,0,0-.274-.177c-.035-.034-.065-.072-.1-.105-3.913-3.622-9.082,3.342-13.619,18.346-2.035,6.725-6.34,20.728-9.572,31.118-11.513,37.026-32.5,138.642-43.388,210.043-2.05,13.447-4.793,30.949-6.1,38.9s-3.349,21.448-4.546,30.007-3.814,27.06-5.815,41.119c-5.143,36.1-8.676,66.29-10.927,93.35-1.069,12.836-2.554,24.84-3.3,26.673s-2.491,24.339-3.868,50.01S61.406,671.3,60.133,681.08s-3.922,31.783-5.886,48.9c-9.118,79.453-10.652,90.087-17.971,124.468A205.4,205.4,0,0,1,24.92,888.9c-2.383,5.6-3.837.229-4.652-20.751-.38-14.1-.668-34.444-.845-56.654-.013-4.036-.024-8.223-.03-12.612C19.287,715.316,21.957,637.3,26.54,589.95c1.3-13.446,3.423-38.952,4.713-56.678,2.383-32.729,3.844-50.014,5.912-70.014.633-6.111,2.362-24.116,3.844-40.008s3.168-33.352,3.753-38.8c2.519-23.517,5.908-59.541,9.121-96.929,1.9-22.086,4.1-42.59,4.892-45.565S61.2,221.043,62.4,202.094c6.651-104.8,10.006-141.986,14.605-161.9,1.953-8.454,3.969-18.022,5.238-24.735,1.249-4.887,1.787-8.194,1.6-10.263.512-5.043-.3-5.6-3.645-5.006-3.09.548-5.439,4-7.342,10.781-1.539,5.488-5.138,17.978-8,27.758S58.249,61.681,56.516,68s-3.948,12.683-4.922,14.142c-1.729,2.589-7.39,20.873-14.773,47.716-1.646,5.98-3.39,14.026-4.341,19.791-1.013,4.375-2.076,9.2-3.217,14.589a4.178,4.178,0,0,1-.676,1.071c-1.191,1.161-2.169,4.425-2.169,7.253a21.185,21.185,0,0,1-2.249,9c-1.238,2.122-4.08,11.859-6.316,21.64s-5.581,22.16-7.433,27.511c-3.189,9.207-6.713,25.93-8.917,41.956A33.568,33.568,0,0,0,0,281.093a11.313,11.313,0,0,0,.531,3.882c.5,6.3,3.842,4.632,6.765-5.641,1.48-5.2,3.734-12.948,5.011-17.227s3.831-15.78,5.676-25.562,6.173-27.281,9.618-38.9c8.373-28.235,15.707-56.914,17.323-67.745.728-4.863,2.751-10.864,4.5-13.335s3.915-8.766,4.816-13.988c2.375-13.768,5.812-13.816,5.817-.081.013,20.692-7.338,121.209-13.135,179.61-.24,2.427-.5,5.123-.787,8.018-.326,2.718-.644,5.986-.916,9.5C43.407,318.476,41.19,342.247,39.6,359.9c-2.144,23.837-4.87,47.342-6.055,52.233s-2.8,20.894-3.583,35.562-2.865,40.676-4.626,57.789-2.757,31.8-2.215,32.641a4.379,4.379,0,0,1,.194,1.729c-.086,1.452-.162,2.827-.229,4.113-.261,2.98-.735,6.8-1.372,10.827-1.316,8.332-4.3,43.653-6.638,78.493-4.1,61.248-5.519,182.1-3.857,243.423.292,17.617.817,29.763,1.616,32.682h0c.087.324.2.634.311.944.309,2.1.644,3.428,1.009,3.832l0,0c3.127,3.486,3.662,3.473,8.153-.214,4.732-3.884,14.537-22.012,18.967-35.065,5.034-14.837,14.6-70.659,18.658-108.911,1.556-14.668,3.762-33.673,4.9-42.23s3.846-38.063,6.011-65.568c.363-4.587.741-9.263,1.128-13.986.017-.172.035-.355.054-.524.622-6.127,1.327-14.584,1.96-23.265,6.746-77.487,15.933-163.293,20.67-191.159,1.975-11.613,4.793-31.616,6.262-44.454s3.647-26.838,4.834-31.117,2.841-15.613,3.673-25.186,3.595-27.575,6.137-40.008,5.724-29.6,7.066-38.16,4.5-24.061,7.031-34.451c5.287-21.757,9.847-41.184,12.906-54.889.339-1.24.64-2.606.886-4.007,1.145-5.212,2.02-9.4,2.55-12.231,1.029-5.5,2.921-9.737,4.2-9.41,2.392.608,2.232,71.049-.233,102.763-3.937,50.644-6.316,86.474-6.2,93.352.073,4.279-.914,17.282-2.193,28.895s-3.388,37.619-4.685,57.789-3.4,48.677-4.678,63.346c-4.278,49.179-5.821,108.115-5.966,227.824-.151,122.713,1.3,167.811,5.508,171.709,2.029,1.876,4.875-.708,7.5-5.7a19.476,19.476,0,0,0,1.2-2.219,22.717,22.717,0,0,0,.836-2.244,72.459,72.459,0,0,0,4.28-16.71c.266-2,.534-8.032.791-17.2a676.209,676.209,0,0,0,1.6-76.576c-.106-2.709-.2-5.584-.3-8.526.177-19.883.313-41.455.387-63.647.5-148.876.9-168.062,4-196.705,1.554-14.348,5.579-61.224,7.632-88.908,5.812-78.309,16.873-138.6,31.4-171.144,7.42-16.625,10.268-20.506,13.632-18.582,6.515,3.724,15.514,31.337,22.353,68.591,3.978,21.674,4.587,151.759,1.137,243.383-1.266,33.618-2.865,117.916-3.554,187.332-1.111,112.3-.841,126.352,2.45,127.522a10.256,10.256,0,0,0,1.143.327c.519.577.994.694,1.43.228a3.453,3.453,0,0,0,2.388-.41c1.633-1.509,2.924-65.463,4.5-222.439.117-11.537.242-22.735.376-33.414q.117-8.922.229-17.456c.622-44.69,1.335-76.5,1.795-77.193.622-.932,1.191-43.584,1.266-94.785.037-25.96-.117-47.5-.592-65.811M138.977,815.651c-.145,2.713-.324,4.346-.519,4.346-.938,0-3.131-18.081-3.768-29.489.024-3.105.084-6.165.173-9.1.421-2.17,1.18-3.645,2.051-3.645,1.029,0,1.819,4.417,2.182,11.57.082,10.793.03,20.337-.119,26.314M135.5,768.565c.134-1.821.281-3.445.437-4.84q.422-.713.985-1.518a10.943,10.943,0,0,1,.988-1.256c.225,1.547.424,3.777.6,6.632-.421.794-.972,1.294-1.584,1.294a2.988,2.988,0,0,1-1.422-.312m1.418-19.693a2.32,2.32,0,0,1-2.362-2.041c.017-.231.041-.453.069-.673a2.385,2.385,0,0,1,4.6.038c.024.2.047.41.063.622a2.322,2.322,0,0,1-2.366,2.055" transform="translate(412.004 153.531)" fill="#78c34e"/>
    <path id="Path_21753" data-name="Path 21753" d="M4.884,9.94C7.272,8.574,4.863,0,2.092,0-.345,0-.8,7.439,1.505,9.572l0,0a3.053,3.053,0,0,0,3.381.372" transform="translate(58.925 508.984)" fill="#78c34e"/>
    <path id="Path_21754" data-name="Path 21754" d="M7.207,2.778C7.228,1.251,5.623,0,3.64,0,.016,0-1.376,6.842,1.675,9.667,3.551,11.4,7.153,6.916,7.207,2.778" transform="translate(61.259 495.651)" fill="#78c34e"/>
    <path id="Path_21755" data-name="Path 21755" d="M4.078,7.588C6.805,6.027,6.744,0,4,0,1.349,0-1.235,5.767.64,7.5v0a3.144,3.144,0,0,0,3.438.088" transform="translate(67.162 477.869)" fill="#78c34e"/>
    <path id="Path_21756" data-name="Path 21756" d="M22.772,26.022c.192-9.046,1.383-18.238,2.647-20.423,1.493-2.58,1.452-4.463-.114-5.357-3.139-1.8-6.642,6.619-8.174,18.682a19.214,19.214,0,0,0-.774,8.631c-.639,7.918-2,20.754-3.245,30.474-1.413,11-3.431,28.006-4.484,37.786C7.66,104.8,5.881,119.863,4.5,130.785c-.529,2.244-1.059,5.81-1.7,11.1v0c-.289,2.368-.449,4.584-.491,6.49C1.484,155.2.741,161.554.346,165.273v0c-.681,6.418-.326,11.668.789,11.668,3.019,0,4.544-7.653,6.2-31.117.821-11.615,2.511-24.773,3.755-29.243s2.831-14.973,3.528-23.338,2.735-23.212,4.533-32.994a259.877,259.877,0,0,0,3.617-34.229" transform="translate(55.209 276.476)" fill="#78c34e"/>
    <path id="Path_21757" data-name="Path 21757" d="M.682,13.676c1.044,1.562,2.269,1.34,3.639-.658C7.044,9.043,7.043,0,4.319,0,1.5,0-1.336,10.657.682,13.676" transform="translate(81.258 222.26)" fill="#78c34e"/>
    <path id="Path_21758" data-name="Path 21758" d="M7.156,24.128c.575-25.24.5-25.851-2.662-22.923C1.421,4.049-1.489,37.579.849,43.216c3.192,7.7,5.882-.436,6.307-19.088" transform="translate(83.016 173.683)" fill="#78c34e"/>
    <path id="Path_21759" data-name="Path 21759" d="M0,6.113c.03,4.763.551,5.376,2.366,2.778C5.4,4.542,5.4,0,2.366,0,1.045,0-.02,2.752,0,6.113" transform="translate(54.127 462.308)" fill="#78c34e"/>
    <path id="Path_21760" data-name="Path 21760" d="M14.486,40.108c-1.078,1.235-2.547,6.747-3.261,12.247C9.015,69.337,5.391,86.514,2.634,93.064A37,37,0,0,0,0,104.917v0c0,7.1,5.264,5.824,6.409-1.561a146.049,146.049,0,0,1,4.443-16.551c1.981-6.113,5.212-18.432,7.184-27.375s4.538-17.947,5.706-20,2.915-8.246,3.881-13.745,2.776-11.79,4.015-13.976C34.319,6.988,31.763-2.373,28.6.557a14.357,14.357,0,0,0-1.915,3.788c-1.556,1.71-2.556,3.946-2.336,5.515a5.978,5.978,0,0,1,.041.8c-.966,2.885-1.983,6.158-2.941,9.548-2.749,9.711-5.881,18.667-6.958,19.9" transform="translate(75.71 338.829)" fill="#78c34e"/>
    <path id="Path_21761" data-name="Path 21761" d="M4.806,2.353c0-1.908-1.083-2.847-2.4-2.091A4.748,4.748,0,0,0,0,3.727,2.272,2.272,0,0,0,2.405,5.818c1.318,0,2.4-1.56,2.4-3.466" transform="translate(56.491 525.393)" fill="#78c34e"/>
    <path id="Path_21762" data-name="Path 21762" d="M.434,26.173c2.42,7.055,7.392.756,9.073-11.494S7.779-4.8,4.328,3.669C3.094,6.7,2.549,9.9,3.114,10.793s-.16,3.679-1.616,6.2A12.755,12.755,0,0,0,.434,26.173" transform="translate(76.59 240.873)" fill="#78c34e"/>
    <path id="Path_21763" data-name="Path 21763" d="M0,0V0Z" transform="translate(81.94 235.935)" fill="#78c34e"/>
    <path id="Path_21764" data-name="Path 21764" d="M6.377.363C5.644-.734,3.672.74,2,3.643S-.456,9.811.277,10.91s2.7-.377,4.382-3.278S7.111,1.46,6.377.363" transform="translate(226.115 523.352)" fill="#78c34e"/>
    <path id="Path_21765" data-name="Path 21765" d="M1.669,44.452c1.432,0,3.168-4.251,3.861-9.446C7.315,21.621,8.828,13.158,10.7,6.111,11.6,2.749,11.342,0,10.132,0,6.621,0,2.151,13.883.547,29.782v0c-1,9.9-.633,14.672,1.122,14.672" transform="translate(145.608 417.856)" fill="#78c34e"/>
    <path id="Path_21766" data-name="Path 21766" d="M6.575,6.91C6.619-5.189,2.7-.507.622,14.024-.406,21.193-.145,25.692,1.3,25.692c3.053,0,5.236-7.768,5.277-18.782" transform="translate(155.576 387.719)" fill="#78c34e"/>
    <path id="Path_21767" data-name="Path 21767" d="M.609,129.925c-.03.026-.058.041-.088.069-.73.677-.678,2.649.058,4.615.313,8.411,2.787,9.272,4.695-2.429.616-3.774,1.793-10.524,3.133-18.005a6.4,6.4,0,0,0,.4-2.25c1.2-6.678,2.5-13.749,3.615-19.707a19.32,19.32,0,0,1,3.595-7.925c1.465-1.635,3.351-8.907,4.188-16.16a224.7,224.7,0,0,1,4.7-25.413C28.861,27.5,30.408.851,27.389.005c-1.24-.344-5.263,16.376-8.939,37.157S10.8,76.948,9.619,79.391s-1.629,7.7-1,11.675c.679,4.284-.287,9.264-2.373,12.224-1.936,2.749-4.285,12.249-5.223,21.111-.21,2-.344,3.841-.417,5.524" transform="translate(186.591 123.975)" fill="#78c34e"/>
    <path id="Path_21768" data-name="Path 21768" d="M13.319,4.01c-.57-5.522-.594-5.517-3.874,1.113A37.926,37.926,0,0,0,6.039,18.682,51.932,51.932,0,0,1,3.716,32.018a96.528,96.528,0,0,0-3.321,17.1C-1.617,68.517,4.49,59.25,9,36.057,14.235,9.178,14.019,10.785,13.319,4.01" transform="translate(170.667 276.039)" fill="#78c34e"/>
    <path id="Path_21769" data-name="Path 21769" d="M4.6,1.971C3.469-.743,2.916-.687,1.085,2.343-.112,4.321-.356,7.037.541,8.38,2.816,11.786,6.349,6.2,4.6,1.971" transform="translate(163.014 360.831)" fill="#78c34e"/>
    <path id="Path_21770" data-name="Path 21770" d="M3.6,10.863C5.585,8.244,6.553,4.527,5.754,2.6,3.494-2.845,0,.791,0,8.591H0c0,6.883.074,6.931,3.6,2.272" transform="translate(166.987 340.988)" fill="#78c34e"/>
    <path id="Path_21771" data-name="Path 21771" d="M6.536,21.671c1.638-7.639,3.479-15.642,4.093-17.779S10.732,0,9.492,0C7.195,0,3.2,12.273.626,27.229c-2.42,14.074,2.742,9.22,5.91-5.558" transform="translate(431.806 117.794)" fill="#78c34e"/>
    <path id="Path_21772" data-name="Path 21772" d="M122.411,436.437c-2.792,2.339-5.339,8.242-6.225,14.433-.827,5.762-3.585,18.479-6.13,28.257s-6.381,25.784-8.526,35.564-4.9,21.783-6.123,26.671S92.651,553.753,92,558.032c-1.162,7.662-6.208,36.072-10.659,60.013-1.249,6.725-4.034,18.511-6.186,26.2s-3.282,14.922-2.507,16.081c.3.451.326,2.3.125,5.037-.845,5.724-1.72,12-2.6,18.649-3.3,18.637-9.335,60.681-12.372,86.289-.579,4.892-2.58,19.393-4.445,32.229s-4.021,31.84-4.79,42.23c-.086,1.142-.181,2.342-.289,3.595-.3,2.944-.579,5.834-.828,8.573-.026.276-.052.563-.078.842-1.849,17.545-5.41,44.381-11.791,89.233-2.506,17.623-14.827,73.125-19.377,87.3-.51,1.588-.992,2.894-1.446,3.955a11.238,11.238,0,0,1-2.314,3.283c-2.036.411-2.872-8.387-2.081-25.129,1.054-22.3,5-80.2,7-102.746.488-5.5,1.545-21.5,2.349-35.562s2.511-31.561,3.79-38.9c2.252-12.922,5.877-50.906,9.436-98.909,1.761-23.753,7.96-72.552,12.28-96.686.646-3.607,1.465-8.948,2.269-14.681,1.23-2.32,1.724-5.343,1.083-6.892a1.824,1.824,0,0,1-.1-.381c.469-3.593.9-7.124,1.26-10.276,1.167-10.39,3.258-23.393,4.641-28.895a113.176,113.176,0,0,0,2.591-22.227c.041-6.723,1.713-15.134,3.717-18.689,2.167-3.846,4.051-14.657,4.646-26.673.551-11.115,2.712-26.318,4.8-33.786s4.79-19.97,6-27.784c2.342-15.1,8.414-46.81,16.977-88.663,2.876-14.057,6.035-31.594,7.02-38.969s3.036-15.561,4.559-18.191a24.006,24.006,0,0,0,2.766-10.128c0-2.942,2.152-13.132,4.782-22.647,8-28.953,12.158-55.3,10.493-66.531-1.394-9.415-1.037-10.609,3.516-11.709,5.076-1.228,9.4-8.74,6.554-11.375-.834-.772-2.141.8-2.9,3.5s-2.262,4.9-3.332,4.9c-3.528,0-3.907-7.65-.773-15.559,1.694-4.279,3.643-13.28,4.332-20a168.673,168.673,0,0,1,3.6-21.114c1.294-4.89,4.581-18.892,7.31-31.117,8.611-38.6,14.587-57.417,23.018-72.5,4.667-8.351,6.34-8.1,5.41.823-.547,5.248.231,7.222,2.848,7.222q3.6,0,4.22-7.779c.339-4.279,2.442-13,4.676-19.381s3.312-12.3,2.4-13.143c-.043-.038-.1-.057-.151-.091-.021-.045-.026-.126-.054-.153-1.335-1.233-3.57-.794-6.173.754-3.814,1.521-7.984,4.415-9.012,6.99-.856,2.15-2.47,4.48-3.587,5.179-1.878,1.178-6.807,12.021-14.071,30.956-1.642,4.279-3.816,9.78-4.831,12.226s-4.579,13.947-7.924,25.56c-5.41,18.78-8.542,33.612-18.31,86.684-1.461,7.946-3.757,19.948-5.1,26.673s-2.9,16.725-3.466,22.227c-1.705,16.641-2.98,24.538-7.895,48.9-8.513,42.189-11.579,58.59-12.241,66.152-.7,3.436-1.4,6.793-2.128,10.176a2.034,2.034,0,0,1-.423.353c-1.322.756-2.4,3.495-2.4,6.087a46.078,46.078,0,0,1-2.262,11.537c-2.357,7.112-4.812,19.256-10.983,54.344-2.018,11.465-4.443,21.965-5.393,23.338a7.159,7.159,0,0,0-.625,1.455,14.094,14.094,0,0,0-1.627,5.658c-1.063,4.146-2.306,9.637-3.446,15.382-2.185,11-5.78,28.824-7.99,39.607-3.254,15.871-3.44,20.244-.983,22.985,1.668,1.862,2.712,7.042,2.316,11.516s-.879,10.633-1.076,13.689c-.274,4.241-1.638,5.512-5.763,5.379-3.771-.124-5.406,1.1-5.406,4.036A19.917,19.917,0,0,1,40.2,566.91c-3.133,5.419-.655,11.218,4.071,9.539,3.174-1.126,3.444.6,1.955,12.469-.949,7.579-2.087,17.48-2.528,22.008s-1.34,11.231-2,14.9c-1.242,6.924-4.272,26.735-8.952,58.55-1.5,10.2-3.083,23.7-3.513,30.006-.248,3.615-1,10.312-1.975,17.783a16.8,16.8,0,0,0-1.463,6.673c0,1.421-.141,3.784-.391,6.661-.184,1.244-.369,2.479-.555,3.684-1.979,12.836-4.76,37.342-6.176,54.455s-3.784,42.621-5.263,56.68-2.865,28.56-3.088,32.228A122.9,122.9,0,0,1,8.3,906.993c-3.6,17.3-10.209,151-7.777,157.254v0a4.978,4.978,0,0,0,.871,1.445,4.477,4.477,0,0,0,.164.72h0c.845,2.344,7.494-.267,11.13-4.272a58.539,58.539,0,0,0,8.578-10.673c3.939-6.111,10-25.48,13.9-44.452,6.917-33.6,12.267-65.745,14.609-87.8,1.428-13.446,3.634-29.951,4.9-36.673,2.033-10.8,6.35-48.395,11.863-103.354.983-9.78,3.611-30.782,5.843-46.676s5.013-36.4,6.178-45.565c2.427-19.092,10.99-71.318,14.4-87.8,2.675-12.943,4.656-24.1,7.3-41.119,2.638-16.965,14.507-71.278,16.757-76.681,2.472-5.937,6.569-24.085,8.528-37.771,1.564-10.929,1.517-11.039-3.137-7.143" transform="translate(287.735 10.967)" fill="#78c34e"/>
    <path id="Path_21773" data-name="Path 21773" d="M2,19.868C.117,29.343-.557,37.093.5,37.093c2.26,0,7.009-14.333,8.7-24.631a22.756,22.756,0,0,0,.618-5.2c0-.189-.011-.332-.015-.512s.011-.344.011-.506C9.815-6.212,5.789.81,2,19.868" transform="translate(443.019 76.255)" fill="#78c34e"/>
    <path id="Path_21774" data-name="Path 21774" d="M2.581,10.683C6.265,9.546,6.959.1,3.367,0,2.125-.037.8,2.269.28,5.223c-.05.162-.1.32-.143.489A4.47,4.47,0,0,0,.031,7.3c-.177,2.949.622,3.982,2.55,3.388" transform="translate(453.071 59.937)" fill="#78c34e"/>
    <path id="Path_21775" data-name="Path 21775" d="M0,11.615c-.021,3.362,1,6.113,2.256,6.113,1.737,0,3.716-5.946,4.388-10.908A8.457,8.457,0,0,0,6.86,4.39c.074-1.871-.125-3.364-.733-3.927C3.654-1.823.041,4.755,0,11.615" transform="translate(260.707 411.241)" fill="#78c34e"/>
    <path id="Path_21776" data-name="Path 21776" d="M2.144,15.456c2.722,0,5.084-5.614,4.985-11.851-.074-4.714-.153-4.725-3.6-.5C1.586,5.474,0,9.226,0,11.436s.964,4.02,2.144,4.02" transform="translate(277.485 360.167)" fill="#78c34e"/>
    <path id="Path_21777" data-name="Path 21777" d="M65.8,780.521c.586-4.584,1.041-8.9,1.333-12.483a3.986,3.986,0,0,0,.149-1.927c.3-4.273.316-7.131-.028-7.451-2.463-2.279-5.814,7.5-7.364,21.5-.88,7.946-3.14,22.449-5.022,32.229-.331,1.714-.64,3.34-.947,4.95a65.554,65.554,0,0,0-2.087,11.1c-4.144,22.471-5.67,33.823-6.75,48.405-.13,1.752-.289,3.557-.465,5.362-.434,3.454-.849,6.924-1.232,10.326a83.678,83.678,0,0,1-1.793,9.663c-1.2,4.165-1.6,8.43-.9,9.481a5.052,5.052,0,0,1,.294,2.2c-.4,3.412-.81,6.74-1.2,9.891-.095.482-.184.963-.289,1.452a521.514,521.514,0,0,0-8.7,60.535c-1.672,22.532-3.267,38.907-4.659,47.789-.67,4.277-1.86,16.781-2.643,27.782-.222,3.144-.517,6.4-.851,9.567-.627,4.792-1.253,9.455-1.867,13.912-.318,1.805-.629,3.292-.918,4.3a77.475,77.475,0,0,0-2.336,16.67c-.007.641-.045,1.319-.1,2.02-.432,2.739-.838,5.185-1.208,7.267a31.928,31.928,0,0,1-2.111,6.27c-3.012,6.091-3.334,4.112-3.712-22.781-.227-16.2-.477-32.2-.555-35.562-.136-5.918,2-56.323,4.121-97.241C15.1,943.87,19.1,895.7,21.536,874.62c.847-7.336,1.789-16.837,2.094-21.118,1.923-27.038,4.261-49.225,6.173-58.578,1.214-5.934,1.754-11.468,1.2-12.3s-.035-5.973,1.152-11.434,3.343-22.93,4.792-38.823C40.632,691.9,41,688.616,42.515,682.358c1.845-7.6,5.743-34.577,8.669-60.011,1.338-11.615,4.023-27.117,5.97-34.451s3.582-17.338,3.637-22.227A73.743,73.743,0,0,1,63.3,548.732a229.554,229.554,0,0,0,4.818-23.338c2.608-16.6,6.5-37.116,8.381-44.189.652-2.444,2.805-14.441,4.79-26.659s4.581-25.22,5.773-28.895,3.475-14.681,5.073-24.463,3.3-19.781,3.792-22.227c.372-1.857,1.919-9.944,3.779-19.733.925-4.074,1.808-8.7,2.463-12.917,2.545-12.848,5.914-26.638,7.805-31.79,2.051-5.595,3.732-12.357,3.732-15.025s2.07-12.886,4.6-22.7c.3-1.168.627-2.451.974-3.814a55.422,55.422,0,0,0,2.625-10.435c2.089-8.385,4.362-17.65,6.054-24.721,2.781-11.615,6.07-24.618,7.31-28.895s7.135-25.784,13.1-47.788c13.565-50.045,31.018-100.51,43.915-128.127.568-1.078,1.13-2.113,1.673-3.068a48.133,48.133,0,0,0,3.062-6.4c1.191-2.2,2.329-4.146,3.394-5.77.75-1.147,1.422-2.287,2.051-3.416a10.914,10.914,0,0,0,1.564-3.032c2.042-4.325,2.928-7.96,2.035-9.3-2.91-4.356-7.55-1.636-12.643,7.41-2.926,5.2-8.511,14.448-12.411,20.56s-7.13,13.081-7.171,15.485-1.608,8.406-3.477,13.335-5.836,16.467-8.812,25.636a270.555,270.555,0,0,1-11.015,28.2c-3.079,6.339-5.6,12.881-5.6,14.534s-2.161,6.93-4.8,11.725-4.8,9.977-4.8,11.516-2.161,6.356-4.8,10.709c-6.093,10.037-6.074,13.051.069,11.565,4.416-1.07,4.739-.412,3.444,6.964-2.632,14.989-6.772,30.35-8.757,32.482-1.08,1.163-1.943,4.163-1.93,6.669s-2.145,12.807-4.8,22.892c-11.039,41.851-14.276,55.633-15.795,67.235-.034.255-.073.5-.108.758-.962,4.458-1.915,8.953-2.826,13.332a3.589,3.589,0,0,1-.173.358c-1.808,2.666-10.49,46.352-17.45,87.795-2.772,16.5-5.968,32.007-7.1,34.451s-2.6,11.659-3.265,20.475-2.21,17.817-3.444,20c-2.679,4.74-6.984,26.607-8.68,43.68-.908,5.309-1.767,10.945-2.53,16.653a5.211,5.211,0,0,1-.5,1.18c-.914,1.359-3.563,16.975-5.884,34.7s-5.867,40.732-7.88,51.122-4.682,26.893-5.931,36.675c-8.187,64.111-12.614,101.061-14.9,124.406-3.673,37.543-3.732,38.058-6.551,57.853-1.392,9.779-3.176,30.209-3.965,45.4s-2.452,29.382-3.7,31.533S5.62,941.051,5.633,950.6,5.168,974.97,4.57,983.529C3.239,1002.6-.095,1074.787,0,1082.437c.445,34.935,3.295,71.872,5.758,74.621,2.506,2.792,3.418,2.832,6.817.033,1.411-.756,2.707-2.37,3.851-4.814a18.85,18.85,0,0,0,1.992-4.959c.713-3.288,2.478-10.979,3.922-17.092,6.294-26.643,13.66-89.433,19.425-165.589,1.342-17.724,3.436-34.729,4.656-37.784s3.291-15.559,4.605-27.785,4.579-39.229,7.256-60.011,6.061-47.122,7.521-58.535" transform="translate(231.033 0.001)" fill="#78c34e"/>
    <path id="Path_21778" data-name="Path 21778" d="M2.4.27A5.883,5.883,0,0,0,0,4.978c0,1.834,1.08,2.716,2.4,1.96A5.88,5.88,0,0,0,4.8,2.23C4.8.4,3.723-.484,2.4.27" transform="translate(426.414 160.866)" fill="#78c34e"/>
    <path id="Path_21779" data-name="Path 21779" d="M2.4.271A5.883,5.883,0,0,0,0,4.978c0,1.834,1.08,2.716,2.4,1.96A5.88,5.88,0,0,0,4.8,2.231C4.8.4,3.723-.485,2.4.271" transform="translate(251.063 447.591)" fill="#78c34e"/>
    <path id="Path_21780" data-name="Path 21780" d="M2.552,73.684v0A81.977,81.977,0,0,0,.424,82.255,1.947,1.947,0,0,0,.083,83.3a4.3,4.3,0,0,0,.067.692c-.287,2.2-.173,3.466.424,3.281,1.727-.532,5.316-7.262,8.939-16.2a14.353,14.353,0,0,0,2.277-5.9c1.009-2.751,1.988-5.614,2.9-8.5,1.737-5.5,4.5-12,6.136-14.446,3.987-5.955,9.779-22.389,11.746-33.34L34.17,0,29.285,8.535C26.6,13.229,21.569,24.65,18.112,33.916S10.7,52.7,9.33,55.073,4.908,65.819,2.552,73.684" transform="translate(301.424 225.595)" fill="#78c34e"/>
    <path id="Path_21781" data-name="Path 21781" d="M2.4,0C1.082,0,0,1.559,0,3.466S1.082,6.313,2.4,5.558A4.742,4.742,0,0,0,4.8,2.093,2.269,2.269,0,0,0,2.4,0" transform="translate(296.7 320.057)" fill="#78c34e"/>
    <path id="Path_21782" data-name="Path 21782" d="M6.572,22.327C6.823,16.369,7.918,10.2,9.005,8.61a7.51,7.51,0,0,0,.532-6.363C8.4-.487,7.365-.669,4.681,1.391A9.123,9.123,0,0,0,1.317,7.754c.028,2.057-.4,8.993-.961,15.411s-.45,12.188.231,12.819c2.852,2.637,5.557-3.535,5.985-13.656" transform="translate(319.776 591.955)" fill="#78c34e"/>
    <path id="Path_21783" data-name="Path 21783" d="M1.274,5.3c.8-.739.882-2.656.19-4.261C.7-.734.128-.207.012,2.382-.092,4.727.476,6.037,1.274,5.3" transform="translate(332.909 554.204)" fill="#78c34e"/>
    <path id="Path_21784" data-name="Path 21784" d="M21.387,10.025C24.542,8.221,24.574,0,21.428,0c-1.322,0-2.539.749-2.708,1.667S18,5.335,17.5,7.779C13.15,28.939,8.717,52.27,6.942,63.346,5.767,70.68,3.771,82.683,2.509,90.019a189.9,189.9,0,0,0-2.5,21.67h0c-.112,4.585.793,8.335,2.009,8.335,2.71,0,5.212-10,6.309-25.231a209.243,209.243,0,0,1,3.345-23.352c4.764-22.5,9.706-56.379,8.49-58.2-.668-1-.117-2.451,1.225-3.218" transform="translate(296.891 633.456)" fill="#78c34e"/>
    <path id="Path_21785" data-name="Path 21785" d="M1.223,40.89A4.452,4.452,0,0,0,3.4,37.531c0-1.163,2.053-6.356,4.563-11.537a107.7,107.7,0,0,0,5.732-13.868,75.868,75.868,0,0,1,3.094-8.891C18.5-.731,18.269-.88,14.628,1.86,10.9,4.668,6.521,12.452,3.543,20.737a16.6,16.6,0,0,0-2.468,7.581c0,.27.009.515.024.763C.825,30.312.586,31.526.417,32.7c-.782,5.4-.437,8.9.806,8.192" transform="translate(341.346 177.907)" fill="#78c34e"/>
    <path id="Path_21786" data-name="Path 21786" d="M1.274,5.3c.8-.739.882-2.656.19-4.26C.7-.735.128-.206.012,2.383v0C-.092,4.726.476,6.036,1.274,5.3" transform="translate(335.31 543.092)" fill="#78c34e"/>
    <path id="Path_21787" data-name="Path 21787" d="M56.388,531.277c-1.214,0-2.883,2.5-3.712,5.557-3.066,11.3-5.765,5.106-4.414-10.125.948-10.655.469-16.712-1.487-18.892a11.373,11.373,0,0,1-.838-1.051c-.114-1.027-.216-2.312-.307-3.843a9.459,9.459,0,0,1,1.165-1.555c1.6-1.781,2.146-4.37,1.221-5.755-1.925-2.882-1.848-111.484.121-174.379.728-23.228,3.01-56.616,5.074-74.2,1.27-10.827,2.022-18.544,2.284-24.108a33.056,33.056,0,0,0,.08-5.727c-.112-3.412-.573-5.521-1.374-6.905-4.147-7.169-1.3-89.433,4.741-136.889,4.1-32.265,14.369-60.84,21.461-61.837a9.264,9.264,0,0,1,3.959,3.607c3.237,8.309,5.648,31.556,5.823,58.23.106,16.5.4,32.007.646,34.451s-.46,13.609-1.571,24.809c-1.234,12.441-1.134,21.831.259,24.132,3.487,5.763,5.56-15.068,6.979-70.057.832-32.262.316-51.759-1.582-60.011-1.549-6.723-3.291-14.51-3.872-17.3-.482-2.306-2.82-5.062-5.558-6.773A9.681,9.681,0,0,0,78.892,0c-2.535,0-5.235,2.244-7.928,6.285-.123.138-.236.258-.365.4-3.777,4.186-7.558,11.158-8.4,15.494s-2.392,9.425-3.438,11.312q-8.818,15.882-17,192.167c-3.159,68.158-3.725,79.477-5.454,108.911-.7,11.92-1.346,23.669-1.936,35.166-1.08,9.518-1.763,19.249-1.556,22.564.076,1.244.11,3.957.106,7.856-1.7,38.59-2.668,73.1-2.748,99.69-.074,25.233-.646,57.378-1.271,71.438s-1.746,39.564-2.494,56.678c-1.8,41.174-3.468,65.926-4.717,70.014-.558,1.833-2.178,15.836-3.6,31.118-4.717,50.83-11.316,95.1-16.039,107.614-3.606,9.553-2.364,16.854,2.867,16.854,4.535,0,7.954-6.454,10.817-20.422,4.4-21.443,6.577-16.007,5.668,14.123-1.536,50.951-3.334,73.615-6.087,76.683-1.958,2.184-1.869,3.843.333,6.3h0a10.883,10.883,0,0,0,1.348,1.252c.006.007.007.026.013.033v0a4.6,4.6,0,0,0,3.555,1.867,4.271,4.271,0,0,0,1.089.179c2.292,0,4.01-.329,5.307-2.663.06-.062.13-.108.188-.172a2.46,2.46,0,0,0,.322-.906c3.14-7.72,3.488-31.115,3.932-101.354.246-39.054.9-73.889,1.9-103.49.746-19.993,1.627-38.143,2.615-54.026C37,655.233,38.24,642.6,39.637,633.519c1.221-7.946,3.338-22.95,4.7-33.34s3.114-22.394,3.889-26.673,1.593-10.779,1.821-14.446,1.64-7.669,3.137-8.891c3.44-2.808,6.165-18.892,3.2-18.892" transform="translate(0.001 6.607)" fill="#78c34e"/>
  </g>
</svg>
