<svg xmlns="http://www.w3.org/2000/svg" xmlns:xlink="http://www.w3.org/1999/xlink" width="792.52" height="579.657" viewBox="0 0 792.52 579.657">
  <defs>
    <clipPath id="clip-path">
      <rect id="Rectangle_2838" data-name="Rectangle 2838" width="399.451" height="709.918" fill="#0f3154"/>
    </clipPath>
  </defs>
  <g id="shape-right" transform="matrix(0.276, 0.961, -0.961, 0.276, 682.417, 0)" clip-path="url(#clip-path)">
    <path id="Path_18556" data-name="Path 18556" d="M6.353.158C4.031,2.307-1.2,28.419.251,30.6c1.6,2.4,3.5-.637,3.5-5.585A33.894,33.894,0,0,1,5.109,15.9C7.217,9.768,8.1-1.461,6.353.158" transform="translate(82.334 285.471)" fill="#0f3154"/>
    <path id="Path_18557" data-name="Path 18557" d="M8.039,14.879C6.989,20.494,5.249,26.3,4.172,27.773s-1.957,4.85-1.957,7.5A38.289,38.289,0,0,1,.786,44.688C0,47.223-.237,49.906.26,50.649h0c1.341,2.006,4.781-4.524,4.862-9.226A55.97,55.97,0,0,1,7.468,29.852c3.213-10.568,6.515-24.7,6.515-27.868,0-6.047-4.042,2.72-5.944,12.894" transform="translate(108.882 393.49)" fill="#0f3154"/>
    <path id="Path_18558" data-name="Path 18558" d="M1.558,0A1.474,1.474,0,0,0,0,1.361C0,2.11.292,2.722.649,2.722S1.707,2.11,2.207,1.361,2.415,0,1.558,0" transform="translate(106.682 450.568)" fill="#0f3154"/>
    <path id="Path_18559" data-name="Path 18559" d="M4.593.117C3.265,1.446,0,19.905,0,26.082H0c0,4.234,1.739,3.9,3.149.943a4.46,4.46,0,0,0,.833-2.239,21.9,21.9,0,0,0,.669-3.066C6.119,11.647,6.082-1.373,4.593.117" transform="translate(100.797 458.005)" fill="#0f3154"/>
    <path id="Path_18560" data-name="Path 18560" d="M2.494,0C.424,0-.53,1.532.3,3.529h0C.732,4.575,1.679,5.091,2.4,4.676,4.064,3.726,4.137,0,2.494,0" transform="translate(125.029 370.254)" fill="#0f3154"/>
    <path id="Path_18561" data-name="Path 18561" d="M0,0H0Z" transform="translate(71.816 674.292)" fill="#0f3154"/>
    <path id="Path_18562" data-name="Path 18562" d="M123.334,125.6c3.957-15.16,9.665-38.879,14.578-60.575,5.194-22.939,12.659-48.872,15.537-53.979a14.423,14.423,0,0,0,2.035-7.3,2.206,2.206,0,0,0-.34-2c-.65-1.811-2.163-2.415-4.141-.859a3.377,3.377,0,0,0-.638.508,2.307,2.307,0,0,0-.244.306c-.111.116-.215.2-.328.332-3.136,3.585-16.192,50.229-16.217,57.933a7.626,7.626,0,0,1-.154,1.336c-.254.943-.5,1.827-.74,2.63a19.676,19.676,0,0,1-1.327,2.967,33.7,33.7,0,0,0-3.062,9.529,105.281,105.281,0,0,1-3.563,13.773,107.244,107.244,0,0,0-3.641,14.293,90.053,90.053,0,0,1-2.961,12.251c-2.309,6.963-5.34,19.535-10.176,42.2-1.837,8.609-4.726,21.475-6.42,28.586-3.955,16.608-8.7,39.661-9.9,48.162a44.055,44.055,0,0,1-2.312,9.528c-.752,1.587-2.667,10.543-4.256,19.9s-3.926,21-5.2,25.864a73.449,73.449,0,0,0-2.326,12.251c-.009,1.872-1.069,7.385-2.354,12.252a110.928,110.928,0,0,0-2.649,12.252c-.171,1.871-1.7,10.447-3.4,19.057-5.191,26.284-7.274,37.4-8.5,45.678-.287,1.6-.563,3.381-.795,5.186-.127.995-.274,2.086-.434,3.229-.768,4.821-1.821,10.792-2.72,15.331-1.26,6.364-2.733,15.553-3.272,20.419a132.628,132.628,0,0,1-2.994,16.335,192.628,192.628,0,0,0-3.6,22.46c-.873,8.236-1.94,16.811-2.371,19.057s-1.071,6.228-1.418,8.849c-.262,1.965-.538,3.961-.824,5.973-.01.013-.022.038-.032.047-.693.712-1.261,3.216-1.261,5.565,0,1.41-.351,4.752-.888,8.72-2.525,15.625-5.372,30.29-7.383,37.548-1.246,4.492-2.916,10.617-3.714,13.612-1.809,6.795-9.9,21.886-13.238,24.679-2.269,1.9-2.67,1.8-4.395-1.086-4.6-7.693-5.469-39.548-1.378-50.548a94.233,94.233,0,0,0,3.767-13.278c.594-3.327,1.6-6.663,2.247-7.411s1.555-5.956,2.029-11.571,1.611-14.8,2.525-20.419,1.919-14.5,2.229-19.738a198.127,198.127,0,0,1,2.8-21.1c1.227-6.363,2.906-16.777,3.73-23.141s2.149-16.47,2.944-22.46,1.68-13.413,1.967-16.5A51.415,51.415,0,0,1,36.36,381.88c1.574-4.416,4.684-22.363,7.494-43.247.654-4.866,1.622-11.911,2.15-15.655.911-6.467.85-6.636-1.228-3.4-1.2,1.872-2.945,8.61-3.87,14.974s-2.619,15.33-3.761,19.926-2.771,14.133-3.622,21.192-2.543,18.308-3.76,24.995c-4.11,22.576-4.87,27.11-5.8,34.618a63.482,63.482,0,0,1-2.207,10.891c-.7,1.871-1.676,9.114-2.159,16.1a187.125,187.125,0,0,1-2.354,19.738c-1.13,5.386-7.221,46.084-7.23,48.3,0,.232-.722.008-1.6-.495-1.529-.875-1.11-17.709.847-43.448.654-7.42,1.442-16.2,2.384-26.616.453-5.009.884-9.758,1.3-14.281.25-2.46.505-4.942.77-7.463,1.141-10.856,2.469-24.025,2.95-29.266,1.465-15.96,5.06-45.8,6.558-54.45.247-1.427.528-3.243.832-5.351.073-.485.14-.963.2-1.44,1.224-8.739,2.775-21.814,4.094-34.726.344-3.369,1.294-9.671,2.111-14.006.732-3.878,1.065-7.785.824-9.295.1-.593.251-1.615.438-2.953a1.688,1.688,0,0,1,.259-.233c.865-.495,1.572-3.6,1.572-6.9a188.944,188.944,0,0,1,2.111-20c1.161-7.7,3.541-23.794,5.291-35.774,3.2-21.9,9.494-53.1,11.9-58.962a21.488,21.488,0,0,0,1.3-6.807c0-2.009,2.352-10.085,5.224-17.947S65.561,122,66.748,117.608c2.235-8.285,8.213-23.516,11.557-29.444a36.7,36.7,0,0,0,2.939-7.355c.866-3.357,5.544-10.517,8.691-13.917,1.767-1.6,2.746-1.806,3.875-1.115a7.078,7.078,0,0,1,1.337,1.61C96.4,69.46,96.7,69.3,97.557,66.134c.972-3.588.771-6.172-.5-7.647a2.677,2.677,0,0,0-2.579-1.666,2.061,2.061,0,0,0-.878.286c-2.027.162-4.157,2.005-7.637,6.489-2.938,3.784-5.342,7.4-5.342,8.035s-1.734,4.156-3.855,7.824c-5.664,9.8-8.691,18.171-17.051,47.165-3.064,10.631-5.593,13.728-5.556,6.806.011-2.058,1.313-10.175,2.9-18.036C59.7,102.258,61.894,93.412,68.03,71.15c2.906-10.537,2.9-13.246-.009-12.691-4.141.79-10.953,16.8-10.94,25.717a47.062,47.062,0,0,1-2.136,11.57c-1.18,3.691-3.157,11.919-4.394,18.283s-3.977,17.391-6.087,24.5-4.328,16-4.926,19.739a52.558,52.558,0,0,1-2.614,10.208,76.44,76.44,0,0,0-5.583,19.738c-.554,3.744-1.682,7.564-2.506,8.491-1.807,2.031-.331,6.324,1.763,5.127.815-.466,1.482-2.306,1.482-4.089,0-3.544,6.9-22.385,8.928-24.385,1.375-1.353,1.344-1.078-3.067,27.108-4.926,31.483-7.114,46.9-8.789,61.936-.874,7.861-2.891,23.482-4.482,34.712-6.9,48.735-12.014,88.185-13.238,102.093-.726,8.236-2.355,24.469-3.623,36.074s-2.569,25.08-2.893,29.947-1.709,22.018-3.076,38.115C.968,513.587.463,523.91.273,533.891a182.507,182.507,0,0,0,.1,21.729C1.215,584.2,4.877,606.314,10.239,609c1.1.657,2.433.468,4.132-.61,3.326-1.513,7.41-4.59,7.41-6.1,0-.439,1.943-3.461,4.317-6.717a45.181,45.181,0,0,0,6.078-12.66c.968-3.707,2.667-7.637,3.774-8.733,2.528-2.5,2.577-.8.548,19.009-1.878,18.326-2.725,55.021-2.02,70.7.047,3.75.18,6.086.421,6.308a1.151,1.151,0,0,0,.154.086c.122.578.258.918.407.977,3.165,1.19,4.053.917,4.889-1.5.453-1.31,1.4-3.607,2.1-5.1,4.105-8.725,7.8-28.924,9.216-50.365a14.4,14.4,0,0,1,1.281-5.52c.557-.79.461-3.7-.214-6.473-.7-2.88-.664-5.36.09-5.79.725-.415,1.319-4,1.319-7.974A84.228,84.228,0,0,1,55.5,574.653c.742-3.657,1.791-13.684,2.329-22.28.174-2.785.36-5.433.54-7.761.384-3.224.778-6.462,1.173-9.657.5-2.458,1.536-8.782,2.591-15.959,1.321-8.984,2.645-17.827,2.941-19.651,1.326-8.163-2.754-9.215-4.293-1.108-1.726,9.088-1.91,10.266-4.287,27.565-1.235,8.985-2.6,18.2-3.043,20.485C52.713,550.113,50.18,576.412,49,592.5c-.2,2.719-.579,6.36-.953,9.3a5.329,5.329,0,0,0-.677,4.674c-.545,3.632-1.43,9.916-2.147,15.29-2.2,16.472-2.887,19.193-4.584,18.222-.966-.552-1.162-6.012-.552-15.326,1.359-20.706,2.579-43.851,3.06-58.027a197.722,197.722,0,0,1,2.048-21.78c.9-5.241,2.26-15.349,3.029-22.461.246-2.276.5-4.553.759-6.81.252-1.974.505-4.015.762-6.155.372-3.112.763-6.319,1.165-9.571,1.212-9.264,2.392-17.13,3.286-21.7.731-3.745,1.725-10.789,2.207-15.655s2.508-18.649,4.5-30.628c5.746-34.553,10.894-64.931,11.881-70.1.5-2.619,1.093-5.99,1.317-7.487s2.191-11.3,4.371-21.78,4.466-22.733,5.08-27.225,2.189-12.455,3.5-17.7,4.084-18.41,6.17-29.266,5.02-24.945,6.522-31.309,4.124-18,5.825-25.863c4.891-22.6,13.45-58.989,17.773-75.549" transform="translate(36.355 3.036)" fill="#0f3154"/>
    <path id="Path_18563" data-name="Path 18563" d="M3.581,0C1.8,0-.712,6.988.189,9.419h0c.57,1.537,1.125,1.414,2.718-.6C5.157,5.97,5.613,0,3.581,0" transform="translate(131.197 341.668)" fill="#0f3154"/>
    <path id="Path_18564" data-name="Path 18564" d="M146.761,203.776c-.073-16.548-.518-20.576-1.3-25.614-1.794-20.779-5.331-32.6-11.964-46.564-2.175-4.578-3.355-6.045-5.663-6.379a2.729,2.729,0,0,0-.75-.123c-.181,0-.366.022-.548.037h-.017c-.079,0-.165.015-.246.018-.043,0-.086,0-.129.009a11.97,11.97,0,0,0-6.806,3.2,22.947,22.947,0,0,0-3.107,4.594,23.855,23.855,0,0,0-1.407,2.634,132.185,132.185,0,0,0-9.107,22.9c-.783,2.993-2.142,7.894-3.021,10.889a65.2,65.2,0,0,0-2.032,10.209c-1.261,13.793-2.468,21.9-4.362,29.266-1.155,4.493-2.009,10.006-1.9,12.252.344,6.988-1.937,36.474-3.264,42.2-.847,3.649-1.09-.927-.736-13.878.291-10.627.848-19.815,1.24-20.419s1.118-12.461,1.615-26.351,1.52-31.349,2.273-38.8c1.276-12.609,1.969-27.056,3.783-78.88.06-1.743.14-3.523.23-5.3.253-4.292.52-8.239.786-11.648A113.143,113.143,0,0,1,101.71,56.65a48.006,48.006,0,0,0,.863-5.071c.285-2.224.08-3.557-.626-4.211a1.548,1.548,0,0,0-.168-.109c-.022-.021-.04-.044-.062-.064-2.4-2.218-5.562,2.047-8.341,11.236-1.246,4.118-3.883,12.695-5.862,19.058C80.464,100.165,67.609,162.4,60.943,206.126c-1.255,8.236-2.936,18.955-3.734,23.821s-2.051,13.136-2.784,18.378-2.336,16.573-3.562,25.183c-3.15,22.11-5.314,40.6-6.692,57.171-.654,7.861-1.564,15.213-2.022,16.335s-1.525,14.906-2.369,30.628-2.173,33.486-2.953,39.476-2.4,19.465-3.6,29.948c-5.584,48.66-6.523,55.173-11.006,76.229a125.793,125.793,0,0,1-6.954,21.1c-1.459,3.43-2.35.14-2.849-12.708-.233-8.638-.409-21.1-.518-34.7-.008-2.472-.015-5.036-.018-7.724-.065-51.179,1.57-98.958,4.377-127.957.8-8.235,2.1-23.856,2.887-34.712,1.459-20.044,2.354-30.63,3.621-42.879.388-3.743,1.447-14.77,2.354-24.5s1.94-20.426,2.3-23.765c1.542-14.4,3.619-36.465,5.586-59.363,1.162-13.526,2.51-26.084,3-27.905s1.484-12.806,2.221-24.411c4.073-64.184,6.128-86.957,8.945-99.154,1.2-5.177,2.431-11.037,3.208-15.148a21.563,21.563,0,0,0,.983-6.285C51.666.093,51.167-.245,49.121.117c-1.892.335-3.331,2.448-4.5,6.6-.943,3.361-3.147,11.01-4.9,17s-4.053,14.057-5.114,17.927A49.077,49.077,0,0,1,31.6,50.307C30.539,51.893,27.072,63.09,22.55,79.53c-1.008,3.663-2.076,8.59-2.659,12.121-.62,2.679-1.271,5.634-1.97,8.935a2.559,2.559,0,0,1-.414.656,7.306,7.306,0,0,0-1.328,4.442A12.975,12.975,0,0,1,14.8,111.2c-.758,1.3-2.5,7.263-3.868,13.253S7.516,138.023,6.382,141.3C4.429,146.939,2.271,157.181.921,167A20.558,20.558,0,0,0,0,172.151a6.929,6.929,0,0,0,.325,2.378c.309,3.86,2.353,2.837,4.143-3.455.906-3.182,2.287-7.93,3.069-10.55s2.346-9.664,3.476-15.655,3.78-16.708,5.891-23.821c5.128-17.292,9.62-34.856,10.609-41.489a23.339,23.339,0,0,1,2.754-8.167c1.07-1.514,2.4-5.368,2.949-8.567,1.455-8.432,3.559-8.461,3.563-.05.008,12.673-4.494,74.233-8.044,110-.147,1.486-.309,3.137-.482,4.911-.2,1.665-.394,3.666-.561,5.817-1.108,11.544-2.466,26.1-3.438,36.916-1.313,14.6-2.982,28.994-3.709,31.989s-1.714,12.8-2.195,21.78S16.6,299.1,15.517,309.579s-1.688,19.477-1.357,19.991a2.682,2.682,0,0,1,.119,1.059c-.052.889-.1,1.731-.14,2.519-.16,1.825-.45,4.166-.84,6.631-.806,5.1-2.636,26.734-4.065,48.072-2.514,37.51-3.38,111.525-2.362,149.081.179,10.79.5,18.228.99,20.016h0c.054.2.122.388.19.578a6.061,6.061,0,0,0,.618,2.347h0c1.915,2.135,2.242,2.127,4.993-.131,2.9-2.379,8.9-13.481,11.616-21.475,3.083-9.087,8.94-43.274,11.427-66.7.953-8.983,2.3-20.622,3-25.863s2.355-23.311,3.681-40.156c.222-2.809.454-5.673.691-8.566.01-.106.022-.217.033-.321.381-3.752.813-8.932,1.2-14.249,4.132-47.456,9.758-100.006,12.659-117.073,1.21-7.112,2.936-19.363,3.835-27.225a187.849,187.849,0,0,1,2.961-19.057,115.89,115.89,0,0,0,2.249-15.425c.51-5.862,2.2-16.888,3.759-24.5S74.279,161,75.1,155.761s2.759-14.736,4.306-21.1c3.238-13.325,6.031-25.223,7.9-33.616.207-.76.392-1.6.543-2.454.7-3.192,1.237-5.757,1.562-7.491.63-3.369,1.789-5.963,2.572-5.763,1.465.372,1.367,43.513-.143,62.936-2.411,31.016-3.868,52.96-3.8,57.172.044,2.62-.56,10.584-1.343,17.7s-2.075,23.039-2.87,35.392-2.084,29.812-2.865,38.8c-2.62,30.119-3.565,66.213-3.654,139.527-.092,75.154.795,102.773,3.373,105.16,1.243,1.149,2.986-.434,4.594-3.494a11.924,11.924,0,0,0,.734-1.359,13.915,13.915,0,0,0,.512-1.374,44.377,44.377,0,0,0,2.621-10.234c.163-1.224.327-4.919.485-10.532a414.134,414.134,0,0,0,.979-46.9c-.065-1.659-.124-3.42-.181-5.222.108-12.177.192-25.388.237-38.98.309-91.177.548-102.927,2.449-120.469.952-8.787,3.417-37.5,4.674-54.45,3.559-47.959,10.333-84.885,19.229-104.815,4.544-10.182,6.289-12.559,8.349-11.38,3.99,2.281,9.5,19.192,13.69,42.007,2.436,13.274,2.809,92.943.7,149.056-.775,20.589-1.755,72.216-2.176,114.729-.681,68.774-.515,77.383,1.5,78.1a6.284,6.284,0,0,0,.7.2c.318.353.609.425.876.139a2.115,2.115,0,0,0,1.463-.251c1-.924,1.791-40.092,2.756-136.23.072-7.066.148-13.924.23-20.464q.072-5.464.14-10.69c.381-27.37.817-46.854,1.1-47.276.381-.571.73-26.692.775-58.049.023-15.9-.072-29.092-.363-40.3M85.114,499.533a8.35,8.35,0,0,1-.318,2.661c-.575,0-1.918-11.073-2.307-18.06.015-1.9.051-3.775.106-5.571.258-1.329.723-2.232,1.256-2.232.63,0,1.114,2.7,1.336,7.086.05,6.61.018,12.455-.073,16.116M82.983,470.7c.082-1.115.172-2.11.268-2.964q.258-.437.6-.93a6.7,6.7,0,0,1,.605-.769c.138.947.26,2.313.365,4.061-.258.486-.6.792-.97.792a1.83,1.83,0,0,1-.871-.191m.869-12.061a1.421,1.421,0,0,1-1.447-1.25c.01-.141.025-.277.042-.412a1.46,1.46,0,0,1,2.815.023c.015.125.028.251.039.381a1.422,1.422,0,0,1-1.449,1.259" transform="translate(252.326 94.027)" fill="#0f3154"/>
    <path id="Path_18565" data-name="Path 18565" d="M2.991,6.088C4.454,5.251,2.979,0,1.281,0-.211,0-.488,4.556.922,5.862v0a1.87,1.87,0,0,0,2.07.228" transform="translate(36.088 311.72)" fill="#0f3154"/>
    <path id="Path_18566" data-name="Path 18566" d="M4.414,1.7A1.979,1.979,0,0,0,2.229,0C.01,0-.843,4.19,1.026,5.92,2.175,6.982,4.381,4.235,4.414,1.7" transform="translate(37.517 303.554)" fill="#0f3154"/>
    <path id="Path_18567" data-name="Path 18567" d="M2.5,4.647C4.168,3.691,4.13,0,2.45,0,.826,0-.756,3.532.392,4.594h0A1.925,1.925,0,0,0,2.5,4.647" transform="translate(41.132 292.664)" fill="#0f3154"/>
    <path id="Path_18568" data-name="Path 18568" d="M13.946,15.937c.117-5.54.847-11.169,1.621-12.508.914-1.58.889-2.733-.07-3.281C13.576-.952,11.43,4.2,10.492,11.59a11.767,11.767,0,0,0-.474,5.286c-.391,4.849-1.223,12.711-1.987,18.663-.865,6.739-2.1,17.152-2.746,23.141C4.691,64.182,3.6,73.408,2.759,80.1c-.324,1.375-.649,3.558-1.043,6.8h0c-.177,1.451-.275,2.807-.3,3.975-.506,4.18-.961,8.071-1.2,10.349h0c-.417,3.931-.2,7.146.483,7.146,1.849,0,2.783-4.687,3.8-19.057C5,82.2,6.033,74.137,6.795,71.4a99.772,99.772,0,0,0,2.16-14.293c.426-5.125,1.675-14.216,2.776-20.207a159.158,159.158,0,0,0,2.215-20.963" transform="translate(33.812 169.324)" fill="#0f3154"/>
    <path id="Path_18569" data-name="Path 18569" d="M.418,8.376c.64.957,1.39.821,2.229-.4C4.314,5.538,4.313,0,2.645,0,.918,0-.818,6.527.418,8.376" transform="translate(49.766 136.12)" fill="#0f3154"/>
    <path id="Path_18570" data-name="Path 18570" d="M4.383,14.777C4.735-.681,4.692-1.055,2.752.738.87,2.48-.912,23.015.52,26.467c1.955,4.716,3.6-.267,3.863-11.69" transform="translate(50.842 106.37)" fill="#0f3154"/>
    <path id="Path_18571" data-name="Path 18571" d="M0,3.744c.018,2.917.337,3.292,1.449,1.7C3.309,2.782,3.309,0,1.449,0,.64,0-.012,1.686,0,3.744" transform="translate(33.149 283.134)" fill="#0f3154"/>
    <path id="Path_18572" data-name="Path 18572" d="M8.872,24.564c-.66.756-1.56,4.132-2,7.5C5.521,42.464,3.3,52.984,1.613,57A22.659,22.659,0,0,0,0,64.255v0c0,4.35,3.224,3.567,3.925-.956A89.445,89.445,0,0,1,6.647,53.164c1.213-3.744,3.192-11.289,4.4-16.766s2.779-10.991,3.494-12.251a35.971,35.971,0,0,0,2.377-8.418,35.881,35.881,0,0,1,2.459-8.56c1.642-2.89.076-8.624-1.863-6.829a8.793,8.793,0,0,0-1.173,2.32A4.771,4.771,0,0,0,14.91,6.039a3.661,3.661,0,0,1,.025.489c-.592,1.767-1.214,3.771-1.8,5.847-1.684,5.948-3.6,11.432-4.262,12.188" transform="translate(46.367 207.511)" fill="#0f3154"/>
    <path id="Path_18573" data-name="Path 18573" d="M2.944,1.441C2.944.272,2.28-.3,1.473.16A2.908,2.908,0,0,0,0,2.283,1.391,1.391,0,0,0,1.473,3.563c.807,0,1.471-.956,1.471-2.122" transform="translate(34.597 321.769)" fill="#0f3154"/>
    <path id="Path_18574" data-name="Path 18574" d="M.266,16.029c1.482,4.321,4.527.463,5.557-7.039S4.764-2.939,2.651,2.247C1.895,4.1,1.561,6.064,1.907,6.61s-.1,2.253-.99,3.794a7.812,7.812,0,0,0-.652,5.625" transform="translate(46.906 147.519)" fill="#0f3154"/>
    <path id="Path_18575" data-name="Path 18575" d="M0,0H0Z" transform="translate(50.183 144.495)" fill="#0f3154"/>
    <path id="Path_18576" data-name="Path 18576" d="M3.906.222C3.456-.45,2.249.453,1.222,2.231S-.28,6.009.17,6.682s1.657-.231,2.684-2.007S4.355.894,3.906.222" transform="translate(138.481 320.519)" fill="#0f3154"/>
    <path id="Path_18577" data-name="Path 18577" d="M1.022,27.224c.877,0,1.94-2.6,2.364-5.785a142.169,142.169,0,0,1,3.169-17.7C7.1,1.684,6.946,0,6.2,0,4.055,0,1.317,8.5.335,18.239h0c-.611,6.06-.388,8.986.687,8.986" transform="translate(89.176 255.91)" fill="#0f3154"/>
    <path id="Path_18578" data-name="Path 18578" d="M4.027,4.232C4.054-3.178,1.655-.311.381,8.589c-.629,4.391-.47,7.146.414,7.146,1.87,0,3.207-4.758,3.232-11.5" transform="translate(95.28 237.453)" fill="#0f3154"/>
    <path id="Path_18579" data-name="Path 18579" d="M.373,79.571c-.018.016-.035.025-.054.042-.447.415-.415,1.622.035,2.826.192,5.151,1.707,5.679,2.875-1.487.377-2.311,1.1-6.445,1.919-11.027A3.919,3.919,0,0,0,5.4,68.547c.735-4.09,1.529-8.42,2.214-12.069a11.832,11.832,0,0,1,2.2-4.854c.9-1,2.052-5.455,2.565-9.9a137.617,137.617,0,0,1,2.879-15.564C17.676,16.843,18.623.521,16.774,0,16.014-.208,13.551,10.032,11.3,22.76S6.612,47.126,5.891,48.622a14.588,14.588,0,0,0-.61,7.15,10.986,10.986,0,0,1-1.454,7.487C2.642,64.942,1.2,70.76.628,76.188.5,77.41.417,78.54.373,79.571" transform="translate(114.275 75.927)" fill="#0f3154"/>
    <path id="Path_18580" data-name="Path 18580" d="M8.157,2.456c-.349-3.382-.364-3.379-2.372.681a23.227,23.227,0,0,0-2.086,8.3,31.805,31.805,0,0,1-1.423,8.167A59.117,59.117,0,0,0,.242,30.082c-1.232,11.88,2.508,6.2,5.273-8C8.718,5.621,8.586,6.605,8.157,2.456" transform="translate(104.523 169.056)" fill="#0f3154"/>
    <path id="Path_18581" data-name="Path 18581" d="M2.814,1.207C2.125-.455,1.786-.421.664,1.435a3.9,3.9,0,0,0-.333,3.7C1.725,7.218,3.888,3.8,2.814,1.207" transform="translate(99.835 220.986)" fill="#0f3154"/>
    <path id="Path_18582" data-name="Path 18582" d="M2.207,6.653c1.213-1.6,1.806-3.88,1.317-5.059C2.14-1.742,0,.485,0,5.261H0C0,9.477.047,9.506,2.207,6.653" transform="translate(102.269 208.833)" fill="#0f3154"/>
    <path id="Path_18583" data-name="Path 18583" d="M4,13.272c1-4.679,2.131-9.58,2.507-10.889S6.573,0,5.813,0C4.406,0,1.958,7.516.383,16.676-1.1,25.3,2.063,22.323,4,13.272" transform="translate(264.453 72.141)" fill="#0f3154"/>
    <path id="Path_18584" data-name="Path 18584" d="M74.969,267.289c-1.71,1.433-3.27,5.048-3.812,8.839-.506,3.529-2.2,11.317-3.754,17.306s-3.908,15.791-5.221,21.781-3,13.34-3.75,16.334-1.688,7.589-2.086,10.209c-.711,4.692-3.8,22.092-6.528,36.754-.765,4.118-2.471,11.337-3.788,16.043s-2.01,9.139-1.536,9.849a8.286,8.286,0,0,1,.076,3.085c-.518,3.505-1.053,7.346-1.593,11.421-2.022,11.414-5.717,37.163-7.577,52.847-.355,3-1.58,11.877-2.722,19.738s-2.463,19.5-2.933,25.863c-.052.7-.111,1.435-.177,2.2-.184,1.8-.355,3.573-.507,5.25-.016.169-.032.345-.048.516-1.132,10.745-3.313,27.181-7.221,54.649-1.535,10.793-9.081,44.784-11.867,53.464-.312.973-.608,1.772-.886,2.422a6.881,6.881,0,0,1-1.417,2.011c-1.247.252-1.759-5.136-1.275-15.39.645-13.658,3.06-49.118,4.284-62.925.3-3.368.946-13.169,1.439-21.78s1.538-19.329,2.321-23.822c1.379-7.914,3.6-31.177,5.779-60.575,1.078-14.547,4.875-44.434,7.521-59.214.4-2.209.9-5.48,1.39-8.991a5.879,5.879,0,0,0,.664-4.221,1.118,1.118,0,0,1-.059-.233c.287-2.2.553-4.363.772-6.294a174.337,174.337,0,0,1,2.842-17.7,69.314,69.314,0,0,0,1.587-13.613c.025-4.117,1.049-9.268,2.277-11.446,1.327-2.356,2.481-8.976,2.846-16.335a116.392,116.392,0,0,1,2.94-20.692c1.279-4.573,2.933-12.231,3.676-17.016,1.434-9.246,5.153-28.668,10.4-54.3,1.761-8.609,3.7-19.349,4.3-23.866s1.859-9.53,2.792-11.141a14.7,14.7,0,0,0,1.694-6.2c0-1.8,1.318-8.043,2.929-13.87,4.9-17.732,7.446-33.866,6.426-40.746-.854-5.766-.635-6.5,2.154-7.171,3.109-.752,5.758-5.353,4.014-6.967-.511-.473-1.311.493-1.777,2.145s-1.385,3-2.041,3c-2.16,0-2.393-4.685-.473-9.529a56.827,56.827,0,0,0,2.653-12.252,103.3,103.3,0,0,1,2.2-12.931c.792-2.995,2.806-11.57,4.477-19.057,5.274-23.637,8.933-35.164,14.1-44.4,2.858-5.114,3.883-4.958,3.313.5-.335,3.214.141,4.423,1.744,4.423q2.2,0,2.585-4.764a59.77,59.77,0,0,1,2.864-11.87c1.368-3.908,2.028-7.53,1.468-8.049-.026-.023-.064-.035-.092-.056-.013-.027-.016-.077-.033-.094-.817-.755-2.187-.486-3.78.462-2.336.931-4.89,2.7-5.519,4.281a7.794,7.794,0,0,1-2.2,3.172c-1.15.722-4.169,7.362-8.618,18.959-1.006,2.62-2.337,5.99-2.958,7.488s-2.8,8.542-4.853,15.654c-3.313,11.5-5.232,20.585-11.214,53.088-.895,4.866-2.3,12.217-3.124,16.335s-1.777,10.243-2.123,13.613c-1.044,10.191-1.825,15.028-4.835,29.948-5.213,25.838-7.091,35.883-7.5,40.514-.43,2.1-.86,4.161-1.3,6.232a1.246,1.246,0,0,1-.259.216c-.809.463-1.472,2.14-1.472,3.728a28.22,28.22,0,0,1-1.385,7.066c-1.443,4.356-2.947,11.793-6.726,33.282-1.236,7.021-2.721,13.452-3.3,14.293a4.384,4.384,0,0,0-.383.891,8.631,8.631,0,0,0-1,3.465c-.651,2.539-1.413,5.9-2.11,9.42-1.338,6.738-3.54,17.653-4.893,24.257-1.993,9.72-2.107,12.4-.6,14.077,1.021,1.14,1.661,4.313,1.418,7.053s-.538,6.512-.659,8.383c-.168,2.6-1,3.376-3.53,3.294-2.31-.076-3.311.672-3.311,2.472a12.2,12.2,0,0,1-1.466,5.115c-1.919,3.319-.4,6.871,2.493,5.842,1.944-.69,2.109.367,1.2,7.636-.581,4.642-1.278,10.705-1.548,13.479s-.821,6.878-1.223,9.125c-.76,4.241-2.616,16.373-5.483,35.858-.919,6.246-1.888,14.515-2.151,18.376-.152,2.214-.614,6.316-1.21,10.891a10.29,10.29,0,0,0-.9,4.087c0,.87-.087,2.318-.239,4.079-.113.762-.226,1.518-.34,2.256-1.212,7.861-2.915,22.869-3.783,33.35s-2.318,26.1-3.223,34.713S6.459,544.38,6.322,546.626a75.264,75.264,0,0,1-1.238,8.849c-2.2,10.593-6.252,92.479-4.763,96.308h0a3.048,3.048,0,0,0,.534.885,2.742,2.742,0,0,0,.1.441h0c.518,1.436,4.59-.163,6.816-2.616a35.851,35.851,0,0,0,5.253-6.536c2.412-3.743,6.122-15.605,8.514-27.224,4.236-20.58,7.513-40.265,8.947-53.771.874-8.235,2.225-18.343,3-22.46,1.245-6.616,3.889-29.639,7.266-63.3.6-5.99,2.212-18.852,3.579-28.586s3.07-22.29,3.784-27.905c1.487-11.693,6.731-43.677,8.817-53.77,1.638-7.927,2.851-14.758,4.472-25.183,1.615-10.39,8.884-43.653,10.263-46.962,1.514-3.636,4.023-14.751,5.223-23.132.958-6.693.929-6.761-1.921-4.375" transform="translate(176.219 6.716)" fill="#0f3154"/>
    <path id="Path_18585" data-name="Path 18585" d="M1.225,12.168C.072,17.971-.341,22.717.306,22.717c1.384,0,4.292-8.778,5.329-15.085a13.937,13.937,0,0,0,.379-3.187c0-.116-.007-.2-.009-.313s.007-.211.007-.31C6.011-3.8,3.545.5,1.225,12.168" transform="translate(271.32 46.701)" fill="#0f3154"/>
    <path id="Path_18586" data-name="Path 18586" d="M1.581,6.543C3.837,5.847,4.262.061,2.062,0,1.3-.023.487,1.39.172,3.2c-.031.1-.064.2-.088.3a2.738,2.738,0,0,0-.065.969C-.089,6.274.4,6.907,1.581,6.543" transform="translate(277.477 36.707)" fill="#0f3154"/>
    <path id="Path_18587" data-name="Path 18587" d="M0,7.114c-.013,2.059.61,3.744,1.382,3.744,1.064,0,2.276-3.642,2.687-6.681A5.18,5.18,0,0,0,4.2,2.688,3.52,3.52,0,0,0,3.752.283C2.238-1.117.025,2.912,0,7.114" transform="translate(159.666 251.859)" fill="#0f3154"/>
    <path id="Path_18588" data-name="Path 18588" d="M1.313,9.466c1.667,0,3.113-3.438,3.053-7.258C4.321-.679,4.273-.685,2.159,1.9A9.851,9.851,0,0,0,0,7C0,8.358.591,9.466,1.313,9.466" transform="translate(169.942 220.579)" fill="#0f3154"/>
    <path id="Path_18589" data-name="Path 18589" d="M40.3,478.018c.359-2.807.637-5.453.816-7.645a2.441,2.441,0,0,0,.091-1.18c.184-2.617.194-4.367-.017-4.564-1.508-1.4-3.56,4.594-4.51,13.165-.539,4.866-1.923,13.749-3.076,19.738-.2,1.05-.392,2.046-.58,3.032a40.147,40.147,0,0,0-1.278,6.8c-2.538,13.762-3.473,20.714-4.134,29.645-.08,1.073-.177,2.178-.285,3.284-.266,2.115-.52,4.241-.755,6.324a51.246,51.246,0,0,1-1.1,5.918c-.732,2.551-.979,5.163-.549,5.806a3.1,3.1,0,0,1,.18,1.348c-.247,2.09-.5,4.128-.738,6.057-.058.3-.113.59-.177.889a319.4,319.4,0,0,0-5.326,37.074c-1.024,13.8-2,23.828-2.854,29.267-.41,2.619-1.139,10.277-1.619,17.015-.136,1.925-.317,3.922-.521,5.859-.384,2.935-.767,5.79-1.143,8.521-.195,1.105-.385,2.016-.562,2.636a47.449,47.449,0,0,0-1.431,10.209c0,.392-.027.808-.063,1.237-.265,1.677-.513,3.175-.74,4.451a19.553,19.553,0,0,1-1.293,3.84c-1.845,3.73-2.042,2.518-2.273-13.952-.139-9.92-.292-19.72-.34-21.78-.083-3.625,1.226-34.494,2.524-59.554.7-13.4,3.147-42.9,4.638-55.811.519-4.493,1.1-10.312,1.283-12.933,1.178-16.559,2.61-30.147,3.78-35.875.743-3.634,1.074-7.024.735-7.532s-.022-3.658.706-7,2.048-14.043,2.935-23.776c2.256-24.786,2.48-26.8,3.41-30.628,1.13-4.654,3.517-21.176,5.309-36.753A186.252,186.252,0,0,1,35,360.048a70.072,70.072,0,0,0,2.228-13.613,45.163,45.163,0,0,1,1.539-10.373,140.587,140.587,0,0,0,2.95-14.293c1.6-10.169,3.98-22.731,5.133-27.063.4-1.5,1.718-8.844,2.933-16.327s2.806-15.446,3.535-17.7A145.967,145.967,0,0,0,56.428,245.7c.978-5.989,2.024-12.115,2.322-13.613.228-1.137,1.175-6.09,2.314-12.085.567-2.495,1.107-5.327,1.508-7.911a176.8,176.8,0,0,1,4.78-19.469c1.256-3.426,2.286-7.568,2.286-9.2s1.268-7.892,2.817-13.9c.184-.715.384-1.5.6-2.336a33.943,33.943,0,0,0,1.607-6.391c1.279-5.135,2.671-10.81,3.707-15.14,1.7-7.113,3.718-15.077,4.477-17.7s4.37-15.791,8.023-29.267c8.308-30.649,19-61.556,26.9-78.469.348-.66.692-1.294,1.025-1.879a29.475,29.475,0,0,0,1.875-3.918c.73-1.346,1.426-2.539,2.078-3.534.459-.7.871-1.4,1.256-2.092a6.684,6.684,0,0,0,.958-1.857c1.251-2.649,1.793-4.875,1.246-5.694-1.782-2.668-4.624-1-7.743,4.538-1.792,3.183-5.212,8.849-7.6,12.591s-4.366,8.011-4.392,9.484a33.607,33.607,0,0,1-2.13,8.167c-1.146,3.019-3.574,10.085-5.4,15.7a165.7,165.7,0,0,1-6.746,17.268c-1.886,3.882-3.429,7.889-3.429,8.9s-1.324,4.244-2.942,7.181-2.942,6.11-2.942,7.053-1.324,3.893-2.941,6.558c-3.731,6.147-3.72,7.993.042,7.083,2.7-.655,2.9-.252,2.109,4.265-1.612,9.18-4.148,18.587-5.363,19.893a7,7,0,0,0-1.182,4.085c.011,1.534-1.313,7.843-2.942,14.02-6.761,25.631-8.743,34.071-9.673,41.177-.021.156-.044.309-.066.464-.589,2.73-1.173,5.483-1.731,8.165a2.2,2.2,0,0,1-.106.219c-1.107,1.633-6.424,28.388-10.687,53.769-1.7,10.107-3.655,19.6-4.35,21.1s-1.595,7.141-2,12.54-1.353,10.912-2.109,12.252c-1.641,2.9-4.277,16.3-5.316,26.751-.556,3.251-1.082,6.7-1.549,10.2a3.191,3.191,0,0,1-.3.723c-.56.832-2.182,10.4-3.6,21.252s-3.593,24.945-4.826,31.309-2.867,16.47-3.632,22.461c-5.014,39.264-7.725,61.893-9.123,76.191-2.249,22.993-2.286,23.308-4.012,35.431-.853,5.989-1.945,18.5-2.428,27.805s-1.5,17.995-2.264,19.312-1.378,7.181-1.37,13.03-.285,14.924-.651,20.166c-.815,11.679-2.857,55.89-2.8,60.575.272,21.4,2.018,44.017,3.526,45.7,1.535,1.71,2.093,1.734,4.175.02a6.178,6.178,0,0,0,2.359-2.948,11.544,11.544,0,0,0,1.22-3.037c.437-2.014,1.517-6.724,2.4-10.468,3.855-16.317,8.366-54.772,11.9-101.412.822-10.855,2.1-21.269,2.851-23.141s2.016-9.529,2.82-17.017,2.8-24.026,4.444-36.753,3.712-28.859,4.606-35.849" transform="translate(141.492 0)" fill="#0f3154"/>
    <path id="Path_18590" data-name="Path 18590" d="M1.471.165A3.6,3.6,0,0,0,0,3.049c0,1.123.661,1.664,1.471,1.2A3.6,3.6,0,0,0,2.941,1.366C2.941.242,2.28-.3,1.471.165" transform="translate(261.151 98.52)" fill="#0f3154"/>
    <path id="Path_18591" data-name="Path 18591" d="M1.471.166A3.6,3.6,0,0,0,0,3.049c0,1.123.661,1.664,1.471,1.2A3.6,3.6,0,0,0,2.941,1.366C2.941.244,2.28-.3,1.471.166" transform="translate(153.76 274.121)" fill="#0f3154"/>
    <path id="Path_18592" data-name="Path 18592" d="M1.563,45.127h0a50.205,50.205,0,0,0-1.3,5.248,1.192,1.192,0,0,0-.209.639,2.633,2.633,0,0,0,.041.424c-.176,1.346-.106,2.122.26,2.01C1.41,53.123,3.608,49,5.827,43.528a8.79,8.79,0,0,0,1.394-3.612c.618-1.685,1.218-3.438,1.775-5.2a44.851,44.851,0,0,1,3.758-8.848c2.442-3.647,5.989-13.712,7.194-20.419L20.927,0,17.935,5.227a136.025,136.025,0,0,0-6.843,15.544C8.974,26.445,6.554,32.277,5.714,33.729a80.548,80.548,0,0,0-4.151,11.4" transform="translate(184.603 138.162)" fill="#0f3154"/>
    <path id="Path_18593" data-name="Path 18593" d="M1.472,0C.662,0,0,.955,0,2.122S.662,3.866,1.472,3.4A2.9,2.9,0,0,0,2.942,1.282,1.39,1.39,0,0,0,1.472,0" transform="translate(181.709 196.014)" fill="#0f3154"/>
    <path id="Path_18594" data-name="Path 18594" d="M4.025,13.674c.154-3.649.824-7.429,1.49-8.4a4.6,4.6,0,0,0,.326-3.9C5.147-.3,4.511-.41,2.867.852a5.588,5.588,0,0,0-2.06,3.9c.017,1.26-.247,5.508-.588,9.438s-.276,7.464.141,7.851c1.747,1.615,3.4-2.165,3.665-8.363" transform="translate(195.842 362.534)" fill="#0f3154"/>
    <path id="Path_18595" data-name="Path 18595" d="M.781,3.246A2.565,2.565,0,0,0,.9.636C.427-.449.078-.127.008,1.459-.056,2.895.291,3.7.781,3.246" transform="translate(203.885 339.414)" fill="#0f3154"/>
    <path id="Path_18596" data-name="Path 18596" d="M13.1,6.14C15.031,5.035,15.05,0,13.123,0a1.633,1.633,0,0,0-1.659,1.021c-.1.561-.44,2.246-.748,3.743C8.053,17.723,5.339,32.012,4.251,38.8,3.532,43.287,2.31,50.638,1.537,55.131A116.3,116.3,0,0,0,.007,68.4h0c-.068,2.808.486,5.1,1.23,5.1,1.66,0,3.192-6.125,3.864-15.452a128.148,128.148,0,0,1,2.049-14.3c2.917-13.78,5.944-34.528,5.2-35.643A1.448,1.448,0,0,1,13.1,6.14" transform="translate(181.827 387.951)" fill="#0f3154"/>
    <path id="Path_18597" data-name="Path 18597" d="M.749,25.042a2.727,2.727,0,0,0,1.332-2.057c0-.712,1.257-3.893,2.794-7.066a65.957,65.957,0,0,0,3.51-8.493A46.465,46.465,0,0,1,10.28,1.981c1.051-2.428.909-2.52-1.321-.842C6.675,2.859,3.994,7.626,2.17,12.7A10.168,10.168,0,0,0,.658,17.343c0,.166.006.315.015.467-.168.754-.314,1.5-.417,2.215-.479,3.306-.268,5.453.494,5.017" transform="translate(209.052 108.956)" fill="#0f3154"/>
    <path id="Path_18598" data-name="Path 18598" d="M.781,3.245A2.563,2.563,0,0,0,.9.637C.427-.45.078-.126.008,1.459h0C-.056,2.894.291,3.7.781,3.245" transform="translate(205.356 332.609)" fill="#0f3154"/>
    <path id="Path_18599" data-name="Path 18599" d="M34.534,325.372c-.743,0-1.766,1.532-2.273,3.4-1.878,6.92-3.531,3.127-2.7-6.2.58-6.526.287-10.235-.911-11.57a6.962,6.962,0,0,1-.513-.643c-.07-.629-.132-1.416-.188-2.353a5.792,5.792,0,0,1,.714-.953c.978-1.091,1.314-2.676.748-3.524-1.179-1.765-1.132-68.277.074-106.8.446-14.225,1.843-34.674,3.108-45.442.778-6.631,1.238-11.357,1.4-14.764a20.245,20.245,0,0,0,.049-3.508,9.212,9.212,0,0,0-.841-4.229c-2.54-4.391-.795-54.772,2.9-83.836C38.613,25.2,44.9,7.7,49.243,7.085a5.674,5.674,0,0,1,2.425,2.209c1.983,5.089,3.459,19.326,3.566,35.662.065,10.107.244,19.6.4,21.1a146.426,146.426,0,0,1-.962,15.194c-.756,7.62-.694,13.37.158,14.779,2.135,3.53,3.405-9.228,4.274-42.905.51-19.758.194-31.7-.969-36.753-.949-4.117-2.016-8.887-2.371-10.6a7.581,7.581,0,0,0-3.4-4.148A5.929,5.929,0,0,0,48.316,0c-1.553,0-3.206,1.375-4.856,3.849-.075.084-.145.158-.223.246a24.162,24.162,0,0,0-5.145,9.489,30.968,30.968,0,0,1-2.106,6.928q-5.4,9.727-10.409,117.69c-1.935,41.743-2.281,48.674-3.34,66.7-.429,7.3-.824,14.5-1.186,21.537a116.76,116.76,0,0,0-.953,13.819c.047.762.067,2.423.065,4.811-1.042,23.634-1.634,44.767-1.683,61.054-.046,15.453-.4,35.14-.779,43.751s-1.069,24.23-1.528,34.712c-1.1,25.216-2.124,40.375-2.889,42.879-.342,1.122-1.334,9.7-2.2,19.058-2.889,31.13-6.93,58.241-9.823,65.906-2.208,5.85-1.448,10.322,1.756,10.322,2.777,0,4.871-3.953,6.625-12.507,2.692-13.133,4.028-9.8,3.471,8.649-.941,31.2-2.042,45.085-3.728,46.963-1.2,1.338-1.145,2.353.2,3.858h0a6.667,6.667,0,0,0,.825.767s0,.016.008.02h0a2.817,2.817,0,0,0,2.178,1.143,2.617,2.617,0,0,0,.667.11c1.4,0,2.456-.2,3.25-1.631.036-.038.08-.066.115-.105a1.507,1.507,0,0,0,.2-.555c1.923-4.728,2.136-19.056,2.408-62.073.15-23.918.548-45.252,1.163-63.381.457-12.244,1-23.36,1.6-33.087.657-9.637,1.417-17.373,2.272-22.935.748-4.866,2.044-14.056,2.881-20.419s1.907-13.715,2.382-16.335.976-6.6,1.115-8.847,1-4.7,1.921-5.445c2.107-1.72,3.776-11.57,1.961-11.57" transform="translate(0 4.047)" fill="#0f3154"/>
  </g>
</svg>
