<svg xmlns="http://www.w3.org/2000/svg" xmlns:xlink="http://www.w3.org/1999/xlink" width="767.51" height="686.077" viewBox="0 0 767.51 686.077"><defs><clipPath id="a"><rect width="399.451" height="655.427" fill="#0f3154"/></clipPath></defs><g transform="matrix(0.53, 0.848, -0.848, 0.53, 555.834, 0)" clip-path="url(#a)"><path d="M6.353.146C4.031,2.13-1.2,26.238.251,28.249c1.6,2.212,3.5-.588,3.5-5.156a29.08,29.08,0,0,1,1.357-8.409C7.217,9.018,8.1-1.349,6.353.146" transform="translate(82.334 263.559)" fill="#0f3154"/><path d="M8.039,13.737c-1.05,5.184-2.79,10.541-3.867,11.9a13.145,13.145,0,0,0-1.957,6.921,32.849,32.849,0,0,1-1.428,8.7C0,43.6-.237,46.075.26,46.761h0c1.341,1.852,4.781-4.177,4.862-8.518A48.2,48.2,0,0,1,7.468,27.561C10.68,17.8,13.983,4.76,13.983,1.832c0-5.583-4.042,2.511-5.944,11.9" transform="translate(108.882 363.288)" fill="#0f3154"/><path d="M1.558,0A1.436,1.436,0,0,0,0,1.256c0,.691.292,1.256.649,1.256s1.058-.565,1.558-1.256S2.415,0,1.558,0" transform="translate(106.682 415.984)" fill="#0f3154"/><path d="M4.593.108C3.265,1.335,0,18.377,0,24.08H0c0,3.909,1.739,3.6,3.149.871a3.938,3.938,0,0,0,.833-2.067,18.9,18.9,0,0,0,.669-2.83c1.466-9.3,1.43-21.321-.059-19.945" transform="translate(100.797 422.85)" fill="#0f3154"/><path d="M2.494,0C.424,0-.53,1.414.3,3.258h0a1.624,1.624,0,0,0,2.1,1.06C4.064,3.44,4.137,0,2.494,0" transform="translate(125.029 341.835)" fill="#0f3154"/><path d="M0,0H0Z" transform="translate(71.816 622.536)" fill="#0f3154"/><path d="M123.334,115.958c3.957-14,9.665-35.894,14.578-55.925,5.194-21.178,12.659-45.121,15.537-49.835a12.542,12.542,0,0,0,2.035-6.736,1.915,1.915,0,0,0-.34-1.846c-.65-1.672-2.163-2.229-4.141-.793a3.348,3.348,0,0,0-.638.469,2.17,2.17,0,0,0-.244.282c-.111.107-.215.188-.328.307-3.136,3.309-16.192,46.374-16.217,53.487a6.523,6.523,0,0,1-.154,1.233c-.254.871-.5,1.687-.74,2.428a17.508,17.508,0,0,1-1.327,2.74,29.459,29.459,0,0,0-3.062,8.8,91.2,91.2,0,0,1-3.563,12.716,92.862,92.862,0,0,0-3.641,13.2,77.875,77.875,0,0,1-2.961,11.31c-2.309,6.429-5.34,18.035-10.176,38.96-1.837,7.948-4.726,19.826-6.42,26.392-3.955,15.334-8.7,36.617-9.9,44.465a38.138,38.138,0,0,1-2.312,8.8c-.752,1.465-2.667,9.734-4.256,18.373s-3.926,19.386-5.2,23.879a63.16,63.16,0,0,0-2.326,11.31c-.009,1.729-1.069,6.819-2.354,11.311a95.628,95.628,0,0,0-2.649,11.311c-.171,1.728-1.7,9.645-3.4,17.594-5.191,24.267-7.274,34.533-8.5,42.172-.287,1.48-.563,3.121-.795,4.788-.127.918-.274,1.925-.434,2.981-.768,4.451-1.821,9.963-2.72,14.154-1.26,5.876-2.733,14.359-3.272,18.852a114.029,114.029,0,0,1-2.994,15.081,165.32,165.32,0,0,0-3.6,20.736c-.873,7.6-1.94,15.521-2.371,17.594s-1.071,5.75-1.418,8.169c-.262,1.815-.538,3.657-.824,5.514-.01.012-.022.035-.032.044-.693.658-1.261,2.97-1.261,5.138a75.659,75.659,0,0,1-.888,8.05c-2.525,14.426-5.372,27.965-7.383,34.666-1.246,4.147-2.916,9.8-3.714,12.568-1.809,6.273-9.9,20.206-13.238,22.784-2.269,1.754-2.67,1.663-4.395-1-4.6-7.1-5.469-36.513-1.378-46.668a81.884,81.884,0,0,0,3.767-12.259c.594-3.072,1.6-6.151,2.247-6.842s1.555-5.5,2.029-10.683,1.611-13.667,2.525-18.851,1.919-13.385,2.229-18.223a169.649,169.649,0,0,1,2.8-19.48c1.227-5.875,2.906-15.489,3.73-21.365s2.149-15.206,2.944-20.736,1.68-12.384,1.967-15.232a44.345,44.345,0,0,1,2.216-9.563c1.574-4.077,4.684-20.647,7.494-39.927.654-4.493,1.622-11,2.15-14.453.911-5.97.85-6.127-1.228-3.142-1.2,1.729-2.945,7.949-3.87,13.825s-2.619,14.153-3.761,18.4a187.436,187.436,0,0,0-3.622,19.565c-.85,6.518-2.543,16.9-3.76,23.076-4.11,20.843-4.87,25.029-5.8,31.961a54.706,54.706,0,0,1-2.207,10.055c-.7,1.728-1.676,8.415-2.159,14.86a160.122,160.122,0,0,1-2.354,18.223c-1.13,4.973-7.221,42.546-7.23,44.595,0,.214-.722.008-1.6-.457-1.529-.807-1.11-16.349.847-40.113.654-6.851,1.442-14.956,2.384-24.573.453-4.624.884-9.009,1.3-13.185.25-2.271.505-4.563.77-6.891,1.141-10.023,2.469-22.181,2.95-27.02,1.465-14.735,5.06-42.286,6.558-50.271.247-1.318.528-2.994.832-4.94.073-.448.14-.889.2-1.329,1.224-8.068,2.775-20.14,4.094-32.061.344-3.111,1.294-8.929,2.111-12.931.732-3.58,1.065-7.188.824-8.581.1-.547.251-1.491.438-2.726a1.651,1.651,0,0,1,.259-.215c.865-.457,1.572-3.324,1.572-6.373a161.507,161.507,0,0,1,2.111-18.463c1.161-7.106,3.541-21.968,5.291-33.028,3.2-20.22,9.494-49.023,11.9-54.436a18.5,18.5,0,0,0,1.3-6.285c0-1.854,2.352-9.311,5.224-16.57s6.192-16.516,7.378-20.573C68.983,100.931,74.961,86.87,78.3,81.4a32.418,32.418,0,0,0,2.939-6.79c.866-3.1,5.544-9.71,8.691-12.849,1.767-1.474,2.746-1.667,3.875-1.029a6.688,6.688,0,0,1,1.337,1.486c1.253,1.914,1.549,1.771,2.41-1.157.972-3.312.771-5.7-.5-7.06a2.694,2.694,0,0,0-2.579-1.538,2.184,2.184,0,0,0-.878.264c-2.027.15-4.157,1.851-7.637,5.991-2.938,3.494-5.342,6.832-5.342,7.418s-1.734,3.837-3.855,7.224C71.105,82.4,68.079,90.132,59.719,116.9c-3.064,9.815-5.593,12.674-5.556,6.284.011-1.9,1.313-9.394,2.9-16.651C59.7,94.409,61.894,86.242,68.03,65.688c2.906-9.729,2.9-12.23-.009-11.716C63.88,54.7,57.068,69.483,57.08,77.715A40.472,40.472,0,0,1,54.944,88.4c-1.18,3.408-3.157,11-4.394,16.879s-3.977,16.056-6.087,22.622a180.221,180.221,0,0,0-4.926,18.224,45.558,45.558,0,0,1-2.614,9.425A66.469,66.469,0,0,0,31.34,173.77c-.554,3.456-1.682,6.983-2.506,7.839-1.807,1.875-.331,5.839,1.763,4.733.815-.43,1.482-2.129,1.482-3.775,0-3.272,6.9-20.667,8.928-22.514,1.375-1.25,1.344-1-3.067,25.027-4.926,29.066-7.114,43.3-8.789,57.182-.874,7.258-2.891,21.68-4.482,32.047-6.9,44.994-12.014,81.416-13.238,94.257-.726,7.6-2.355,22.59-3.623,33.3S5.24,425.027,4.915,429.52s-1.709,20.328-3.076,35.189C.968,474.166.463,483.7.273,492.911a155.59,155.59,0,0,0,.1,20.061c.844,26.391,4.506,46.8,9.867,49.281,1.1.607,2.433.432,4.132-.563,3.326-1.4,7.41-4.238,7.41-5.633,0-.405,1.943-3.2,4.317-6.2a40.42,40.42,0,0,0,6.078-11.688c.968-3.422,2.667-7.051,3.774-8.063,2.528-2.309,2.577-.736.548,17.55-1.878,16.919-2.725,50.8-2.02,65.273.047,3.462.18,5.619.421,5.824a1.178,1.178,0,0,0,.154.079c.122.534.258.847.407.9,3.165,1.1,4.053.846,4.889-1.388.453-1.21,1.4-3.33,2.1-4.713,4.105-8.055,7.8-26.7,9.216-46.5a12.472,12.472,0,0,1,1.281-5.1c.557-.73.461-3.419-.214-5.976-.7-2.659-.664-4.949.09-5.346.725-.383,1.319-3.7,1.319-7.362A71.992,71.992,0,0,1,55.5,530.544a194.4,194.4,0,0,0,2.329-20.57c.174-2.571.36-5.016.54-7.165.384-2.976.778-5.966,1.173-8.915.5-2.269,1.536-8.108,2.591-14.734,1.321-8.294,2.645-16.459,2.941-18.143,1.326-7.536-2.754-8.507-4.293-1.023-1.726,8.39-1.91,9.478-4.287,25.449-1.235,8.3-2.6,16.805-3.043,18.913-.735,3.531-3.269,27.812-4.452,42.668-.2,2.51-.579,5.872-.953,8.589-.889,1.325-1.292,3.128-.677,4.315-.545,3.353-1.43,9.155-2.147,14.116-2.2,15.208-2.887,17.72-4.584,16.824-.966-.509-1.162-5.55-.552-14.149,1.359-19.116,2.579-40.486,3.06-53.573a168.948,168.948,0,0,1,2.048-20.108c.9-4.838,2.26-14.171,3.029-20.737.246-2.1.5-4.2.759-6.288.252-1.822.505-3.707.762-5.683.372-2.873.763-5.834,1.165-8.837,1.212-8.553,2.392-15.815,3.286-20.037.731-3.457,1.725-9.96,2.207-14.453s2.508-17.217,4.5-28.277c5.746-31.9,10.894-59.947,11.881-64.723.5-2.418,1.093-5.53,1.317-6.912s2.191-10.431,4.371-20.108S82.932,286,83.547,281.85s2.189-11.5,3.5-16.338,4.084-17,6.17-27.02,5.02-23.031,6.522-28.905,4.124-16.62,5.825-23.878c4.891-20.87,13.45-54.462,17.773-69.75" transform="translate(36.355 2.803)" fill="#0f3154"/><path d="M3.581,0C1.8,0-.712,6.451.189,8.7h0C.759,10.114,1.314,10,2.907,8.141,5.157,5.512,5.613,0,3.581,0" transform="translate(131.197 315.442)" fill="#0f3154"/><path d="M146.761,188.135c-.073-15.278-.518-19-1.3-23.648-1.794-19.184-5.331-30.1-11.964-42.99-2.175-4.227-3.355-5.581-5.663-5.889a2.937,2.937,0,0,0-.75-.114c-.181,0-.366.02-.548.034h-.017c-.079,0-.165.014-.246.017-.043,0-.086,0-.129.009a12.423,12.423,0,0,0-6.806,2.953,21.214,21.214,0,0,0-3.107,4.242,21.519,21.519,0,0,0-1.407,2.432,116.705,116.705,0,0,0-9.107,21.139c-.783,2.763-2.142,7.288-3.021,10.053a56.131,56.131,0,0,0-2.032,9.426c-1.261,12.734-2.468,20.217-4.362,27.02-1.155,4.148-2.009,9.238-1.9,11.311.344,6.451-1.937,33.675-3.264,38.96-.847,3.369-1.09-.856-.736-12.813.291-9.811.848-18.294,1.24-18.852s1.118-11.5,1.615-24.328,1.52-28.942,2.273-35.818c1.276-11.642,1.969-24.98,3.783-72.825.06-1.609.14-3.253.23-4.895.253-3.963.52-7.606.786-10.754a96.834,96.834,0,0,1,1.379-10.5,41.216,41.216,0,0,0,.863-4.682c.285-2.053.08-3.284-.626-3.888a1.568,1.568,0,0,0-.168-.1c-.022-.019-.04-.041-.062-.059-2.4-2.048-5.562,1.889-8.341,10.373-1.246,3.8-3.883,11.72-5.862,17.6C80.464,92.477,67.609,149.933,60.943,190.3c-1.255,7.6-2.936,17.5-3.734,21.992s-2.051,12.127-2.784,16.967-2.336,15.3-3.562,23.25C47.714,272.927,45.55,290,44.172,305.3c-.654,7.258-1.564,14.045-2.022,15.081s-1.525,13.762-2.369,28.277-2.173,30.916-2.953,36.446-2.4,17.971-3.6,27.649c-5.584,44.925-6.523,50.938-11.006,70.378a109.963,109.963,0,0,1-6.954,19.48c-1.459,3.166-2.35.129-2.849-11.733C12.18,482.9,12,471.4,11.9,458.841c-.008-2.282-.015-4.65-.018-7.131-.065-47.25,1.57-91.362,4.377-118.136.8-7.6,2.1-22.025,2.887-32.047,1.459-18.506,2.354-28.279,3.621-39.588.388-3.456,1.447-13.636,2.354-22.622s1.94-18.858,2.3-21.941c1.542-13.3,3.619-33.666,5.586-54.806,1.162-12.488,2.51-24.082,3-25.764s1.484-11.823,2.221-22.537c4.073-59.257,6.128-80.283,8.945-91.543,1.2-4.78,2.431-10.19,3.208-13.986a18.5,18.5,0,0,0,.983-5.8c.313-2.852-.186-3.164-2.232-2.83-1.892.31-3.331,2.261-4.5,6.1-.943,3.1-3.147,10.165-4.9,15.695S35.674,34.876,34.612,38.45a43.075,43.075,0,0,1-3.014,8c-1.059,1.464-4.526,11.8-9.047,26.98a114.43,114.43,0,0,0-2.659,11.191c-.62,2.474-1.271,5.2-1.97,8.249a2.348,2.348,0,0,1-.414.606,6.4,6.4,0,0,0-1.328,4.1,11.252,11.252,0,0,1-1.377,5.091c-.758,1.2-2.5,6.706-3.868,12.236s-3.418,12.53-4.552,15.556C4.429,135.66,2.271,145.116.921,154.178A17.67,17.67,0,0,0,0,158.937a5.945,5.945,0,0,0,.325,2.2c.309,3.564,2.353,2.619,4.143-3.19.906-2.937,2.287-7.321,3.069-9.74s2.346-8.922,3.476-14.453,3.78-15.425,5.891-21.992c5.128-15.965,9.62-32.181,10.609-38.3a20.467,20.467,0,0,1,2.754-7.54A22.974,22.974,0,0,0,33.217,58c1.455-7.785,3.559-7.812,3.563-.046.008,11.7-4.494,68.535-8.044,101.556-.147,1.372-.309,2.9-.482,4.534-.2,1.537-.394,3.384-.561,5.37-1.108,10.658-2.466,24.1-3.438,34.083-1.313,13.478-2.982,26.769-3.709,29.534s-1.714,11.814-2.195,20.108-1.755,23-2.833,32.676-1.688,17.982-1.357,18.456a2.3,2.3,0,0,1,.119.978c-.052.821-.1,1.6-.14,2.326-.16,1.685-.45,3.846-.84,6.122-.806,4.711-2.636,24.682-4.065,44.382-2.514,34.631-3.38,102.965-2.362,137.638.179,9.961.5,16.829.99,18.479h0c.054.183.122.358.19.534a5.276,5.276,0,0,0,.618,2.167h0c1.915,1.971,2.242,1.964,4.993-.121,2.9-2.2,8.9-12.446,11.616-19.826,3.083-8.389,8.94-39.953,11.427-61.581.953-8.294,2.3-19.039,3-23.878s2.355-21.522,3.681-37.074c.222-2.594.454-5.238.691-7.908.01-.1.022-.2.033-.3.381-3.464.813-8.246,1.2-13.155,4.132-43.814,9.758-92.33,12.659-108.087,1.21-6.566,2.936-17.877,3.835-25.135a161.161,161.161,0,0,1,2.961-17.594A99.361,99.361,0,0,0,67.015,188a227.525,227.525,0,0,1,3.759-22.622c1.558-7.028,3.506-16.737,4.328-21.577s2.759-13.6,4.306-19.48c3.238-12.3,6.031-23.287,7.9-31.035.207-.7.392-1.474.543-2.265.7-2.947,1.237-5.315,1.562-6.916C90.046,81,91.2,78.6,91.988,78.788c1.465.344,1.367,40.173-.143,58.105-2.411,28.636-3.868,48.895-3.8,52.783.044,2.419-.56,9.772-1.343,16.338s-2.075,21.271-2.87,32.676-2.084,27.523-2.865,35.817c-2.62,27.807-3.565,61.131-3.654,128.818-.092,69.385.795,94.885,3.373,97.089,1.243,1.061,2.986-.4,4.594-3.226a10.768,10.768,0,0,0,.734-1.254,12.24,12.24,0,0,0,.512-1.269,38.461,38.461,0,0,0,2.621-9.448c.163-1.13.327-4.541.485-9.724a353.09,353.09,0,0,0,.979-43.3c-.065-1.532-.124-3.157-.181-4.821.108-11.242.192-23.44.237-35.988.309-84.178.548-95.027,2.449-111.223.952-8.113,3.417-34.618,4.674-50.271,3.559-44.278,10.333-78.37,19.229-96.769,4.544-9.4,6.289-11.595,8.349-10.507,3.99,2.106,9.5,17.719,13.69,38.783,2.436,12.255,2.809,85.809.7,137.615-.775,19.008-1.755,66.673-2.176,105.922-.681,63.495-.515,71.443,1.5,72.1a6.692,6.692,0,0,0,.7.185c.318.326.609.393.876.129a2.262,2.262,0,0,0,1.463-.232c1-.853,1.791-37.014,2.756-125.773.072-6.523.148-12.855.23-18.893q.072-5.045.14-9.87c.381-25.269.817-43.257,1.1-43.647.381-.527.73-24.644.775-53.594.023-14.678-.072-26.859-.363-37.211M85.114,461.191a7.163,7.163,0,0,1-.318,2.457c-.575,0-1.918-10.224-2.307-16.674.015-1.756.051-3.486.106-5.143.258-1.227.723-2.061,1.256-2.061.63,0,1.114,2.5,1.336,6.542.05,6.1.018,11.5-.073,14.879m-2.132-26.624c.082-1.03.172-1.948.268-2.737q.258-.4.6-.858a6.3,6.3,0,0,1,.605-.71c.138.875.26,2.136.365,3.75a1.215,1.215,0,0,1-.97.731,1.956,1.956,0,0,1-.871-.176m.869-11.135a1.388,1.388,0,0,1-1.447-1.154c.01-.13.025-.256.042-.381a1.5,1.5,0,0,1,2.815.021c.015.116.028.232.039.351a1.388,1.388,0,0,1-1.449,1.162" transform="translate(252.326 86.81)" fill="#0f3154"/><path d="M2.991,5.621C4.454,4.848,2.979,0,1.281,0-.211,0-.488,4.206.922,5.412v0a2,2,0,0,0,2.07.21" transform="translate(36.088 287.793)" fill="#0f3154"/><path d="M4.414,1.571C4.426.707,3.444,0,2.229,0,.01,0-.843,3.868,1.026,5.466c1.149.981,3.355-1.555,3.388-3.895" transform="translate(37.517 280.254)" fill="#0f3154"/><path d="M2.5,4.29C4.168,3.408,4.13,0,2.45,0,.826,0-.756,3.261.392,4.242h0A2.06,2.06,0,0,0,2.5,4.29" transform="translate(41.132 270.2)" fill="#0f3154"/><path d="M13.946,14.714C14.064,9.6,14.793,4.4,15.568,3.166c.914-1.459.889-2.523-.07-3.029C13.576-.879,11.43,3.88,10.492,10.7a10.073,10.073,0,0,0-.474,4.88c-.391,4.477-1.223,11.735-1.987,17.231-.865,6.221-2.1,15.835-2.746,21.365-.593,5.079-1.683,13.6-2.525,19.773a60.911,60.911,0,0,0-1.043,6.277h0a35.046,35.046,0,0,0-.3,3.67C.909,87.754.454,91.347.212,93.45h0c-.417,3.629-.2,6.6.483,6.6,1.849,0,2.783-4.327,3.8-17.594.5-6.567,1.538-14.007,2.3-16.535a85.575,85.575,0,0,0,2.16-13.2c.426-4.731,1.675-13.125,2.776-18.656a136.074,136.074,0,0,0,2.215-19.354" transform="translate(33.812 156.327)" fill="#0f3154"/><path d="M.418,7.733c.64.883,1.39.758,2.229-.372C4.314,5.113,4.313,0,2.645,0,.918,0-.818,6.026.418,7.733" transform="translate(49.766 125.672)" fill="#0f3154"/><path d="M4.383,13.643C4.735-.629,4.692-.974,2.752.681.87,2.289-.912,21.248.52,24.436c1.955,4.354,3.6-.246,3.863-10.793" transform="translate(50.842 98.205)" fill="#0f3154"/><path d="M0,3.456C.018,6.149.338,6.5,1.449,5.027,3.309,2.568,3.309,0,1.449,0,.64,0-.012,1.556,0,3.456" transform="translate(33.149 261.402)" fill="#0f3154"/><path d="M8.872,22.678c-.66.7-1.56,3.815-2,6.925C5.521,39.205,3.3,48.917,1.613,52.621A19.566,19.566,0,0,0,0,59.323v0c0,4.016,3.224,3.293,3.925-.882a77.557,77.557,0,0,1,2.721-9.359c1.213-3.456,3.192-10.422,4.4-15.479s2.779-10.147,3.494-11.31a31.3,31.3,0,0,0,2.377-7.772,31.238,31.238,0,0,1,2.459-7.9c1.642-2.669.076-7.962-1.863-6.305A7.921,7.921,0,0,0,16.34,2.456,4.237,4.237,0,0,0,14.91,5.575a3.124,3.124,0,0,1,.025.452c-.592,1.631-1.214,3.482-1.8,5.4-1.684,5.491-3.6,10.555-4.262,11.253" transform="translate(46.367 191.583)" fill="#0f3154"/><path d="M2.944,1.33C2.944.251,2.28-.28,1.473.148A2.691,2.691,0,0,0,0,2.108,1.356,1.356,0,0,0,1.473,3.29c.807,0,1.471-.882,1.471-1.96" transform="translate(34.597 297.071)" fill="#0f3154"/><path d="M.266,14.8c1.482,3.989,4.527.428,5.557-6.5S4.764-2.713,2.651,2.074C1.895,3.786,1.561,5.6,1.907,6.1s-.1,2.08-.99,3.5A6.718,6.718,0,0,0,.266,14.8" transform="translate(46.906 136.196)" fill="#0f3154"/><path d="M0,0H0Z" transform="translate(50.183 133.404)" fill="#0f3154"/><path d="M3.906.205C3.456-.415,2.249.419,1.222,2.06S-.28,5.547.17,6.169s1.657-.213,2.684-1.853S4.355.826,3.906.205" transform="translate(138.481 295.917)" fill="#0f3154"/><path d="M1.022,25.134c.877,0,1.94-2.4,2.364-5.341A122.218,122.218,0,0,1,6.556,3.456C7.1,1.554,6.946,0,6.2,0,4.055,0,1.317,7.85.335,16.839h0c-.611,5.6-.388,8.3.687,8.3" transform="translate(89.176 236.267)" fill="#0f3154"/><path d="M4.027,3.907C4.054-2.934,1.655-.287.381,7.929c-.629,4.054-.47,6.6.414,6.6,1.87,0,3.207-4.392,3.232-10.62" transform="translate(95.28 219.227)" fill="#0f3154"/><path d="M.373,73.463c-.018.015-.035.023-.054.039-.447.383-.415,1.5.035,2.609.192,4.756,1.707,5.243,2.875-1.373.377-2.134,1.1-5.951,1.919-10.181A3.37,3.37,0,0,0,5.4,63.285c.735-3.776,1.529-7.774,2.214-11.143a10.558,10.558,0,0,1,2.2-4.481c.9-.924,2.052-5.036,2.565-9.137a118.329,118.329,0,0,1,2.879-14.369C17.676,15.55,18.623.481,16.774,0c-.759-.195-3.223,9.259-5.475,21.01S6.612,43.509,5.891,44.89a12.494,12.494,0,0,0-.61,6.6A9.5,9.5,0,0,1,3.827,58.4C2.642,59.958,1.2,65.329.628,70.34.5,71.468.417,72.512.373,73.463" transform="translate(114.275 70.099)" fill="#0f3154"/><path d="M8.157,2.268C7.808-.855,7.794-.852,5.785,2.9A20.128,20.128,0,0,0,3.7,10.564,27.337,27.337,0,0,1,2.276,18.1,50.9,50.9,0,0,0,.242,27.773C-.991,38.741,2.75,33.5,5.515,20.388c3.2-15.2,3.071-14.29,2.643-18.12" transform="translate(104.523 156.08)" fill="#0f3154"/><path d="M2.814,1.115c-.69-1.535-1.028-1.5-2.15.21A3.361,3.361,0,0,0,.331,4.739C1.725,6.664,3.888,3.506,2.814,1.115" transform="translate(99.835 204.024)" fill="#0f3154"/><path d="M2.207,6.142C3.42,4.662,4.013,2.56,3.524,1.471,2.14-1.609,0,.447,0,4.857H0C0,8.749.047,8.776,2.207,6.142" transform="translate(102.269 192.804)" fill="#0f3154"/><path d="M4,12.253C5.006,7.934,6.134,3.409,6.51,2.2S6.573,0,5.813,0C4.406,0,1.958,6.939.383,15.4-1.1,23.354,2.063,20.609,4,12.253" transform="translate(264.453 66.604)" fill="#0f3154"/><path d="M74.969,246.773c-1.71,1.323-3.27,4.66-3.812,8.161-.506,3.258-2.2,10.448-3.754,15.977s-3.908,14.579-5.221,20.109-3,12.316-3.75,15.08-1.688,7.007-2.086,9.426c-.711,4.332-3.8,20.4-6.528,33.933-.765,3.8-2.471,10.467-3.788,14.812s-2.01,8.437-1.536,9.093a7.078,7.078,0,0,1,.076,2.848c-.518,3.236-1.053,6.782-1.593,10.545-2.022,10.538-5.717,34.311-7.577,48.79-.355,2.766-1.58,10.966-2.722,18.223s-2.463,18-2.933,23.878c-.052.646-.111,1.324-.177,2.033-.184,1.664-.355,3.3-.507,4.847-.016.156-.032.319-.048.476-1.132,9.921-3.313,25.094-7.221,50.455-1.535,9.964-9.081,41.346-11.867,49.36-.312.9-.608,1.636-.886,2.236a6.394,6.394,0,0,1-1.417,1.856c-1.247.233-1.759-4.742-1.275-14.209.645-12.61,3.06-45.347,4.284-58.1.3-3.11.946-12.159,1.439-20.108s1.538-17.845,2.321-21.993c1.379-7.307,3.6-28.784,5.779-55.925,1.078-13.431,4.875-41.023,7.521-54.669.4-2.039.9-5.06,1.39-8.3a5.066,5.066,0,0,0,.664-3.9.968.968,0,0,1-.059-.215c.287-2.032.553-4.028.772-5.81A149.616,149.616,0,0,1,33.3,329.35a59.316,59.316,0,0,0,1.587-12.568c.025-3.8,1.049-8.557,2.277-10.567,1.327-2.175,2.481-8.287,2.846-15.081a99.77,99.77,0,0,1,2.94-19.1,153.016,153.016,0,0,0,3.676-15.71c1.434-8.537,5.153-26.468,10.4-50.132,1.761-7.948,3.7-17.864,4.3-22.034s1.859-8.8,2.792-10.286a12.78,12.78,0,0,0,1.694-5.727c0-1.663,1.318-7.425,2.929-12.805,4.9-16.371,7.446-31.266,6.426-37.618-.854-5.324-.635-6,2.154-6.621,3.109-.694,5.758-4.942,4.014-6.432-.511-.436-1.311.455-1.777,1.98s-1.385,2.773-2.041,2.773c-2.16,0-2.393-4.325-.473-8.8a49.041,49.041,0,0,0,2.653-11.311,88.723,88.723,0,0,1,2.2-11.939c.792-2.765,2.806-10.682,4.477-17.594,5.274-21.823,8.933-32.465,14.1-41,2.858-4.722,3.883-4.578,3.313.466-.335,2.968.141,4.084,1.744,4.084q2.2,0,2.585-4.4a51.678,51.678,0,0,1,2.864-10.959C112.342,4.364,113,1.021,112.442.542c-.026-.021-.064-.032-.092-.052-.013-.025-.016-.071-.033-.087-.817-.7-2.187-.449-3.78.427-2.336.86-4.89,2.5-5.519,3.952a7.233,7.233,0,0,1-2.2,2.929c-1.15.666-4.169,6.8-8.618,17.5-1.006,2.419-2.337,5.53-2.958,6.913s-2.8,7.886-4.853,14.452C81.078,57.2,79.16,65.585,73.178,95.593c-.895,4.493-2.3,11.279-3.124,15.081s-1.777,9.457-2.123,12.568c-1.044,9.409-1.825,13.875-4.835,27.649-5.213,23.855-7.091,33.128-7.5,37.4-.43,1.943-.86,3.841-1.3,5.754a1.229,1.229,0,0,1-.259.2c-.809.428-1.472,1.976-1.472,3.442a24.293,24.293,0,0,1-1.385,6.523c-1.443,4.021-2.947,10.888-6.726,30.728-1.236,6.483-2.721,12.42-3.3,13.2a3.9,3.9,0,0,0-.383.823,7.513,7.513,0,0,0-1,3.2c-.651,2.344-1.413,5.449-2.11,8.7-1.338,6.221-3.54,16.3-4.893,22.395-1.993,8.974-2.107,11.447-.6,13,1.021,1.053,1.661,3.982,1.418,6.512s-.538,6.012-.659,7.74c-.168,2.4-1,3.117-3.53,3.042-2.31-.07-3.311.62-3.311,2.282a10.618,10.618,0,0,1-1.466,4.723c-1.919,3.064-.4,6.343,2.493,5.394,1.944-.637,2.109.339,1.2,7.05-.581,4.285-1.278,9.884-1.548,12.444s-.821,6.35-1.223,8.425c-.76,3.915-2.616,15.116-5.483,33.106-.919,5.767-1.888,13.4-2.151,16.966-.152,2.044-.614,5.831-1.21,10.055a8.89,8.89,0,0,0-.9,3.773c0,.8-.087,2.14-.239,3.766-.113.7-.226,1.4-.34,2.083-1.212,7.258-2.915,21.114-3.783,30.79s-2.318,24.1-3.223,32.048S6.459,502.6,6.322,504.669a64.48,64.48,0,0,1-1.238,8.169c-2.2,9.78-6.252,85.381-4.763,88.915h0a2.783,2.783,0,0,0,.534.817,2.37,2.37,0,0,0,.1.407h0c.518,1.326,4.59-.151,6.816-2.415a33.753,33.753,0,0,0,5.253-6.035c2.412-3.456,6.122-14.407,8.514-25.134,4.236-19,7.513-37.174,8.947-49.643.874-7.6,2.225-16.935,3-20.736,1.245-6.109,3.889-27.364,7.266-58.439.6-5.53,2.212-17.405,3.579-26.392s3.07-20.579,3.784-25.763c1.487-10.8,6.731-40.325,8.817-49.643,1.638-7.318,2.851-13.625,4.472-23.25,1.615-9.592,8.884-40.3,10.263-43.358,1.514-3.357,4.023-13.619,5.223-21.357.958-6.18.929-6.242-1.921-4.039" transform="translate(176.219 6.201)" fill="#0f3154"/><path d="M1.225,11.234C.072,16.592-.341,20.973.306,20.973c1.384,0,4.292-8.1,5.329-13.927A11.93,11.93,0,0,0,6.014,4.1c0-.107-.007-.188-.009-.289s.007-.195.007-.286c0-7.041-2.466-3.07-4.786,7.706" transform="translate(271.32 43.117)" fill="#0f3154"/><path d="M1.581,6.041C3.837,5.4,4.262.057,2.062,0,1.3-.021.487,1.283.172,2.953c-.031.092-.064.181-.088.277a2.339,2.339,0,0,0-.065.9C-.089,5.792.4,6.377,1.581,6.041" transform="translate(277.477 33.89)" fill="#0f3154"/><path d="M0,6.568c-.013,1.9.61,3.457,1.382,3.457,1.064,0,2.276-3.362,2.687-6.168A4.427,4.427,0,0,0,4.2,2.482,3.049,3.049,0,0,0,3.752.261C2.238-1.031.025,2.689,0,6.568" transform="translate(159.666 232.527)" fill="#0f3154"/><path d="M1.313,8.739c1.667,0,3.113-3.174,3.053-6.7C4.321-.627,4.273-.633,2.159,1.753A8.739,8.739,0,0,0,0,6.466C0,7.717.591,8.739,1.313,8.739" transform="translate(169.942 203.648)" fill="#0f3154"/><path d="M40.3,441.327c.359-2.592.637-5.034.816-7.058a2.089,2.089,0,0,0,.091-1.09c.184-2.416.194-4.032-.017-4.213-1.508-1.289-3.56,4.242-4.51,12.155-.539,4.493-1.923,12.693-3.076,18.223-.2.969-.392,1.888-.58,2.8a34.523,34.523,0,0,0-1.278,6.277c-2.538,12.706-3.473,19.124-4.134,27.37-.08.991-.177,2.011-.285,3.032-.266,1.953-.52,3.915-.755,5.839a44.079,44.079,0,0,1-1.1,5.464c-.732,2.355-.979,4.766-.549,5.361a2.658,2.658,0,0,1,.18,1.245c-.247,1.929-.5,3.811-.738,5.592-.058.273-.113.544-.177.821a273.714,273.714,0,0,0-5.326,34.228c-1.024,12.74-2,22-2.854,27.021-.41,2.418-1.139,9.488-1.619,15.709-.136,1.777-.317,3.621-.521,5.409-.384,2.709-.767,5.346-1.143,7.867a24.627,24.627,0,0,1-.562,2.434,40.669,40.669,0,0,0-1.431,9.426c0,.362-.027.746-.063,1.142-.265,1.549-.513,2.932-.74,4.109a17.122,17.122,0,0,1-1.293,3.545C6.8,637.476,6.6,636.357,6.367,621.151c-.139-9.159-.292-18.207-.34-20.108C5.944,597.7,7.253,569.2,8.552,546.06c.7-12.371,3.147-39.608,4.638-51.527.519-4.148,1.1-9.52,1.283-11.94,1.178-15.288,2.61-27.833,3.78-33.122.743-3.355,1.074-6.484.735-6.954s-.022-3.378.706-6.465,2.048-12.965,2.935-21.951c2.256-22.884,2.48-24.739,3.41-28.277,1.13-4.3,3.517-19.551,5.309-33.932A160.006,160.006,0,0,1,35,332.412a60.143,60.143,0,0,0,2.228-12.568,38.734,38.734,0,0,1,1.539-9.577,121.148,121.148,0,0,0,2.95-13.2c1.6-9.389,3.98-20.986,5.133-24.985.4-1.382,1.718-8.165,2.933-15.074a162.077,162.077,0,0,1,3.535-16.338,125.808,125.808,0,0,0,3.107-13.832c.978-5.529,2.024-11.185,2.322-12.568.228-1.05,1.175-5.623,2.314-11.157.567-2.3,1.107-4.918,1.508-7.3a153.011,153.011,0,0,1,4.78-17.975c1.256-3.163,2.286-6.987,2.286-8.5s1.268-7.286,2.817-12.837c.184-.66.384-1.386.6-2.156a29.405,29.405,0,0,0,1.607-5.9c1.279-4.741,2.671-9.98,3.707-13.978,1.7-6.567,3.718-13.919,4.477-16.338s4.37-14.579,8.023-27.021c8.308-28.3,19-56.831,26.9-72.446.348-.61.692-1.2,1.025-1.735a26.346,26.346,0,0,0,1.875-3.617c.73-1.243,1.426-2.344,2.078-3.263.459-.649.871-1.293,1.256-1.931a6.017,6.017,0,0,0,.958-1.714c1.251-2.446,1.793-4.5,1.246-5.257-1.782-2.463-4.624-.925-7.743,4.19-1.792,2.938-5.212,8.169-7.6,11.625s-4.366,7.4-4.392,8.756a29.114,29.114,0,0,1-2.13,7.54c-1.146,2.787-3.574,9.311-5.4,14.5A146.169,146.169,0,0,1,92.193,63.7c-1.886,3.584-3.429,7.283-3.429,8.218s-1.324,3.918-2.942,6.63-2.942,5.641-2.942,6.512-1.324,3.594-2.941,6.055c-3.731,5.675-3.72,7.38.042,6.539,2.7-.6,2.9-.233,2.109,3.938-1.612,8.475-4.148,17.161-5.363,18.366a6.119,6.119,0,0,0-1.182,3.771c.011,1.416-1.313,7.241-2.942,12.944-6.761,23.664-8.743,31.456-9.673,38.017-.021.144-.044.285-.066.429-.589,2.521-1.173,5.063-1.731,7.538a1.965,1.965,0,0,1-.106.2c-1.107,1.508-6.424,26.209-10.687,49.642-1.7,9.331-3.655,18.1-4.35,19.48s-1.595,6.593-2,11.577-1.353,10.074-2.109,11.311c-1.641,2.68-4.277,15.044-5.316,24.7-.556,3-1.082,6.188-1.549,9.416a2.833,2.833,0,0,1-.3.667c-.56.768-2.182,9.6-3.6,19.621S27.512,352.3,26.28,358.174s-2.867,15.206-3.632,20.737c-5.014,36.25-7.725,57.143-9.123,70.343-2.249,21.228-2.286,21.519-4.012,32.712-.853,5.529-1.945,17.081-2.428,25.671s-1.5,16.613-2.264,17.83S3.442,532.1,3.45,537.5s-.285,13.778-.651,18.618C1.984,566.9-.058,607.714,0,612.039c.272,19.753,2.018,40.638,3.526,42.193,1.535,1.579,2.093,1.6,4.175.018a5.83,5.83,0,0,0,2.359-2.722,10.2,10.2,0,0,0,1.22-2.8c.437-1.859,1.517-6.208,2.4-9.664,3.855-15.065,8.366-50.568,11.9-93.628.822-10.022,2.1-19.637,2.851-21.364s2.016-8.8,2.82-15.71,2.8-22.181,4.444-33.932,3.712-26.644,4.606-33.1" transform="translate(141.492 0)" fill="#0f3154"/><path d="M1.471.153A3.257,3.257,0,0,0,0,2.815C0,3.852.661,4.35,1.471,3.923A3.256,3.256,0,0,0,2.941,1.261C2.941.224,2.28-.274,1.471.153" transform="translate(261.151 90.958)" fill="#0f3154"/><path d="M1.471.153A3.257,3.257,0,0,0,0,2.815C0,3.852.661,4.351,1.471,3.923A3.256,3.256,0,0,0,2.941,1.261C2.941.225,2.28-.275,1.471.153" transform="translate(153.76 253.08)" fill="#0f3154"/><path d="M1.563,41.663h0a43.437,43.437,0,0,0-1.3,4.845,1.045,1.045,0,0,0-.209.59,2.251,2.251,0,0,0,.041.392c-.176,1.243-.106,1.96.26,1.855,1.058-.3,3.256-4.106,5.475-9.16a7.764,7.764,0,0,0,1.394-3.335C7.839,35.3,8.438,33.678,9,32.047a39.805,39.805,0,0,1,3.758-8.168C15.2,20.512,18.742,11.22,19.947,5.027L20.927,0,17.935,4.826a120.938,120.938,0,0,0-6.843,14.351A125.28,125.28,0,0,1,5.714,31.14,70.83,70.83,0,0,0,1.563,41.663" transform="translate(184.603 127.557)" fill="#0f3154"/><path d="M1.472,0C.662,0,0,.881,0,1.96s.662,1.61,1.472,1.183a2.687,2.687,0,0,0,1.471-1.96A1.355,1.355,0,0,0,1.472,0" transform="translate(181.709 180.969)" fill="#0f3154"/><path d="M4.025,12.625c.154-3.369.824-6.858,1.49-7.756a3.959,3.959,0,0,0,.326-3.6C5.147-.275,4.511-.378,2.867.786a5.048,5.048,0,0,0-2.06,3.6C.824,5.547.559,9.469.218,13.1s-.276,6.892.141,7.248c1.747,1.491,3.4-2,3.665-7.721" transform="translate(195.842 334.707)" fill="#0f3154"/><path d="M.781,3A2.215,2.215,0,0,0,.9.587c-.47-1-.819-.7-.889.76C-.056,2.672.291,3.414.781,3" transform="translate(203.885 313.362)" fill="#0f3154"/><path d="M13.1,5.668C15.031,4.649,15.05,0,13.123,0c-.809,0-1.555.424-1.659.943s-.44,2.074-.748,3.456C8.053,16.363,5.339,29.555,4.251,35.818,3.532,39.965,2.31,46.751,1.537,50.9A99.476,99.476,0,0,0,.007,63.152h0c-.068,2.593.486,4.713,1.23,4.713C2.9,67.865,4.428,62.21,5.1,53.6A109.814,109.814,0,0,1,7.148,40.4c2.917-12.723,5.944-31.878,5.2-32.907-.409-.567-.072-1.386.75-1.819" transform="translate(181.827 358.173)" fill="#0f3154"/><path d="M.749,23.12a2.509,2.509,0,0,0,1.332-1.9c0-.657,1.257-3.594,2.794-6.523a58.333,58.333,0,0,0,3.51-7.841A40.725,40.725,0,0,1,10.28,1.829c1.051-2.242.909-2.327-1.321-.777C6.675,2.639,3.994,7.04,2.17,11.725A8.9,8.9,0,0,0,.658,16.011c0,.153.006.291.015.431-.168.7-.314,1.383-.417,2.045-.479,3.052-.268,5.034.494,4.632" transform="translate(209.052 100.593)" fill="#0f3154"/><path d="M.781,3A2.214,2.214,0,0,0,.9.588c-.47-1-.819-.7-.889.76h0C-.056,2.672.291,3.413.781,3" transform="translate(205.356 307.079)" fill="#0f3154"/><path d="M34.534,300.4c-.743,0-1.766,1.414-2.273,3.142-1.878,6.389-3.531,2.887-2.7-5.725.58-6.025.287-9.449-.911-10.682a6.54,6.54,0,0,1-.513-.594c-.07-.581-.132-1.307-.188-2.173a5.4,5.4,0,0,1,.714-.879c.978-1.007,1.314-2.471.748-3.254-1.179-1.629-1.132-63.036.074-98.6.446-13.134,1.843-32.012,3.108-41.954.778-6.122,1.238-10.485,1.4-13.631a17.262,17.262,0,0,0,.049-3.238,7.96,7.96,0,0,0-.841-3.9c-2.54-4.054-.795-50.568,2.9-77.4C38.613,23.261,44.9,7.1,49.243,6.541A5.549,5.549,0,0,1,51.668,8.58c1.983,4.7,3.459,17.843,3.566,32.925.065,9.331.244,18.1.4,19.48a124.936,124.936,0,0,1-.962,14.028c-.756,7.035-.694,12.344.158,13.645,2.135,3.259,3.405-8.52,4.274-39.612.51-18.242.194-29.266-.969-33.932-.949-3.8-2.016-8.2-2.371-9.783a7.138,7.138,0,0,0-3.4-3.83A6.2,6.2,0,0,0,48.316,0c-1.553,0-3.206,1.269-4.856,3.554-.075.078-.145.146-.223.227-2.313,2.367-4.629,6.309-5.145,8.761a27.013,27.013,0,0,1-2.106,6.4q-5.4,8.98-10.409,108.656c-1.935,38.539-2.281,44.938-3.34,61.581-.429,6.74-.824,13.383-1.186,19.884a99.648,99.648,0,0,0-.953,12.759c.047.7.067,2.237.065,4.442-1.042,21.82-1.634,41.331-1.683,56.368-.046,14.267-.4,32.443-.779,40.393s-1.069,22.37-1.528,32.047c-1.1,23.281-2.124,37.276-2.889,39.588-.342,1.036-1.334,8.954-2.2,17.6C8.194,440.991,4.153,466.021,1.26,473.1c-2.208,5.4-1.448,9.53,1.756,9.53,2.777,0,4.871-3.649,6.625-11.547,2.692-12.125,4.028-9.051,3.471,7.985-.941,28.809-2.042,41.624-3.728,43.359-1.2,1.235-1.145,2.173.2,3.562h0a6.489,6.489,0,0,0,.825.708s0,.015.008.018h0a2.891,2.891,0,0,0,2.178,1.056,2.819,2.819,0,0,0,.667.1c1.4,0,2.456-.186,3.25-1.506.036-.035.08-.061.115-.1a1.327,1.327,0,0,0,.2-.512c1.923-4.365,2.136-17.593,2.408-57.308.15-22.082.548-41.779,1.163-58.516.457-11.3,1-21.567,1.6-30.548.657-8.9,1.417-16.04,2.272-21.174.748-4.493,2.044-12.977,2.881-18.852s1.907-12.662,2.382-15.081a79.35,79.35,0,0,0,1.115-8.168c.14-2.075,1-4.336,1.921-5.027,2.107-1.588,3.776-10.682,1.961-10.682" transform="translate(0 3.736)" fill="#0f3154"/></g></svg>