<svg xmlns="http://www.w3.org/2000/svg" xmlns:xlink="http://www.w3.org/1999/xlink" width="774.886" height="721.59" viewBox="0 0 774.886 721.59"><defs><clipPath id="a"><rect width="351.732" height="712.265" fill="#78c34e"/></clipPath></defs><g transform="translate(553.534) rotate(51)" opacity="0.27"><g clip-path="url(#a)"><path d="M5.594.158C3.549,2.314-1.06,28.513.221,30.7,1.631,33.1,3.3,30.059,3.3,25.1A38.41,38.41,0,0,1,4.5,15.957C6.355,9.8,7.136-1.466,5.594.158" transform="translate(72.499 286.415)" fill="#78c34e"/><path d="M7.078,14.928c-.925,5.634-2.456,11.455-3.405,12.937A16.826,16.826,0,0,0,1.95,35.386a43.4,43.4,0,0,1-1.258,9.45C0,47.38-.209,50.071.229,50.816h0c1.181,2.013,4.21-4.539,4.281-9.257a63.117,63.117,0,0,1,2.065-11.61c2.829-10.6,5.737-24.778,5.737-27.96,0-6.067-3.559,2.729-5.234,12.937" transform="translate(95.875 394.792)" fill="#78c34e"/><path d="M1.372,0A1.372,1.372,0,0,0,0,1.365c0,.751.257,1.365.571,1.365S1.5,2.117,1.943,1.365,2.126,0,1.372,0" transform="translate(93.937 452.058)" fill="#78c34e"/><path d="M4.045.118C2.875,1.451,0,19.971,0,26.168H0c0,4.248,1.531,3.912,2.773.946a4.859,4.859,0,0,0,.734-2.246A24.639,24.639,0,0,0,4.1,21.793C5.388,11.686,5.356-1.378,4.045.118" transform="translate(88.756 459.519)" fill="#78c34e"/><path d="M2.2,0C.373,0-.467,1.537.262,3.54h0C.644,4.59,1.478,5.108,2.116,4.692,3.579,3.738,3.643,0,2.2,0" transform="translate(110.093 371.479)" fill="#78c34e"/><path d="M0,0H0Z" transform="translate(63.236 676.522)" fill="#78c34e"/><path d="M108.6,126.014c3.484-15.21,8.511-39.007,12.836-60.775,4.574-23.015,11.147-49.033,13.681-54.157a16.047,16.047,0,0,0,1.792-7.32,2.461,2.461,0,0,0-.3-2.006c-.572-1.817-1.9-2.423-3.646-.862a3.075,3.075,0,0,0-.562.51,2.287,2.287,0,0,0-.215.307c-.1.116-.19.2-.289.333-2.762,3.6-14.258,50.4-14.28,58.125a8.676,8.676,0,0,1-.136,1.34c-.224.946-.442,1.833-.652,2.639a21.2,21.2,0,0,1-1.168,2.977,37.231,37.231,0,0,0-2.7,9.56A117.772,117.772,0,0,1,109.829,90.5a120.037,120.037,0,0,0-3.206,14.34,100.973,100.973,0,0,1-2.607,12.291c-2.033,6.986-4.7,19.6-8.96,42.339-1.617,8.638-4.161,21.546-5.653,28.68-3.482,16.663-7.656,39.792-8.72,48.321a49.326,49.326,0,0,1-2.036,9.559C77.984,247.628,76.3,256.614,74.9,266s-3.457,21.067-4.576,25.95a82.987,82.987,0,0,0-2.048,12.291A82.235,82.235,0,0,1,66.2,316.536a124.9,124.9,0,0,0-2.333,12.292c-.151,1.878-1.5,10.481-3,19.12-4.571,26.371-6.4,37.528-7.487,45.829-.253,1.609-.5,3.392-.7,5.2-.111,1-.241,2.092-.382,3.24-.677,4.837-1.6,10.827-2.4,15.382-1.109,6.385-2.406,15.6-2.881,20.486a149.881,149.881,0,0,1-2.636,16.389,218.207,218.207,0,0,0-3.17,22.534c-.769,8.263-1.709,16.867-2.088,19.12s-.943,6.249-1.249,8.878c-.231,1.972-.474,3.974-.726,5.993-.009.013-.019.038-.028.048-.61.715-1.11,3.227-1.11,5.583,0,1.415-.309,4.768-.782,8.749-2.224,15.677-4.73,30.39-6.5,37.673-1.1,4.507-2.568,10.652-3.271,13.657-1.593,6.817-8.721,21.959-11.657,24.76-2,1.906-2.351,1.807-3.87-1.089C5.89,592.663,5.125,560.7,8.727,549.666a104.972,104.972,0,0,0,3.317-13.322c.523-3.338,1.412-6.685,1.979-7.435s1.369-5.976,1.787-11.61,1.418-14.852,2.224-20.486,1.689-14.546,1.963-19.8,1.381-14.785,2.461-21.169,2.559-16.833,3.285-23.218,1.892-16.525,2.592-22.534,1.48-13.457,1.732-16.553a57.852,57.852,0,0,1,1.952-10.392c1.386-4.43,4.125-22.437,6.6-43.39.576-4.882,1.429-11.95,1.893-15.707.8-6.488.749-6.658-1.081-3.414-1.059,1.879-2.593,8.639-3.408,15.024s-2.306,15.381-3.312,19.992-2.44,14.179-3.189,21.262-2.24,18.368-3.311,25.078c-3.619,22.651-4.289,27.2-5.107,34.732a71.516,71.516,0,0,1-1.943,10.927c-.62,1.878-1.476,9.145-1.9,16.149s-1.358,15.916-2.073,19.8c-.995,5.4-6.358,46.236-6.366,48.462,0,.233-.635.008-1.411-.5-1.346-.877-.978-17.767.746-43.592.576-7.445,1.27-16.253,2.1-26.7.4-5.025.778-9.79,1.141-14.329.22-2.468.445-4.959.678-7.488,1-10.892,2.174-24.1,2.6-29.363,1.29-16.012,4.455-45.953,5.774-54.63.218-1.432.465-3.254.733-5.368.064-.487.123-.966.18-1.445,1.078-8.768,2.443-21.887,3.6-34.841.3-3.381,1.139-9.7,1.859-14.052a42.045,42.045,0,0,0,.726-9.326c.087-.595.221-1.62.385-2.962a1.574,1.574,0,0,1,.228-.234c.762-.5,1.384-3.612,1.384-6.926s.836-12.342,1.859-20.064,3.118-23.873,4.659-35.892c2.815-21.973,8.36-53.274,10.478-59.157a24.233,24.233,0,0,0,1.14-6.83c0-2.015,2.071-10.118,4.6-18.006s5.452-17.948,6.5-22.358c1.968-8.313,7.232-23.594,10.176-29.541a39.951,39.951,0,0,0,2.588-7.379c.763-3.368,4.882-10.552,7.652-13.963,1.556-1.6,2.418-1.812,3.412-1.119A6.974,6.974,0,0,1,83.78,67.61c1.1,2.08,1.364,1.924,2.122-1.257.856-3.6.679-6.193-.438-7.672a2.366,2.366,0,0,0-2.271-1.671,1.662,1.662,0,0,0-.773.287c-1.785.163-3.66,2.012-6.725,6.51-2.587,3.8-4.7,7.425-4.7,8.062s-1.527,4.17-3.394,7.85c-4.987,9.83-7.652,18.231-15.014,47.321-2.7,10.667-4.925,13.773-4.892,6.829.01-2.065,1.156-10.208,2.55-18.1C52.568,102.6,54.5,93.721,59.9,71.385c2.559-10.572,2.557-13.29-.008-12.733-3.646.793-9.644,16.856-9.633,25.8A53.166,53.166,0,0,1,48.38,96.062c-1.039,3.7-2.78,11.959-3.869,18.343s-3.5,17.449-5.36,24.583-3.811,16.048-4.338,19.8a58.741,58.741,0,0,1-2.3,10.242,85.064,85.064,0,0,0-4.916,19.8c-.488,3.756-1.481,7.589-2.206,8.519C23.8,199.4,25.1,203.7,26.942,202.5c.718-.468,1.305-2.314,1.305-4.1,0-3.556,6.074-22.459,7.861-24.466,1.211-1.358,1.184-1.082-2.7,27.2-4.338,31.587-6.264,47.052-7.739,62.14-.77,7.887-2.546,23.56-3.946,34.827-6.074,48.9-10.579,88.477-11.657,102.43-.639,8.263-2.074,24.549-3.19,36.193s-2.262,25.163-2.548,30.046-1.5,22.091-2.708,38.241C.852,515.285.408,525.642.24,535.656a208.6,208.6,0,0,0,.087,21.8c.743,28.679,3.967,50.861,8.688,53.555.967.659,2.142.47,3.638-.612,2.928-1.518,6.525-4.605,6.525-6.122,0-.44,1.711-3.473,3.8-6.739a48.312,48.312,0,0,0,5.352-12.7c.852-3.719,2.348-7.663,3.323-8.762,2.226-2.51,2.269-.8.483,19.072-1.653,18.386-2.4,55.2-1.779,70.934.041,3.763.159,6.106.37,6.329a.981.981,0,0,0,.136.086c.107.58.227.921.358.98,2.787,1.194,3.569.92,4.3-1.508.4-1.314,1.233-3.619,1.853-5.122,3.615-8.754,6.869-29.02,8.115-50.532a16.11,16.11,0,0,1,1.128-5.539c.491-.793.406-3.715-.189-6.494-.617-2.889-.584-5.378.079-5.81.638-.416,1.161-4.017,1.161-8a95.938,95.938,0,0,1,1.19-13.919c.654-3.669,1.577-13.73,2.051-22.353.154-2.794.317-5.451.476-7.787.338-3.234.685-6.484,1.033-9.689.443-2.466,1.352-8.811,2.282-16.011C55.871,511.7,57.037,502.827,57.3,501c1.167-8.19-2.425-9.245-3.781-1.111-1.52,9.118-1.681,10.3-3.775,27.656-1.087,9.014-2.293,18.263-2.679,20.553-.647,3.838-2.878,30.224-3.92,46.368-.176,2.728-.51,6.381-.839,9.334a5.984,5.984,0,0,0-.6,4.69c-.48,3.644-1.259,9.949-1.89,15.34-1.939,16.527-2.542,19.256-4.037,18.283-.85-.554-1.023-6.032-.486-15.376,1.2-20.774,2.271-44,2.694-58.219.2-6.761,1.013-16.595,1.8-21.852s1.99-15.4,2.667-22.535c.217-2.284.441-4.568.669-6.833.222-1.98.445-4.028.671-6.176.327-3.122.672-6.34,1.026-9.6,1.067-9.295,2.106-17.186,2.893-21.774.643-3.757,1.519-10.824,1.943-15.707s2.208-18.71,3.962-30.729c5.059-34.668,9.593-65.145,10.461-70.336.441-2.628.963-6.01,1.159-7.511s1.929-11.335,3.849-21.852,3.932-22.808,4.473-27.315,1.927-12.5,3.079-17.755,3.6-18.471,5.433-29.363,4.42-25.028,5.743-31.412,3.631-18.062,5.129-25.949c4.307-22.679,11.844-59.184,15.65-75.8" transform="translate(32.012 3.046)" fill="#78c34e"/><path d="M3.153,0C1.589,0-.627,7.011.166,9.45h0c.5,1.542.991,1.418,2.393-.6C4.541,5.989,4.943,0,3.153,0" transform="translate(115.524 342.797)" fill="#78c34e"/><path d="M129.228,204.45c-.064-16.6-.456-20.644-1.146-25.7-1.58-20.847-4.694-32.711-10.535-46.718-1.915-4.593-2.954-6.065-4.986-6.4a2.136,2.136,0,0,0-.661-.124c-.16,0-.322.022-.483.037H111.4c-.069,0-.146.015-.217.018-.038,0-.075,0-.113.01a10.04,10.04,0,0,0-5.993,3.209,23.381,23.381,0,0,0-2.736,4.609,25.207,25.207,0,0,0-1.239,2.643,144.026,144.026,0,0,0-8.019,22.972c-.69,3-1.886,7.92-2.66,10.925a73.539,73.539,0,0,0-1.789,10.243c-1.11,13.838-2.173,21.97-3.841,29.363a62.82,62.82,0,0,0-1.67,12.292c.3,7.011-1.706,36.6-2.874,42.339-.746,3.661-.96-.93-.649-13.924.256-10.662.747-19.881,1.092-20.486s.985-12.5,1.422-26.438,1.338-31.452,2-38.925c1.123-12.651,1.734-27.146,3.331-79.141.053-1.748.123-3.535.2-5.319.223-4.307.458-8.266.692-11.687.379-5.056.813-9.261,1.215-11.413.394-2.112.645-3.768.76-5.088.251-2.231.07-3.569-.551-4.225a1.359,1.359,0,0,0-.148-.109c-.019-.021-.035-.044-.054-.065-2.11-2.226-4.9,2.053-7.344,11.273-1.1,4.132-3.419,12.737-5.162,19.121-6.209,22.751-17.528,85.19-23.4,129.063-1.105,8.263-2.585,19.017-3.288,23.9s-1.806,13.179-2.451,18.438-2.057,16.627-3.136,25.266c-2.774,22.183-4.679,40.732-5.893,57.36-.576,7.887-1.377,15.263-1.781,16.389s-1.343,14.955-2.086,30.729-1.913,33.6-2.6,39.606-2.115,19.53-3.174,30.047c-4.917,48.821-5.744,55.355-9.691,76.481a138.974,138.974,0,0,1-6.124,21.169c-1.285,3.441-2.069.141-2.509-12.751-.2-8.666-.36-21.165-.456-34.812-.007-2.48-.013-5.053-.016-7.75C10.4,439.533,11.841,391.6,14.312,362.5c.7-8.262,1.846-23.935,2.542-34.827,1.285-20.111,2.073-30.732,3.188-43.021.341-3.755,1.274-14.819,2.073-24.583s1.709-20.494,2.024-23.844c1.358-14.45,3.186-36.586,4.919-59.559,1.023-13.571,2.211-26.17,2.638-28S33,135.822,33.652,124.179c3.587-64.4,5.4-87.245,7.876-99.482,1.053-5.195,2.14-11.074,2.825-15.2a24.444,24.444,0,0,0,.865-6.306c.276-3.1-.164-3.439-1.966-3.076-1.666.337-2.933,2.457-3.959,6.624-.83,3.372-2.771,11.046-4.313,17.056s-3.569,14.1-4.5,17.986a53.915,53.915,0,0,1-2.654,8.689c-.933,1.591-3.985,12.826-7.967,29.32-.887,3.675-1.828,8.618-2.341,12.161-.546,2.688-1.119,5.653-1.735,8.965a2.635,2.635,0,0,1-.364.658,8.054,8.054,0,0,0-1.17,4.457,14.491,14.491,0,0,1-1.213,5.532c-.668,1.3-2.2,7.287-3.406,13.3s-3.01,13.616-4.008,16.9C3.9,147.424,2,157.7.811,167.548A23.241,23.241,0,0,0,0,172.72a7.85,7.85,0,0,0,.286,2.386c.272,3.873,2.072,2.846,3.648-3.466.8-3.192,2.014-7.956,2.7-10.585s2.066-9.7,3.061-15.707,3.329-16.763,5.187-23.9C19.4,104.1,23.355,86.477,24.226,79.822a25.669,25.669,0,0,1,2.425-8.194,28.751,28.751,0,0,0,2.6-8.6c1.281-8.46,3.134-8.489,3.137-.05.007,12.714-3.957,74.478-7.083,110.363-.13,1.491-.272,3.148-.425,4.927-.176,1.67-.347,3.678-.494,5.836-.976,11.582-2.171,26.189-3.028,37.039-1.156,14.647-2.626,29.09-3.266,32.095s-1.509,12.838-1.932,21.852-1.545,24.994-2.495,35.509-1.487,19.541-1.195,20.057a3.041,3.041,0,0,1,.1,1.063c-.046.892-.087,1.737-.123,2.527-.141,1.831-.4,4.18-.74,6.653-.71,5.119-2.321,26.823-3.58,48.231C5.917,426.768,5.154,501.027,6.05,538.707c.158,10.825.441,18.288.871,20.082h0c.047.2.107.39.168.58a6.735,6.735,0,0,0,.544,2.355h0c1.686,2.142,1.975,2.134,4.4-.131,2.552-2.387,7.839-13.525,10.228-21.546,2.714-9.117,7.872-43.417,10.062-66.921.839-9.013,2.029-20.69,2.643-25.949s2.074-23.388,3.241-40.289c.2-2.818.4-5.692.608-8.594.009-.106.019-.218.029-.322.335-3.765.716-8.961,1.057-14.3,3.638-47.613,8.592-100.337,11.147-117.46,1.065-7.136,2.585-19.427,3.377-27.315s1.967-16.491,2.607-19.12a131.456,131.456,0,0,0,1.981-15.476c.449-5.882,1.938-16.944,3.31-24.583s3.087-18.189,3.811-23.448,2.429-14.785,3.792-21.169c2.851-13.369,5.31-25.306,6.96-33.727.183-.762.345-1.6.478-2.462.617-3.2,1.089-5.776,1.375-7.516.555-3.381,1.575-5.983,2.265-5.782,1.29.374,1.2,43.657-.125,63.144-2.123,31.119-3.406,53.135-3.342,57.361.039,2.629-.493,10.619-1.183,17.755S74.522,247,73.822,259.389,71.987,289.3,71.3,298.313c-2.307,30.218-3.139,66.432-3.217,139.989-.081,75.4.7,103.113,2.97,105.508,1.094,1.153,2.629-.435,4.046-3.505a12.58,12.58,0,0,0,.646-1.363c.153-.387.3-.859.451-1.379A49.607,49.607,0,0,0,78.5,527.294c.144-1.228.288-4.935.427-10.567.993-13.773,1.4-31.427.862-47.053-.057-1.665-.109-3.431-.16-5.239.1-12.217.169-25.472.209-39.109.272-91.478.483-103.268,2.156-120.868.838-8.816,3.009-37.62,4.116-54.63,3.134-48.118,9.1-85.166,16.932-105.161,4-10.216,5.537-12.6,7.351-11.418,3.514,2.288,8.366,19.255,12.054,42.146,2.145,13.318,2.474,93.25.613,149.549-.683,20.657-1.545,72.455-1.916,115.108-.6,69-.454,77.639,1.321,78.357a5.017,5.017,0,0,0,.616.2c.28.355.536.427.771.14a1.675,1.675,0,0,0,1.288-.252c.88-.927,1.577-40.224,2.426-136.68.063-7.089.13-13.97.2-20.532q.063-5.482.123-10.726c.335-27.46.72-47.009.968-47.432.335-.573.642-26.781.683-58.241.02-15.951-.063-29.188-.319-40.438M74.946,501.185a9.463,9.463,0,0,1-.28,2.67c-.506,0-1.688-11.11-2.032-18.12.013-1.908.045-3.788.093-5.589.227-1.334.636-2.24,1.106-2.24.555,0,.981,2.714,1.177,7.109.044,6.632.016,12.5-.064,16.169m-1.877-28.932c.072-1.119.152-2.117.236-2.974q.227-.438.531-.933a6.666,6.666,0,0,1,.533-.771c.121.95.229,2.321.321,4.075-.227.488-.524.795-.854.795a1.451,1.451,0,0,1-.767-.192m.765-12.1A1.319,1.319,0,0,1,72.56,458.9c.009-.142.022-.278.037-.414a1.252,1.252,0,0,1,2.479.023c.013.126.025.252.034.382a1.321,1.321,0,0,1-1.276,1.263" transform="translate(222.182 94.338)" fill="#78c34e"/><path d="M2.634,6.108C3.922,5.269,2.623,0,1.128,0-.186,0-.43,4.571.812,5.882v0a1.488,1.488,0,0,0,1.823.229" transform="translate(31.777 312.75)" fill="#78c34e"/><path d="M3.887,1.707A1.816,1.816,0,0,0,1.963,0C.009,0-.742,4.2.9,5.94c1.012,1.066,2.954-1.69,2.983-4.233" transform="translate(33.036 304.557)" fill="#78c34e"/><path d="M2.2,4.662C3.67,3.7,3.637,0,2.157,0,.728,0-.666,3.543.345,4.609h0A1.525,1.525,0,0,0,2.2,4.662" transform="translate(36.219 293.632)" fill="#78c34e"/><path d="M12.28,15.99c.1-5.559.746-11.206,1.427-12.549.805-1.585.783-2.742-.061-3.292-1.693-1.1-3.582,4.067-4.408,11.479a13.376,13.376,0,0,0-.418,5.3C8.477,21.8,7.744,29.684,7.071,35.657c-.762,6.761-1.85,17.208-2.418,23.218-.522,5.52-1.482,14.776-2.224,21.488-.285,1.379-.571,3.57-.919,6.821h0c-.156,1.455-.242,2.816-.265,3.988C.8,95.364.4,99.268.187,101.553h0c-.367,3.944-.176,7.17.426,7.17,1.628,0,2.45-4.7,3.346-19.12A147.015,147.015,0,0,1,5.983,71.636a113.115,113.115,0,0,0,1.9-14.34c.375-5.142,1.475-14.263,2.444-20.274A181.217,181.217,0,0,0,12.28,15.99" transform="translate(29.773 169.884)" fill="#78c34e"/><path d="M.368,8.4c.563.96,1.224.823,1.963-.4C3.8,5.557,3.8,0,2.329,0,.808,0-.721,6.548.368,8.4" transform="translate(43.82 136.57)" fill="#78c34e"/><path d="M3.859,14.826C4.169-.683,4.131-1.059,2.424.741.766,2.488-.8,23.091.458,26.555c1.722,4.732,3.172-.268,3.4-11.729" transform="translate(44.768 106.722)" fill="#78c34e"/><path d="M0,3.756c.016,2.926.3,3.3,1.276,1.707C2.913,2.791,2.913,0,1.276,0,.563,0-.011,1.691,0,3.756" transform="translate(29.189 284.07)" fill="#78c34e"/><path d="M7.812,24.645c-.581.759-1.373,4.146-1.759,7.525C4.862,42.6,2.907,53.159,1.42,57.184A25.456,25.456,0,0,0,0,64.467v0c0,4.365,2.839,3.578,3.456-.959a99.926,99.926,0,0,1,2.4-10.17c1.068-3.756,2.811-11.326,3.874-16.821S12.174,25.492,12.8,24.228A40,40,0,0,0,14.9,15.782a39.865,39.865,0,0,1,2.165-8.588c1.446-2.9.067-8.652-1.64-6.852a9.307,9.307,0,0,0-1.033,2.327,5.151,5.151,0,0,0-1.26,3.389,4.181,4.181,0,0,1,.022.491c-.521,1.773-1.069,3.784-1.586,5.867-1.483,5.967-3.171,11.47-3.752,12.229" transform="translate(40.828 208.197)" fill="#78c34e"/><path d="M2.592,1.446C2.592.273,2.008-.3,1.3.161A2.952,2.952,0,0,0,0,2.29,1.3,1.3,0,0,0,1.3,3.575c.711,0,1.295-.959,1.295-2.129" transform="translate(30.464 322.833)" fill="#78c34e"/><path d="M.234,16.082c1.305,4.335,3.986.465,4.893-7.063S4.2-2.949,2.334,2.254c-.666,1.86-.96,3.829-.655,4.378S1.593,8.893.808,10.439a8.823,8.823,0,0,0-.574,5.643" transform="translate(41.303 148.007)" fill="#78c34e"/><path d="M0,0H0Z" transform="translate(44.188 144.973)" fill="#78c34e"/><path d="M3.439.223c-.4-.674-1.459.232-2.363,2.015S-.246,6.028.149,6.7,1.608,6.472,2.512,4.69,3.835.9,3.439.223" transform="translate(121.937 321.579)" fill="#78c34e"/><path d="M.9,27.314c.772,0,1.709-2.612,2.082-5.8A160.688,160.688,0,0,1,5.773,3.755C6.256,1.689,6.116,0,5.464,0,3.57,0,1.16,8.531.295,18.3h0c-.538,6.08-.341,9.015.605,9.015" transform="translate(78.523 256.756)" fill="#78c34e"/><path d="M3.546,4.246C3.57-3.188,1.458-.312.335,8.617c-.554,4.405-.414,7.17.364,7.17,1.646,0,2.824-4.773,2.846-11.541" transform="translate(83.898 238.238)" fill="#78c34e"/><path d="M.328,79.834c-.016.016-.031.025-.047.042-.394.416-.365,1.628.031,2.835.169,5.168,1.5,5.7,2.532-1.492.332-2.319.967-6.467,1.69-11.063a4.426,4.426,0,0,0,.218-1.382C5.4,64.67,6.1,60.325,6.7,56.664a12.7,12.7,0,0,1,1.938-4.87c.79-1,1.807-5.473,2.259-9.93a155.5,155.5,0,0,1,2.535-15.616C15.564,16.9,16.4.523,14.77,0,14.1-.208,11.932,10.065,9.949,22.835S5.822,47.282,5.187,48.783a16.57,16.57,0,0,0-.537,7.174,12.31,12.31,0,0,1-1.28,7.511C2.326,65.157,1.059,70.994.553,76.439.44,77.666.367,78.8.328,79.834" transform="translate(100.623 76.178)" fill="#78c34e"/><path d="M7.183,2.464c-.307-3.393-.32-3.39-2.089.684A25.969,25.969,0,0,0,3.257,11.48,35.957,35.957,0,0,1,2,19.674,66.683,66.683,0,0,0,.213,30.181C-.872,42.1,2.421,36.407,4.856,22.156,7.677,5.639,7.56,6.627,7.183,2.464" transform="translate(92.036 169.615)" fill="#78c34e"/><path d="M2.478,1.211C1.871-.457,1.573-.422.585,1.44a4.385,4.385,0,0,0-.293,3.71C1.519,7.242,3.424,3.81,2.478,1.211" transform="translate(87.909 221.716)" fill="#78c34e"/><path d="M1.943,6.675C3.012,5.066,3.534,2.782,3.1,1.6,1.884-1.748,0,.486,0,5.279H0c0,4.229.04,4.259,1.942,1.4" transform="translate(90.052 209.524)" fill="#78c34e"/><path d="M3.525,13.316C4.408,8.622,5.4,3.7,5.732,2.391S5.787,0,5.119,0C3.88,0,1.724,7.541.337,16.731-.968,25.379,1.816,22.4,3.525,13.316" transform="translate(232.861 72.379)" fill="#78c34e"/><path d="M66.013,268.173c-1.506,1.437-2.879,5.064-3.357,8.868-.446,3.54-1.933,11.354-3.306,17.363s-3.441,15.843-4.6,21.853-2.642,13.385-3.3,16.388-1.487,7.614-1.837,10.243c-.626,4.708-3.348,22.165-5.748,36.876-.674,4.132-2.175,11.375-3.336,16.1s-1.77,9.169-1.352,9.881a9.446,9.446,0,0,1,.067,3.095c-.456,3.517-.928,7.371-1.4,11.459-1.781,11.452-5.034,37.286-6.672,53.021-.312,3.006-1.391,11.916-2.4,19.8s-2.168,19.564-2.583,25.949c-.046.7-.1,1.439-.156,2.209-.162,1.809-.312,3.585-.447,5.268-.014.169-.028.346-.042.518-1,10.781-2.917,27.271-6.358,54.83-1.351,10.828-8,44.932-10.449,53.64-.275.976-.535,1.778-.78,2.43a6.957,6.957,0,0,1-1.248,2.017c-1.1.253-1.549-5.153-1.122-15.441.568-13.7,2.694-49.28,3.773-63.133.263-3.379.833-13.213,1.267-21.852s1.354-19.393,2.044-23.9c1.215-7.94,3.169-31.28,5.089-60.775.95-14.6,4.293-44.581,6.622-59.41.348-2.216.79-5.5,1.224-9.021a6.623,6.623,0,0,0,.584-4.235,1.249,1.249,0,0,1-.052-.234c.253-2.208.487-4.378.68-6.314.629-6.384,1.757-14.374,2.5-17.755a78.822,78.822,0,0,0,1.4-13.658c.022-4.131.924-9.3,2-11.484,1.168-2.363,2.184-9.006,2.506-16.389a132.064,132.064,0,0,1,2.589-20.76c1.126-4.588,2.583-12.271,3.236-17.072,1.263-9.277,4.537-28.763,9.155-54.48,1.551-8.638,3.255-19.413,3.786-23.945s1.637-9.562,2.458-11.178a16.367,16.367,0,0,0,1.492-6.223c0-1.808,1.16-8.069,2.579-13.916,4.315-17.791,6.556-33.978,5.659-40.881-.752-5.785-.559-6.519,1.9-7.195,2.738-.755,5.071-5.37,3.535-6.99-.45-.474-1.154.494-1.565,2.152s-1.22,3.013-1.8,3.013c-1.9,0-2.107-4.7-.417-9.56a63.9,63.9,0,0,0,2.336-12.292,116.9,116.9,0,0,1,1.94-12.974c.7-3,2.471-11.608,3.942-19.12C80.7,41.245,83.92,29.68,88.466,20.409c2.517-5.131,3.419-4.974,2.917.506-.3,3.225.124,4.438,1.536,4.438q1.941,0,2.276-4.78A67.033,67.033,0,0,1,97.717,8.664C98.921,4.743,99.5,1.109,99.01.589c-.023-.023-.056-.035-.081-.056S98.914.455,98.9.438C98.18-.32,96.974-.05,95.571.9c-2.057.935-4.306,2.713-4.86,4.295a7.892,7.892,0,0,1-1.934,3.183c-1.013.724-3.671,7.387-7.588,19.021-.885,2.629-2.058,6.01-2.605,7.512s-2.469,8.57-4.273,15.706c-2.917,11.54-4.607,20.654-9.874,53.264-.788,4.882-2.026,12.257-2.751,16.389s-1.565,10.277-1.869,13.658c-.92,10.225-1.607,15.078-4.257,30.047-4.591,25.923-6.244,36-6.6,40.648-.378,2.111-.757,4.174-1.147,6.253a1.145,1.145,0,0,1-.228.217c-.713.465-1.3,2.147-1.3,3.74a31.837,31.837,0,0,1-1.22,7.089c-1.271,4.37-2.595,11.832-5.923,33.392-1.088,7.045-2.4,13.5-2.908,14.34a4.733,4.733,0,0,0-.337.894,9.591,9.591,0,0,0-.877,3.477c-.573,2.548-1.244,5.922-1.858,9.451-1.179,6.76-3.117,17.711-4.309,24.337-1.755,9.752-1.855,12.439-.53,14.123.9,1.144,1.463,4.327,1.249,7.076s-.474,6.533-.58,8.411c-.148,2.606-.883,3.387-3.108,3.305-2.034-.076-2.915.674-2.915,2.48a13.553,13.553,0,0,1-1.291,5.132c-1.69,3.33-.353,6.893,2.2,5.861,1.712-.692,1.857.368,1.054,7.662-.512,4.657-1.125,10.741-1.363,13.523s-.723,6.9-1.077,9.155c-.67,4.255-2.3,16.427-4.828,35.977-.809,6.267-1.662,14.563-1.894,18.437-.134,2.222-.541,6.337-1.065,10.927a11.55,11.55,0,0,0-.789,4.1c0,.873-.076,2.325-.211,4.093-.1.764-.2,1.523-.3,2.264-1.067,7.887-2.567,22.945-3.331,33.46S8.03,519.992,7.233,528.63s-1.545,17.549-1.665,19.8a85.462,85.462,0,0,1-1.09,8.878C2.536,567.939-1.028,650.1.283,653.937h0a3.164,3.164,0,0,0,.47.888,3.078,3.078,0,0,0,.088.442h0c.456,1.441,4.042-.164,6-2.625a35.515,35.515,0,0,0,4.626-6.558c2.124-3.755,5.391-15.657,7.5-27.314,3.73-20.648,6.615-40.4,7.878-53.949.77-8.262,1.96-18.4,2.642-22.534,1.1-6.638,3.424-29.737,6.4-63.507.53-6.01,1.948-18.915,3.151-28.68s2.7-22.364,3.332-28c1.309-11.731,5.927-43.822,7.764-53.947,1.443-7.953,2.511-14.807,3.938-25.266,1.422-10.424,7.823-43.8,9.037-47.118,1.333-3.648,3.543-14.8,4.6-23.209.843-6.715.818-6.783-1.692-4.389" transform="translate(155.167 6.739)" fill="#78c34e"/><path d="M1.079,12.208C.063,18.03-.3,22.792.27,22.792c1.219,0,3.78-8.807,4.692-15.135A15.843,15.843,0,0,0,5.3,4.46c0-.116-.006-.2-.008-.314s.006-.212.006-.311c0-7.651-2.171-3.336-4.214,8.374" transform="translate(238.908 46.856)" fill="#78c34e"/><path d="M1.392,6.564c1.987-.7,2.361-6.5.424-6.564C1.146-.023.429,1.394.151,3.209c-.027.1-.056.2-.077.3a3.12,3.12,0,0,0-.057.973c-.1,1.812.335,2.447,1.375,2.082" transform="translate(244.329 36.829)" fill="#78c34e"/><path d="M0,7.137C-.011,9.2.537,10.894,1.217,10.894c.937,0,2-3.654,2.366-6.7A5.9,5.9,0,0,0,3.7,2.7,3.937,3.937,0,0,0,3.3.284C1.971-1.12.022,2.922,0,7.137" transform="translate(140.592 252.691)" fill="#78c34e"/><path d="M1.156,9.5C2.624,9.5,3.9,6.048,3.845,2.215c-.04-2.9-.082-2.9-1.943-.31A10.658,10.658,0,0,0,0,7.027C0,8.386.52,9.5,1.156,9.5" transform="translate(149.64 221.308)" fill="#78c34e"/><path d="M35.487,479.6c.316-2.816.561-5.471.719-7.67a2.776,2.776,0,0,0,.08-1.184c.162-2.626.171-4.382-.015-4.579-1.328-1.4-3.135,4.609-3.971,13.209-.475,4.882-1.694,13.794-2.708,19.8-.179,1.053-.345,2.052-.511,3.042a45.36,45.36,0,0,0-1.125,6.821,280.432,280.432,0,0,0-3.64,29.743c-.07,1.076-.156,2.186-.251,3.295-.234,2.122-.458,4.255-.665,6.345a57.878,57.878,0,0,1-.967,5.938c-.644,2.559-.862,5.18-.484,5.826a3.5,3.5,0,0,1,.159,1.353c-.218,2.1-.437,4.142-.65,6.077-.051.3-.1.592-.156.892a362.524,362.524,0,0,0-4.69,37.2c-.9,13.845-1.762,23.907-2.513,29.364-.361,2.628-1,10.311-1.425,17.071-.119,1.932-.279,3.935-.459,5.878-.338,2.944-.676,5.809-1.007,8.549-.172,1.109-.339,2.023-.495,2.645a53.843,53.843,0,0,0-1.26,10.243c0,.394-.024.811-.055,1.241-.233,1.683-.452,3.186-.652,4.465a21.549,21.549,0,0,1-1.138,3.853c-1.624,3.742-1.8,2.526-2-14-.122-9.953-.257-19.786-.3-21.852-.073-3.637,1.079-34.608,2.223-59.751.612-13.444,2.771-43.043,4.084-56,.457-4.508.965-10.346,1.129-12.976,1.037-16.614,2.3-30.247,3.329-35.994.655-3.646.946-7.047.648-7.557s-.019-3.67.621-7.026,1.8-14.089,2.584-23.855c1.987-24.868,2.183-26.884,3-30.729.995-4.67,3.1-21.246,4.675-36.874a210.708,210.708,0,0,1,3.219-21.169,79.369,79.369,0,0,0,1.962-13.658,51.205,51.205,0,0,1,1.355-10.407c.717-2.72,1.885-9.172,2.6-14.34,1.406-10.2,3.5-22.806,4.519-27.152.351-1.5,1.513-8.874,2.583-16.381s2.471-15.5,3.113-17.755,1.874-9.021,2.736-15.031,1.782-12.155,2.045-13.658c.2-1.141,1.035-6.11,2.038-12.125.5-2.5.975-5.345,1.328-7.937a198.027,198.027,0,0,1,4.209-19.534,41.719,41.719,0,0,0,2.013-9.232c0-1.639,1.116-7.918,2.481-13.951.162-.718.338-1.506.525-2.343a37.965,37.965,0,0,0,1.415-6.412c1.126-5.152,2.352-10.845,3.265-15.19,1.5-7.137,3.274-15.127,3.942-17.755s3.848-15.843,7.064-29.364c7.315-30.751,16.727-61.759,23.682-78.729.306-.663.609-1.3.9-1.885a31.563,31.563,0,0,0,1.651-3.931c.642-1.351,1.256-2.548,1.83-3.546.4-.7.767-1.406,1.106-2.1a7.083,7.083,0,0,0,.843-1.863c1.1-2.658,1.579-4.891,1.1-5.713-1.569-2.677-4.072-1.005-6.818,4.553-1.578,3.193-4.59,8.878-6.693,12.633s-3.845,8.037-3.867,9.515a37.59,37.59,0,0,1-1.875,8.194c-1.009,3.029-3.147,10.118-4.752,15.752a180.769,180.769,0,0,1-5.94,17.325c-1.66,3.895-3.02,7.915-3.02,8.931s-1.165,4.258-2.591,7.2-2.591,6.13-2.591,7.076-1.165,3.905-2.59,6.58c-3.286,6.167-3.276,8.019.037,7.106,2.381-.657,2.556-.253,1.857,4.279-1.419,9.21-3.652,18.649-4.722,19.959a7.741,7.741,0,0,0-1.041,4.1c.01,1.539-1.156,7.869-2.591,14.066-5.953,25.716-7.7,34.184-8.518,41.313-.018.157-.039.31-.058.466-.519,2.739-1.033,5.5-1.524,8.192a2.35,2.35,0,0,1-.093.22c-.975,1.638-5.657,28.481-9.41,53.946-1.495,10.14-3.218,19.667-3.831,21.169s-1.4,7.164-1.761,12.581-1.192,10.948-1.857,12.292c-1.445,2.913-3.766,16.349-4.681,26.84-.49,3.262-.953,6.725-1.364,10.233a3.452,3.452,0,0,1-.268.725c-.493.835-1.921,10.43-3.173,21.322s-3.164,25.028-4.249,31.412-2.525,16.525-3.2,22.535c-4.415,39.393-6.8,62.1-8.033,76.443C9.928,511.281,9.9,511.6,8.376,523.76c-.751,6.008-1.713,18.562-2.138,27.9s-1.322,18.054-1.994,19.376-1.214,7.2-1.207,13.073-.251,14.973-.573,20.232C1.747,616.057-.051,660.414,0,665.114c.24,21.466,1.777,44.163,3.1,45.852,1.351,1.716,1.843,1.74,3.676.02a6.09,6.09,0,0,0,2.077-2.958,12.565,12.565,0,0,0,1.074-3.047c.384-2.021,1.336-6.746,2.115-10.5,3.394-16.371,7.366-54.953,10.475-101.748.724-10.891,1.853-21.339,2.511-23.217s1.775-9.561,2.484-17.073,2.47-24.1,3.913-36.875S34.7,486.612,35.487,479.6" transform="translate(124.589 0)" fill="#78c34e"/><path d="M1.295.166A3.789,3.789,0,0,0,0,3.059c0,1.127.582,1.669,1.295,1.2A3.787,3.787,0,0,0,2.59,1.37C2.59.243,2.008-.3,1.295.166" transform="translate(229.953 98.846)" fill="#78c34e"/><path d="M1.295.166A3.789,3.789,0,0,0,0,3.059c0,1.127.582,1.669,1.295,1.2A3.787,3.787,0,0,0,2.59,1.371C2.59.245,2.008-.3,1.295.166" transform="translate(135.391 275.027)" fill="#78c34e"/><path d="M1.376,45.276h0c-.53,2.014-.92,3.836-1.147,5.266a1.313,1.313,0,0,0-.184.641,3,3,0,0,0,.036.425c-.155,1.351-.093,2.129.229,2.016.932-.327,2.867-4.462,4.821-9.954a9.57,9.57,0,0,0,1.228-3.624C6.9,38.357,7.43,36.6,7.921,34.827A48.511,48.511,0,0,1,11.23,25.95c2.15-3.659,5.273-13.757,6.334-20.486L18.427,0,15.793,5.244a146.761,146.761,0,0,0-6.025,15.6c-1.865,5.693-4,11.544-4.736,13A88.262,88.262,0,0,0,1.376,45.276" transform="translate(162.55 138.619)" fill="#78c34e"/><path d="M1.3,0C.583,0,0,.958,0,2.129s.583,1.75,1.3,1.286A2.949,2.949,0,0,0,2.591,1.286,1.294,1.294,0,0,0,1.3,0" transform="translate(160.002 196.663)" fill="#78c34e"/><path d="M3.544,13.719c.136-3.661.726-7.453,1.312-8.429a5.188,5.188,0,0,0,.287-3.91C4.532-.3,3.972-.411,2.524.855A5.883,5.883,0,0,0,.71,4.764C.725,6.028.492,10.29.192,14.234s-.243,7.489.125,7.877c1.538,1.62,3-2.172,3.227-8.391" transform="translate(172.446 363.733)" fill="#78c34e"/><path d="M.687,3.257A2.881,2.881,0,0,0,.79.638C.376-.451.069-.127.007,1.464-.05,2.9.257,3.71.687,3.257" transform="translate(179.528 340.537)" fill="#78c34e"/><path d="M11.533,6.16c1.7-1.108,1.719-6.16.022-6.16a1.443,1.443,0,0,0-1.461,1.025C10,1.588,9.707,3.278,9.436,4.78c-2.345,13-4.735,27.338-5.693,34.144-.633,4.507-1.71,11.882-2.39,16.389A132.352,132.352,0,0,0,.006,68.628h0c-.06,2.817.428,5.122,1.083,5.122,1.462,0,2.811-6.145,3.4-15.5.245-3.867,1.056-10.325,1.8-14.349C8.863,30.072,11.528,9.256,10.873,8.137a1.544,1.544,0,0,1,.661-1.977" transform="translate(160.105 389.233)" fill="#78c34e"/><path d="M.66,25.125a2.793,2.793,0,0,0,1.173-2.064,37.06,37.06,0,0,1,2.46-7.089A71.693,71.693,0,0,0,7.383,7.451,51.146,51.146,0,0,1,9.052,1.988c.926-2.436.8-2.529-1.163-.845C5.878,2.868,3.517,7.651,1.91,12.742A11.216,11.216,0,0,0,.579,17.4c0,.166.005.316.013.469-.148.757-.276,1.5-.367,2.223C-.2,23.408-.011,25.562.66,25.125" transform="translate(184.078 109.317)" fill="#78c34e"/><path d="M.687,3.256A2.879,2.879,0,0,0,.79.639C.376-.451.069-.127.007,1.464h0C-.05,2.9.257,3.709.687,3.256" transform="translate(180.823 333.708)" fill="#78c34e"/><path d="M30.409,326.448c-.655,0-1.555,1.537-2,3.414-1.653,6.943-3.109,3.137-2.38-6.221.511-6.547.253-10.269-.8-11.608a6.925,6.925,0,0,1-.452-.646c-.061-.631-.116-1.42-.166-2.361a5.824,5.824,0,0,1,.628-.956,3.549,3.549,0,0,0,.659-3.536c-1.038-1.771-1-68.5.065-107.149.393-14.272,1.623-34.788,2.737-45.592.685-6.653,1.09-11.395,1.232-14.813a23.132,23.132,0,0,0,.043-3.519,10.34,10.34,0,0,0-.741-4.243c-2.237-4.405-.7-54.953,2.557-84.113C34,25.279,39.536,7.721,43.36,7.108A5.282,5.282,0,0,1,45.5,9.324c1.746,5.106,3.046,19.39,3.14,35.78.057,10.14.215,19.667.348,21.169s-.248,8.362-.847,15.244c-.666,7.645-.611,13.414.14,14.828,1.88,3.541,3-9.259,3.763-43.047.449-19.824.171-31.8-.853-36.874-.835-4.131-1.775-8.916-2.088-10.632a7.5,7.5,0,0,0-3-4.162A4.9,4.9,0,0,0,42.544,0c-1.367,0-2.823,1.379-4.275,3.862-.066.085-.127.159-.2.247a25.469,25.469,0,0,0-4.53,9.52,34.313,34.313,0,0,1-1.854,6.95q-4.755,9.759-9.165,118.079c-1.7,41.881-2.009,48.835-2.941,66.921-.377,7.324-.726,14.543-1.044,21.608a133.26,133.26,0,0,0-.839,13.865c.041.764.059,2.431.057,4.827-.918,23.712-1.439,44.915-1.482,61.256-.04,15.5-.348,35.256-.686,43.9s-.942,24.31-1.345,34.827c-.971,25.3-1.87,40.509-2.544,43.021C11.4,430,10.524,438.61,9.759,448c-2.544,31.233-6.1,58.434-8.649,66.124-1.944,5.87-1.275,10.356,1.546,10.356,2.445,0,4.29-3.966,5.833-12.548,2.37-13.176,3.547-9.836,3.057,8.678-.828,31.307-1.8,45.234-3.283,47.119-1.056,1.342-1.008,2.361.18,3.871h0a6.26,6.26,0,0,0,.727.769s0,.016.007.02h0a2.41,2.41,0,0,0,1.917,1.147,2.047,2.047,0,0,0,.587.11,2.675,2.675,0,0,0,2.862-1.636c.032-.038.07-.067.1-.106a1.647,1.647,0,0,0,.174-.557c1.694-4.744,1.881-19.119,2.12-62.278.133-24,.483-45.4,1.024-63.59.4-12.285.877-23.437,1.41-33.2.578-9.668,1.248-17.431,2-23.011.659-4.882,1.8-14.1,2.537-20.486s1.679-13.76,2.1-16.389.859-6.623.982-8.877.884-4.712,1.692-5.463c1.855-1.725,3.325-11.608,1.727-11.608" transform="translate(0 4.06)" fill="#78c34e"/></g></g></svg>