<?xml version="1.0" encoding="UTF-8"?><svg id="Layer_1" xmlns="http://www.w3.org/2000/svg" viewBox="0 0 966.7015 755.2529"><defs><style>.cls-1{fill:#78c34e;}</style></defs><g id="Group_1470"><path id="Path_2298" class="cls-1" d="M608.4571,312.9297c-.7411-4.323-27.1236-30.1052-30.7516-30.0592-3.9907,.0515-1.9043,4.5515,3.8428,8.2848,3.5555,2.367,6.7713,5.2081,9.5585,8.4447,5.5378,7.0785,17.9125,16.5819,17.3504,13.3297"/><path id="Path_2299" class="cls-1" d="M444.5789,253.1078c-5.7308-5.4573-11.1567-11.8559-12.0599-14.2213s-4.1578-5.9339-7.231-7.9302c-3.6399-2.5003-6.9534-5.4454-9.8634-8.7669-2.3519-2.8258-5.2926-5.1273-6.5267-5.1081h0c-3.3406,.0443,1.6468,8.9675,7.0468,12.6089,2.5801,1.738,7.8325,6.8941,11.672,11.4557,9.8512,11.7058,23.7715,26.2038,27.4547,28.5964,7.0241,4.5627-.1068-6.7503-10.4925-16.6343"/><path id="Path_2300" class="cls-1" d="M402.1102,211.1831c.6636-.8973,.4834-2.1612-.4046-2.8373-.87-.5652-1.7987-.6912-2.0712-.2717s-.0878,1.6907,.4046,2.8373,1.4254,1.2659,2.0712,.2717"/><path id="Path_2301" class="cls-1" d="M395.487,202.1719c-.5404-2.5438-19.5204-20.2666-26.6956-24.9274h0c-4.9191-3.1953-5.8424-.9235-3.4719,2.9463,.4034,1.0487,1.0852,1.9676,1.972,2.6577,.9433,1.102,1.9644,2.1349,3.0555,3.0907,10.5952,9.3043,25.7462,19.0865,25.14,16.2327"/><path id="Path_2302" class="cls-1" d="M480.8529,294.1831c1.562-2.4046,.5024-4.6688-2.4412-5.2137h0c-1.5427-.2863-2.8563,.4245-2.9213,1.5788-.1508,2.6472,4.1226,5.5436,5.3625,3.6349"/><path id="Path_2304" class="cls-1" d="M737.2509,513.8649c14.6237,16.0359,37.8685,40.5638,59.3647,62.6411,22.7267,23.3419,47.2179,51.582,50.9783,58.7778,1.5707,3.1939,3.9662,5.9102,6.9386,7.868,.6278,.7678,1.5891,1.1832,2.5785,1.1142,2.5947,.6118,4.4365-.69,4.1221-4.162,.0103-.3773-.0252-.7544-.1055-1.1232-.0425-.1761-.0999-.3483-.1715-.5147-.0517-.2161-.0731-.4054-.138-.6324-1.7976-6.3478-46.1288-56.7096-55.0593-62.5525-.5124-.3525-.9927-.7495-1.4352-1.1864-.9039-1.0071-1.7439-1.962-2.4967-2.8435-.918-1.1904-1.736-2.4548-2.4454-3.7801-2.3681-3.9985-5.3201-7.6209-8.7581-10.7476-4.7594-4.5381-9.2063-9.393-13.3104-14.5314-4.2683-5.3171-8.8976-10.3341-13.8551-15.0153-4.2899-3.9425-8.2983-8.1808-11.9958-12.6836-6.3448-7.9391-18.6624-20.9428-41.3409-43.6628-8.6141-8.6294-21.3792-21.6935-28.362-29.027-16.3084-17.1266-39.5099-40.0278-48.4734-47.8438-3.8513-3.3607-8.0481-7.8037-9.3241-9.8744s-10.2373-11.0546-19.9058-19.9598-21.4288-20.405-26.123-25.5517-10.3092-10.5251-12.4754-11.9453-7.7716-6.8152-12.4558-11.9791c-3.8421-4.3347-7.9263-8.4487-12.2329-12.3223-2.0447-1.6109-10.8507-9.8604-19.569-18.3332-26.6151-25.863-37.9603-36.6721-46.6435-44.3431-1.6446-1.5455-3.5023-3.2056-5.4245-4.836-1.0599-.8973-2.2157-1.8914-3.4242-2.9401-5.0204-4.5306-11.1615-10.2579-15.7562-14.7279-6.4419-6.2652-16.0039-14.9103-21.2497-19.2078-5.8969-4.9143-11.4799-10.1933-16.7163-15.8061-3.9479-4.391-14.4664-13.8996-23.3761-21.1319s-18.0639-14.9384-20.3478-17.1343-6.427-5.9429-9.2082-8.3246c-2.0851-1.7875-4.1951-3.6138-6.3167-5.4645-.0075-.0216-.0273-.0535-.0314-.0729-.3041-1.3428-2.7845-3.8918-5.5087-5.6614-1.6386-1.0644-5.2558-3.9939-9.4589-7.6118-16.2434-14.727-31.1306-29.0956-38.0453-36.9086-4.2776-4.8366-10.1326-11.3994-13.0097-14.5866-6.53-7.2243-17.9486-28.0179-18.6776-33.9996-.4947-4.0687-.0751-4.463,4.5748-4.2878,12.4081,.4617,50.0662,23.4886,59.7573,36.541,3.8365,5.0993,8.0417,9.9104,12.582,14.3947,3.4173,3.2005,6.5293,6.891,6.9127,8.2018s5.745,6.3004,11.9102,11.089,15.9841,13.0435,21.811,18.3437,15.3929,13.1676,21.2463,17.4829c7.8046,5.9832,15.2819,12.3816,22.3997,19.1675,6.4651,6.2277,17.2958,16.0346,24.0666,21.7952s17.5078,14.922,23.8715,20.3693,14.3128,12.0735,17.6813,14.734c3.8019,3.0974,7.2736,6.5791,10.36,10.3899,3.9416,5.1612,22.4423,22.316,44.5816,41.337,5.1586,4.4318,12.6119,10.872,16.562,14.31,6.8243,5.9374,7.0667,5.9958,4.8799,1.1417-1.2673-2.8096-7.7797-9.9175-14.4735-15.7951s-15.8316-14.6098-20.3085-19.4041-14.3255-13.8833-21.8839-20.1984c-7.5584-6.3152-19.348-16.7688-26.1972-23.2281-23.1236-21.809-27.8161-26.1134-35.8366-32.8576-4.3975-3.6988-9.3411-8.5517-10.9857-10.782s-9.323-8.8238-17.0675-14.6539c-7.358-5.4971-14.4187-11.3814-21.152-17.6281-5.4049-5.3768-48.0782-43.161-50.6527-44.8453-.2693-.1749,.5349-.8456,1.7841-1.4884,2.1698-1.1162,21.4083,12.0728,49.8307,33.7686,8.1253,6.3589,17.7271,13.9012,29.1195,22.8525,5.4767,4.3056,10.6684,8.3891,15.6113,12.2823,2.6691,2.1466,5.3598,4.3167,8.089,6.525,11.7491,9.517,26.0451,20.9974,31.77,25.5107,17.4366,13.746,49.3866,40.4378,58.3016,48.7032,1.4709,1.3647,3.3687,3.0604,5.5875,5.0039,.5093,.4501,1.0127,.8893,1.5187,1.3242,9.2254,8.0208,23.2439,19.6824,37.2492,30.9585,3.654,2.9426,10.2576,8.801,14.6769,13.021,3.9525,3.776,8.2402,7.1112,10.1752,7.9709,.6142,.5624,1.6869,1.5097,3.0996,2.7364,.0417,.1558,.0671,.3154,.0759,.4764-.0793,1.3801,2.9959,4.5433,6.8327,7.0356s13.5723,10.3852,21.6364,17.5418,24.9695,22.0656,37.5635,33.1395c23.028,20.2389,54.5159,51.0949,59.5115,58.3139,1.9356,2.574,4.2762,4.8168,6.9304,6.641,2.3333,1.5156,9.9404,10.3416,16.906,19.6098s16.1086,20.6905,20.3171,25.3856c7.9379,8.8476,21.119,27.2844,25.4818,35.6409,1.7791,3.2074,3.9001,6.2127,6.3259,8.9636,3.2448,3.5394,8.0341,14.3765,9.6092,20.5964,.5206,3.2575,.0265,4.5507-1.6285,5.3427-.9376,.2547-1.9078,.3687-2.8789,.3382-3.3535-.1085-3.3966,.3527-.363,3.7453,3.4337,3.8363,6.5886,5.5528,9.2575,5.1927,1.5302,.2931,3.0805-.4014,3.8804-1.7385,.2011-.3824,.3128-.8055,.3266-1.2374,1.3405-2.4769,.8074-6.3414-1.7747-13.7679-2.1785-6.2683-4.5634-11.7927-5.3009-12.2717s-3.5204-5.1501-6.1802-10.3817c-7.1071-13.9724-14.5501-23.806-41.9209-55.3948-10.0368-11.5817-11.7255-16.8555-3.7138-11.5891,2.3824,1.5667,10.8282,9.2027,18.7658,16.9728,13.2616,12.9774,21.8817,22.2001,43.1124,46.1259,10.0476,11.3263,13.1964,13.3681,14.7483,9.5647,2.2066-5.4062-11.2516-25.3998-21.6133-32.1103-3.1076-2.0115-8.4283-7.0568-11.8278-11.2121s-11.4613-12.6598-17.9224-18.8992c-6.4611-6.2395-17.2054-17.7403-23.8745-25.5585s-15.3149-17.0969-19.213-20.6168-8.3444-8.354-9.8861-10.7394c-5.2496-7.9349-11.5447-15.126-18.7153-21.3792-3.9305-3.4683-7.5173-7.6604-7.9727-9.3175-.9968-3.63-7.0967-5.1563-7.2867-1.8223-.0733,1.2993,1.5606,3.4618,3.6312,4.8069,4.117,2.6743,20.7978,24.9045,21.5896,28.7712,.5368,2.6154,.2384,2.3751-29.1744-24.0168-32.8534-29.4774-49.1086-43.6502-65.3135-56.9433-8.4717-6.9478-25.0976-21.075-36.9425-31.394-51.3966-44.7928-93.3652-80.4992-108.5964-92.4152-9.0169-7.0562-26.6456-21.199-39.1701-31.4285-12.5246-10.2295-27.1954-21.9081-32.6006-25.962s-24.2876-18.5936-41.9556-32.3288c-11.2414-8.741-22.8515-17.1166-34.3017-24.8695-8.1075-5.9249-16.5609-11.3615-25.3151-16.2808-33.8408-20.589-62.2857-33.0177-69.4474-28.8139-1.5919,.7793-2.3792,2.4726-2.4093,5.2591-.7501,5.0006-.2599,12.0716,1.4962,13.2123,.5093,.3308,2.5544,4.8685,4.5447,10.084,2.4868,6.0313,5.9013,11.6366,10.1198,16.613,3.5755,3.9212,6.8594,8.8604,7.2975,10.9739,.998,4.8238-1.0211,3.5922-22.4953-13.7071-19.8701-16.0091-61.8568-44.6812-80.5995-55.6965-4.3915-2.7751-7.2051-4.3833-7.645-4.2717-.0745,.0326-.1464,.0708-.2151,.1144-.7633-.2942-1.2609-.3932-1.4412-.2645-3.77,2.7789-4.1227,4.016-1.9426,6.8125,1.1803,1.5147,3.1338,4.3477,4.3419,6.2969,7.0374,11.3525,27.7134,30.8868,51.5509,48.7096,2.5003,1.8627,4.9496,4.4082,5.4457,5.6538s3.953,3.3289,7.6826,4.6326c3.8743,1.3582,6.7271,3.2734,6.6582,4.4742-.0634,1.1518,3.6554,4.553,8.2674,7.5488,5.3557,3.5883,10.4049,7.6144,15.0955,12.0368,3.6885,3.6224,14.5441,12.4063,24.123,19.5174,3.1033,2.3046,6.0384,4.519,8.6074,6.4836,3.4545,2.8787,6.9201,5.7789,10.3323,8.6492,2.4711,2.4403,9.0427,8.4104,16.5822,15.0521,9.4387,8.3132,18.7124,16.5241,20.6074,18.2442,8.4801,7.6989,12.782,3.754,4.5265-4.151-9.2537-8.8624-10.4846-9.9649-28.785-25.7788-9.5049-8.2131-19.1781-16.7586-21.4996-18.992-3.8919-3.7426-32.526-26.5268-50.3249-40.044-3.0076-2.2829-6.9523-5.4705-10.0869-8.1271-.9954-2.1152-2.9613-4.0567-4.9188-4.3142-3.8084-3.3734-10.4401-9.1427-16.1411-14.0306-17.472-14.9882-20.1147-17.8383-17.708-19.0749,1.3696-.7054,7.8602,3.1875,18.2191,10.9234,23.0265,17.2017,48.9926,36.0838,65.0961,47.3401,8.2591,5.8277,16.1893,12.1081,23.7541,18.8125,5.4114,4.9957,16.1248,14.2062,23.8071,20.4683,2.4587,2.0039,4.908,4.0149,7.3381,6.0206,2.1028,1.7823,4.2825,3.617,6.5755,5.5288,3.3346,2.7805,6.7649,5.6542,10.2394,8.5757,9.8465,8.398,18.0927,15.704,22.731,20.1928,3.7987,3.6749,11.2307,10.1442,16.519,14.3763s19.7693,16.9852,32.1825,28.3377c35.8023,32.7471,67.2059,61.6501,72.4686,66.6984,2.6645,2.5576,6.1327,5.7899,7.7027,7.1784s11.4701,11.0704,22.0009,21.5116,23.0378,22.3414,27.7923,26.4439,12.8167,11.9415,17.9172,17.4141,18.3039,18.6352,29.3409,29.2501,25.1888,24.6537,31.4468,31.2003,17.7998,18.3734,25.648,26.281c22.5705,22.7394,58.3738,60.1351,74.348,77.6531"/><path id="Path_2305" class="cls-1" d="M508.5871,324.1803c1.3391-2.0614-4.8789-10.2582-8.3826-11.0465h0c-2.2146-.4972-2.4927,.2395-1.3528,3.6106,1.6113,4.763,8.2012,9.7976,9.7354,7.4359"/><path id="Path_2306" class="cls-1" d="M360.1017,664.3026c19.2768,12.4026,24.2922,14.9244,30.7345,17.8171,25.4901,13.5945,41.8943,18.4081,63.116,21.2379,6.96,.9277,9.5531,.6639,11.6828-1.7643,.2718-.2251,.5107-.4872,.7097-.7785,.1368-.2106,.2503-.4423,.3709-.6646l.0131-.0201c.0594-.0914,.108-.203,.1649-.2997,.0277-.0536,.0643-.099,.0861-.1564,1.5697-3.1978,2.0678-6.8162,1.4205-10.3192-.7082-2.4705-1.7133-4.846-2.9934-7.0744-.5897-1.2479-1.2571-2.4576-1.9982-3.622-5.2354-9.1071-13.4858-21.0053-19.7249-27.8546-2.886-3.168-7.553-8.4448-10.369-11.726-3.1683-3.6244-6.6214-6.9897-10.3262-10.0637-15.0733-11.8744-23.5745-19.3902-30.705-27.1501-4.3466-4.7323-10.107-9.8831-12.8008-11.4481-8.3773-4.8727-40.9078-29.7727-46.5566-35.6336-3.5993-3.7375,1.8997-.5663,16.6773,9.6164,12.127,8.3547,22.3781,15.9371,22.7828,16.8477s13.6308,10.7011,29.3901,21.7601c15.7593,11.059,35.2681,25.4149,43.3509,31.9145,13.6848,10.9963,29.9433,22.7028,88.773,63.9133,1.9787,1.3856,3.9869,2.8213,5.9852,4.2685,4.7954,3.5326,9.1781,6.8209,12.9376,9.702,4.2269,3.1875,8.2896,6.587,12.1725,10.1857,1.6589,1.7022,3.4078,3.3142,5.2393,4.8291,2.368,2.0095,4.0721,2.7764,5.3639,2.4499,.0864-.0322,.1707-.0699,.2523-.1129,.0407-.0094,.0811-.0129,.121-.0228,4.3849-1.1101,1.8196-8.0043-6.7578-18.1668-3.8422-4.5538-11.8163-14.0894-17.7146-21.1897-21.0238-25.3042-83.6112-87.1933-129.3754-127.9313-8.6174-7.6712-19.803-17.7121-24.8531-22.3109s-13.7111-12.2947-19.2465-17.1013-17.4883-15.2184-26.5652-23.1391c-23.3059-20.3419-43.1498-36.8064-61.3608-50.9123-8.6379-6.6919-16.4906-13.2961-17.4488-14.6749s-16.1634-13.0191-33.7902-25.8626c-17.6267-12.8435-37.2584-27.791-43.6276-33.2168s-20.7965-17.483-32.0671-26.787c-52.31-43.203-59.1671-49.2093-80.2433-70.304-7.1157-7.4157-13.5614-15.4465-19.2616-23.9984-2.8827-4.2824,1.6101-2.835,16.9164,6.2821,10.2091,6.2475,24.8128,15.4416,40.6947,25.5792,2.8771,1.8558,5.8618,3.7827,8.9859,5.8073,59.4989,38.5421,113.7663,76.4931,145.3337,101.636,8.9651,7.1359,26.1308,20.4339,38.1415,29.5482,22.183,16.8196,33.8041,25.8467,47.076,36.5604,4.055,3.2747,16.0667,12.8227,26.6861,21.2229,10.6194,8.4002,22.2625,17.667,25.8689,20.6002,15.5664,12.66,39.6273,31.7183,64.7415,51.2818,14.8356,11.5553,28.4044,22.598,30.1549,24.5368s13.7547,11.3865,26.6823,21.0009c71.4796,53.1534,96.3828,72.7278,108.4255,85.2033,5.1114,5.2959,10.9877,11.1519,15.1755,15.1571,2.9002,3.1461,5.0059,5.0544,6.5609,5.8819,3.3524,2.6943,4.1222,2.3687,5.2459-.2812,1.0386-2.4511-.332-5.7131-4.2742-10.203-3.1952-3.6324-10.4177-11.9651-16.0533-18.5202-5.6357-6.5551-13.27-15.3117-16.9659-19.4662s-7.1979-8.6699-7.7862-10.0362c-1.0468-2.429-11.4353-14.9037-27.1193-32.56-3.4916-3.9383-8.4119-8.893-12.074-12.2345-2.6445-2.7426-5.585-5.7276-8.8925-9.031-.1986-.3005-.3501-.6295-.4495-.9756-.2751-1.3837-2.1457-3.5878-4.1576-4.8947-2.1923-1.5-4.0248-3.4674-5.3656-5.7605-.938-1.862-6.5513-8.3835-12.4758-14.4939s-13.1859-14.2107-16.1387-17.9995c-5.0786-6.5201-15.345-16.7585-25.7275-25.7326-1.5453-1.8725-3.3237-3.5397-5.292-4.9611-.9124-.6435-1.9301-1.1229-3.0072-1.4166-4.7169-2.5534-5.0704,.5932,.8868,7.4192,3.0076,3.4509,7.4859,8.6398,9.9396,11.5257s9.4557,10.0172,15.5614,15.8504c6.1057,5.8333,16.5552,16.9983,23.2252,24.817,16.217,19.0047,33.2304,37.4758,40.1892,43.6305,3.1229,2.7647,6.4574,6.9779,7.4079,9.3623s4.4274,6.8356,7.7261,9.8899c8.6969,8.0521,7.1431,10.5193-2.6306,4.1764-14.7262-9.5528-82.8381-61.2332-121.71-92.3475-1.6177-1.2894-3.4114-2.7266-5.3411-4.2665-1.7793-1.4851-3.9604-3.224-6.333-5.0408-12.5737-9.9978-28.4608-22.5607-40.2874-31.85-15.9671-12.5408-31.4297-25.3422-34.3599-28.4458s-13.571-11.6453-23.6435-18.9828-27.6141-20.8355-38.9735-29.9956c-11.3594-9.16-21.3503-16.6581-22.1975-16.6596-.4796-.13-.9282-.3549-1.3194-.6614-.993-.7321-1.9389-1.4229-2.8207-2.0637-1.9997-1.5626-4.4993-3.6671-7.069-5.9794-5.3193-4.7867-29.066-23.2341-52.7735-40.9963-41.6699-31.2258-126.9916-88.0809-171.3872-115.2338-12.6681-7.9331-21.5515-13.1727-23.997-13.9536h0c-.2711-.0878-.5426-.1509-.8151-.2145-.9825-.5627-2.0687-.921-3.1933-1.0531h0c-3.9254,.614-4.1595,.9964-3.6162,5.8995,.5776,5.1568,8.9427,20.5094,16.179,29.697,8.2294,10.4375,43.5218,43.0383,68.8575,63.6035,9.7161,7.8862,22.2166,18.2373,27.7779,23.0022s25.3015,20.3259,43.8689,34.5809c3.095,2.3779,6.2481,4.8079,9.4281,7.2661,.1149,.0913,.2353,.1887,.3474,.2806,4.0756,3.2762,9.762,7.6834,15.6452,12.1456,52.0049,40.6056,108.805,86.7956,126.4404,103.0437,7.3487,6.7719,20.277,18.0201,28.7313,24.9983,8.4543,6.9783,17.408,14.9967,19.9025,17.8197s9.7938,9.2359,16.2205,14.2517,17.9563,15.3005,25.6282,22.8514,18.4135,17.752,23.8819,22.6618,15.0337,14.323,21.2596,20.9227c13.0346,13.8154,24.748,26.0376,33.084,34.546,.7262,.8141,1.5583,1.66,2.4433,2.4831,3.1792,3.2236,5.7532,5.7809,7.523,7.4661,3.4382,3.2749,5.5768,6.5777,4.7536,7.3362-1.5382,1.4203-51.5764-31.2448-72.9981-47.6569-34.21-26.2045-58.599-44.4547-63.5471-47.5484-3.0777-1.9252-11.8723-8.6367-19.5423-14.9122s-25.1983-19.7959-38.9457-30.0383-33.0574-24.9154-42.9032-32.6019c-33.0096-25.7696-74.2244-54.1036-159.3192-109.5265-87.2299-56.8157-119.9817-76.6257-124.7041-75.433-2.2714,.5765-1.7497,3.7954,.5915,7.973,.3004,.6476,.6424,1.275,1.0239,1.8784,.3736,.5643,.7768,1.1085,1.2077,1.6304,2.8628,3.9707,6.1897,7.5853,9.91,10.7668,1.2981,1.1128,5.4675,4.0921,11.8686,8.5101,17.2082,13.1805,35.1497,25.3751,53.7381,36.5251,1.9787,1.178,4.0664,2.4363,6.2027,3.7298,14.063,9.314,29.3473,19.3796,45.1004,29.6878,105.6787,69.1577,119.1438,78.2993,138.0909,93.7459,9.489,7.7363,40.9766,32.2619,59.7224,46.5159,53.0238,40.3226,90.8061,76.0547,107.2445,101.426,8.4008,12.9635,9.8432,16.7816,6.9196,18.285-5.6601,2.9135-29.4634-3.4447-59.1262-15.7948-17.2574-7.1861-110.0829-66.8683-173.6707-111.6634-23.3309-16.4355-82.5628-56.5292-131.628-89.0979C14.8723,423.7699,4.7466,417.4656,2.3946,419.2663c-.2661,.2058-.52,.4268-.7605,.662-.6501,.1026-.9536,.3863-.8225,.9117C.3218,421.3508,.0335,422.0217,0,422.7286c.3188,1.8582,45.2196,32.3326,156.1663,105.9943,8.1535,5.4157,16.0617,10.678,23.5975,15.7091,4.1951,2.8046,8.2988,5.5475,12.3115,8.2288,31.5059,21.0944,53.809,36.3039,54.0864,36.9494,.3756,.8727,30.4556,20.9884,66.8456,44.7019,18.4506,12.0234,33.8486,21.8681,47.0887,29.9915M63.0572,369.5279c-1.8627-1.3567-2.9418-2.2391-2.8519-2.3775,.436-.6712,14.3097,6.1278,22.7163,10.9444,2.1976,1.4526,4.3467,2.9083,6.3911,4.3269,1.3492,1.3023,2.0484,2.5236,1.6456,3.1436-.4758,.7324-3.9824-.7473-9.2397-3.7948-7.7161-4.9299-14.4822-9.3775-18.6661-12.2445m35.1059,19.2824c1.2333,.9371,2.321,1.7916,3.2377,2.5458,.2059,.4177,.4141,.885,.6247,1.402,.1767,.4166,.3227,.8456,.4368,1.2835-1.2049-.5548-2.881-1.442-4.9929-2.6408-.3701-.6663-.4738-1.2908-.1909-1.7263,.2169-.3573,.5187-.6555,.8787-.868m13.3573,10.1083c.5317-.8632,1.6322-1.1811,2.5423-.7346,.1602,.1208,.3031,.2386,.4474,.3598,.7358,.8407,.6508,2.1188-.1899,2.8546-.5376,.4705-1.2835,.6226-1.9625,.4001-.1574-.0772-.3124-.1564-.4716-.2419-.7854-.65-.9452-1.7918-.3683-2.6324"/><path id="Path_2307" class="cls-1" d="M608.5129,231.0197c-.1321,2.3301,7.0812,4.5795,8.3619,2.6079,1.126-1.7334-3.9572-5.4934-6.5368-4.8427h0c-1.0052,.3051-1.7266,1.1871-1.8263,2.2329"/><path id="Path_2308" class="cls-1" d="M620.9412,243.8053c1.0781,.7206,2.7086,.1572,3.6248-1.2531,1.6748-2.5782-2.5478-6.7301-5.9713-5.8676-2.0979,.5353-.5716,5.1703,2.3465,7.1207"/><path id="Path_2309" class="cls-1" d="M628.888,251.7722c-.1492,2.6613,4.1664,5.4027,5.4341,3.4512,1.2252-1.8861-1.6835-6.3894-3.7842-5.8571h0c-.9788,.4032-1.6266,1.347-1.6508,2.4054"/><path id="Path_2310" class="cls-1" d="M755.9311,341.1165c6.3471,4.3175,12.335,9.412,13.3063,11.3219,1.1463,2.2538,2.5039,3.0951,3.8678,2.3967,2.7217-1.4019-1.6441-7.7871-9.5174-14.4512-1.5566-1.934-3.5345-3.4868-5.7826-4.5401-5.3382-4.113-13.8432-11.0133-20.1805-16.3909-7.1739-6.0917-18.3383-15.3828-24.8106-20.65-5.9432-4.8401-15.8382-13.068-22.9705-19.0968-1.3499-1.4114-3.6424-3.4398-7.1105-6.3416h0c-1.5512-1.2999-3.0541-2.4372-4.3872-3.3474-4.4769-3.742-8.6523-7.2059-11.1157-9.2046h0c-4.2508-3.4508-8.1506-5.6238-8.6657-4.8309-1.3952,2.1478,3.3444,6.7692,19.2698,18.7938,7.881,5.9545,16.4629,13.234,19.0719,16.1874,4.6612,4.7866,9.6635,9.229,14.9673,13.292,5.6353,4.3645,15.2493,12.6723,21.3783,18.4717,7.1451,6.6249,14.7216,12.7688,22.6796,18.3913"/><path id="Path_2311" class="cls-1" d="M801.4521,374.6912c-1.594,.0204-2.0017,.9951-1.2137,2.8933,1.5724,3.7761,8.0064,7.9543,9.2653,6.0162,1.3031-2.006-4.9679-8.9476-8.0516-8.9095"/><path id="Path_2312" class="cls-1" d="M824.7729,398.1673c17.6903,12.0735,18.1554,12.3088,17.5377,8.6995-.5998-3.5046-23.1117-21.0651-28.2023-22.0073-6.954-1.2877-2.408,4.3866,10.6654,13.3083"/><path id="Path_2313" class="cls-1" d="M648.9153,247.4708c-3.4029-2.1794-4.0795-2.0928-3.07,.399,1.6909,4.1704,4.9218,6.2692,6.3252,4.1088,.6104-.9397-.8557-2.9693-3.2553-4.5078"/><path id="Path_2314" class="cls-1" d="M695.9076,314.4824c-.3803-1.3375-3.6233-4.9293-7.2052-7.9791-11.0603-9.4203-21.6047-19.9359-24.9908-24.9236-1.9838-2.8314-4.4217-5.3155-7.2153-7.3521h0c-5.0533-3.2825-6.5759,1.0541-1.8521,5.281,3.449,3.4087,6.6949,7.017,9.7209,10.8063,3.4335,4.2334,10.7038,12.2262,16.1553,17.7609,5.4514,5.5347,10.6699,11.5217,11.5936,13.3028s4.519,5.8846,7.9849,9.1131,7.1076,7.4242,8.09,9.3114c2.1172,4.087,9.9599,6.5962,9.3383,2.9892-.4457-1.1216-1.0556-2.1708-1.8098-3.1131-.4979-1.8947-1.6287-3.6361-2.8465-4.2041-.2034-.1001-.3998-.2138-.5879-.3401-1.6058-2.0202-3.4643-4.2558-5.4367-6.507-5.6388-6.4438-10.5623-12.8095-10.9426-14.147"/><path id="Path_2315" class="cls-1" d="M603.3984,225.1574c1.3575,.8818,2.5257,.5454,2.5972-.7419,.0907-1.2548-.41-2.4799-1.3537-3.3119-.9243-.5037-2.0817-.1725-2.5996,.7439-.6093,.938,.0004,2.4292,1.3562,3.31"/><path id="Path_2316" class="cls-1" d="M781.5942,356.8193c-6.1372-1.5386-3.9539,4.9095,3.9842,11.766,7.9381,6.8565,14.6532,7.7754,10.226,1.4041-1.5823-2.2769-3.6151-4.1486-4.5076-4.1557s-2.5436-1.8145-3.6615-4.0129c-1.3183-2.3637-3.4747-4.1476-6.0436-4.9996"/><path id="Path_2318" class="cls-1" d="M527.153,348.8089c1.1193-.015,.9812-2.0982-.308-4.6334-1.2892-2.5351-3.2555-4.5938-4.3764-4.5799s-.9812,2.0982,.3064,4.6323,3.2588,4.596,4.3781,4.581"/><path id="Path_2319" class="cls-1" d="M610.2176,316.5631c-.6616,1.0185,1.5565,4.2156,4.9361,7.1123,8.6975,7.456,14.0165,12.4453,18.164,17.034,1.9783,2.1906,4.0534,3.2773,4.6126,2.4164,1.6225-2.4977-6.1887-12.0933-16.7575-20.5823h0c-6.579-5.2829-10.1453-7.2309-10.9568-5.9816"/><path id="Path_2320" class="cls-1" d="M651.4926,358.4211c8.5866,5.623,7.0657,.6731-2.3097-7.5227-4.6256-4.0438-7.9468-5.9376-8.6134-4.9115-1.411,2.1722,3.1067,7.3151,10.923,12.4342"/><path id="Path_2321" class="cls-1" d="M740.0327,441.2738c-.0048-.033-.0027-.0602-.0083-.0937-.1442-.8322-1.571-1.7065-3.3097-2.0915-6.1282-3.6646-7.8841-2.3022-.4421,4.4622,2.4003,2.182,6.6588,6.1389,11.3609,10.5497,.3888,.5247,.8691,.9749,1.4178,1.329,4.1964,3.9404,8.6273,8.1298,12.3493,11.6785,1.7814,1.7438,3.1415,3.871,3.9769,6.2197,.486,1.7974,4.7878,6.4994,9.559,10.4458,5.5875,4.7201,10.8987,9.7579,15.9072,15.0885,8.9968,9.842,27.2432,23.2598,29.2424,21.5007,.8178-.7226-9.2177-11.3109-22.3033-23.5309-13.0855-12.22-24.7705-23.8284-25.9636-25.7953s-4.7252-4.717-7.8461-6.1036c-3.3612-1.4962-6.4579-4.4849-7.5997-7.337-1.0603-2.6489-6.7319-8.7096-12.6038-13.4723-1.3234-1.072-2.5735-2.0201-3.7369-2.8498"/><path id="Path_2322" class="cls-1" d="M722.9149,426.9046c2.7943,1.431,3.1273,.341,.9991-3.27-2.1294-3.3725-4.8672-6.3197-8.074-8.6914-3.1332-2.2269-5.9616-4.8542-8.4129-7.8151-3.227-3.7351-6.785-7.1708-10.6308-10.2651-12.8723-10.3957-9.0998-1.7677,5.3137,12.162,16.7054,16.1426,15.6616,15.2462,20.8048,17.8797"/><path id="Path_2323" class="cls-1" d="M671.6099,377.0139c2.4526,.4503,2.668,.0306,1.359-2.6724-.8511-1.7697-2.6743-3.1927-4.0436-3.1766-3.4743,.0445-1.1328,5.1398,2.6846,5.8491"/><path id="Path_2324" class="cls-1" d="M678.0242,384.1941c.9475,2.6186,3.1446,5.0252,4.8795,5.3445,4.9229,.912,3.9511-3.2542-1.5972-6.8583h0c-4.8964-3.1806-4.9651-3.1501-3.2803,1.5126"/><path id="Path_2325" class="cls-1" d="M705.3859,672.8233c4.6755,4.6942,9.5199,9.7034,10.7562,11.128s2.7213,1.8715,3.2941,.9897c1.0622-1.6352-5.8209-10.1507-15.2735-18.8906-8.8943-8.2257-7.8264-2.3101,1.2232,6.7728"/><path id="Path_2326" class="cls-1" d="M499.3415,510.4623c-.3732-3.0675-3.3966-7.6072-7.3912-11.098-3.717-3.2496-11.4895-11.0902-17.2684-17.421s-15.3941-16.4552-21.3611-22.5002-13.2324-13.5514-16.1449-16.6804c-2.9125-3.1291-7.5412-7.6879-10.2848-10.1275-4.9167-4.3689-22.7936-21.0864-37.7685-35.3163-4.2052-3.995-11.3084-11.4259-15.7773-16.5061s-9.0959-9.2323-10.2748-9.2155c-.4609,.0061-1.7848-.8301-3.6411-2.2388-3.6809-3.2465-7.7389-6.7665-12.0654-10.4681-11.7302-10.9602-38.8548-34.6834-55.6701-48.6771-3.2126-2.6726-12.604-10.7977-20.8741-18.056s-20.7951-17.5752-27.8297-22.9225c-.7724-.5888-1.5829-1.2107-2.4237-1.8667-1.9591-1.5756-3.883-3.1081-5.7172-4.5489-.1843-.146-.3771-.2974-.5631-.4445-11.6278-9.4227-29.0733-24.3579-58.0313-49.6263-11.379-9.9268-45.1663-44.3379-53.1493-54.1262-.8947-1.0966-1.6005-2.043-2.145-2.856-.6088-.9698-1.0378-2.0414-1.2665-3.1634,.6484-1.6392,7.2938,1.8317,18.8393,10.132,15.378,11.0546,54.7428,40.6148,69.8616,52.4579,3.6866,2.8887,14.5835,11.0361,24.2136,18.1052s21.288,16.3682,25.9157,20.6676c8.1519,7.574,33.4997,27.7057,66.0044,52.4195,16.0846,12.2295,47.9362,39.1903,63.1087,53.4173,2.267,2.1264,5.6895,5.1775,9.3953,8.3984,1.0819,1.9471,3.0047,3.696,4.4023,3.956,.1088,.0243,.2146,.0602,.3157,.1072,2.3384,1.9962,4.6509,3.935,6.7284,5.646,6.4191,5.2316,12.5648,10.7899,18.4129,16.6528,4.459,4.512,9.3541,8.571,14.6136,12.1174,4.7632,3.1359,9.9747,8.2117,11.5778,11.2811,1.7348,3.3185,8.555,9.6552,16.8275,15.6314,7.6531,5.5284,17.4688,14.0914,21.817,19.0287s11.9936,12.6357,16.9917,17.1088c9.6568,8.6422,29.4136,27.6176,55.228,53.0547,8.6708,8.5422,19.6872,18.8932,24.4792,23.0022s9.6678,9.3509,10.8346,11.6502c1.4608,2.6264,3.4848,4.897,5.9268,6.6488,2.0933,1.3598,8.3476,7.5997,13.8988,13.8661,16.9002,19.0715,33.7206,34.2032,42.48,38.2122,7.3419,3.359,8.0301,4.1675,6.7052,7.9132-1.4701,4.175,1.8725,10.7283,5.063,9.9197,.934-.2367,.417-1.8945-1.1497-3.6829s-2.4433-3.8753-1.9489-4.6363c1.6301-2.5094,7.2473,.7553,11.4259,6.6406,3.6097,4.5473,7.7113,8.6813,12.2302,12.3265,4.7081,3.8181,9.1689,7.9315,13.3553,12.3153,2.879,3.1825,11.3226,11.9899,18.758,19.5816,23.4786,23.9604,34.1065,36.9115,40.9433,49.8803,3.7844,7.1791,2.8298,8.2519-3.0872,3.467-3.4807-2.8146-5.247-3.1698-6.4542-1.3114-1.1089,1.7071,.0869,3.9067,3.5874,6.5989,4.2849,3.6867,8.181,7.8026,11.6272,12.2832,3.5076,4.5381,7.2162,8.0375,8.2418,7.7792,.0465-.0128,.0882-.0477,.1344-.0654,.0471-.0028,.1097,.0331,.149,.024,1.4945-.3797,2.2144-2.1729,2.3156-4.7401,.6802-3.4164,.5493-7.72-.8084-9.641-1.0795-1.4527-1.7766-3.1534-2.027-4.9459,.0292-1.8815-5.4062-10.3979-15.5205-24.3158-2.2853-3.1451-5.1942-7.2347-6.4634-9.0899s-7.8098-9.6949-14.5295-17.4445c-10.8603-12.5271-19.9641-21.6094-53.2054-53.083-4.9771-4.7112-12.455-11.8903-16.6177-15.9544s-10.5575-9.794-14.2109-12.7374c-11.0502-8.9031-16.0799-13.46-31.1392-28.2136-26.0797-25.5522-36.3307-35.3129-41.4041-39.279-2.1178-2.0915-4.1841-4.1376-6.2587-6.213-.0398-.1513-.0588-.3074-.0566-.4639,.0732-1.2899-1.3753-3.3247-3.2202-4.5232-2.6741-1.9983-5.0813-4.3309-7.1626-6.9409-3.97-4.9649-11.4747-12.3213-33.5855-32.9272-7.2234-6.7335-13.5728-13.312-14.1107-14.6218-.2067-.3989-.4571-.7736-.7465-1.1172-.8137-1.4746-1.9298-2.7606-3.2751-3.7738-2.4594-2.6713-5.7903-6.0948-9.3506-9.56-6.8163-6.6384-17.8355-17.4315-24.4846-23.9875-9.7868-9.6489-12.8125-11.8028-15.8973-11.3204-2.0954,.3258-6.2632-1.3245-9.2632-3.6741s-7.1584-5.5388-9.2412-7.091c-2.894-2.1567-3.1645-3.7127-1.1633-6.5859,1.8321-2.6276,1.718-4.3528-.3728-5.711-2.0016-1.4758-3.6527-3.3753-4.8354-5.5629-2.4077-4.7327-7.6775-5.6505-8.6672-1.5117-.6654,2.7782-2.0176,2.173-9.7738-4.3721-4.9554-4.1734-11.4716-9.5622-14.4887-11.9682s-7.3707-6.1431-9.6767-8.3068c-4.3519-4.0831-17.0448-15.3943-37.5167-33.4264-6.5624-5.7804-15.4392-13.1476-19.7231-16.3658-2.4579-1.8471-6.8724-5.4795-11.7384-9.6234-1.0601-1.6392-2.4456-3.0432-4.0707-4.1248-1.0068-.654-2.6269-1.8496-4.5583-3.3559-.8001-.7059-1.5913-1.4071-2.3649-2.0969-8.2171-7.3396-24.3657-20.6426-35.885-29.5581s-28.5726-22.3887-37.8905-29.9363-18.9885-15.236-21.4964-17.0906c-3.2728-2.5175-6.393-5.2272-9.3444-8.1148-10.6417-10.555-102.705-77.0434-108.2755-78.2019h0c-.4706-.0971-.9545-.1132-1.4305-.0476-.1896-.088-.3861-.1602-.5875-.2158h0c-2.0587-.4819-3.2739,5.455-2.1043,9.8916,.7737,3.8072,1.9914,7.5104,3.6283,11.0338,2.5274,5.6265,13.508,18.8866,25.1991,30.4323,20.7101,20.45,41.1037,39.1077,55.7087,50.9666,8.9046,7.229,19.6315,16.428,23.8289,20.4347,6.7465,6.4392,31.4941,26.8812,68.0453,56.2017,6.5039,5.2186,20.2291,16.7935,30.5055,25.7273s23.5756,20.3858,29.5595,25.4516c12.461,10.5497,45.6571,40.7759,55.806,50.815,7.9711,7.8837,14.9916,14.4484,25.8779,24.1971,10.8499,9.7167,44.004,43.2584,46.8079,47.3572,3.079,4.5054,14.0993,15.8038,22.9298,23.5215,7.0523,6.163,7.153,6.1807,6.5315,1.0693"/><path id="Path_2327" class="cls-1" d="M733.1309,697.6044c-5.8685-5.7209-11.0699-9.782-11.5582-9.0303-1.0442,1.6075,6.9566,11.609,13.5034,17.5713,1.0254,1.0764,2.1717,2.0308,3.4161,2.8442,.1351,.0877,.2415,.1461,.3712,.2256s.2401,.1667,.355,.2414c8.8582,5.7541,5.72-.3573-6.0843-11.8572"/><path id="Path_2328" class="cls-1" d="M746.3622,716.9519c-.8932,3.1456,5.5067,8.0044,7.2375,5.4959,.6018-.8677-.4261-2.8776-2.2897-4.6095-.0942-.1065-.1789-.2224-.2817-.3285-.308-.331-.6727-.6043-1.0769-.8069-2.0157-1.4884-3.1205-1.3983-3.5887,.2481"/><path id="Path_2329" class="cls-1" d="M585.8666,415.4901c-2.3827-1.5681-4.8094-2.1172-5.392-1.2203-.8028,1.2358,2.5129,5.3916,5.7333,8.1623,.4786,.5021,1.0274,.9322,1.6294,1.2768,1.2958,.9181,2.4501,1.4662,3.1323,1.2938,2.7678-.7015-.2418-6.313-5.1031-9.5127"/><path id="Path_2330" class="cls-1" d="M610.724,450.7791c-1.2579,1.9364,1.6441,6.2111,6.1266,9.0226,3.3903,2.1271,3.4313,2.075,2.0246-2.3307-.7921-2.4759-2.7279-5.338-4.3027-6.3609s-3.306-1.1716-3.851-.3326"/><path id="Path_2331" class="cls-1" d="M314.7223,275.9124c2.9887,2.5379,5.8529,4.8542,8.265,6.7169,.3458,.4339,.793,.776,1.3022,.9962,2.9021,2.1882,4.9274,3.5205,5.3139,3.4232,2.7589-.6989-2.6506-7.6022-11.8895-15.1724-5.2452-4.2984-14.519-12.6083-20.607-18.4671-1.0659-1.0276-2.0801-1.999-3.0878-2.9602-2.1165-2.4001-4.4363-4.6131-6.9334-6.6143-14.0712-13.3327-21.4413-19.664-31.3169-27.1706-1.186-.9016-2.3969-1.8493-3.5997-2.8095-2.256-1.9045-4.5333-3.8038-6.7767-5.6488-2.1262-1.7935-4.1451-3.7105-6.0463-5.741-2.4104-2.7743-5.2582-5.0333-6.33-5.0197-.62-.1399-1.2012-.4159-1.7013-.8081-2.2403-1.8645-4.4205-3.6911-6.4794-5.427-.299-.2909-.5996-.5756-.8993-.8765-12.336-12.141-25.3737-23.5476-39.0462-34.1611-15.2568-11.6011-26.1698-20.3041-31.8438-25.3988-2.7326-2.4527-11.0787-9.0779-18.543-14.7188-2.1343-1.6107-4.3165-3.3277-6.413-5.026-3.1189-2.6607-6.1475-5.2603-9.0375-7.7591-1.1374-1.0609-2.0506-1.9691-2.6384-2.642-3.2424-3.5041-6.8569-6.6445-10.7796-9.3656-.4523-.301-.9181-.6417-1.3898-1.0066-1.7487-1.5726-3.3047-2.9937-4.6118-4.2174-1.3107-1.3417-2.4785-2.816-3.4846-4.399-2.9407-4.9572-1.3841-4.2717,17.9221,7.8874,11.6288,7.3236,23.1227,14.5429,25.5553,16.0396,4.2728,2.6383,39.1425,27.4544,67.2733,47.8692,15.0403,10.9188,47.4626,36.0277,61.3309,47.4999,4.8281,3.9929,11.1516,9.0537,14.0552,11.2488,18.346,13.8631,33.0499,25.7791,38.8206,31.4615,3.6602,3.6052,7.348,6.5472,8.1943,6.5374s4.2659,2.7353,7.6058,6.1062,14.7676,12.975,25.4047,21.3497c27.0894,21.3238,29.2559,23.0998,33.0049,27.0717,4.5541,4.8242,21.945,20.0639,38.6862,33.8998,7.6308,6.2998,14.8928,13.0335,21.7501,20.1676,4.3199,4.7734,10.6781,10.5595,14.1319,12.8591,3.9902,2.7713,7.644,5.9979,10.8875,9.6147,4.5433,4.9804,9.3421,9.7215,14.3771,14.2042,10.6081,9.5286,23.402,21.7751,27.5637,26.3825,1.4376,1.5924,8.977,8.6695,16.7482,15.7242,7.7712,7.0547,15.8247,14.9143,17.8877,17.4594s8.8378,9.2567,15.0599,14.9126c6.2221,5.656,12.5466,11.4905,14.0604,12.969,1.1484,1.123,6.1877,5.9605,12.2941,11.8037,2.4706,2.5402,5.353,5.3061,8.0516,7.7212,7.964,7.7478,16.2173,16.5175,19.0093,20.2435,3.0325,4.0445,7.0661,8.3659,8.9639,9.5987s8.2104,7.4271,14.0261,13.7639c.6922,.7527,1.4535,1.5789,2.2632,2.4555,1.8482,2.4261,3.9281,4.6666,6.2103,6.6898,5.0001,5.3608,10.54,11.2608,14.7896,15.7309,6.9774,7.3455,14.7082,15.6947,17.1765,18.5543s15.0458,16.9913,27.9438,31.4027c29.3346,32.775,57.1703,68.5133,70.8565,90.4517,.5047,.9017,.9814,1.7804,1.408,2.6075,.9168,1.7872,1.9642,3.5044,3.1337,5.1375,1.0134,1.8633,1.8735,3.5733,2.5373,5.0805,.4697,1.0639,.9704,2.0691,1.4853,3.0395,.3449,.9091,.8308,1.7583,1.44,2.5162,2.1327,3.4517,4.3092,5.7614,5.6745,5.7441,4.4438-.0566,4.6525-4.6131,.5715-12.4191-2.3445-4.4828-6.3453-12.7319-8.8913-18.3298-2.5459-5.5979-6.0108-11.1163-7.7025-12.257s-5.2362-5.0286-7.8794-8.6365-9.0183-11.7612-14.1651-18.1157c-5.375-6.6706-10.3723-13.6369-14.9685-20.8661-3.0866-5.12-6.5759-9.9361-7.7522-10.7002s-3.931-4.7403-6.121-8.8365-4.8768-8.0282-5.9725-8.74-3.5224-4.4749-5.3989-8.365c-4.3253-8.9728-6.4776-10.3518-8.2588-5.2956-1.2795,3.6355-1.8975,3.5621-6.5415-.7656-9.4473-8.7996-18.4623-18.8431-19.0619-21.2405-.3286-1.3051-2.0635-3.3065-3.8524-4.4554s-8.1199-7.4435-14.0655-13.9971c-24.6724-27.1935-32.9801-35.8648-40.533-42.3077-.166-.1412-.3253-.2853-.4893-.4276-2.7267-2.7447-5.4846-5.5002-8.1727-8.1721-.0624-.0924-.1197-.1881-.1716-.2868-1.0615-2.5184-28.1255-28.8806-54.3925-52.9892-10.4594-9.5978-20.0127-19.0366-21.2263-20.9738s-7.091-7.2404-13.0568-11.7849-11.6543-9.8061-12.6406-11.6947c-2.1343-4.0957-15.7012-17.2643-27.0637-26.3607-3.3558-3.0985-6.9684-6.3161-10.6777-9.4951-.2393-.2732-.444-.5749-.6096-.8982-.5442-1.2781-10.4301-10.3794-21.9677-20.2219s-26.2652-22.9967-32.727-29.2295-16.9655-15.7568-23.3521-21.1688c-41.8255-35.4511-66.0649-55.68-81.6197-68.0878-25.0116-19.9622-25.3504-20.2431-38.1297-31.3956-6.3125-5.5095-20.0233-16.2196-30.4692-23.8032s-19.784-15.3173-20.7388-17.1974-7.3015-7.0192-14.1-11.4259-17.1201-11.5922-22.9344-15.9715c-12.9525-9.7582-62.7678-45.4901-68.2531-48.9578-25.0602-15.8265-52.6563-30.8642-55.7478-30.3861-3.1449,.4923-3.5941,1.1251-3.1736,4.8342,.0167,1.7861,.5918,3.5221,1.6448,4.9648,.6876,1.3526,1.5641,2.6005,2.6033,3.7061,2.0122,2.0229,6.6666,6.8358,10.3469,10.6892,16.046,16.7904,57.3112,51.0471,108.8248,90.341,11.9891,9.1456,23.1179,18.4935,24.7282,20.7731s9.5478,9.5318,17.6386,16.1165,25.7922,21.3867,39.3391,32.8947,30.7288,26.0906,38.1711,32.4044"/><path id="Path_2332" class="cls-1" d="M694.3701,656.0303c-.0903-1.576-.9209-3.0163-2.2397-3.8838-1.3046-.8475-2.4284-.4858-2.504,.8024,.09,1.5761,.9206,3.0165,2.2397,3.8838,1.3046,.8475,2.4284,.4858,2.504-.8024"/><path id="Path_2333" class="cls-1" d="M571.4233,398.7816c-.0902-1.5756-.9205-3.0157-2.2388-3.8833-1.3046-.8475-2.4284-.4858-2.504,.8024,.0899,1.5757,.9202,3.0159,2.2388,3.8833,1.3038,.8469,2.4284,.4858,2.504-.8024"/><path id="Path_2334" class="cls-1" d="M653.7843,503.3803h0c-1.6056-1.9139-3.3131-3.74-5.1152-5.4702-.1214-.2927-.3245-.5443-.585-.7248-.1669-.1047-.342-.1957-.5236-.2721-1.4296-1.2245-2.3844-1.729-2.5284-1.2189-.4209,1.4744,2.7061,7.142,7.3926,13.8452,.7119,1.6637,1.7856,3.1477,3.1431,4.3443,1.4906,1.9883,3.0748,4.0088,4.7012,5.9863,3.1103,3.7777,6.4604,8.7456,7.4437,11.039,2.3935,5.5884,11.409,17.3024,18.2903,23.7636l5.5901,5.2514-3.815-7.4185c-2.0972-4.0812-7.899-12.937-12.8928-19.6776s-9.9405-13.9541-10.9947-16.0264-5.6001-8.1104-10.1065-13.4213"/><path id="Path_2335" class="cls-1" d="M641.2553,490.3108c.6109-.9405,.0016-2.4304-1.3551-3.3116s-2.5251-.5463-2.5991,.7431c-.0903,1.2543,.4111,2.4788,1.3554,3.3094,.9232,.5048,2.0806,.1749,2.5988-.7408"/><path id="Path_2336" class="cls-1" d="M419.3493,373.7257c4.1225,2.932,8.0073,6.5626,8.6349,8.0703,.8625,1.6899,2.4332,2.9075,4.2848,3.3214,2.4644,.4543,3.0745-.2004,2.8492-3.0621-.2184-2.1115-1.2944-4.0406-2.9763-5.3358-1.4721-.9276-6.2071-4.4412-10.5146-7.8048-4.3075-3.3636-8.464-5.9514-9.2281-5.7558-3.1938,.8101-.051,5.5884,6.9489,10.5685"/><path id="Path_2337" class="cls-1" d="M454.6982,404.6142c.1571,.9097,1.4818,1.8549,2.9436,2.1042,1.6158,.2729,1.504-.3759-.2842-1.6544-1.62-1.1573-2.8151-1.3598-2.6588-.4506"/><path id="Path_2338" class="cls-1" d="M402.307,354.4927c-.175,3.0776,5.66,6.8978,7.1124,4.6619,.6167-.7864,.644-1.8843,.0672-2.7003-.5734-.5443-2.2774-2.2059-3.7836-3.6926-13.045-12.8701-27.5948-26.8048-34.654-33.187-4.6727-4.2284-12.2946-11.1932-16.9267-15.4787-4.523-4.1999-9.2837-8.1364-14.2584-11.79h0c-3.2103-2.1987-6.2963-3.2883-6.8566-2.4258-1.2535,1.9297,4.7058,8.33,15.0344,16.1475,5.264,4.1046,10.2922,8.5028,15.0608,13.1738,13.806,13.7868,35.6188,32.956,37.4798,32.936,1.0994,.1369,1.8796,1.139,1.7428,2.2384-.0049,.0391-.0109,.078-.018,.1167"/><path id="Path_2339" class="cls-1" d="M693.207,568.0278c-.0549,1.194,.4586,2.3435,1.3845,3.0993,.8273,.5374,3.5725,4.3977,6.0993,8.5778,2.159,3.6589,4.5705,7.1629,7.2171,10.4862,1.7609,1.9998,3.396,4.107,4.8957,6.3095,2.0277,3.053,2.2417,2.957,1.9764-.903-.2765-3.9472-3.7904-10.6594-8.306-16.6099-.9703-2.0715-2.4306-3.8755-4.2546-5.2559-.1921-.1248-.371-.2315-.5543-.335-.7478-.7625-1.5046-1.4928-2.2582-2.1565-3.4788-3.0507-6.1323-4.426-6.1999-3.2125"/><path id="Path_2340" class="cls-1" d="M461.4953,411.4585c.1571,.9097,1.4818,1.8549,2.9427,2.1036,1.6167,.2735,1.504-.3759-.285-1.6549h0c-1.62-1.1573-2.8151-1.3598-2.6588-.4506"/><path id="Path_2341" class="cls-1" d="M598.4529,216.9795c.5608-.8633-.447-3.2073-2.2383-5.2084-6.6215-7.403-.9681-6.4603,9.2422,1.5393,7.1444,5.5953,11.6706,8.0583,14.1272,7.6724,.3757-.059,.7545-.0958,1.1345-.1101,.7853,.3908,1.7442,.9147,2.8752,1.5575,.242,.495,.4324,1.0137,.5682,1.5478,.529,1.959,2.1166,3.5462,3.5302,3.528,2.94-.0373,80.1647,50.2041,124,80.6676,16.192,11.2542,38.8862,28.3044,50.443,37.8969,7.1164,5.9064,12.2583,10.0076,16.0952,12.766,1.2649,1.0163,2.6157,1.9209,4.0371,2.7036,2.479,1.497,4.1922,2.1434,5.5473,2.2135,7.017,.3623,64.2234,40.4061,95.1935,66.632,21.0576,17.8304,36.6421,38.3378,34.0723,43.8458-1.3199,.8077-2.8489,1.2077-4.3952,1.1499-7.4076-1.537-25.0591-10.5646-44.1163-22.7672-11.7892-7.5507-22.9547-14.5077-24.8075-15.4608s-9.4695-6.6165-16.9233-12.5822c-8.2805-6.6268-15.007-10.8948-17.287-10.9681-5.7112-.1833,8.1502,10.9194,46.6113,37.3382,22.5669,15.5014,36.676,24.1438,43.4239,26.6064,5.4979,2.0049,11.8408,4.3619,14.0982,5.2413,1.864,.7229,4.9049,.3336,7.387-.8243,2.0253-.486,3.7903-1.7234,4.9377-3.4616,1.1718-1.8039,.8252-4.7598-.807-8.5449-.0437-.1477-.0747-.2872-.1169-.4445-1.2336-4.619-4.4454-10.5326-7.1407-13.1364-2.4458-2.2968-4.6138-4.8727-6.4593-7.6747-4.8153-9.0748-47.7668-42.7062-128.8543-100.8942-47.0283-33.7449-54.8199-39.3777-74.9594-54.21-8.1566-6.0058-16.216-11.8949-24.1224-17.6284-6.2729-5.1664-12.8785-10.1492-15.3332-11.535-.9206-.5204-2.8655-1.7505-5.6376-3.5547-26.6673-19.0442-50.7693-35.6775-69.6508-48.0237-17.9203-11.7159-40.5204-26.9751-50.2341-33.9173-9.7137-6.9422-27.3388-19.5257-39.1688-27.9667-28.4604-20.3079-45.2973-32.933-47.6281-35.7105-1.0455-1.2446-10.2595-8.8679-20.4756-16.9393-33.9809-26.8455-62.4216-52.001-69.1451-61.1406-5.1298-6.9793-10.9002-9.4666-13.3151-5.749-2.0955,3.226,.9158,8.6419,9.5294,17.1325,13.2235,13.0361,8.3483,12.0764-12.6663-2.4941-35.5363-24.6347-50.8296-36.3907-51.7407-39.7671-.6486-2.4029-1.8696-3.1054-4.6353-2.6734h0c-.5145,.0838-1.0209,.2109-1.514,.3802-.005-.0033-.0217-.0069-.0295-.006h0c-1.1935,.071-2.2886,.6853-2.9713,1.6668-.2392,.2023-.4511,.4348-.6305,.6916-1.0589,1.6302-1.6189,3.0047-.558,5.0061,.0167,.0717,.0172,.1424,.0358,.213,.121,.2463,.2894,.4664,.4956,.6476,4.0408,5.8018,20.5232,16.8605,70.2875,49.6351,27.6701,18.2222,52.1522,34.7827,72.7465,49.1756,13.8786,9.7705,26.3828,18.7842,37.2258,26.8274,10.6985,8.034,19.112,14.7556,24.9271,19.9454,5.0883,4.54,14.7846,12.9801,21.5445,18.7539s14.4916,12.5643,17.1763,15.0944,6.9322,6.1148,9.4354,7.9711,4.6954,4.7095,4.8755,6.3405c.4079,3.745,10.5907,13.1167,11.9603,11.0082"/></g></svg>