<svg xmlns="http://www.w3.org/2000/svg" width="1006.92" height="902.738" viewBox="0 0 1006.92 902.738">
  <g id="Group_3768" data-name="Group 3768" transform="matrix(-0.545, 0.839, -0.839, -0.545, 1006.92, 472.427)" opacity="0.842">
    <path id="Path_321" data-name="Path 321" d="M8.16.193C5.177,2.818-1.546,34.724.323,37.385c2.056,2.927,4.5-.779,4.5-6.824A39.551,39.551,0,0,1,6.563,19.433C9.27,11.935,10.41-1.786,8.16.193" transform="translate(105.757 348.802)" fill="#fff"/>
    <path id="Path_322" data-name="Path 322" d="M10.326,18.18C8.977,25.041,6.742,32.13,5.358,33.934s-2.514,5.927-2.514,9.159A44.678,44.678,0,0,1,1.009,54.6C0,57.7-.3,60.978.334,61.885h0c1.722,2.451,6.142-5.528,6.246-11.273.048-2.744,1.4-9.106,3.012-14.138C13.719,23.562,17.961,6.3,17.961,2.425c0-7.388-5.191,3.323-7.635,15.755" transform="translate(139.857 480.786)" fill="#fff"/>
    <path id="Path_323" data-name="Path 323" d="M2,0A1.861,1.861,0,0,0,0,1.663c0,.915.375,1.663.833,1.663s1.359-.748,2-1.663S3.1,0,2,0" transform="translate(137.031 550.526)" fill="#fff"/>
    <path id="Path_324" data-name="Path 324" d="M5.9.143C4.194,1.767,0,24.321,0,31.868H0c0,5.174,2.233,4.764,4.045,1.152a5.3,5.3,0,0,0,1.07-2.735,25.647,25.647,0,0,0,.86-3.746C7.859,14.231,7.812-1.678,5.9.143" transform="translate(129.472 559.612)" fill="#fff"/>
    <path id="Path_325" data-name="Path 325" d="M3.2,0C.544,0-.681,1.872.382,4.311h0c.556,1.279,1.773,1.909,2.7,1.4C5.22,4.553,5.314,0,3.2,0" transform="translate(160.597 452.395)" fill="#fff"/>
    <path id="Path_326" data-name="Path 326" d="M0,0H0Z" transform="translate(92.246 823.884)" fill="#fff"/>
    <path id="Path_327" data-name="Path 327" d="M158.42,153.463c5.083-18.523,12.415-47.5,18.725-74.013,6.672-28.028,16.26-59.714,19.957-65.954a16.969,16.969,0,0,0,2.614-8.914,2.593,2.593,0,0,0-.436-2.443c-.835-2.213-2.778-2.95-5.319-1.049a4.31,4.31,0,0,0-.82.621,2.847,2.847,0,0,0-.313.374c-.142.142-.277.249-.422.406-4.029,4.38-20.8,61.373-20.831,70.786a8.883,8.883,0,0,1-.2,1.632c-.327,1.152-.644,2.232-.95,3.213a23.474,23.474,0,0,1-1.7,3.626,39.775,39.775,0,0,0-3.933,11.643,123.57,123.57,0,0,1-4.576,16.828,125.853,125.853,0,0,0-4.677,17.464,105.583,105.583,0,0,1-3.8,14.968c-2.965,8.508-6.859,23.869-13.071,51.561-2.359,10.519-6.07,26.239-8.246,34.928-5.08,20.293-11.169,48.46-12.72,58.846-.668,4.464-2,9.7-2.97,11.642s-3.425,12.882-5.467,24.316-5.043,25.656-6.675,31.6-2.977,12.683-2.987,14.968-1.374,9.024-3.024,14.97a129.813,129.813,0,0,0-3.4,14.97c-.22,2.287-2.186,12.764-4.371,23.285-6.667,32.115-9.343,45.7-10.921,55.811-.369,1.959-.723,4.131-1.021,6.336-.163,1.215-.351,2.548-.558,3.945-.987,5.89-2.339,13.186-3.494,18.732-1.618,7.776-3.51,19-4.2,24.949a154.965,154.965,0,0,1-3.845,19.959c-1.42,5.031-3.5,17.38-4.625,27.443S57.64,601.455,57.086,604.2s-1.375,7.61-1.822,10.812c-.337,2.4-.691,4.84-1.059,7.3-.013.015-.028.046-.041.058-.89.87-1.62,3.93-1.62,6.8A103.063,103.063,0,0,1,51.4,639.82c-3.244,19.092-6.9,37.009-9.483,45.878-1.6,5.488-3.746,12.972-4.771,16.632-2.324,8.3-12.721,26.742-17,30.154-2.914,2.321-3.43,2.2-5.645-1.326-5.909-9.4-7.025-48.322-1.77-61.762a110.821,110.821,0,0,0,4.838-16.224c.763-4.065,2.06-8.141,2.886-9.055s2-7.277,2.607-14.138S25.13,611.891,26.3,605.03s2.465-17.714,2.863-24.117a230.914,230.914,0,0,1,3.591-25.78c1.576-7.775,3.733-20.5,4.791-28.275s2.76-20.124,3.781-27.443,2.158-16.389,2.526-20.159A60.189,60.189,0,0,1,46.7,466.6c2.022-5.4,6.017-27.324,9.625-52.841.841-5.946,2.084-14.553,2.762-19.128,1.17-7.9,1.092-8.109-1.577-4.158-1.545,2.288-3.783,10.52-4.972,18.3s-3.364,18.731-4.831,24.347a254.822,254.822,0,0,0-4.652,25.893c-1.092,8.627-3.267,22.369-4.83,30.54-5.279,27.585-6.256,33.124-7.449,42.3a74.275,74.275,0,0,1-2.835,13.307c-.9,2.287-2.153,11.136-2.774,19.667a218,218,0,0,1-3.024,24.117c-1.451,6.581-9.275,56.307-9.287,59.018,0,.284-.927.01-2.059-.6-1.964-1.068-1.426-21.637,1.088-53.087.841-9.066,1.852-19.793,3.062-32.521.581-6.12,1.135-11.923,1.665-17.45.321-3.006.649-6.039.988-9.119,1.466-13.265,3.172-29.356,3.79-35.759,1.882-19.5,6.5-55.963,8.423-66.53.318-1.744.678-3.962,1.069-6.538.094-.593.18-1.177.262-1.759,1.573-10.678,3.564-26.654,5.259-42.43.442-4.117,1.662-11.817,2.712-17.113.94-4.738,1.368-9.512,1.059-11.357.127-.724.322-1.973.562-3.608a2.133,2.133,0,0,1,.332-.285c1.111-.6,2.019-4.4,2.019-8.435s1.22-15.03,2.712-24.434,4.548-29.073,6.8-43.71c4.106-26.76,12.2-64.879,15.285-72.043a25.129,25.129,0,0,0,1.664-8.317c0-2.454,3.021-12.322,6.71-21.929s7.953-21.858,9.477-27.228c2.87-10.123,10.549-28.733,14.844-35.976a43.592,43.592,0,0,0,3.775-8.986c1.113-4.1,7.121-12.851,11.163-17,2.27-1.95,3.528-2.207,4.977-1.362a8.765,8.765,0,0,1,1.718,1.967c1.609,2.533,1.99,2.343,3.1-1.531,1.249-4.384.99-7.542-.638-9.343a3.45,3.45,0,0,0-3.312-2.035,2.744,2.744,0,0,0-1.128.349c-2.6.2-5.339,2.45-9.81,7.928-3.774,4.623-6.862,9.042-6.862,9.818s-2.227,5.078-4.951,9.56c-7.275,11.972-11.163,22.2-21.9,57.628-3.936,12.99-7.184,16.773-7.136,8.316.015-2.515,1.687-12.432,3.72-22.037,3.393-16.046,6.21-26.854,14.092-54.055,3.733-12.875,3.73-16.185-.012-15.506-5.319.965-14.068,20.528-14.052,31.422a55,55,0,0,1-2.744,14.137c-1.516,4.51-4.055,14.564-5.644,22.339s-5.108,21.249-7.818,29.938a244.3,244.3,0,0,0-6.328,24.119,61.714,61.714,0,0,1-3.358,12.473,89.93,89.93,0,0,0-7.171,24.117c-.712,4.574-2.16,9.242-3.219,10.375-2.321,2.481-.425,7.727,2.264,6.264,1.047-.57,1.9-2.818,1.9-5,0-4.331,8.861-27.351,11.468-29.8,1.766-1.654,1.727-1.317-3.939,33.122-6.328,38.467-9.138,57.3-11.289,75.676-1.123,9.605-3.714,28.692-5.757,42.413-8.861,59.546-15.432,107.749-17,124.742-.933,10.063-3.025,29.9-4.654,44.077s-3.3,30.644-3.717,36.59-2.2,26.9-3.951,46.571C1.243,627.526.595,640.138.35,652.334a212.142,212.142,0,0,0,.127,26.549c1.084,34.926,5.787,61.94,12.674,65.22,1.41.8,3.125.572,5.307-.745,4.272-1.848,9.518-5.608,9.518-7.455,0-.536,2.5-4.229,5.546-8.207a54.086,54.086,0,0,0,7.807-15.469c1.243-4.529,3.425-9.332,4.847-10.671,3.247-3.056,3.31-.974.7,23.227-2.412,22.391-3.5,67.227-2.595,86.384.06,4.582.231,7.436.54,7.708a1.49,1.49,0,0,0,.2.1c.157.706.331,1.121.523,1.193,4.065,1.454,5.206,1.12,6.279-1.837.581-1.6,1.8-4.407,2.7-6.237C59.8,801.44,64.55,776.759,66.367,750.561c.189-2.744.931-5.78,1.646-6.745s.592-4.524-.275-7.909c-.9-3.519-.852-6.549.116-7.075.931-.507,1.694-4.892,1.694-9.743a98.059,98.059,0,0,1,1.735-16.951c.953-4.469,2.3-16.72,2.992-27.222.224-3.4.463-6.638.694-9.483.493-3.939,1-7.9,1.507-11.8.646-3,1.973-10.73,3.329-19.5,1.7-10.977,3.4-21.782,3.778-24.01,1.7-9.974-3.538-11.259-5.515-1.353-2.217,11.1-2.453,12.544-5.506,33.68-1.586,10.978-3.345,22.241-3.908,25.03-.945,4.674-4.2,36.807-5.718,56.468-.256,3.322-.744,7.771-1.224,11.367-1.142,1.753-1.659,4.14-.87,5.711-.7,4.438-1.836,12.116-2.757,18.682-2.829,20.127-3.708,23.451-5.888,22.265-1.24-.674-1.492-7.346-.709-18.726,1.746-25.3,3.312-53.58,3.93-70.9a230.15,230.15,0,0,1,2.63-26.611c1.151-6.4,2.9-18.754,3.891-27.444.316-2.781.643-5.563.975-8.321.324-2.412.649-4.906.978-7.521.477-3.8.98-7.721,1.5-11.695,1.557-11.319,3.072-20.93,4.22-26.517.939-4.576,2.216-13.182,2.835-19.128s3.222-22.786,5.78-37.423c7.38-42.219,13.994-79.335,15.26-85.656.643-3.2,1.4-7.319,1.691-9.148s2.815-13.8,5.614-26.611,5.736-27.777,6.525-33.265,2.812-15.218,4.491-21.622,5.245-22.495,7.925-35.759,6.448-30.48,8.378-38.254,5.3-22,7.482-31.6c6.282-27.619,17.277-72.076,22.83-92.31" transform="translate(46.697 3.709)" fill="#fff"/>
    <path id="Path_328" data-name="Path 328" d="M4.6,0C2.318,0-.914,8.538.243,11.509h0c.732,1.878,1.445,1.727,3.491-.733C6.624,7.294,7.21,0,4.6,0" transform="translate(168.52 417.466)" fill="#fff"/>
    <path id="Path_329" data-name="Path 329" d="M188.512,248.983c-.094-20.22-.665-25.141-1.672-31.3-2.3-25.388-6.847-39.836-15.367-56.894-2.794-5.594-4.31-7.386-7.274-7.794a3.67,3.67,0,0,0-.964-.151c-.233,0-.47.027-.7.045h-.022c-.1,0-.212.018-.316.022-.056.005-.11,0-.165.012a15.728,15.728,0,0,0-8.742,3.908,28.036,28.036,0,0,0-3.99,5.613,28.7,28.7,0,0,0-1.807,3.218c-4.437,8.249-9.523,20.069-11.7,27.976-1.006,3.657-2.752,9.645-3.881,13.3a76.237,76.237,0,0,0-2.61,12.474c-1.62,16.853-3.17,26.756-5.6,35.759-1.483,5.49-2.58,12.226-2.437,14.97.442,8.538-2.488,44.566-4.193,51.561-1.088,4.458-1.4-1.133-.946-16.957.373-12.985,1.09-24.211,1.593-24.949s1.437-15.225,2.075-32.2,1.952-38.3,2.92-47.4c1.639-15.407,2.529-33.059,4.859-96.379.078-2.129.18-4.305.3-6.478.325-5.245.668-10.067,1.009-14.232a131.824,131.824,0,0,1,1.772-13.9,56.044,56.044,0,0,0,1.109-6.2c.366-2.717.1-4.346-.8-5.145a2,2,0,0,0-.215-.133c-.028-.026-.051-.054-.079-.079-3.078-2.711-7.145,2.5-10.713,13.728-1.6,5.032-4.988,15.511-7.53,23.286-9.057,27.707-25.57,103.747-34.132,157.176-1.612,10.063-3.771,23.16-4.8,29.105s-2.634,16.05-3.576,22.455-3,20.249-4.575,30.77c-4.046,27.015-6.825,49.6-8.6,69.854-.841,9.605-2.009,18.588-2.6,19.959S52.18,442.211,51.1,461.421s-2.791,40.915-3.793,48.233-3.085,23.783-4.63,36.592c-7.173,59.455-8.379,67.413-14.137,93.14a148.471,148.471,0,0,1-8.933,25.78c-1.874,4.19-3.018.171-3.66-15.528-.3-10.554-.526-25.775-.665-42.394-.01-3.02-.019-6.153-.023-9.438-.083-62.533,2.016-120.911,5.622-156.344,1.024-10.061,2.693-29.148,3.708-42.412,1.874-24.491,3.024-37.426,4.651-52.391.5-4.573,1.858-18.046,3.024-29.938s2.492-24.958,2.952-29.037c1.981-17.6,4.648-44.555,7.175-72.532,1.492-16.527,3.225-31.87,3.848-34.1s1.907-15.646,2.853-29.826C54.321,72.805,56.96,44.979,60.579,30.077,62.115,23.751,63.7,16.591,64.7,11.568c.983-3.657,1.406-6.131,1.262-7.679C66.364.114,65.723-.3,63.094.143c-2.431.41-4.279,2.992-5.776,8.067-1.211,4.107-4.042,13.453-6.291,20.771s-5.206,17.175-6.569,21.9-3.106,9.49-3.872,10.582c-1.36,1.937-5.814,15.619-11.621,35.706-1.295,4.475-2.667,10.5-3.415,14.81-.8,3.274-1.633,6.884-2.53,10.917a3.112,3.112,0,0,1-.532.8c-.937.869-1.706,3.311-1.706,5.428a15.239,15.239,0,0,1-1.769,6.737c-.974,1.588-3.21,8.874-4.969,16.193S9.655,168.643,8.2,172.647c-2.508,6.889-5.281,19.4-7.014,31.4A24.015,24.015,0,0,0,0,210.342a8.086,8.086,0,0,0,.417,2.905c.4,4.716,3.022,3.466,5.322-4.221,1.164-3.887,2.938-9.689,3.942-12.891s3.014-11.808,4.465-19.128S19,156.594,21.712,147.9C28.3,126.774,34.069,105.313,35.34,97.209c.573-3.639,2.164-8.129,3.538-9.979s3.08-6.559,3.788-10.467c1.869-10.3,4.572-10.339,4.576-.061.01,15.484-5.773,90.7-10.333,134.4-.189,1.816-.4,3.833-.619,6-.256,2.034-.507,4.479-.72,7.107-1.423,14.1-3.167,31.893-4.417,45.106-1.687,17.838-3.831,35.426-4.764,39.086s-2.2,15.635-2.819,26.611-2.254,30.438-3.639,43.244-2.169,23.8-1.743,24.425a3.129,3.129,0,0,1,.152,1.294c-.067,1.087-.127,2.115-.18,3.078-.205,2.23-.578,5.09-1.079,8.1-1.035,6.235-3.386,32.666-5.222,58.737C8.631,519.727,7.518,610.162,8.826,656.049c.23,13.183.643,22.271,1.271,24.456h0c.069.242.157.474.245.706a7.134,7.134,0,0,0,.794,2.868h0c2.46,2.609,2.88,2.6,6.414-.16,3.722-2.907,11.435-16.471,14.921-26.239,3.96-11.1,11.484-52.875,14.678-81.5,1.224-10.976,2.96-25.2,3.856-31.6s3.025-28.483,4.728-49.065c.286-3.432.583-6.932.887-10.466.013-.129.028-.266.042-.392.489-4.585,1.044-10.913,1.542-17.41,5.307-57.984,12.534-122.193,16.26-143.045,1.554-8.69,3.771-23.658,4.926-33.265s2.869-20.083,3.8-23.285,2.235-11.683,2.889-18.847,2.828-20.635,4.828-29.938,4.5-22.15,5.559-28.555,3.544-18.005,5.531-25.78c4.159-16.281,7.747-30.818,10.153-41.073.267-.928.5-1.95.7-3,.9-3.9,1.589-7.034,2.006-9.153.81-4.117,2.3-7.286,3.3-7.041,1.882.455,1.756,53.166-.183,76.9-3.1,37.9-4.969,64.709-4.875,69.855.057,3.2-.719,12.932-1.725,21.622s-2.665,28.15-3.686,43.244-2.677,36.425-3.68,47.4c-3.365,36.8-4.579,80.9-4.693,170.481-.119,91.826,1.021,125.573,4.333,128.49,1.6,1.4,3.835-.53,5.9-4.269a14.36,14.36,0,0,0,.943-1.66,16.48,16.48,0,0,0,.657-1.679,52.1,52.1,0,0,0,3.367-12.5c.209-1.5.42-6.01.622-12.869a481.411,481.411,0,0,0,1.258-57.3c-.083-2.028-.16-4.179-.233-6.38.139-14.878.246-31.021.3-47.627.4-111.4.7-125.762,3.146-147.2,1.223-10.737,4.389-45.814,6-66.53,4.572-58.6,13.273-103.717,24.7-128.068,5.837-12.441,8.078-15.345,10.724-13.905,5.125,2.787,12.2,23.45,17.584,51.327,3.129,16.219,3.608,113.562.895,182.124-1,25.156-2.254,88.237-2.8,140.181-.874,84.031-.662,94.55,1.927,95.425a8.379,8.379,0,0,0,.9.245c.409.432.782.52,1.125.17a2.832,2.832,0,0,0,1.879-.307c1.284-1.129,2.3-48.986,3.539-166.452.092-8.633.19-17.013.3-25q.092-6.676.18-13.062c.489-33.441,1.05-57.248,1.412-57.764.489-.7.937-32.614,1-70.928.029-19.426-.092-35.546-.466-49.246m-79.184,361.37c-.114,2.03-.255,3.252-.409,3.252-.738,0-2.463-13.53-2.964-22.067.019-2.324.066-4.613.136-6.807.331-1.624.928-2.727,1.614-2.727.81,0,1.431,3.3,1.716,8.658.064,8.076.023,15.218-.094,19.691m-2.738-35.234c.105-1.362.221-2.578.344-3.622q.332-.534.775-1.136a8.27,8.27,0,0,1,.778-.94c.177,1.157.334,2.827.469,4.962a1.565,1.565,0,0,1-1.246.968,2.45,2.45,0,0,1-1.119-.233m1.116-14.737a1.8,1.8,0,0,1-1.858-1.527c.013-.173.032-.339.054-.5a1.9,1.9,0,0,1,3.616.028c.019.153.037.307.05.465a1.8,1.8,0,0,1-1.861,1.538" transform="translate(324.107 114.887)" fill="#fff"/>
    <path id="Path_330" data-name="Path 330" d="M3.842,7.438C5.721,6.416,3.826,0,1.645,0-.271,0-.627,5.567,1.184,7.163v0a2.5,2.5,0,0,0,2.659.278" transform="translate(46.354 380.874)" fill="#fff"/>
    <path id="Path_331" data-name="Path 331" d="M5.67,2.079C5.686.936,4.423,0,2.864,0,.013,0-1.083,5.12,1.317,7.234c1.476,1.3,4.31-2.058,4.352-5.154" transform="translate(48.19 370.897)" fill="#fff"/>
    <path id="Path_332" data-name="Path 332" d="M3.208,5.678C5.354,4.51,5.305,0,3.147,0,1.061,0-.971,4.315.5,5.613h0a2.579,2.579,0,0,0,2.7.066" transform="translate(52.833 357.591)" fill="#fff"/>
    <path id="Path_333" data-name="Path 333" d="M17.914,19.472C18.065,12.7,19,5.825,20,4.189,21.171,2.259,21.138.85,19.907.181c-2.469-1.344-5.225,4.953-6.43,13.98a13.712,13.712,0,0,0-.609,6.459c-.5,5.925-1.571,15.53-2.552,22.8C9.2,51.657,7.616,64.38,6.787,71.7c-.761,6.722-2.161,17.995-3.244,26.168a82.85,82.85,0,0,0-1.34,8.307h0a47.758,47.758,0,0,0-.387,4.857c-.65,5.107-1.234,9.862-1.545,12.644h0c-.536,4.8-.256,8.731.621,8.731,2.375,0,3.575-5.727,4.881-23.285C6.42,100.43,7.75,90.584,8.728,87.24A116.4,116.4,0,0,0,11.5,69.776c.548-6.262,2.151-17.37,3.566-24.69a185.324,185.324,0,0,0,2.845-25.614" transform="translate(43.43 206.888)" fill="#fff"/>
    <path id="Path_334" data-name="Path 334" d="M.536,10.234c.822,1.169,1.785,1,2.863-.492C5.542,6.767,5.54,0,3.4,0,1.179,0-1.051,7.975.536,10.234" transform="translate(63.923 166.318)" fill="#fff"/>
    <path id="Path_335" data-name="Path 335" d="M5.629,18.055C6.082-.832,6.026-1.289,3.535.9,1.118,3.03-1.171,28.12.668,32.339,3.179,38.1,5.3,32.013,5.629,18.055" transform="translate(65.305 129.968)" fill="#fff"/>
    <path id="Path_336" data-name="Path 336" d="M0,4.574C.024,8.138.434,8.6,1.861,6.653,4.25,3.4,4.25,0,1.861,0,.822,0-.016,2.06,0,4.574" transform="translate(42.579 345.947)" fill="#fff"/>
    <path id="Path_337" data-name="Path 337" d="M11.4,30.013c-.848.924-2,5.049-2.566,9.164C7.092,51.885,4.241,64.738,2.072,69.64A26.545,26.545,0,0,0,0,78.509v0c0,5.316,4.141,4.358,5.042-1.168a105.048,105.048,0,0,1,3.5-12.385c1.558-4.574,4.1-13.793,5.651-20.485s3.57-13.429,4.488-14.968,2.293-6.17,3.053-10.286S23.913,10.4,24.889,8.761C27,5.229,24.987-1.776,22.5.417a10.572,10.572,0,0,0-1.507,2.834c-1.224,1.28-2.011,2.953-1.838,4.127a4.258,4.258,0,0,1,.032.6c-.76,2.159-1.56,4.608-2.314,7.145-2.163,7.267-4.626,13.968-5.474,14.892" transform="translate(59.558 253.547)" fill="#fff"/>
    <path id="Path_338" data-name="Path 338" d="M3.781,1.761C3.781.332,2.929-.37,1.892.2A3.555,3.555,0,0,0,0,2.789,1.757,1.757,0,0,0,1.892,4.354c1.037,0,1.889-1.168,1.889-2.593" transform="translate(44.439 393.153)" fill="#fff"/>
    <path id="Path_339" data-name="Path 339" d="M.341,19.585c1.9,5.279,5.815.566,7.137-8.6S6.12-3.591,3.4,2.745C2.434,5.01,2,7.409,2.45,8.076s-.126,2.753-1.271,4.636a9.129,9.129,0,0,0-.838,6.873" transform="translate(60.25 180.246)" fill="#fff"/>
    <path id="Path_340" data-name="Path 340" d="M0,0H0Z" transform="translate(64.459 176.551)" fill="#fff"/>
    <path id="Path_341" data-name="Path 341" d="M5.017.272C4.44-.549,2.889.554,1.57,2.726S-.359,7.342.218,8.164s2.128-.282,3.447-2.453S5.594,1.093,5.017.272" transform="translate(177.876 391.626)" fill="#fff"/>
    <path id="Path_342" data-name="Path 342" d="M1.313,33.264c1.126,0,2.492-3.181,3.037-7.069C5.754,16.179,6.945,9.846,8.421,4.573,9.125,2.057,8.922,0,7.97,0,5.208,0,1.692,10.389.43,22.286h0c-.785,7.4-.5,10.979.883,10.979" transform="translate(114.545 312.683)" fill="#fff"/>
    <path id="Path_343" data-name="Path 343" d="M5.172,5.171C5.207-3.883,2.126-.379.489,10.494c-.808,5.365-.6,8.731.532,8.731,2.4,0,4.119-5.813,4.152-14.055" transform="translate(122.386 290.131)" fill="#fff"/>
    <path id="Path_344" data-name="Path 344" d="M.479,97.223c-.023.019-.045.031-.069.052-.574.507-.533,1.982.045,3.453.246,6.294,2.192,6.938,3.693-1.817.485-2.824,1.41-7.875,2.465-13.473a4.58,4.58,0,0,0,.318-1.683c.945-5,1.964-10.288,2.844-14.747a14.142,14.142,0,0,1,2.828-5.93c1.152-1.223,2.636-6.665,3.295-12.093a160.8,160.8,0,0,1,3.7-19.017C22.7,20.579,23.921.637,21.546,0c-.975-.258-4.14,12.254-7.032,27.8s-6.02,29.772-6.947,31.6-1.281,5.762-.783,8.736a12.885,12.885,0,0,1-1.867,9.148C3.393,79.35,1.545,86.458.807,93.09.641,94.584.536,95.964.479,97.223" transform="translate(146.784 92.771)" fill="#fff"/>
    <path id="Path_345" data-name="Path 345" d="M10.478,3c-.448-4.132-.467-4.128-3.047.833A27.269,27.269,0,0,0,4.751,13.98a37.154,37.154,0,0,1-1.828,9.979,69.129,69.129,0,0,0-2.612,12.8c-1.583,14.516,3.222,7.582,6.773-9.774C11.2,6.868,11.028,8.07,10.478,3" transform="translate(134.257 206.561)" fill="#fff"/>
    <path id="Path_346" data-name="Path 346" d="M3.615,1.475C2.729-.556,2.294-.514.853,1.753-.088,3.233-.28,5.266.426,6.271c1.789,2.548,4.569-1.632,3.189-4.8" transform="translate(128.236 270.011)" fill="#fff"/>
    <path id="Path_347" data-name="Path 347" d="M2.835,8.128c1.558-1.959,2.32-4.741,1.691-6.182C2.749-2.129,0,.592,0,6.428H0c0,5.151.059,5.187,2.834,1.7" transform="translate(131.362 255.163)" fill="#fff"/>
    <path id="Path_348" data-name="Path 348" d="M5.142,16.216c1.289-5.716,2.737-11.7,3.22-13.3S8.442,0,7.467,0C5.66,0,2.514,9.184.492,20.376c-1.9,10.532,2.157,6.9,4.649-4.159" transform="translate(339.685 88.145)" fill="#fff"/>
    <path id="Path_349" data-name="Path 349" d="M96.3,326.587c-2.2,1.75-4.2,6.168-4.9,10.8-.65,4.311-2.82,13.828-4.822,21.145s-5.02,19.294-6.707,26.613-3.854,16.3-4.816,19.958-2.169,9.273-2.68,12.474c-.914,5.733-4.884,26.993-8.385,44.908-.983,5.032-3.173,13.852-4.866,19.6s-2.582,11.166-1.973,12.033c.237.338.256,1.719.1,3.769-.665,4.283-1.353,8.976-2.046,13.955-2.6,13.946-7.344,45.408-9.732,64.571-.455,3.661-2.03,14.512-3.5,24.117s-3.163,23.826-3.768,31.6c-.067.854-.142,1.753-.227,2.69-.236,2.2-.455,4.366-.652,6.415-.02.206-.041.422-.061.63C35.811,655,33.01,675.08,27.99,708.642c-1.971,13.187-11.664,54.719-15.243,65.325-.4,1.188-.78,2.165-1.138,2.959a8.433,8.433,0,0,1-1.82,2.457c-1.6.308-2.26-6.276-1.637-18.8.829-16.688,3.93-60.014,5.5-76.885.384-4.115,1.215-16.091,1.848-26.611s1.975-23.617,2.982-29.107c1.772-9.67,4.623-38.093,7.423-74.014,1.385-17.774,6.262-54.291,9.661-72.351.508-2.7,1.152-6.7,1.785-10.986.968-1.736,1.356-4,.852-5.157a1.312,1.312,0,0,1-.076-.285c.369-2.689.71-5.331.991-7.69a203.471,203.471,0,0,1,3.651-21.622A80.754,80.754,0,0,0,44.81,419.24c.032-5.031,1.347-11.325,2.924-13.985,1.7-2.878,3.187-10.968,3.655-19.959.433-8.317,2.134-19.694,3.777-25.282a207.7,207.7,0,0,0,4.721-20.791c1.842-11.3,6.619-35.028,13.355-66.347,2.262-10.519,4.748-23.642,5.522-29.161s2.388-11.644,3.586-13.613a17.293,17.293,0,0,0,2.176-7.579c0-2.2,1.693-9.827,3.762-16.947,6.294-21.666,9.564-41.379,8.255-49.785-1.1-7.045-.816-7.939,2.766-8.762,3.993-.919,7.4-6.54,5.156-8.512-.656-.577-1.684.6-2.283,2.62s-1.779,3.67-2.621,3.67c-2.775,0-3.074-5.724-.608-11.643a66.546,66.546,0,0,0,3.408-14.97,120.62,120.62,0,0,1,2.831-15.8c1.018-3.659,3.6-14.137,5.751-23.285,6.774-28.881,11.475-42.965,18.107-54.255,3.671-6.249,4.988-6.058,4.255.616-.431,3.927.182,5.4,2.241,5.4q2.831,0,3.32-5.821a70.072,70.072,0,0,1,3.679-14.5c1.757-4.776,2.605-9.2,1.886-9.835-.034-.028-.082-.043-.119-.068-.016-.034-.02-.094-.042-.115-1.05-.923-2.809-.594-4.856.565-3,1.138-6.281,3.3-7.089,5.231A9.544,9.544,0,0,1,129.5,10.2c-1.477.882-5.355,9-11.069,23.165-1.292,3.2-3,7.319-3.8,9.149s-3.6,10.437-6.234,19.127C104.144,75.7,101.679,86.8,94,126.511c-1.15,5.946-2.955,14.927-4.012,19.959S87.7,158.985,87.256,163.1c-1.341,12.452-2.344,18.362-6.21,36.592-6.7,31.57-9.108,43.843-9.63,49.5-.552,2.571-1.1,5.084-1.674,7.615a1.585,1.585,0,0,1-.332.264c-1.04.566-1.891,2.615-1.891,4.555a33,33,0,0,1-1.779,8.633c-1.854,5.322-3.785,14.409-8.64,40.666-1.587,8.579-3.5,16.437-4.242,17.464a5.227,5.227,0,0,0-.492,1.089,10.161,10.161,0,0,0-1.28,4.234c-.836,3.1-1.814,7.212-2.711,11.51-1.719,8.233-4.547,21.569-6.285,29.638-2.56,11.876-2.706,15.149-.773,17.2,1.312,1.393,2.134,5.269,1.822,8.618s-.691,7.957-.846,10.243c-.215,3.173-1.289,4.125-4.534,4.025-2.967-.093-4.253.821-4.253,3.02a14.36,14.36,0,0,1-1.883,6.25c-2.465,4.055-.515,8.395,3.2,7.138,2.5-.843,2.709.449,1.538,9.331-.747,5.671-1.642,13.08-1.989,16.469s-1.054,8.4-1.571,11.149c-.977,5.181-3.361,20.006-7.042,43.814-1.18,7.632-2.425,17.736-2.763,22.453-.195,2.706-.789,7.717-1.554,13.307a12.058,12.058,0,0,0-1.151,4.993c0,1.063-.111,2.832-.308,4.984-.145.931-.29,1.855-.436,2.757-1.557,9.605-3.744,27.943-4.859,40.748s-2.977,31.894-4.14,42.414S8.3,665.15,8.121,667.894a87.748,87.748,0,0,1-1.59,10.812C3.7,691.649-1.5,791.7.413,796.379h0a3.7,3.7,0,0,0,.685,1.081,3.214,3.214,0,0,0,.129.539h0c.665,1.754,5.9-.2,8.756-3.2a44.3,44.3,0,0,0,6.748-7.986c3.1-4.573,7.864-19.067,10.936-33.263,5.442-25.146,9.65-49.2,11.492-65.7,1.123-10.061,2.858-22.412,3.854-27.443,1.6-8.084,4.995-36.214,9.332-77.34.773-7.319,2.841-23.035,4.6-34.928s3.944-27.235,4.86-34.1c1.91-14.287,8.646-53.367,11.326-65.7,2.1-9.685,3.662-18.032,5.745-30.77,2.075-12.695,11.412-53.337,13.182-57.381,1.945-4.443,5.168-18.023,6.708-28.264,1.23-8.178,1.193-8.261-2.468-5.345" transform="translate(226.35 8.207)" fill="#fff"/>
    <path id="Path_350" data-name="Path 350" d="M1.574,14.867C.092,21.958-.438,27.757.394,27.757c1.778,0,5.513-10.725,6.844-18.432a16.24,16.24,0,0,0,.486-3.894c0-.142-.009-.249-.012-.383s.009-.258.009-.379c0-9.318-3.167-4.063-6.147,10.2" transform="translate(348.505 57.062)" fill="#fff"/>
    <path id="Path_351" data-name="Path 351" d="M2.03,7.994C4.928,7.144,5.475.075,2.648,0,1.672-.028.626,1.7.22,3.908c-.04.121-.082.24-.113.366A3.187,3.187,0,0,0,.024,5.459C-.115,7.666.513,8.439,2.03,7.994" transform="translate(356.414 44.851)" fill="#fff"/>
    <path id="Path_352" data-name="Path 352" d="M0,8.692c-.016,2.516.783,4.574,1.775,4.574,1.366,0,2.923-4.449,3.452-8.163A6.03,6.03,0,0,0,5.4,3.285C5.455,1.885,5.3.768,4.82.346,2.875-1.364.032,3.558,0,8.692" transform="translate(205.088 307.733)" fill="#fff"/>
    <path id="Path_353" data-name="Path 353" d="M1.687,11.566c2.141,0,4-4.2,3.922-8.868C5.55-.83,5.489-.837,2.774,2.32A11.733,11.733,0,0,0,0,8.558c0,1.655.759,3.008,1.687,3.008" transform="translate(218.287 269.514)" fill="#fff"/>
    <path id="Path_354" data-name="Path 354" d="M51.766,584.066c.461-3.43.819-6.663,1.048-9.341a2.844,2.844,0,0,0,.117-1.442c.236-3.2.249-5.336-.022-5.576-1.937-1.705-4.573,5.613-5.793,16.086-.693,5.946-2.47,16.8-3.951,24.117-.261,1.283-.5,2.5-.745,3.7a46.913,46.913,0,0,0-1.642,8.307c-3.26,16.815-4.46,25.31-5.31,36.222-.1,1.311-.227,2.662-.366,4.013-.341,2.584-.668,5.181-.969,7.727a59.9,59.9,0,0,1-1.41,7.231c-.94,3.117-1.258,6.308-.706,7.094a3.614,3.614,0,0,1,.231,1.647c-.318,2.553-.637,5.044-.947,7.4-.075.361-.145.721-.227,1.087a372.435,372.435,0,0,0-6.842,45.3c-1.315,16.861-2.57,29.115-3.665,35.76-.527,3.2-1.463,12.557-2.079,20.789-.174,2.352-.407,4.792-.669,7.159-.493,3.586-.986,7.075-1.469,10.411-.25,1.351-.495,2.463-.722,3.221a55.334,55.334,0,0,0-1.838,12.474c-.006.48-.035.987-.08,1.512-.34,2.049-.659,3.88-.95,5.438A23.1,23.1,0,0,1,11.1,839.1c-2.369,4.558-2.623,3.077-2.92-17.047-.179-12.121-.375-24.1-.436-26.611-.107-4.429,1.574-42.147,3.242-72.766.893-16.372,4.042-52.419,5.957-68.193.666-5.49,1.407-12.6,1.647-15.8,1.513-20.233,3.352-36.835,4.856-43.834.955-4.44,1.379-8.582.945-9.2s-.028-4.47.906-8.556,2.63-17.158,3.769-29.051c2.9-30.285,3.185-32.74,4.38-37.423,1.451-5.687,4.518-25.874,6.82-44.907a217.509,217.509,0,0,1,4.7-25.78,81.786,81.786,0,0,0,2.861-16.632A52.689,52.689,0,0,1,49.8,410.618a164.482,164.482,0,0,0,3.79-17.464c2.052-12.425,5.112-27.774,6.593-33.066.513-1.829,2.207-10.806,3.768-19.949s3.6-18.873,4.541-21.622a170.805,170.805,0,0,0,3.99-18.306c1.256-7.317,2.6-14.8,2.983-16.632.293-1.389,1.51-7.441,2.973-14.766.728-3.048,1.422-6.509,1.937-9.666,2-9.614,4.652-19.933,6.14-23.789,1.614-4.186,2.936-9.247,2.936-11.243s1.628-9.643,3.618-16.99c.236-.874.493-1.834.766-2.854a39.842,39.842,0,0,0,2.065-7.808c1.643-6.275,3.431-13.208,4.762-18.5,2.188-8.691,4.775-18.421,5.751-21.622s5.613-19.294,10.3-35.76c10.671-37.449,24.4-75.212,34.546-95.878.447-.807.889-1.582,1.316-2.3a35.268,35.268,0,0,0,2.409-4.787c.937-1.645,1.832-3.1,2.67-4.318.59-.858,1.119-1.712,1.614-2.556A8.032,8.032,0,0,0,160.5,8.48c1.606-3.237,2.3-5.956,1.6-6.958-2.289-3.26-5.94-1.224-9.946,5.545-2.3,3.889-6.7,10.812-9.763,15.385s-5.609,9.788-5.641,11.588-1.265,6.29-2.735,9.979S129.427,56.34,127.085,63.2a196.659,196.659,0,0,1-8.665,21.1c-2.422,4.743-4.4,9.639-4.4,10.876s-1.7,5.185-3.78,8.774-3.78,7.466-3.78,8.618-1.7,4.756-3.778,8.013c-4.793,7.511-4.778,9.766.054,8.654,3.474-.8,3.728-.308,2.709,5.211-2.071,11.216-5.327,22.711-6.888,24.307a8.264,8.264,0,0,0-1.519,4.991c.015,1.874-1.687,9.583-3.78,17.13-8.684,31.317-11.23,41.63-12.425,50.312-.026.191-.057.378-.085.567-.757,3.336-1.507,6.7-2.223,9.976a2.634,2.634,0,0,1-.136.268c-1.422,2-8.252,34.685-13.727,65.7-2.18,12.349-4.695,23.951-5.588,25.78S57.022,342.2,56.5,348.8s-1.738,13.333-2.709,14.97c-2.107,3.547-5.494,19.91-6.828,32.686-.715,3.973-1.39,8.19-1.99,12.461a3.8,3.8,0,0,1-.391.883c-.719,1.017-2.8,12.7-4.629,25.967s-4.616,30.48-6.2,38.254-3.683,20.124-4.665,27.444c-6.44,47.974-9.923,75.624-11.718,93.093-2.889,28.094-2.936,28.479-5.153,43.292-1.1,7.317-2.5,22.605-3.119,33.974s-1.929,21.987-2.908,23.6-1.77,8.774-1.76,15.921-.366,18.235-.836,24.639C2.548,750.247-.075,804.267,0,809.991c.35,26.142,2.592,53.782,4.529,55.839,1.971,2.089,2.689,2.119,5.363.025a7.646,7.646,0,0,0,3.03-3.6,13.716,13.716,0,0,0,1.567-3.711c.561-2.461,1.949-8.216,3.085-12.79,4.951-19.937,10.746-66.923,15.281-123.911,1.056-13.263,2.7-25.988,3.662-28.274s2.589-11.643,3.623-20.792,3.6-29.356,5.708-44.907,4.768-35.261,5.916-43.8" transform="translate(181.744 0)" fill="#fff"/>
    <path id="Path_355" data-name="Path 355" d="M1.889.2A4.341,4.341,0,0,0,0,3.725C0,5.1.849,5.757,1.889,5.192A4.34,4.34,0,0,0,3.778,1.669C3.778.3,2.929-.362,1.889.2" transform="translate(335.443 120.377)" fill="#fff"/>
    <path id="Path_356" data-name="Path 356" d="M1.889.2A4.341,4.341,0,0,0,0,3.725C0,5.1.849,5.758,1.889,5.192A4.34,4.34,0,0,0,3.778,1.669C3.778.3,2.929-.363,1.889.2" transform="translate(197.501 334.934)" fill="#fff"/>
    <path id="Path_357" data-name="Path 357" d="M2.007,55.138h0A58.884,58.884,0,0,0,.334,61.552a1.409,1.409,0,0,0-.268.781,3.065,3.065,0,0,0,.053.518c-.226,1.645-.136,2.593.334,2.455,1.359-.4,4.182-5.434,7.032-12.122a10.441,10.441,0,0,0,1.791-4.413c.794-2.058,1.564-4.2,2.28-6.358A53.43,53.43,0,0,1,16.382,31.6c3.137-4.456,7.692-16.754,9.24-24.949L26.88,0,23.037,6.387a162.22,162.22,0,0,0-8.789,18.992A168.284,168.284,0,0,1,7.339,41.211c-1.078,1.775-3.478,8.042-5.332,13.927" transform="translate(237.119 168.813)" fill="#fff"/>
    <path id="Path_358" data-name="Path 358" d="M1.891,0C.851,0,0,1.167,0,2.593S.851,4.724,1.891,4.159A3.55,3.55,0,0,0,3.78,1.566,1.755,1.755,0,0,0,1.891,0" transform="translate(233.402 239.5)" fill="#fff"/>
    <path id="Path_359" data-name="Path 359" d="M5.17,16.708c.2-4.458,1.059-9.077,1.914-10.265A5.378,5.378,0,0,0,7.5,1.681C6.611-.364,5.794-.5,3.682,1.041A6.73,6.73,0,0,0,1.036,5.8c.022,1.539-.318,6.73-.756,11.532s-.354,9.12.182,9.592C2.706,28.9,4.833,24.282,5.17,16.708" transform="translate(251.555 442.962)" fill="#fff"/>
    <path id="Path_360" data-name="Path 360" d="M1,3.966c.628-.553.694-1.988.149-3.189C.549-.549.1-.155.01,1.783-.072,3.537.374,4.518,1,3.966" transform="translate(261.886 414.713)" fill="#fff"/>
    <path id="Path_361" data-name="Path 361" d="M16.824,7.5c2.482-1.35,2.507-7.5.032-7.5-1.04,0-2,.561-2.131,1.248s-.565,2.744-.961,4.573C10.344,21.655,6.858,39.114,5.461,47.4c-.924,5.488-2.494,14.47-3.487,19.959A135.458,135.458,0,0,0,.009,83.577h0c-.088,3.431.624,6.237,1.58,6.237,2.132,0,4.1-7.484,4.963-18.88A149.426,149.426,0,0,1,9.182,53.46c3.747-16.837,7.635-42.188,6.679-43.551-.526-.75-.092-1.834.964-2.408" transform="translate(233.553 474.017)" fill="#fff"/>
    <path id="Path_362" data-name="Path 362" d="M.962,30.6a3.322,3.322,0,0,0,1.71-2.513c0-.87,1.615-4.756,3.589-8.633A78.4,78.4,0,0,0,10.771,9.074,54.93,54.93,0,0,1,13.2,2.42c1.35-2.967,1.167-3.079-1.7-1.029-2.933,2.1-6.377,7.926-8.72,14.125A12.008,12.008,0,0,0,.845,21.19c0,.2.007.385.019.571-.215.922-.4,1.83-.536,2.707-.615,4.04-.344,6.663.634,6.13" transform="translate(268.523 133.128)" fill="#fff"/>
    <path id="Path_363" data-name="Path 363" d="M1,3.965c.628-.553.694-1.988.149-3.188C.549-.55.1-.154.01,1.783h0C-.072,3.536.374,4.517,1,3.965" transform="translate(263.775 406.398)" fill="#fff"/>
    <path id="Path_364" data-name="Path 364" d="M44.359,397.556c-.955,0-2.268,1.872-2.92,4.158-2.412,8.455-4.535,3.82-3.472-7.576.745-7.973.369-12.505-1.17-14.137a8.588,8.588,0,0,1-.659-.786c-.089-.768-.17-1.73-.242-2.876a7.118,7.118,0,0,1,.917-1.164c1.256-1.333,1.688-3.27.961-4.306-1.514-2.156-1.454-83.424.1-130.488.573-17.381,2.368-42.366,3.992-55.524,1-8.1,1.59-13.877,1.8-18.04a23.535,23.535,0,0,0,.063-4.286c-.088-2.553-.451-4.131-1.081-5.167C39.377,152,41.619,90.441,46.369,54.929,49.6,30.785,57.673,9.4,63.252,8.657a7.179,7.179,0,0,1,3.115,2.7c2.547,6.218,4.443,23.613,4.581,43.574.083,12.349.313,23.951.508,25.78s-.362,10.184-1.236,18.565c-.971,9.31-.892,16.336.2,18.058,2.743,4.313,4.374-11.276,5.49-52.424.655-24.142.249-38.731-1.245-44.907C73.45,14.971,72.079,9.144,71.622,7.054,71.243,5.328,69.4,3.266,67.25,1.986A7.828,7.828,0,0,0,62.061,0c-1.994,0-4.118,1.679-6.237,4.7-.1.1-.186.193-.287.3-2.971,3.132-5.945,8.35-6.609,11.594a36.5,36.5,0,0,1-2.7,8.464q-6.937,11.885-13.37,143.8c-2.485,51-2.93,59.473-4.291,81.5-.551,8.919-1.059,17.711-1.523,26.315-.849,7.123-1.387,14.4-1.224,16.885.06.931.086,2.961.083,5.879-1.338,28.877-2.1,54.7-2.161,74.6-.059,18.882-.508,42.936-1,53.457s-1.374,29.606-1.962,42.413c-1.416,30.811-2.728,49.333-3.711,52.391-.439,1.372-1.713,11.851-2.829,23.286-3.711,38.036-8.9,71.162-12.617,80.528-2.837,7.148-1.86,12.612,2.255,12.612,3.567,0,6.257-4.83,8.51-15.282,3.457-16.046,5.174-11.978,4.459,10.568-1.208,38.127-2.623,55.087-4.789,57.382-1.541,1.634-1.47,2.876.262,4.714h0a8.408,8.408,0,0,0,1.06.937c0,.005.006.019.01.024h0a3.675,3.675,0,0,0,2.8,1.4,3.519,3.519,0,0,0,.857.134c1.8,0,3.154-.246,4.175-1.993.047-.047.1-.081.148-.129a1.786,1.786,0,0,0,.253-.678c2.47-5.777,2.744-23.283,3.093-75.844.193-29.224.7-55.292,1.494-77.442.587-14.961,1.28-28.542,2.057-40.428.843-11.774,1.82-21.227,2.919-28.023.961-5.946,2.626-17.174,3.7-24.949s2.45-16.757,3.059-19.959a108.024,108.024,0,0,0,1.432-10.81c.18-2.745,1.29-5.738,2.467-6.654,2.706-2.1,4.85-14.137,2.519-14.137" transform="translate(0.001 4.944)" fill="#fff"/>
    <rect id="Rectangle_36" data-name="Rectangle 36" width="513.087" height="867.412" transform="translate(0 0)" fill="none"/>
  </g>
</svg>
